<svg id="Layer_1" data-name="Layer 1" xmlns="http://www.w3.org/2000/svg" viewBox="0 0 359.97 359.95"><title>account-icon</title><path d="M780.65,300.76c-.54-100.71-81.14-180.82-182-179.9-99.79.9-178.67,82.28-178,181.14A179.88,179.88,0,0,0,606.17,480.72C702.18,477.9,780.06,400,780.65,300.76Z" transform="translate(-420.68 -120.85)" fill="#fff"/><path d="M780.65,300.76c-.59,99.19-78.47,177.14-174.48,180A179.88,179.88,0,0,1,420.69,302c-.67-98.86,78.21-180.24,178-181.14C699.51,119.94,780.11,200.05,780.65,300.76Zm-50.89,87.38c43.14-62.8,35.19-153.57-29.58-207.57C637.28,128.13,542.32,134.2,487,193.89c-56.68,61.22-50.62,145.53-15.08,194C507.7,352.75,550.56,334,600.77,334S693.85,352.76,729.76,388.14Z" transform="translate(-420.68 -120.85)" fill="#023c5a"/><path d="M672.75,241c0,39.4-32.43,71.8-71.85,71.76-39.66-.05-72.12-32.21-72.14-71.48a72,72,0,0,1,72.6-72.51C640.59,168.78,672.74,201.31,672.75,241Z" transform="translate(-420.68 -120.85)" fill="#023c5a"/></svg>