<?xml version="1.0" standalone="no"?>
<!DOCTYPE svg PUBLIC "-//W3C//DTD SVG 1.1//EN" "http://www.w3.org/Graphics/SVG/1.1/DTD/svg11.dtd" >
<svg xmlns="http://www.w3.org/2000/svg" xmlns:xlink="http://www.w3.org/1999/xlink" version="1.1">
<metadata>
Created by FontForge 20170731 at Mon Apr  9 14:47:58 2018
 By Aleksey,,,
(c) 2018 Natanael Gama
</metadata>
<defs>
<font id="Point-ExtraBold" horiz-adv-x="0" >
  <font-face 
    font-family="Point Extra Bold"
    font-weight="800"
    font-stretch="normal"
    units-per-em="2048"
    panose-1="0 0 9 0 0 0 0 0 0 0"
    ascent="1638"
    descent="-410"
    x-height="1016"
    cap-height="1372"
    bbox="-1630 -524 2505 1944"
    underline-thickness="0"
    underline-position="0"
    unicode-range="U+0020-FB02"
  />
<missing-glyph horiz-adv-x="1679" 
d="M104 1475h1473v-1475l-1475 2zM1413 164v1147h-1145v-1147h1145zM1249 1147v-819h-819v819h819zM1085 492v491h-491v-491h491zM922 819v-164h-164v164h164z" />
    <glyph glyph-name="uniFB01" unicode="fi" horiz-adv-x="1523" 
d="M1212 1130q-80 0 -137 56.5t-57 134.5t57.5 134t136.5 56q78 0 136.5 -57t58.5 -133q0 -78 -58.5 -134.5t-136.5 -56.5zM709 1225q-84 0 -131.5 -45t-47.5 -123v-41h312v-271h-312v-745h-342v745h-149v271h149v71q0 180 129 297t336 117q125 0 221 -39l-43 -268
q-67 31 -122 31zM1042 0v1016h340v-1016h-340z" />
    <glyph glyph-name="uniFB02" unicode="fl" horiz-adv-x="1523" 
d="M709 1225q-84 0 -131.5 -45t-47.5 -123v-41h312v-271h-312v-745h-342v745h-149v271h149v71q0 180 129 297t336 117q125 0 221 -39l-43 -268q-67 31 -122 31zM1042 1475h340v-1475h-340v1475z" />
    <glyph glyph-name=".notdef" horiz-adv-x="1679" 
d="M104 1475h1473v-1475l-1475 2zM1413 164v1147h-1145v-1147h1145zM1249 1147v-819h-819v819h819zM1085 492v491h-491v-491h491zM922 819v-164h-164v164h164z" />
    <glyph glyph-name=".null" 
 />
    <glyph glyph-name="nonmarkingreturn" horiz-adv-x="682" 
 />
    <glyph glyph-name="space" unicode=" " horiz-adv-x="456" 
 />
    <glyph glyph-name="exclam" unicode="!" horiz-adv-x="649" 
d="M154 528v844h342v-844h-342zM324 -27q-88 0 -151.5 61.5t-63.5 147.5t63.5 148.5t151.5 62.5t152.5 -62.5t64.5 -148.5t-64.5 -147.5t-152.5 -61.5z" />
    <glyph glyph-name="quotedbl" unicode="&#x22;" horiz-adv-x="935" 
d="M125 1372h287v-481h-287v481zM524 1372h287v-481h-287v481z" />
    <glyph glyph-name="numbersign" unicode="#" horiz-adv-x="1585" 
d="M1493 821h-223v-270h223v-270h-223v-281h-322v281h-309v-281h-324v281h-223v270h223v270h-223v269h223v282h324v-282h309v282h322v-282h223v-269zM948 551v270h-309v-270h309z" />
    <glyph glyph-name="dollar" unicode="$" horiz-adv-x="1304" 
d="M1204 391q0 -176 -131 -288.5t-350 -129.5v-157h-143v159q-209 20 -346.5 138t-143.5 309h361q8 -123 129 -160v295q-119 45 -194 81t-142.5 88t-98 120.5t-30.5 159.5q0 170 126 273t339 120v141h143v-143q199 -16 326 -123t135 -295h-355q-12 106 -106 139v-270
q129 -43 206 -78t146.5 -87t99 -123t29.5 -169zM469 1018q0 -74 111 -121v229q-111 -22 -111 -108zM723 256q125 27 125 115q0 80 -125 133v-248z" />
    <glyph glyph-name="percent" unicode="%" horiz-adv-x="1761" 
d="M412 676q-152 0 -257.5 106.5t-105.5 257.5q0 150 105.5 255.5t257.5 105.5q150 0 255 -105.5t105 -255.5q0 -152 -105 -258t-255 -106zM287 -2l870 1374h316l-873 -1374h-313zM412 928q45 0 77.5 32.5t32.5 79.5q0 45 -32.5 77t-77.5 32t-78 -32t-33 -77q0 -47 32 -79.5
t79 -32.5zM1352 -29q-152 0 -257.5 106.5t-105.5 258.5q0 150 105.5 255t257.5 105q150 0 255 -105.5t105 -254.5q0 -152 -105 -258.5t-255 -106.5zM1352 223q45 0 76.5 33t31.5 80q0 45 -31.5 76.5t-76.5 31.5q-47 0 -80 -31.5t-33 -76.5q0 -47 33 -80t80 -33z" />
    <glyph glyph-name="ampersand" unicode="&#x26;" horiz-adv-x="1353" 
d="M1423 0h-387l-73 68q-170 -96 -390 -97q-231 0 -371.5 104.5t-140.5 282.5q0 125 69 210t192 155q-121 168 -121 319q0 164 122.5 259.5t311.5 95.5q184 0 303 -93.5t119 -259.5q0 -141 -82 -228t-225 -159q66 -68 135 -135l84 -84q63 96 63 211h277q0 -215 -142 -403
q170 -160 256 -246zM498 1032q0 -66 88 -182q172 90 172 188q0 57 -38 91t-93.5 34t-92 -37t-36.5 -94zM586 236q90 0 166 30l-82 82q-90 86 -185 182q-106 -70 -106 -153q0 -66 54.5 -103.5t152.5 -37.5z" />
    <glyph glyph-name="quotesingle" unicode="'" horiz-adv-x="501" 
d="M125 1372h287v-481h-287v481z" />
    <glyph glyph-name="parenleft" unicode="(" horiz-adv-x="829" 
d="M795 1153q-156 -76 -251 -247t-95 -384q0 -211 96 -384t250 -247v-342q-301 98 -493.5 373t-192.5 600q0 332 191.5 601.5t494.5 371.5v-342z" />
    <glyph glyph-name="parenright" unicode=")" horiz-adv-x="829" 
d="M35 1153v342q303 -102 494.5 -371.5t191.5 -601.5q0 -326 -192.5 -600t-493.5 -373v342q154 74 250 247t96 384q0 213 -95 384t-251 247z" />
    <glyph glyph-name="asterisk" unicode="*" horiz-adv-x="954" 
d="M379 686v223l-193 -110l-98 170l191 112l-191 111l98 172l193 -113v224h199v-224l190 113l100 -172l-192 -111l192 -112l-100 -170l-190 110v-223h-199z" />
    <glyph glyph-name="plus" unicode="+" horiz-adv-x="1026" 
d="M936 825v-288h-281v-279h-286v279h-279v288h279v279h286v-279h281z" />
    <glyph glyph-name="comma" unicode="," horiz-adv-x="544" 
d="M158 285h340l-174 -629h-234z" />
    <glyph glyph-name="hyphen" unicode="-" horiz-adv-x="806" 
d="M717 649v-287h-627v287h627z" />
    <glyph glyph-name="period" unicode="." horiz-adv-x="600" 
d="M299 -27q-88 0 -151.5 61.5t-63.5 147.5t63.5 148.5t151.5 62.5t152.5 -62.5t64.5 -148.5t-64.5 -147.5t-152.5 -61.5z" />
    <glyph glyph-name="slash" unicode="/" horiz-adv-x="915" 
d="M504 1475h358l-545 -1926h-358z" />
    <glyph glyph-name="zero" unicode="0" horiz-adv-x="1302" 
d="M653 -27q-225 0 -382.5 158t-157.5 381v350q0 223 157.5 380t382.5 157q223 0 380 -157t157 -380v-350q0 -223 -157 -381t-380 -158zM653 281q76 0 131.5 57t55.5 154v389q0 94 -54.5 152.5t-132.5 58.5q-80 0 -135 -58.5t-55 -152.5v-389q0 -96 55 -153.5t135 -57.5z
" />
    <glyph glyph-name="one" unicode="1" horiz-adv-x="901" 
d="M348 0v981l-272 -80v297l448 174h174v-1372h-350z" />
    <glyph glyph-name="two" unicode="2" horiz-adv-x="1226" 
d="M113 0v180l516 580q41 43 64.5 71.5t44 71.5t20.5 82q0 63 -44 104t-108 41q-70 0 -116 -49t-46 -131h-340q0 209 141.5 329t362.5 120q213 0 352.5 -111.5t139.5 -290.5q0 -109 -47 -192.5t-127 -171.5l-297 -336h501v-297h-1017z" />
    <glyph glyph-name="three" unicode="3" horiz-adv-x="1206" 
d="M593.5 -27q-235.5 0 -374.5 124t-139 329h342q0 -78 49 -131t127 -53q82 0 132 51t50 123q0 78 -53 127t-139 49h-166v250h166q61 0 105 43t44 102q0 63 -42 104.5t-107 41.5q-61 0 -103.5 -40t-42.5 -98h-340q0 178 143.5 291t352.5 113q203 0 340 -100.5t137 -260.5
q0 -100 -54 -184t-153 -129q119 -41 185.5 -130t66.5 -210q0 -180 -145.5 -296t-381 -116z" />
    <glyph glyph-name="four" unicode="4" horiz-adv-x="1236" 
d="M1176 586v-260h-150v-326h-324v326h-653v235l758 811h219v-786h150zM395 578h316v354z" />
    <glyph glyph-name="five" unicode="5" horiz-adv-x="1210" 
d="M604 -27q-219 0 -372.5 123t-153.5 303l348 23q10 -70 61.5 -111t122.5 -41q70 0 121 53.5t51 120.5q0 76 -50 129.5t-122 53.5q-96 0 -155 -74l-308 127l113 692h754v-285h-488l-32 -221q66 49 174 49q195 0 332 -138t137 -335q0 -195 -156 -332t-377 -137z" />
    <glyph glyph-name="six" unicode="6" horiz-adv-x="1210" 
d="M612 -29q-217 0 -370.5 145.5t-153.5 342.5q0 154 90 317l332 596h369l-267 -479q45 10 82 10q184 0 316.5 -133t132.5 -313q0 -197 -157 -341.5t-374 -144.5zM614.5 279q77.5 0 132 55t54.5 131t-54.5 131t-132.5 55q-76 0 -131 -55t-55 -131q0 -78 54.5 -132t132 -54z
" />
    <glyph glyph-name="seven" unicode="7" horiz-adv-x="1048" 
d="M223 0l385 1067h-536v305h923v-180l-420 -1192h-352z" />
    <glyph glyph-name="eight" unicode="8" horiz-adv-x="1222" 
d="M614 -27q-213 0 -362.5 127t-149.5 316q2 117 60.5 213t167.5 143q-162 94 -156 277q6 145 131 247.5t309.5 102.5t309.5 -103.5t125 -259.5q0 -172 -154 -264q111 -47 168 -143.5t57 -214.5q0 -184 -147.5 -312.5t-358.5 -128.5zM612.5 879q53.5 0 88 35.5t34.5 89.5
q0 51 -35.5 85.5t-87.5 34.5q-53 0 -89 -34.5t-36 -85.5q0 -53 36 -89t89.5 -36zM612 276q70 0 118 49.5t48 118.5q0 68 -48 115t-117.5 47t-119 -47t-49.5 -115q-2 -70 47 -119t121 -49z" />
    <glyph glyph-name="nine" unicode="9" horiz-adv-x="1206" 
d="M600 1401q217 0 369.5 -144.5t152.5 -338.5q0 -152 -90 -316l-330 -602h-368l268 489q-31 -10 -84 -10q-182 0 -313 130t-131 309q0 197 155.5 340t370.5 143zM598 1096q-76 0 -130 -54.5t-54 -130t54 -128t130 -52.5t130 52.5t54 128t-54 130t-130 54.5z" />
    <glyph glyph-name="colon" unicode=":" horiz-adv-x="600" 
d="M299 627q-88 0 -151.5 61.5t-63.5 147.5t63.5 148.5t151.5 62.5t152.5 -62.5t64.5 -148.5t-64.5 -147.5t-152.5 -61.5zM299 -27q-88 0 -151.5 61.5t-63.5 147.5t63.5 148.5t151.5 62.5t152.5 -62.5t64.5 -148.5t-64.5 -147.5t-152.5 -61.5z" />
    <glyph glyph-name="semicolon" unicode=";" horiz-adv-x="600" 
d="M299 627q-88 0 -151.5 61.5t-63.5 147.5t63.5 148.5t151.5 62.5t152.5 -62.5t64.5 -148.5t-64.5 -147.5t-152.5 -61.5zM162 285h340l-174 -629h-234z" />
    <glyph glyph-name="less" unicode="&#x3c;" horiz-adv-x="972" 
d="M864 1149v-307l-440 -154l440 -153v-308l-790 320v282z" />
    <glyph glyph-name="equal" unicode="=" horiz-adv-x="1095" 
d="M971 1030v-289h-846v289h846zM971 621v-289h-846v289h846z" />
    <glyph glyph-name="greater" unicode="&#x3e;" horiz-adv-x="972" 
d="M109 1149l790 -320v-282l-790 -320v308l440 153l-440 154v307z" />
    <glyph glyph-name="question" unicode="?" horiz-adv-x="1028" 
d="M336 463v57q0 82 30.5 142.5t74.5 95.5t88 64.5t75 73.5t31 101q0 51 -36 85t-87 34q-133 0 -133 -164h-338q0 190 135 315.5t330 125.5q193 0 331 -118t138 -284q0 -78 -31 -141.5t-76 -104t-89 -76.5t-74.5 -77t-30.5 -88v-41h-338zM506 -27q-80 0 -138.5 56.5
t-58.5 136.5q0 78 58.5 135t138.5 57t139.5 -57t59.5 -135q0 -80 -59.5 -136.5t-139.5 -56.5z" />
    <glyph glyph-name="at" unicode="@" horiz-adv-x="2007" 
d="M987 -444q-244 0 -457 118.5t-341 327.5t-128 457q0 375 277.5 635t697.5 260q211 0 387 -73t288 -193.5t173.5 -271t61.5 -310.5q0 -227 -115 -353t-287 -126q-219 0 -299 188h-4q-31 -92 -114 -138t-175 -46q-158 0 -284.5 118.5t-126.5 303t127 303t282 118.5
q72 0 140.5 -25.5t97.5 -68.5h2l14 74h242v-440q0 -63 27.5 -103.5t78.5 -40.5q104 0 105 199q0 287 -165 450.5t-450 163.5q-309 0 -500.5 -181t-191.5 -443q0 -268 191.5 -450.5t453.5 -182.5q168 0 297 90l146 -217q-195 -143 -451 -143zM999 287q70 0 118 48t48 117.5
t-48 117.5t-118 48q-68 0 -116.5 -49t-48.5 -116.5t48.5 -116.5t116.5 -49z" />
    <glyph glyph-name="A" unicode="A" horiz-adv-x="1509" 
d="M1153 0l-104 221h-588l-105 -221h-370l696 1380h145l697 -1380h-371zM580 473h350l-176 371z" />
    <glyph glyph-name="B" unicode="B" horiz-adv-x="1308" 
d="M154 0v1372h628q162 0 277 -101.5t115 -250.5q0 -86 -44.5 -162t-125.5 -119q109 -41 173 -133t64 -213q0 -174 -127 -283.5t-330 -109.5h-630zM496 840h200q59 0 100.5 41t41.5 96q0 57 -42 95t-104 38h-196v-270zM496 262h233q72 0 122 48t50 116q0 72 -50 121t-124 49
h-231v-334z" />
    <glyph glyph-name="C" unicode="C" horiz-adv-x="1628" 
d="M1556 526q-57 -240 -260.5 -396.5t-468.5 -156.5q-309 0 -529 209t-220 504t220 504t529 209q264 0 468 -157t261 -396h-370q-47 104 -143.5 168.5t-215.5 64.5q-164 0 -278.5 -115.5t-114.5 -277.5t115 -277.5t278 -115.5q119 0 216.5 64.5t142.5 168.5h370z" />
    <glyph glyph-name="D" unicode="D" horiz-adv-x="1615" 
d="M154 0v1372h655q301 0 515 -201.5t214 -484.5t-214 -485.5t-515 -200.5h-655zM510 322h299q154 0 263.5 107.5t109.5 257t-109.5 256t-263.5 106.5h-299v-727z" />
    <glyph glyph-name="E" unicode="E" horiz-adv-x="1288" 
d="M510 297h661v-297h-1017v1372h997v-297h-641v-241h620v-281h-620v-256z" />
    <glyph glyph-name="F" unicode="F" horiz-adv-x="1253" 
d="M1151 1075h-641v-278h604v-281h-604v-516h-356v1372h997v-297z" />
    <glyph glyph-name="G" unicode="G" horiz-adv-x="1650" 
d="M1569 795q8 -70 8 -117q-2 -289 -220 -498t-530 -209q-309 0 -529 210t-220 505q0 291 219 503t534 212q213 0 391.5 -102.5t274.5 -272.5l-330 -119q-53 82 -143 130t-193 48q-166 0 -281.5 -115.5t-115.5 -279.5t121 -280.5t291 -116.5q127 0 230.5 69.5t150.5 182.5
h-479v250h821z" />
    <glyph glyph-name="H" unicode="H" horiz-adv-x="1591" 
d="M1081 1372h357v-1372h-357v543h-571v-543h-356v1372h356v-530h571v530z" />
    <glyph glyph-name="I" unicode="I" horiz-adv-x="665" 
d="M154 0v1372h356v-1372h-356z" />
    <glyph glyph-name="J" unicode="J" horiz-adv-x="1247" 
d="M1114 1372v-909q0 -201 -148.5 -345.5t-357.5 -144.5q-213 0 -374.5 145.5t-161.5 344.5v67h356v-67q0 -70 49 -120t115 -50q68 0 117 50t49 120v612h-496v297h852z" />
    <glyph glyph-name="K" unicode="K" horiz-adv-x="1425" 
d="M154 0v1372h356v-594h6l465 594h434l-541 -674l566 -698h-439l-485 614h-6v-614h-356z" />
    <glyph glyph-name="L" unicode="L" horiz-adv-x="1177" 
d="M510 297h604v-297h-960v1372h356v-1075z" />
    <glyph glyph-name="M" unicode="M" horiz-adv-x="1892" 
d="M154 0v1372h186l606 -702l604 702h189v-1372h-340v729l-395 -467h-115l-395 467v-729h-340z" />
    <glyph glyph-name="N" unicode="N" horiz-adv-x="1613" 
d="M1116 1372h344v-1380h-178l-784 807v-799h-344v1380h178l784 -805v797z" />
    <glyph glyph-name="O" unicode="O" horiz-adv-x="1654" 
d="M827.5 -27q-309.5 0 -529.5 209t-220 504t220 504t529.5 209t529.5 -209t220 -504t-220 -504t-529.5 -209zM827.5 293q163.5 0 278.5 115.5t115 277.5t-115 277.5t-278.5 115.5t-278.5 -115.5t-115 -277.5t115 -277.5t278.5 -115.5z" />
    <glyph glyph-name="P" unicode="P" horiz-adv-x="1359" 
d="M807 424h-311v-424h-342v1372h657q199 0 335 -133t136 -340q0 -213 -135 -344t-340 -131zM496 1094v-392h231q92 0 153.5 55.5t61.5 141.5q0 84 -61.5 139.5t-151.5 55.5h-233z" />
    <glyph glyph-name="Q" unicode="Q" horiz-adv-x="1654" 
d="M1577 686q0 -270 -188 -471l170 -190l-205 -183l-187 209q-162 -78 -340 -78q-309 0 -529 209t-220 504t220 504t529.5 209t529.5 -209t220 -504zM827 293q47 0 109 14l-174 195l207 178l188 -209q63 94 64 215q0 162 -115 277.5t-278.5 115.5t-278.5 -115.5t-115 -277.5
t114.5 -277.5t278.5 -115.5z" />
    <glyph glyph-name="R" unicode="R" horiz-adv-x="1419" 
d="M1382 0h-387l-305 461h-194v-461h-342v1372h692q193 0 326 -130t133 -331q0 -147 -74 -255.5t-199 -159.5zM496 1094v-367h264q88 0 146.5 52t58.5 132q0 78 -58.5 130.5t-142.5 52.5h-268z" />
    <glyph glyph-name="S" unicode="S" horiz-adv-x="1290" 
d="M662 -29q-238 0 -402 121t-170 330h361q6 -88 69.5 -130t143.5 -42q74 0 129 31.5t55 89.5q0 43 -37 77.5t-80 52t-135 50.5q-125 45 -202 82t-146.5 90t-101 121.5t-31.5 161.5q0 184 145.5 289.5t386.5 105.5q227 0 378 -107.5t159 -314.5h-355q-8 74 -59 114t-127 40
q-70 0 -122 -28t-52 -87q0 -41 35 -73t65.5 -44t116.5 -41q23 -8 35 -12q129 -43 207 -78t147.5 -87t99 -123t29.5 -169q0 -190 -149 -305t-393 -115z" />
    <glyph glyph-name="T" unicode="T" horiz-adv-x="1269" 
d="M1229 1372v-297h-416v-1075h-356v1075h-416v297h1188z" />
    <glyph glyph-name="U" unicode="U" horiz-adv-x="1568" 
d="M786 -27q-266 0 -454.5 178.5t-188.5 428.5v792h357v-792q0 -119 84 -203t202.5 -84t200.5 84t82 203v792h356v-792q0 -250 -187.5 -428.5t-451.5 -178.5z" />
    <glyph glyph-name="V" unicode="V" horiz-adv-x="1488" 
d="M-4 1372h371l376 -817l379 817h371l-676 -1380h-145z" />
    <glyph glyph-name="W" unicode="W" horiz-adv-x="2203" 
d="M616 0l-575 1372h369l305 -731l317 731h139l318 -731l305 731h369l-576 -1372h-139l-346 817l-348 -817h-138z" />
    <glyph glyph-name="X" unicode="X" horiz-adv-x="1501" 
d="M31 0l524 702l-502 670h418l279 -397l278 397h420l-502 -670l524 -702h-419l-301 428l-301 -428h-418z" />
    <glyph glyph-name="Y" unicode="Y" horiz-adv-x="1470" 
d="M1483 1372l-568 -909v-463h-358v463l-569 909h405l342 -577l342 577h406z" />
    <glyph glyph-name="Z" unicode="Z" horiz-adv-x="1314" 
d="M106 0v131l621 944h-610v297h1091v-131l-610 -944h631v-297h-1123z" />
    <glyph glyph-name="bracketleft" unicode="[" horiz-adv-x="806" 
d="M801 1188h-305v-1352h305v-287h-647v1926h647v-287z" />
    <glyph glyph-name="backslash" unicode="\" horiz-adv-x="915" 
d="M414 1475l544 -1926h-358l-545 1926h359z" />
    <glyph glyph-name="bracketright" unicode="]" horiz-adv-x="806" 
d="M653 1475v-1926h-647v287h305v1352h-305v287h647z" />
    <glyph glyph-name="asciicircum" unicode="^" horiz-adv-x="1114" 
d="M1038 514h-305l-176 225l-176 -225h-305l334 426h295z" />
    <glyph glyph-name="underscore" unicode="_" horiz-adv-x="1173" 
d="M-2 0h1178v-305h-1178v305z" />
    <glyph glyph-name="grave" unicode="`" horiz-adv-x="1228" 
d="M375 1143l-264 362h307l264 -362h-307z" />
    <glyph glyph-name="a" unicode="a" horiz-adv-x="1368" 
d="M588 -27q-199 0 -359.5 151.5t-160.5 383.5q0 233 160.5 384.5t359.5 151.5q98 0 190 -41.5t131 -111.5h4l15 125h301v-1016h-301l-15 125h-4q-39 -74 -132 -113t-189 -39zM647 270q98 0 168 70t70 168t-70 167.5t-168 69.5t-167.5 -69.5t-69.5 -167.5t69.5 -168
t167.5 -70z" />
    <glyph glyph-name="b" unicode="b" horiz-adv-x="1366" 
d="M481 1475v-584h6q39 68 124 110.5t180 42.5q199 0 353 -150.5t154 -383.5q0 -236 -155.5 -386.5t-358.5 -150.5q-98 0 -192 39t-131 113h-6l-15 -125h-299v1475h340zM719 270q98 0 167.5 70t69.5 168t-69.5 167.5t-167.5 69.5t-168 -69.5t-70 -167.5t70 -168t168 -70z
" />
    <glyph glyph-name="c" unicode="c" horiz-adv-x="1265" 
d="M1204 410q-25 -186 -183.5 -311.5t-369.5 -125.5q-240 0 -411.5 157t-171.5 378t172 378.5t411 157.5q211 0 369 -126.5t184 -307.5h-346q-23 61 -81 99.5t-132 38.5q-98 0 -166.5 -71t-68.5 -169q0 -96 68.5 -166t166.5 -70q154 0 213 138h346z" />
    <glyph glyph-name="d" unicode="d" horiz-adv-x="1366" 
d="M885 1475h340v-1475h-299l-15 125h-6q-37 -74 -131 -113t-192 -39q-203 0 -358.5 150.5t-155.5 386.5q0 233 154.5 383.5t352.5 150.5q94 0 179.5 -43t124.5 -110h6v584zM647 270q98 0 168 70t70 168t-70 167.5t-168 69.5t-167.5 -69.5t-69.5 -167.5t69.5 -168t167.5 -70
z" />
    <glyph glyph-name="e" unicode="e" horiz-adv-x="1271" 
d="M653 238q160 0 209 98l316 -47q-51 -137 -199 -227.5t-330 -90.5q-240 0 -410.5 152.5t-170.5 380.5q0 225 166.5 382.5t410.5 157.5q258 0 413.5 -179t155.5 -449h-811q51 -178 250 -178zM645 782q-190 0 -242 -166h474q-48 166 -232 166z" />
    <glyph glyph-name="f" unicode="f" horiz-adv-x="901" 
d="M530 1057v-41h312v-271h-312v-745h-342v745h-149v271h149v71q0 180 129 297t336 117q125 0 221 -39l-43 -268q-68 31 -122 31q-84 0 -131.5 -45t-47.5 -123z" />
    <glyph glyph-name="g" unicode="g" horiz-adv-x="1386" 
d="M678 -471q-219 0 -373.5 104.5t-206.5 309.5h363q59 -135 217 -136q104 0 174 62.5t70 177.5v150l-4 2q-37 -70 -130.5 -113t-199.5 -43q-193 0 -345.5 135t-152.5 357q0 215 159 362t355 147q98 0 191.5 -39.5t130.5 -113.5h6l14 125h299v-934q0 -270 -158.5 -411.5
t-408.5 -141.5zM686 317q90 0 156.5 64.5t66.5 155t-66.5 156t-156.5 65.5q-94 0 -161.5 -65.5t-67.5 -157.5q0 -88 67.5 -153t161.5 -65z" />
    <glyph glyph-name="h" unicode="h" horiz-adv-x="1345" 
d="M141 0v1475h340v-586h6q43 74 121 114.5t166 40.5q203 0 326 -136t123 -343v-565h-342v532q0 86 -58.5 146.5t-142.5 60.5q-82 0 -140.5 -61.5t-58.5 -149.5v-528h-340z" />
    <glyph glyph-name="i" unicode="i" horiz-adv-x="622" 
d="M311 1130q-80 0 -137 56.5t-57 134.5t57 134t137 56q78 0 136.5 -57t58.5 -133q0 -78 -58.5 -134.5t-136.5 -56.5zM141 0v1016h340v-1016h-340z" />
    <glyph glyph-name="j" unicode="j" horiz-adv-x="632" 
d="M324 1130q-80 0 -137.5 56.5t-57.5 134.5t57.5 134t137.5 56q78 0 136 -57t58 -133q0 -78 -58 -134.5t-136 -56.5zM84 -471q-72 0 -127 22v271q55 -14 94 -15q47 0 74 30t27 79v1100h340v-1082q0 -178 -112 -291.5t-296 -113.5z" />
    <glyph glyph-name="k" unicode="k" horiz-adv-x="1245" 
d="M141 0v1475h340v-840h6l328 381h420l-418 -467l436 -549h-428l-338 463h-6v-463h-340z" />
    <glyph glyph-name="l" unicode="l" horiz-adv-x="622" 
d="M141 0v1475h340v-1475h-340z" />
    <glyph glyph-name="m" unicode="m" horiz-adv-x="1957" 
d="M1376 1044q207 0 333 -134t126 -339v-571h-342v555q0 78 -49 131t-119 53q-68 0 -118 -55t-50 -131v-553h-340v555q0 78 -49 131t-118.5 53t-119 -55t-49.5 -131v-553h-340v1016h299l21 -121h4q47 72 122 110.5t154 38.5q193 0 310 -143q118 143 325 143z" />
    <glyph glyph-name="n" unicode="n" horiz-adv-x="1343" 
d="M141 0v1016h299l21 -127h4q49 74 132 114.5t177 40.5q203 0 325 -136t122 -343v-565h-340v532q0 86 -58.5 146.5t-142.5 60.5q-82 0 -140.5 -61.5t-58.5 -149.5v-528h-340z" />
    <glyph glyph-name="o" unicode="o" horiz-adv-x="1294" 
d="M647.5 -27q-237.5 0 -408.5 157t-171 378t171 378.5t408.5 157.5t408.5 -157.5t171 -378.5t-171 -378t-408.5 -157zM647 270q96 0 168 71t72 167t-72 166.5t-168 70.5t-166.5 -70.5t-70.5 -166.5t70.5 -167t166.5 -71z" />
    <glyph glyph-name="p" unicode="p" horiz-adv-x="1368" 
d="M141 -451v1467h299l15 -125h6q37 74 130 113.5t189 39.5q201 0 359.5 -151.5t158.5 -386.5q0 -231 -154.5 -382t-348.5 -151q-98 0 -185.5 42t-122.5 110h-6v-576h-340zM719 270q96 0 167.5 71t71.5 167t-71.5 166.5t-167.5 70.5t-167 -70.5t-71 -166.5t71 -167t167 -71z
" />
    <glyph glyph-name="q" unicode="q" horiz-adv-x="1368" 
d="M1227 -451h-340v576h-6q-35 -68 -122 -110t-186 -42q-195 0 -349 150.5t-154 382.5q0 236 158.5 387t359.5 151q96 0 189 -39.5t130 -113.5h6l15 125h299v-1467zM649 270q96 0 167 71t71 167t-71 166.5t-167 70.5t-167.5 -70.5t-71.5 -166.5t71.5 -167t167.5 -71z" />
    <glyph glyph-name="r" unicode="r" horiz-adv-x="851" 
d="M141 0v1016h299l21 -197h4q45 109 137 161t201 54v-303q-158 0 -240 -82t-82 -225v-424h-340z" />
    <glyph glyph-name="s" unicode="s" horiz-adv-x="1138" 
d="M594 -29q-233 0 -374.5 89.5t-143.5 252.5h362q2 -53 43 -77.5t99 -24.5q53 0 90 22.5t37 57.5q0 45 -47.5 67.5t-192.5 55.5q-369 86 -369 319q0 143 129 227t334 84q215 0 349 -87t137 -244h-351q-2 53 -38.5 79.5t-88.5 26.5q-47 0 -81.5 -20.5t-34.5 -57.5
q0 -49 56 -73.5t189 -49.5q379 -74 379 -309q0 -156 -132 -247t-351 -91z" />
    <glyph glyph-name="t" unicode="t" horiz-adv-x="903" 
d="M842 748h-314v-326q0 -78 45 -123t123 -45q45 0 146 31v-273q-63 -41 -201 -41q-203 0 -328 119t-125 301v357h-168v268h168v250h340v-250h314v-268z" />
    <glyph glyph-name="u" unicode="u" horiz-adv-x="1316" 
d="M1176 1016v-1016h-299l-19 127h-6q-47 -74 -126 -114t-169 -40q-195 0 -314.5 135.5t-119.5 342.5v565h342v-535q0 -88 54 -146.5t130 -58.5q78 0 132.5 58.5t54.5 148.5v533h340z" />
    <glyph glyph-name="v" unicode="v" horiz-adv-x="1169" 
d="M512 0l-522 1016h368l226 -498l227 498h369l-523 -1016h-145z" />
    <glyph glyph-name="w" unicode="w" horiz-adv-x="1789" 
d="M487 0l-493 1016h371l223 -481l237 481h140l237 -481l223 481h369l-494 -1016h-137l-268 537l-268 -537h-140z" />
    <glyph glyph-name="x" unicode="x" horiz-adv-x="1185" 
d="M1182 0h-385l-203 276l-205 -276h-385l397 514l-387 502h385l195 -264l194 264h386l-388 -502z" />
    <glyph glyph-name="y" unicode="y" horiz-adv-x="1181" 
d="M72 -451l350 652l-422 815h369l227 -488l227 488h369l-760 -1467h-360z" />
    <glyph glyph-name="z" unicode="z" horiz-adv-x="1142" 
d="M88 0v131l483 602h-460v283h933v-131l-473 -602h494v-283h-977z" />
    <glyph glyph-name="braceleft" unicode="{" horiz-adv-x="831" 
d="M637 -469q-172 0 -296 119t-124 284v340q0 39 -26.5 68t-61.5 29h-61v284h61q35 0 61.5 30t26.5 69v336q0 166 124 284.5t296 118.5h170v-305h-117q-47 0 -82 -36t-35 -85v-340q0 -72 -39.5 -133.5t-119.5 -79.5q82 -27 120.5 -87t38.5 -128v-342q0 -49 35 -85t82 -36
h117v-305h-170z" />
    <glyph glyph-name="bar" unicode="|" horiz-adv-x="649" 
d="M154 1475h342v-1926h-342v1926z" />
    <glyph glyph-name="braceright" unicode="}" horiz-adv-x="831" 
d="M195 -469h-170v305h116q47 0 82 36t35 85v342q0 68 39 128t121 87q-80 18 -120 79.5t-40 133.5v340q0 49 -35 85t-82 36h-116v305h170q172 0 295.5 -119t123.5 -284v-336q0 -39 27 -69t61 -30h62v-284h-62q-35 0 -61.5 -29t-26.5 -68v-340q0 -166 -123.5 -284.5
t-295.5 -118.5z" />
    <glyph glyph-name="asciitilde" unicode="~" horiz-adv-x="1064" 
d="M766 872h190q0 -172 -67.5 -263t-173.5 -91q-68 0 -181.5 64.5t-148.5 64.5q-37 0 -60.5 -29.5t-25.5 -82.5h-190q0 176 73.5 267t188.5 91q80 0 182 -65.5t137 -65.5q74 -1 76 110z" />
    <glyph glyph-name="exclamdown" unicode="&#xa1;" horiz-adv-x="649" 
d="M324 1047q88 0 152.5 -61.5t64.5 -147.5t-64.5 -148.5t-152.5 -62.5t-151.5 62.5t-63.5 148.5t63.5 147.5t151.5 61.5zM154 492h342v-844h-342v844z" />
    <glyph glyph-name="cent" unicode="&#xa2;" horiz-adv-x="1251" 
d="M717 283q100 29 141 127h346q-23 -170 -160 -291t-327 -142v-172h-144v172q-213 27 -359 178.5t-146 352.5t146 352.5t359 179.5v152h144v-152q190 -20 326.5 -142t160.5 -288h-346q-37 94 -141 127v-454zM410 508q0 -76 46 -138.5t117 -86.5v452q-72 -23 -117.5 -86
t-45.5 -141z" />
    <glyph glyph-name="sterling" unicode="&#xa3;" horiz-adv-x="1320" 
d="M571 297h705v-297h-1208v297h161v229h-127v262h127v164q0 190 139.5 318.5t362.5 128.5q207 0 354.5 -130t147.5 -317h-340q0 66 -48 113t-114 47q-72 0 -116 -46t-44 -114v-164h404v-262h-404v-229z" />
    <glyph glyph-name="currency" unicode="&#xa4;" horiz-adv-x="1220" 
d="M1147 334l-215 -191l-98 109q-102 -53 -226 -53q-113 0 -221 49l-102 -107l-209 197l98 102q-74 121 -74 267q0 135 70 258l-94 104l211 193l94 -103q102 53 227 53q119 0 230 -55l96 107l211 -193l-98 -110q68 -117 67 -254q0 -135 -70 -258zM367 707q0 -100 70.5 -170
t170.5 -70q98 0 168 69.5t70 170.5q0 98 -69.5 168.5t-168.5 70.5q-100 0 -170.5 -70.5t-70.5 -168.5z" />
    <glyph glyph-name="yen" unicode="&#xa5;" horiz-adv-x="1470" 
d="M1483 1372l-363 -581h207v-263h-371l-41 -65v-35h412v-262h-412v-166h-358v166h-414v262h414v35l-41 65h-373v263h209l-364 581h405l342 -577l342 577h406z" />
    <glyph glyph-name="brokenbar" unicode="&#xa6;" horiz-adv-x="649" 
d="M154 1475h342v-795h-342v795zM154 344h342v-795h-342v795z" />
    <glyph glyph-name="section" unicode="&#xa7;" horiz-adv-x="1140" 
d="M1010 473q70 -63 69 -164q0 -156 -133 -246t-354 -90q-236 0 -377 88.5t-143 249.5h362q2 -53 45 -79.5t98.5 -26.5t93.5 24.5t38 61.5q0 47 -49.5 71.5t-194.5 55.5q-76 16 -133.5 37.5t-115.5 57.5t-91 92.5t-33 129.5q0 102 74 180q-74 68 -74 175q0 143 131 226
t338 83q217 0 350 -86t138 -244h-353q-2 57 -40 85t-89 28q-49 0 -83.5 -21.5t-34.5 -60.5q0 -51 56 -77t193 -52q381 -70 381 -305q1 -111 -69 -193zM412 743q0 -98 286 -145q4 0 10.5 -2t8.5 -2q27 23 26 51q0 51 -59 84t-219 64l-23 6q-30 -25 -30 -56z" />
    <glyph glyph-name="dieresis" unicode="&#xa8;" horiz-adv-x="1228" 
d="M313.5 1145q-71.5 0 -124 52t-52.5 124t52.5 123t124 51t125 -52t53.5 -122q0 -72 -53.5 -124t-125 -52zM760 1145q-74 0 -126 52t-52 124t52 123t126 51q72 0 124 -52t52 -122q0 -72 -52 -124t-124 -52z" />
    <glyph glyph-name="copyright" unicode="&#xa9;" horiz-adv-x="1601" 
d="M801 -29q-297 0 -505 209t-208 506t208 506t505 209t504.5 -209t207.5 -506t-207.5 -506t-504.5 -209zM801 178q211 0 359.5 148.5t148.5 359.5t-148.5 359.5t-359.5 148.5t-359.5 -148.5t-148.5 -359.5t148.5 -359.5t359.5 -148.5zM807 301q-166 0 -283.5 111.5
t-117.5 267.5q0 158 117.5 269.5t283.5 111.5q145 0 253.5 -88t127.5 -217h-234q-16 45 -58 73.5t-93 28.5q-70 0 -119 -53t-49 -125q0 -70 50 -122t118 -52q106 0 151 100h234q-16 -131 -126 -218t-255 -87z" />
    <glyph glyph-name="ordfeminine" unicode="&#xaa;" horiz-adv-x="954" 
d="M410 571q-139 0 -253 106.5t-114 272.5q0 164 113.5 270.5t253.5 106.5q63 0 122.5 -22.5t83.5 -61.5h5l10 64h239v-717h-239l-10 63h-5q-27 -41 -87 -61.5t-119 -20.5zM454.5 809q57.5 0 99.5 42t42 99.5t-42 98.5t-99.5 41t-98.5 -41t-41 -98.5t41 -99.5t98.5 -42z" />
    <glyph glyph-name="guillemotleft" unicode="&#xab;" horiz-adv-x="1243" 
d="M684 881l-299 -373l299 -373h-338l-315 373l315 373h338zM1192 881l-299 -373l299 -373h-338l-315 373l315 373h338z" />
    <glyph glyph-name="logicalnot" unicode="&#xac;" horiz-adv-x="1079" 
d="M936 819h2v-485h-297v203h-551v288h846v-6z" />
    <glyph glyph-name="registered" unicode="&#xae;" horiz-adv-x="1284" 
d="M643 1401q244 0 416 -173t172 -417t-172 -417t-416 -173q-246 0 -419 173t-173 417t173 417t419 173zM643 393q172 0 293 122t121 296q0 172 -121 295t-293 123q-174 0 -296 -123t-122 -295q0 -174 122 -296t296 -122zM895 883q0 -113 -96 -162l135 -174h-215l-111 151
h-22v-151h-189v526h301q82 0 139.5 -52t57.5 -138zM580 836h75q25 0 39.5 14t14.5 32.5t-16.5 32t-41.5 13.5h-71v-92z" />
    <glyph glyph-name="macron" unicode="&#xaf;" horiz-adv-x="1228" 
d="M111 1212v218h632v-218h-632z" />
    <glyph glyph-name="degree" unicode="&#xb0;" horiz-adv-x="796" 
d="M397.5 721q-141.5 0 -241 99.5t-99.5 240.5t99.5 240.5t241 99.5t240.5 -99.5t99 -240.5t-99 -240.5t-240.5 -99.5zM397 946q49 0 82 33t33 82q0 47 -33 80t-82 33q-47 0 -79.5 -33t-32.5 -80q0 -49 32.5 -82t79.5 -33z" />
    <glyph glyph-name="plusminus" unicode="&#xb1;" horiz-adv-x="1095" 
d="M692 958h279v-235h-279v-234h-286v234h-281v235h281v234h286v-234zM125 186v234h846v-234h-846z" />
    <glyph glyph-name="uni00B2" unicode="&#xb2;" horiz-adv-x="774" 
d="M61 942v133l326 367q70 74 70 114q0 31 -20.5 48.5t-49.5 17.5q-33 0 -55.5 -22.5t-22.5 -63.5h-254q0 135 93.5 212t238.5 77q141 0 232.5 -71t91.5 -187q0 -104 -101 -219l-168 -183h283v-223h-664z" />
    <glyph glyph-name="uni00B3" unicode="&#xb3;" horiz-adv-x="759" 
d="M373 924q-154 0 -246 80.5t-92 214.5h254q0 -39 24.5 -66t63.5 -27q43 0 66.5 24t23.5 62q0 37 -26.5 62.5t-69.5 25.5h-109v187h109q29 0 51 20.5t22 49t-21.5 48t-50 19.5t-50 -17.5t-21.5 -43.5h-254q0 117 96.5 189.5t233.5 72.5q131 0 224 -63.5t93 -166.5
q0 -135 -121 -196q150 -59 150 -213q0 -115 -97 -188.5t-253 -73.5z" />
    <glyph glyph-name="acute" unicode="&#xb4;" horiz-adv-x="1228" 
d="M418 1143h-307l264 362h307z" />
    <glyph glyph-name="mu" unicode="&#xb5;" horiz-adv-x="1333" 
d="M852 1016h340v-1016h-299l-19 127h-6q-47 -74 -125.5 -114t-169.5 -40q-74 0 -145 23v-447h-287v850q-2 16 -2 52v565h342v-535q0 -88 54.5 -146.5t130.5 -58.5q78 0 132 58.5t54 148.5v533z" />
    <glyph glyph-name="paragraph" unicode="&#xb6;" horiz-adv-x="1779" 
d="M1624 1372v-1372h-356v1102h-148v-1102h-342v424h-227q-203 0 -338 131t-135 344q0 207 136 340t335 133h1075zM778 692v410h-147q-88 0 -150.5 -59.5t-62.5 -143.5q0 -86 61.5 -146.5t153.5 -60.5h145z" />
    <glyph glyph-name="periodcentered" unicode="&#xb7;" horiz-adv-x="600" 
d="M299 545q-88 0 -151.5 61.5t-63.5 147.5t63.5 148.5t151.5 62.5t152.5 -62.5t64.5 -148.5t-64.5 -147.5t-152.5 -61.5z" />
    <glyph glyph-name="cedilla" unicode="&#xb8;" horiz-adv-x="1228" 
d="M289 -477q-135 0 -232 76l90 125q59 -47 123 -48q35 0 58.5 16.5t23.5 43.5q0 20 -16.5 36.5t-38.5 16.5q-25 0 -55 -25l-111 101l76 164l145 -29l-39 -82q4 0 12.5 1t14.5 1q80 0 133 -54t53 -134q0 -88 -67.5 -148.5t-169.5 -60.5z" />
    <glyph glyph-name="uni00B9" unicode="&#xb9;" horiz-adv-x="577" 
d="M201 942v576l-168 -35v217l301 106h127v-864h-260z" />
    <glyph glyph-name="ordmasculine" unicode="&#xba;" horiz-adv-x="911" 
d="M455 571q-168 0 -290 112t-122 267.5t121 266t291 110.5q172 0 293.5 -110.5t121.5 -266t-122.5 -267.5t-292.5 -112zM455 809q57 0 99 42t42 99q0 55 -42 97.5t-99 42.5q-55 0 -97.5 -42t-42.5 -98q0 -57 42.5 -99t97.5 -42z" />
    <glyph glyph-name="guillemotright" unicode="&#xbb;" horiz-adv-x="1243" 
d="M51 881h338l316 -373l-316 -373h-338l299 373zM559 881h338l315 -373l-315 -373h-338l299 373z" />
    <glyph glyph-name="onequarter" unicode="&#xbc;" horiz-adv-x="1714" 
d="M201 512v575l-168 -34v217l301 106h127v-864h-260zM254 -2l870 1374h275l-873 -1374h-272zM1688 375v-189h-86v-186h-246v186h-418v148l487 530h177v-489h86zM1214 375h150v162z" />
    <glyph glyph-name="onehalf" unicode="&#xbd;" horiz-adv-x="1853" 
d="M201 512v575l-168 -34v217l301 106h127v-864h-260zM254 -2l870 1374h275l-873 -1374h-272zM1141 0v133l325 367q70 74 70 114q0 31 -20.5 48.5t-49.5 17.5q-33 0 -55 -22.5t-22 -63.5h-254q0 135 93 212t238 77q141 0 232.5 -71t91.5 -187q0 -104 -100 -219l-168 -183
h282v-223h-663z" />
    <glyph glyph-name="threequarters" unicode="&#xbe;" horiz-adv-x="1878" 
d="M373 494q-154 0 -246 80.5t-92 213.5h254q0 -39 24.5 -65.5t63.5 -26.5q43 0 66.5 23.5t23.5 62.5q0 37 -26.5 62.5t-69.5 25.5h-109v187h109q29 0 51 20.5t22 49t-21.5 48t-50 19.5t-50 -17.5t-21.5 -43.5h-254q0 117 96.5 189.5t233.5 72.5q131 0 224 -63.5t93 -166.5
q0 -135 -121 -196q150 -59 150 -213q0 -115 -97 -188.5t-253 -73.5zM418 -2l870 1374h275l-873 -1374h-272zM1851 375v-189h-86v-186h-245v186h-418v148l487 530h176v-489h86zM1378 375h150v162z" />
    <glyph glyph-name="questiondown" unicode="&#xbf;" horiz-adv-x="1028" 
d="M522 1042q80 0 138.5 -56t58.5 -136q0 -78 -58.5 -135.5t-138.5 -57.5t-139 57.5t-59 135.5q0 80 59 136t139 56zM692 553v-57q0 -82 -30.5 -142.5t-74.5 -95.5t-88 -64.5t-75 -73.5t-31 -102q0 -51 36 -84.5t87 -33.5q133 0 133 163h338q0 -190 -135 -315t-330 -125
q-193 0 -331 118t-138 284q0 78 31 141t76 104t89 77t74.5 77t30.5 88v41h338z" />
    <glyph glyph-name="Agrave" unicode="&#xc0;" horiz-adv-x="1509" 
d="M938 1499h-307l-264 363h307zM1153 0l-104 221h-588l-105 -221h-370l696 1380h145l697 -1380h-371zM580 473h350l-176 371z" />
    <glyph glyph-name="Aacute" unicode="&#xc1;" horiz-adv-x="1509" 
d="M1143 1862l-264 -363h-308l265 363h307zM1153 0l-104 221h-588l-105 -221h-370l696 1380h145l697 -1380h-371zM580 473h350l-176 371z" />
    <glyph glyph-name="Acircumflex" unicode="&#xc2;" horiz-adv-x="1509" 
d="M754 1661l-117 -162h-301l268 363h297l270 -363h-303zM1153 0l-104 221h-588l-105 -221h-370l696 1380h145l697 -1380h-371zM580 473h350l-176 371z" />
    <glyph glyph-name="Atilde" unicode="&#xc3;" horiz-adv-x="1509" 
d="M624.5 1642q-34.5 0 -58 -30.5t-25.5 -81.5h-191q2 176 76 267t188 91q61 0 113.5 -32.5t92.5 -65.5t71 -33t51.5 27.5t20.5 83.5h192q-2 -172 -70.5 -263.5t-173.5 -91.5q-70 0 -161 64.5t-125.5 64.5zM1153 0l-104 221h-588l-105 -221h-370l696 1380h145l697 -1380
h-371zM580 473h350l-176 371z" />
    <glyph glyph-name="Adieresis" unicode="&#xc4;" horiz-adv-x="1509" 
d="M530.5 1501q-71.5 0 -124 52.5t-52.5 124t52.5 122.5t124 51t125 -52t53.5 -122q0 -72 -53.5 -124t-125 -52zM977 1501q-74 0 -126 52.5t-52 124t52 122.5t126 51q72 0 124 -52t52 -122q0 -72 -52 -124t-124 -52zM1153 0l-104 221h-588l-105 -221h-370l696 1380h145
l697 -1380h-371zM580 473h350l-176 371z" />
    <glyph glyph-name="Aring" unicode="&#xc5;" horiz-adv-x="1509" 
d="M753.5 1432q-108.5 0 -185 71.5t-76.5 174t76.5 174t185 71.5t186.5 -71.5t78 -174t-78 -174t-186.5 -71.5zM753.5 1755q-32.5 0 -55 -22.5t-22.5 -55t22.5 -55.5t55 -23t56.5 23t24 55.5t-24 55t-56.5 22.5zM1153 0l-104 221h-588l-105 -221h-370l696 1380h145
l697 -1380h-371zM580 473h350l-176 371z" />
    <glyph glyph-name="AE" unicode="&#xc6;" horiz-adv-x="2000" 
d="M1309 297h575v-297h-897v221h-520l-125 -221h-369l832 1372h1059v-297h-555v-241h534v-281h-534v-256zM608 473h379v674z" />
    <glyph glyph-name="Ccedilla" unicode="&#xc7;" horiz-adv-x="1628" 
d="M827 293q119 0 216.5 64.5t142.5 168.5h370q-53 -225 -237 -377.5t-430 -173.5l-27 -57q4 0 12.5 1t14.5 1q80 0 133 -54t53 -134q0 -88 -67.5 -148.5t-169.5 -60.5q-135 0 -232 76l90 125q59 -47 123 -48q35 0 58.5 16.5t23.5 43.5q0 20 -16.5 36.5t-38.5 16.5
q-25 0 -55 -25l-111 101l53 115q-279 33 -467 234.5t-188 471.5q0 295 220 504t529 209q264 0 468 -157t261 -396h-370q-47 104 -143.5 168.5t-215.5 64.5q-164 0 -278.5 -115.5t-114.5 -277.5t114.5 -277.5t278.5 -115.5z" />
    <glyph glyph-name="Egrave" unicode="&#xc8;" horiz-adv-x="1288" 
d="M844 1499h-307l-265 363h308zM510 297h661v-297h-1017v1372h997v-297h-641v-241h620v-281h-620v-256z" />
    <glyph glyph-name="Eacute" unicode="&#xc9;" horiz-adv-x="1288" 
d="M1049 1862l-265 -363h-307l264 363h308zM510 297h661v-297h-1017v1372h997v-297h-641v-241h620v-281h-620v-256z" />
    <glyph glyph-name="Ecircumflex" unicode="&#xca;" horiz-adv-x="1288" 
d="M659 1661l-116 -162h-301l268 363h297l270 -363h-303zM510 297h661v-297h-1017v1372h997v-297h-641v-241h620v-281h-620v-256z" />
    <glyph glyph-name="Edieresis" unicode="&#xcb;" horiz-adv-x="1288" 
d="M436.5 1501q-71.5 0 -124 52.5t-52.5 124t52.5 122.5t124 51t124.5 -52t53 -122q0 -72 -53 -124t-124.5 -52zM883 1501q-74 0 -126 52.5t-52 124t52 122.5t126 51q72 0 124 -52t52 -122q0 -72 -52 -124t-124 -52zM510 297h661v-297h-1017v1372h997v-297h-641v-241h620
v-281h-620v-256z" />
    <glyph glyph-name="Igrave" unicode="&#xcc;" horiz-adv-x="665" 
d="M211 1499l-264 363h307l264 -363h-307zM154 0v1372h356v-1372h-356z" />
    <glyph glyph-name="Iacute" unicode="&#xcd;" horiz-adv-x="665" 
d="M459 1499h-307l264 363h307zM154 0v1372h356v-1372h-356z" />
    <glyph glyph-name="Icircumflex" unicode="&#xce;" horiz-adv-x="665" 
d="M752 1499h-303l-115 162l-117 -162h-301l268 363h297zM154 0v1372h356v-1372h-356z" />
    <glyph glyph-name="Idieresis" unicode="&#xcf;" horiz-adv-x="665" 
d="M110.5 1501q-71.5 0 -124 52.5t-52.5 124t52.5 122.5t124 51t125 -52t53.5 -122q0 -72 -53.5 -124t-125 -52zM557 1501q-74 0 -126 52.5t-52 124t52 122.5t126 51q72 0 124 -52t52 -122q0 -72 -52 -124t-124 -52zM154 0v1372h356v-1372h-356z" />
    <glyph glyph-name="Eth" unicode="&#xd0;" horiz-adv-x="1615" 
d="M809 1372q301 0 515 -201.5t214 -484.5t-214 -485.5t-515 -200.5h-655v569h-150v234h150v569h655zM809 322q154 0 263.5 107.5t109.5 257t-109.5 256t-263.5 106.5h-299v-246h301v-234h-301v-247h299z" />
    <glyph glyph-name="Ntilde" unicode="&#xd1;" horiz-adv-x="1613" 
d="M1016 1868h192q-2 -172 -70.5 -263.5t-172.5 -91.5q-70 0 -161 64.5t-126 64.5t-58.5 -30.5t-25.5 -81.5h-191q2 176 76 267t189 91q61 0 113.5 -32.5t92 -65.5t70.5 -33t51.5 28t20.5 83zM1116 1372h344v-1380h-178l-784 807v-799h-344v1380h178l784 -805v797z" />
    <glyph glyph-name="Ograve" unicode="&#xd2;" horiz-adv-x="1654" 
d="M705 1499l-265 363h308l264 -363h-307zM827.5 -27q-309.5 0 -529.5 209t-220 504t220 504t529.5 209t529.5 -209t220 -504t-220 -504t-529.5 -209zM827.5 293q163.5 0 278.5 115.5t115 277.5t-115 277.5t-278.5 115.5t-278.5 -115.5t-115 -277.5t115 -277.5t278.5 -115.5
z" />
    <glyph glyph-name="Oacute" unicode="&#xd3;" horiz-adv-x="1654" 
d="M952 1499h-307l264 363h308zM827.5 -27q-309.5 0 -529.5 209t-220 504t220 504t529.5 209t529.5 -209t220 -504t-220 -504t-529.5 -209zM827.5 293q163.5 0 278.5 115.5t115 277.5t-115 277.5t-278.5 115.5t-278.5 -115.5t-115 -277.5t115 -277.5t278.5 -115.5z" />
    <glyph glyph-name="Ocircumflex" unicode="&#xd4;" horiz-adv-x="1654" 
d="M1245 1499h-303l-115 162l-116 -162h-301l268 363h297zM827.5 -27q-309.5 0 -529.5 209t-220 504t220 504t529.5 209t529.5 -209t220 -504t-220 -504t-529.5 -209zM827.5 293q163.5 0 278.5 115.5t115 277.5t-115 277.5t-278.5 115.5t-278.5 -115.5t-115 -277.5
t115 -277.5t278.5 -115.5z" />
    <glyph glyph-name="Otilde" unicode="&#xd5;" horiz-adv-x="1654" 
d="M1036 1868h193q-2 -172 -70.5 -263.5t-173.5 -91.5q-70 0 -161 64.5t-125.5 64.5t-58.5 -30.5t-26 -81.5h-190q2 176 75.5 267t188.5 91q61 0 113.5 -32.5t92.5 -65.5t70.5 -33t51 28t20.5 83zM827.5 -27q-309.5 0 -529.5 209t-220 504t220 504t529.5 209t529.5 -209
t220 -504t-220 -504t-529.5 -209zM827.5 293q163.5 0 278.5 115.5t115 277.5t-115 277.5t-278.5 115.5t-278.5 -115.5t-115 -277.5t115 -277.5t278.5 -115.5z" />
    <glyph glyph-name="Odieresis" unicode="&#xd6;" horiz-adv-x="1654" 
d="M604 1501q-72 0 -124 52.5t-52 124t52 122.5t124 51t125 -52t53 -122q0 -72 -53 -124t-125 -52zM1051 1501q-74 0 -126.5 52.5t-52.5 124t52.5 122.5t126.5 51q72 0 124 -52t52 -122q0 -72 -52 -124t-124 -52zM827.5 -27q-309.5 0 -529.5 209t-220 504t220 504t529.5 209
t529.5 -209t220 -504t-220 -504t-529.5 -209zM827.5 293q163.5 0 278.5 115.5t115 277.5t-115 277.5t-278.5 115.5t-278.5 -115.5t-115 -277.5t115 -277.5t278.5 -115.5z" />
    <glyph glyph-name="multiply" unicode="&#xd7;" horiz-adv-x="1116" 
d="M326 244l-205 205l233 231l-233 233l205 205l231 -233l234 233l204 -205l-233 -233l233 -231l-204 -205l-234 231z" />
    <glyph glyph-name="Oslash" unicode="&#xd8;" horiz-adv-x="1654" 
d="M1364 1184q213 -209 213 -498q0 -295 -220 -504t-530 -209q-217 0 -395 109l-70 -82h-249l168 199q-203 207 -203 487q0 295 220 504t529 209q209 0 385 -103l64 76h248zM434 686q0 -121 70 -223l491 579q-84 37 -168 37q-164 0 -278.5 -115.5t-114.5 -277.5zM827 293
q164 0 279 115.5t115 277.5q0 131 -78 236l-496 -586q86 -43 180 -43z" />
    <glyph glyph-name="Ugrave" unicode="&#xd9;" horiz-adv-x="1568" 
d="M662 1499l-265 363h308l264 -363h-307zM786 -27q-266 0 -454.5 178.5t-188.5 428.5v792h357v-792q0 -119 84 -203t202.5 -84t200.5 84t82 203v792h356v-792q0 -250 -187.5 -428.5t-451.5 -178.5z" />
    <glyph glyph-name="Uacute" unicode="&#xda;" horiz-adv-x="1568" 
d="M909 1499h-307l264 363h308zM786 -27q-266 0 -454.5 178.5t-188.5 428.5v792h357v-792q0 -119 84 -203t202.5 -84t200.5 84t82 203v792h356v-792q0 -250 -187.5 -428.5t-451.5 -178.5z" />
    <glyph glyph-name="Ucircumflex" unicode="&#xdb;" horiz-adv-x="1568" 
d="M1202 1499h-303l-115 162l-116 -162h-301l268 363h297zM786 -27q-266 0 -454.5 178.5t-188.5 428.5v792h357v-792q0 -119 84 -203t202.5 -84t200.5 84t82 203v792h356v-792q0 -250 -187.5 -428.5t-451.5 -178.5z" />
    <glyph glyph-name="Udieresis" unicode="&#xdc;" horiz-adv-x="1568" 
d="M561 1501q-72 0 -124 52.5t-52 124t52 122.5t124 51t125 -52t53 -122q0 -72 -53 -124t-125 -52zM1008 1501q-74 0 -126.5 52.5t-52.5 124t52.5 122.5t126.5 51q72 0 124 -52t52 -122q0 -72 -52 -124t-124 -52zM786 -27q-266 0 -454.5 178.5t-188.5 428.5v792h357v-792
q0 -119 84 -203t202.5 -84t200.5 84t82 203v792h356v-792q0 -250 -187.5 -428.5t-451.5 -178.5z" />
    <glyph glyph-name="Yacute" unicode="&#xdd;" horiz-adv-x="1470" 
d="M1124 1862l-264 -363h-307l264 363h307zM1483 1372l-568 -909v-463h-358v463l-569 909h405l342 -577l342 577h406z" />
    <glyph glyph-name="Thorn" unicode="&#xde;" horiz-adv-x="1347" 
d="M797 217h-301v-217h-342v1372h321v-205h326q199 0 335 -134t136 -341q0 -211 -135 -343t-340 -132zM496 897v-410h219q92 0 153.5 59.5t61.5 145.5q0 84 -61.5 144.5t-149.5 60.5h-223z" />
    <glyph glyph-name="germandbls" unicode="&#xdf;" horiz-adv-x="1345" 
d="M799 -29q-74 0 -136.5 15.5t-84.5 36.5v301q66 -66 153 -66q78 0 133.5 53.5t55.5 134.5q0 80 -55.5 135.5t-135.5 55.5h-111v215h64q70 0 120 52t50 124t-50 124t-128 52q-86 0 -137.5 -56t-51.5 -136v-1012h-340v1018q0 213 148.5 349t380.5 136q223 0 371.5 -126
t148.5 -318q0 -96 -39 -177t-111 -120q115 -43 174.5 -141.5t59.5 -225.5q0 -190 -133 -307t-346 -117z" />
    <glyph glyph-name="agrave" unicode="&#xe0;" horiz-adv-x="1368" 
d="M537 1143l-265 362h308l264 -362h-307zM588 -27q-199 0 -359.5 151.5t-160.5 383.5q0 233 160.5 384.5t359.5 151.5q98 0 190 -41.5t131 -111.5h4l15 125h301v-1016h-301l-15 125h-4q-39 -74 -132 -113t-189 -39zM647 270q98 0 168 70t70 168t-70 167.5t-168 69.5
t-167.5 -69.5t-69.5 -167.5t69.5 -168t167.5 -70z" />
    <glyph glyph-name="aacute" unicode="&#xe1;" horiz-adv-x="1368" 
d="M784 1143h-307l264 362h308zM588 -27q-199 0 -359.5 151.5t-160.5 383.5q0 233 160.5 384.5t359.5 151.5q98 0 190 -41.5t131 -111.5h4l15 125h301v-1016h-301l-15 125h-4q-39 -74 -132 -113t-189 -39zM647 270q98 0 168 70t70 168t-70 167.5t-168 69.5t-167.5 -69.5
t-69.5 -167.5t69.5 -168t167.5 -70z" />
    <glyph glyph-name="acircumflex" unicode="&#xe2;" horiz-adv-x="1368" 
d="M1077 1143h-303l-115 162l-116 -162h-301l268 362h297zM588 -27q-199 0 -359.5 151.5t-160.5 383.5q0 233 160.5 384.5t359.5 151.5q98 0 190 -41.5t131 -111.5h4l15 125h301v-1016h-301l-15 125h-4q-39 -74 -132 -113t-189 -39zM647 270q98 0 168 70t70 168t-70 167.5
t-168 69.5t-167.5 -69.5t-69.5 -167.5t69.5 -168t167.5 -70z" />
    <glyph glyph-name="atilde" unicode="&#xe3;" horiz-adv-x="1368" 
d="M868 1511h193q-2 -172 -70.5 -263t-173.5 -91q-70 0 -161 64.5t-125.5 64.5t-58 -30.5t-26.5 -81.5h-190q2 176 76 267t188 91q61 0 113.5 -33t92.5 -65.5t70.5 -32.5t51 27.5t20.5 82.5zM588 -27q-199 0 -359.5 151.5t-160.5 383.5q0 233 160.5 384.5t359.5 151.5
q98 0 190 -41.5t131 -111.5h4l15 125h301v-1016h-301l-15 125h-4q-39 -74 -132 -113t-189 -39zM647 270q98 0 168 70t70 168t-70 167.5t-168 69.5t-167.5 -69.5t-69.5 -167.5t69.5 -168t167.5 -70z" />
    <glyph glyph-name="adieresis" unicode="&#xe4;" horiz-adv-x="1368" 
d="M436.5 1145q-71.5 0 -124 52t-52.5 124t52.5 123t124 51t124.5 -52t53 -122q0 -72 -53 -124t-124.5 -52zM883 1145q-74 0 -126 52t-52 124t52 123t126 51q72 0 124 -52t52 -122q0 -72 -52 -124t-124 -52zM588 -27q-199 0 -359.5 151.5t-160.5 383.5q0 233 160.5 384.5
t359.5 151.5q98 0 190 -41.5t131 -111.5h4l15 125h301v-1016h-301l-15 125h-4q-39 -74 -132 -113t-189 -39zM647 270q98 0 168 70t70 168t-70 167.5t-168 69.5t-167.5 -69.5t-69.5 -167.5t69.5 -168t167.5 -70z" />
    <glyph glyph-name="aring" unicode="&#xe5;" horiz-adv-x="1368" 
d="M659.5 1075q-108.5 0 -185.5 72t-77 174t77 174t185.5 72t186.5 -72t78 -174t-78 -174t-186.5 -72zM659.5 1243q32.5 0 56 22.5t23.5 55.5t-23.5 55.5t-56 22.5t-55 -22.5t-22.5 -55.5t22.5 -55.5t55 -22.5zM588 -27q-199 0 -359.5 151.5t-160.5 383.5q0 233 160.5 384.5
t359.5 151.5q98 0 190 -41.5t131 -111.5h4l15 125h301v-1016h-301l-15 125h-4q-39 -74 -132 -113t-189 -39zM647 270q98 0 168 70t70 168t-70 167.5t-168 69.5t-167.5 -69.5t-69.5 -167.5t69.5 -168t167.5 -70z" />
    <glyph glyph-name="ae" unicode="&#xe6;" horiz-adv-x="2050" 
d="M1427 240q162 0 211 102l314 -55q-51 -135 -197.5 -225.5t-331.5 -90.5q-250 0 -419 164q-203 -164 -502 -164q-170 0 -285 88t-115 232q0 137 115 228t340 91h268v43q0 57 -49 95t-129 38q-74 0 -123 -30.5t-51 -79.5l-336 35q27 143 173.5 238t334.5 95q231 0 391 -135
q162 135 385 135q256 0 414 -179t158 -449h-815q50 -176 249 -176zM1421 780q-92 0 -155.5 -43t-87.5 -123h477q-48 166 -234 166zM444 305q0 -43 36 -67.5t100 -24.5q168 0 307 88q-18 39 -33 100h-250q-74 0 -117 -25.5t-43 -70.5z" />
    <glyph glyph-name="ccedilla" unicode="&#xe7;" horiz-adv-x="1265" 
d="M645 272q154 0 213 138h346q-23 -170 -162 -292t-329 -143l-29 -57q4 0 12.5 1t14.5 1q80 0 133 -54t53 -134q0 -88 -67.5 -148.5t-170.5 -60.5q-135 0 -231 76l90 125q59 -47 123 -48q35 0 58.5 16.5t23.5 43.5q0 20 -16.5 36.5t-38.5 16.5q-25 0 -56 -25l-110 101
l53 117q-207 31 -347 180t-140 346q0 221 172 378.5t411 157.5q211 0 369 -126.5t184 -307.5h-346q-23 61 -81 99.5t-132 38.5q-98 0 -166.5 -71t-68.5 -169q0 -96 68.5 -166t166.5 -70z" />
    <glyph glyph-name="egrave" unicode="&#xe8;" horiz-adv-x="1271" 
d="M831 1143h-307l-264 362h307zM653 238q160 0 209 98l316 -47q-51 -137 -199 -227.5t-330 -90.5q-240 0 -410.5 152.5t-170.5 380.5q0 225 166.5 382.5t410.5 157.5q258 0 413.5 -179t155.5 -449h-811q51 -178 250 -178zM645 782q-190 0 -242 -166h474q-48 166 -232 166z
" />
    <glyph glyph-name="eacute" unicode="&#xe9;" horiz-adv-x="1271" 
d="M1036 1505l-264 -362h-307l264 362h307zM653 238q160 0 209 98l316 -47q-51 -137 -199 -227.5t-330 -90.5q-240 0 -410.5 152.5t-170.5 380.5q0 225 166.5 382.5t410.5 157.5q258 0 413.5 -179t155.5 -449h-811q51 -178 250 -178zM645 782q-190 0 -242 -166h474
q-48 166 -232 166z" />
    <glyph glyph-name="ecircumflex" unicode="&#xea;" horiz-adv-x="1271" 
d="M647 1305l-117 -162h-301l269 362h297l270 -362h-303zM653 238q160 0 209 98l316 -47q-51 -137 -199 -227.5t-330 -90.5q-240 0 -410.5 152.5t-170.5 380.5q0 225 166.5 382.5t410.5 157.5q258 0 413.5 -179t155.5 -449h-811q51 -178 250 -178zM645 782q-190 0 -242 -166
h474q-48 166 -232 166z" />
    <glyph glyph-name="edieresis" unicode="&#xeb;" horiz-adv-x="1271" 
d="M424 1145q-72 0 -124 52t-52 124t52 123t124 51t125 -52t53 -122q0 -72 -53 -124t-125 -52zM870 1145q-74 0 -126 52t-52 124t52.5 123t125.5 51q72 0 124.5 -52t52.5 -122q0 -72 -52.5 -124t-124.5 -52zM653 238q160 0 209 98l316 -47q-51 -137 -199 -227.5t-330 -90.5
q-240 0 -410.5 152.5t-170.5 380.5q0 225 166.5 382.5t410.5 157.5q258 0 413.5 -179t155.5 -449h-811q51 -178 250 -178zM645 782q-190 0 -242 -166h474q-48 166 -232 166z" />
    <glyph glyph-name="igrave" unicode="&#xec;" horiz-adv-x="622" 
d="M188 1143l-264 362h307l265 -362h-308zM141 0v1016h340v-1016h-340z" />
    <glyph glyph-name="iacute" unicode="&#xed;" horiz-adv-x="622" 
d="M436 1143h-307l264 362h307zM141 0v1016h340v-1016h-340z" />
    <glyph glyph-name="icircumflex" unicode="&#xee;" horiz-adv-x="622" 
d="M729 1143h-303l-115 162l-116 -162h-301l268 362h297zM141 0v1016h340v-1016h-340z" />
    <glyph glyph-name="idieresis" unicode="&#xef;" horiz-adv-x="622" 
d="M88 1145q-72 0 -124 52t-52 124t52 123t124 51t125 -52t53 -122q0 -72 -53 -124t-125 -52zM535 1145q-74 0 -126.5 52t-52.5 124t52.5 123t126.5 51q72 0 124 -52t52 -122q0 -72 -52 -124t-124 -52zM141 0v1016h340v-1016h-340z" />
    <glyph glyph-name="eth" unicode="&#xf0;" horiz-adv-x="1218" 
d="M879 1233q145 -184 209.5 -372.5t64.5 -325.5q0 -240 -157.5 -401t-389.5 -161q-217 0 -380 144.5t-163 345.5q0 182 134.5 319.5t320.5 137.5q133 0 207 -60q-57 145 -127 244l-240 -111l-67 164l190 88q-94 96 -260 225h422q66 -55 109 -98l204 96l82 -161zM608 276
q84 0 144.5 60.5t60.5 144.5t-60.5 144.5t-144.5 60.5t-143 -60.5t-59 -144.5t60 -144.5t142 -60.5z" />
    <glyph glyph-name="ntilde" unicode="&#xf1;" horiz-adv-x="1343" 
d="M881 1511h192q-2 -172 -70.5 -263t-173.5 -91q-70 0 -160.5 64.5t-125.5 64.5t-58.5 -30.5t-25.5 -81.5h-191q2 176 76 267t188 91q61 0 113.5 -33t92.5 -65.5t71 -32.5t51.5 27.5t20.5 82.5zM141 0v1016h299l21 -127h4q49 74 132 114.5t177 40.5q203 0 325 -136
t122 -343v-565h-340v532q0 86 -58.5 146.5t-142.5 60.5q-82 0 -140.5 -61.5t-58.5 -149.5v-528h-340z" />
    <glyph glyph-name="ograve" unicode="&#xf2;" horiz-adv-x="1294" 
d="M526 1143l-264 362h307l265 -362h-308zM647.5 -27q-237.5 0 -408.5 157t-171 378t171 378.5t408.5 157.5t408.5 -157.5t171 -378.5t-171 -378t-408.5 -157zM647 270q96 0 168 71t72 167t-72 166.5t-168 70.5t-166.5 -70.5t-70.5 -166.5t70.5 -167t166.5 -71z" />
    <glyph glyph-name="oacute" unicode="&#xf3;" horiz-adv-x="1294" 
d="M774 1143h-307l264 362h307zM647.5 -27q-237.5 0 -408.5 157t-171 378t171 378.5t408.5 157.5t408.5 -157.5t171 -378.5t-171 -378t-408.5 -157zM647 270q96 0 168 71t72 167t-72 166.5t-168 70.5t-166.5 -70.5t-70.5 -166.5t70.5 -167t166.5 -71z" />
    <glyph glyph-name="ocircumflex" unicode="&#xf4;" horiz-adv-x="1294" 
d="M1067 1143h-303l-115 162l-117 -162h-301l269 362h297zM647.5 -27q-237.5 0 -408.5 157t-171 378t171 378.5t408.5 157.5t408.5 -157.5t171 -378.5t-171 -378t-408.5 -157zM647 270q96 0 168 71t72 167t-72 166.5t-168 70.5t-166.5 -70.5t-70.5 -166.5t70.5 -167
t166.5 -71z" />
    <glyph glyph-name="otilde" unicode="&#xf5;" horiz-adv-x="1294" 
d="M858 1511h193q-2 -172 -71 -263t-173 -91q-70 0 -161 64.5t-126 64.5t-58.5 -30.5t-25.5 -81.5h-190q2 176 75.5 267t188.5 91q61 0 113.5 -33t92.5 -65.5t70.5 -32.5t51 27.5t20.5 82.5zM647.5 -27q-237.5 0 -408.5 157t-171 378t171 378.5t408.5 157.5t408.5 -157.5
t171 -378.5t-171 -378t-408.5 -157zM647 270q96 0 168 71t72 167t-72 166.5t-168 70.5t-166.5 -70.5t-70.5 -166.5t70.5 -167t166.5 -71z" />
    <glyph glyph-name="odieresis" unicode="&#xf6;" horiz-adv-x="1294" 
d="M426 1145q-72 0 -124 52t-52 124t52 123t124 51t125 -52t53 -122q0 -72 -53 -124t-125 -52zM872 1145q-74 0 -126 52t-52 124t52.5 123t125.5 51q72 0 124.5 -52t52.5 -122q0 -72 -52.5 -124t-124.5 -52zM647.5 -27q-237.5 0 -408.5 157t-171 378t171 378.5t408.5 157.5
t408.5 -157.5t171 -378.5t-171 -378t-408.5 -157zM647 270q96 0 168 71t72 167t-72 166.5t-168 70.5t-166.5 -70.5t-70.5 -166.5t70.5 -167t166.5 -71z" />
    <glyph glyph-name="divide" unicode="&#xf7;" horiz-adv-x="1026" 
d="M514 885q-68 0 -118 48t-50 115.5t50 115.5t118 48q70 0 120 -48t50 -115.5t-50 -115.5t-120 -48zM936 825v-288h-846v288h846zM514 158q-68 0 -118 48t-50 115.5t50 115.5t118 48q70 0 120 -48t50 -115.5t-50 -115.5t-120 -48z" />
    <glyph glyph-name="oslash" unicode="&#xf8;" horiz-adv-x="1294" 
d="M1077 866q150 -156 150 -358q0 -221 -171 -378t-409 -157q-174 0 -319 90l-62 -65h-205l150 160q-143 150 -143 350q0 221 171 378.5t408 157.5q168 0 314 -86l57 60h203zM410 508q0 -55 26 -109l307 326q-51 20 -96 20q-96 0 -166.5 -70.5t-70.5 -166.5zM647 270
q96 0 168 71t72 167q0 63 -33 119l-309 -332q45 -25 102 -25z" />
    <glyph glyph-name="ugrave" unicode="&#xf9;" horiz-adv-x="1316" 
d="M535 1143l-265 362h308l264 -362h-307zM1176 1016v-1016h-299l-19 127h-6q-47 -74 -126 -114t-169 -40q-195 0 -314.5 135.5t-119.5 342.5v565h342v-535q0 -88 54 -146.5t130 -58.5q78 0 132.5 58.5t54.5 148.5v533h340z" />
    <glyph glyph-name="uacute" unicode="&#xfa;" horiz-adv-x="1316" 
d="M782 1143h-307l264 362h308zM1176 1016v-1016h-299l-19 127h-6q-47 -74 -126 -114t-169 -40q-195 0 -314.5 135.5t-119.5 342.5v565h342v-535q0 -88 54 -146.5t130 -58.5q78 0 132.5 58.5t54.5 148.5v533h340z" />
    <glyph glyph-name="ucircumflex" unicode="&#xfb;" horiz-adv-x="1316" 
d="M1075 1143h-303l-115 162l-116 -162h-301l268 362h297zM1176 1016v-1016h-299l-19 127h-6q-47 -74 -126 -114t-169 -40q-195 0 -314.5 135.5t-119.5 342.5v565h342v-535q0 -88 54 -146.5t130 -58.5q78 0 132.5 58.5t54.5 148.5v533h340z" />
    <glyph glyph-name="udieresis" unicode="&#xfc;" horiz-adv-x="1316" 
d="M434 1145q-72 0 -124 52t-52 124t52 123t124 51t125 -52t53 -122q0 -72 -53 -124t-125 -52zM881 1145q-74 0 -126.5 52t-52.5 124t52.5 123t126.5 51q72 0 124 -52t52 -122q0 -72 -52 -124t-124 -52zM1176 1016v-1016h-299l-19 127h-6q-47 -74 -126 -114t-169 -40
q-195 0 -314.5 135.5t-119.5 342.5v565h342v-535q0 -88 54 -146.5t130 -58.5q78 0 132.5 58.5t54.5 148.5v533h340z" />
    <glyph glyph-name="yacute" unicode="&#xfd;" horiz-adv-x="1181" 
d="M721 1143h-307l264 362h307zM72 -451l350 652l-422 815h369l227 -488l227 488h369l-760 -1467h-360z" />
    <glyph glyph-name="thorn" unicode="&#xfe;" horiz-adv-x="1368" 
d="M141 -451v1926h340v-584h6q51 76 137.5 114.5t176.5 38.5q193 0 345 -151.5t152 -386.5q0 -231 -149.5 -382t-335.5 -151q-100 0 -187 41t-139 111h-6v-576h-340zM719 270q96 0 167.5 71t71.5 167t-71.5 166.5t-167.5 70.5t-167 -70.5t-71 -166.5t71 -167t167 -71z" />
    <glyph glyph-name="ydieresis" unicode="&#xff;" horiz-adv-x="1181" 
d="M372.5 1145q-71.5 0 -123.5 52t-52 124t52 123t123.5 51t125 -52t53.5 -122q0 -72 -53.5 -124t-125 -52zM819 1145q-74 0 -126 52t-52 124t52 123t126 51q72 0 124 -52t52 -122q0 -72 -52 -124t-124 -52zM72 -451l350 652l-422 815h369l227 -488l227 488h369l-760 -1467
h-360z" />
    <glyph glyph-name="Amacron" unicode="&#x100;" horiz-adv-x="1509" 
d="M1069 1786v-217h-633v217h633zM1153 0l-104 221h-588l-105 -221h-370l696 1380h145l697 -1380h-371zM580 473h350l-176 371z" />
    <glyph glyph-name="amacron" unicode="&#x101;" horiz-adv-x="1368" 
d="M342 1212v218h633v-218h-633zM588 -27q-199 0 -359.5 151.5t-160.5 383.5q0 233 160.5 384.5t359.5 151.5q98 0 190 -41.5t131 -111.5h4l15 125h301v-1016h-301l-15 125h-4q-39 -74 -132 -113t-189 -39zM647 270q98 0 168 70t70 168t-70 167.5t-168 69.5t-167.5 -69.5
t-69.5 -167.5t69.5 -168t167.5 -70z" />
    <glyph glyph-name="Abreve" unicode="&#x102;" horiz-adv-x="1509" 
d="M754 1495q-154 0 -264.5 105.5t-110.5 250.5h250q0 -55 36.5 -95t88 -40t86 40t34.5 95h250q0 -145 -110 -250.5t-260 -105.5zM1153 0l-104 221h-588l-105 -221h-370l696 1380h145l697 -1380h-371zM580 473h350l-176 371z" />
    <glyph glyph-name="abreve" unicode="&#x103;" horiz-adv-x="1368" 
d="M780 1495h250q0 -145 -110.5 -250.5t-260.5 -105.5q-154 0 -264 105.5t-110 250.5h250q0 -55 36.5 -95t88 -40t86 40t34.5 95zM588 -27q-199 0 -359.5 151.5t-160.5 383.5q0 233 160.5 384.5t359.5 151.5q98 0 190 -41.5t131 -111.5h4l15 125h301v-1016h-301l-15 125h-4
q-39 -74 -132 -113t-189 -39zM647 270q98 0 168 70t70 168t-70 167.5t-168 69.5t-167.5 -69.5t-69.5 -167.5t69.5 -168t167.5 -70z" />
    <glyph glyph-name="Aogonek" unicode="&#x104;" horiz-adv-x="1509" 
d="M1427 -139q0 -39 31 -68t82 -24v-207q-160 -23 -248 48t-88 175q0 113 107 215h-158l-104 221h-588l-105 -221h-370l696 1380h145l697 -1380q-97 -59 -97 -139zM580 473h350l-176 371z" />
    <glyph glyph-name="aogonek" unicode="&#x105;" horiz-adv-x="1368" 
d="M1133 -139q0 -39 30.5 -68t81.5 -24v-207q-160 -23 -248 48t-88 175q0 113 107 215h-88l-15 125h-4q-39 -74 -132 -113t-189 -39q-199 0 -359.5 151.5t-160.5 383.5q0 233 160.5 384.5t359.5 151.5q98 0 190 -41.5t131 -111.5h4l15 125h301v-1016q-96 -59 -96 -139z
M647 270q98 0 168 70t70 168t-70 167.5t-168 69.5t-167.5 -69.5t-69.5 -167.5t69.5 -168t167.5 -70z" />
    <glyph glyph-name="Cacute" unicode="&#x106;" horiz-adv-x="1628" 
d="M940 1499h-307l264 363h307zM1556 526q-57 -240 -260.5 -396.5t-468.5 -156.5q-309 0 -529 209t-220 504t220 504t529 209q264 0 468 -157t261 -396h-370q-47 104 -143.5 168.5t-215.5 64.5q-164 0 -278.5 -115.5t-114.5 -277.5t115 -277.5t278 -115.5q119 0 216.5 64.5
t142.5 168.5h370z" />
    <glyph glyph-name="cacute" unicode="&#x107;" horiz-adv-x="1265" 
d="M770 1143h-307l264 362h307zM1204 410q-25 -186 -183.5 -311.5t-369.5 -125.5q-240 0 -411.5 157t-171.5 378t172 378.5t411 157.5q211 0 369 -126.5t184 -307.5h-346q-23 61 -81 99.5t-132 38.5q-98 0 -166.5 -71t-68.5 -169q0 -96 68.5 -166t166.5 -70q154 0 213 138
h346z" />
    <glyph glyph-name="Cdotaccent" unicode="&#x10a;" horiz-adv-x="1628" 
d="M815 1501q-72 0 -124 52.5t-52 124t52 122.5t124 51t124 -51t52 -122.5t-52 -124t-124 -52.5zM1556 526q-57 -240 -260.5 -396.5t-468.5 -156.5q-309 0 -529 209t-220 504t220 504t529 209q264 0 468 -157t261 -396h-370q-47 104 -143.5 168.5t-215.5 64.5
q-164 0 -278.5 -115.5t-114.5 -277.5t115 -277.5t278 -115.5q119 0 216.5 64.5t142.5 168.5h370z" />
    <glyph glyph-name="cdotaccent" unicode="&#x10b;" horiz-adv-x="1265" 
d="M645 1145q-72 0 -124 52t-52 124t52 123t124 51t124 -51t52 -123t-52 -124t-124 -52zM1204 410q-25 -186 -183.5 -311.5t-369.5 -125.5q-240 0 -411.5 157t-171.5 378t172 378.5t411 157.5q211 0 369 -126.5t184 -307.5h-346q-23 61 -81 99.5t-132 38.5q-98 0 -166.5 -71
t-68.5 -169q0 -96 68.5 -166t166.5 -70q154 0 213 138h346z" />
    <glyph glyph-name="Ccaron" unicode="&#x10c;" horiz-adv-x="1628" 
d="M1233 1862l-270 -363h-297l-269 363h301l117 -164l115 164h303zM1556 526q-57 -240 -260.5 -396.5t-468.5 -156.5q-309 0 -529 209t-220 504t220 504t529 209q264 0 468 -157t261 -396h-370q-47 104 -143.5 168.5t-215.5 64.5q-164 0 -278.5 -115.5t-114.5 -277.5
t115 -277.5t278 -115.5q119 0 216.5 64.5t142.5 168.5h370z" />
    <glyph glyph-name="ccaron" unicode="&#x10d;" horiz-adv-x="1265" 
d="M1063 1505l-270 -362h-297l-269 362h301l117 -164l115 164h303zM1204 410q-25 -186 -183.5 -311.5t-369.5 -125.5q-240 0 -411.5 157t-171.5 378t172 378.5t411 157.5q211 0 369 -126.5t184 -307.5h-346q-23 61 -81 99.5t-132 38.5q-98 0 -166.5 -71t-68.5 -169
q0 -96 68.5 -166t166.5 -70q154 0 213 138h346z" />
    <glyph glyph-name="Dcaron" unicode="&#x10e;" horiz-adv-x="1615" 
d="M1227 1862l-271 -363h-297l-268 363h301l117 -164l115 164h303zM154 0v1372h655q301 0 515 -201.5t214 -484.5t-214 -485.5t-515 -200.5h-655zM510 322h299q154 0 263.5 107.5t109.5 257t-109.5 256t-263.5 106.5h-299v-727z" />
    <glyph glyph-name="dcaron" unicode="&#x10f;" horiz-adv-x="1593" 
d="M1315 1055l55 422h291l-139 -422h-207zM885 1475h340v-1475h-299l-15 125h-6q-37 -74 -131 -113t-192 -39q-203 0 -358.5 150.5t-155.5 386.5q0 233 154.5 383.5t352.5 150.5q94 0 179.5 -43t124.5 -110h6v584zM647 270q98 0 168 70t70 168t-70 167.5t-168 69.5
t-167.5 -69.5t-69.5 -167.5t69.5 -168t167.5 -70z" />
    <glyph glyph-name="Dcroat" unicode="&#x110;" horiz-adv-x="1615" 
d="M809 1372q301 0 515 -201.5t214 -484.5t-214 -485.5t-515 -200.5h-655v569h-150v234h150v569h655zM809 322q154 0 263.5 107.5t109.5 257t-109.5 256t-263.5 106.5h-299v-246h301v-234h-301v-247h299z" />
    <glyph glyph-name="dcroat" unicode="&#x111;" horiz-adv-x="1366" 
d="M1343 1315v-203h-118v-1112h-299l-15 125h-6q-37 -74 -131 -113t-192 -39q-203 0 -358.5 150.5t-155.5 386.5q0 233 154.5 383.5t352.5 150.5q94 0 179.5 -43t124.5 -110h6v221h-277v203h277v160h340v-160h118zM647 270q98 0 168 70t70 168t-70 167.5t-168 69.5
t-167.5 -69.5t-69.5 -167.5t69.5 -168t167.5 -70z" />
    <glyph glyph-name="Emacron" unicode="&#x112;" horiz-adv-x="1288" 
d="M975 1786v-217h-633v217h633zM510 297h661v-297h-1017v1372h997v-297h-641v-241h620v-281h-620v-256z" />
    <glyph glyph-name="emacron" unicode="&#x113;" horiz-adv-x="1271" 
d="M963 1430v-218h-633v218h633zM653 238q160 0 209 98l316 -47q-51 -137 -199 -227.5t-330 -90.5q-240 0 -410.5 152.5t-170.5 380.5q0 225 166.5 382.5t410.5 157.5q258 0 413.5 -179t155.5 -449h-811q51 -178 250 -178zM645 782q-190 0 -242 -166h474q-48 166 -232 166z
" />
    <glyph glyph-name="Edotaccent" unicode="&#x116;" horiz-adv-x="1288" 
d="M659.5 1501q-71.5 0 -124 52.5t-52.5 124t52.5 122.5t124 51t124 -51t52.5 -122.5t-52.5 -124t-124 -52.5zM510 297h661v-297h-1017v1372h997v-297h-641v-241h620v-281h-620v-256z" />
    <glyph glyph-name="edotaccent" unicode="&#x117;" horiz-adv-x="1271" 
d="M647 1145q-72 0 -124 52t-52 124t52 123t124 51t124 -51t52 -123t-52 -124t-124 -52zM653 238q160 0 209 98l316 -47q-51 -137 -199 -227.5t-330 -90.5q-240 0 -410.5 152.5t-170.5 380.5q0 225 166.5 382.5t410.5 157.5q258 0 413.5 -179t155.5 -449h-811
q51 -178 250 -178zM645 782q-190 0 -242 -166h474q-48 166 -232 166z" />
    <glyph glyph-name="Eogonek" unicode="&#x118;" horiz-adv-x="1288" 
d="M1075 -139q0 -39 31 -68t82 -24v-207q-160 -23 -248 48t-88 175q0 113 106 215h-804v1372h997v-297h-641v-241h620v-281h-620v-256h661v-297q-96 -59 -96 -139z" />
    <glyph glyph-name="eogonek" unicode="&#x119;" horiz-adv-x="1271" 
d="M653 238q160 0 209 98l316 -47q-53 -143 -211 -234q-80 -59 -80 -129q0 -39 30.5 -67.5t81.5 -24.5v-207q-160 -23 -247.5 48t-87.5 175q0 59 34 123q-16 -2 -49 -2q-240 0 -410.5 152.5t-170.5 380.5q0 225 166.5 382.5t410.5 157.5q258 0 413.5 -179t155.5 -449h-811
q51 -178 250 -178zM645 782q-190 0 -242 -166h474q-48 166 -232 166z" />
    <glyph glyph-name="Ecaron" unicode="&#x11a;" horiz-adv-x="1288" 
d="M807 1499h-297l-268 363h301l116 -164l115 164h303zM510 297h661v-297h-1017v1372h997v-297h-641v-241h620v-281h-620v-256z" />
    <glyph glyph-name="ecaron" unicode="&#x11b;" horiz-adv-x="1271" 
d="M795 1143h-297l-269 362h301l117 -164l115 164h303zM653 238q160 0 209 98l316 -47q-51 -137 -199 -227.5t-330 -90.5q-240 0 -410.5 152.5t-170.5 380.5q0 225 166.5 382.5t410.5 157.5q258 0 413.5 -179t155.5 -449h-811q51 -178 250 -178zM645 782q-190 0 -242 -166
h474q-48 166 -232 166z" />
    <glyph glyph-name="Gbreve" unicode="&#x11e;" horiz-adv-x="1650" 
d="M825 1495q-154 0 -264 105.5t-110 250.5h249q0 -55 37 -95t88.5 -40t86 40t34.5 95h250q0 -145 -110.5 -250.5t-260.5 -105.5zM1569 795q8 -70 8 -117q-2 -289 -220 -498t-530 -209q-309 0 -529 210t-220 505q0 291 219 503t534 212q213 0 391.5 -102.5t274.5 -272.5
l-330 -119q-53 82 -143 130t-193 48q-166 0 -281.5 -115.5t-115.5 -279.5t121 -280.5t291 -116.5q127 0 230.5 69.5t150.5 182.5h-479v250h821z" />
    <glyph glyph-name="gbreve" unicode="&#x11f;" horiz-adv-x="1386" 
d="M813 1495h250q0 -145 -110.5 -250.5t-260.5 -105.5q-154 0 -264.5 105.5t-110.5 250.5h250q0 -55 37 -95t88 -40t86 40t35 95zM678 -471q-219 0 -373.5 104.5t-206.5 309.5h363q59 -135 217 -136q104 0 174 62.5t70 177.5v150l-4 2q-37 -70 -130.5 -113t-199.5 -43
q-193 0 -345.5 135t-152.5 357q0 215 159 362t355 147q98 0 191.5 -39.5t130.5 -113.5h6l14 125h299v-934q0 -270 -158.5 -411.5t-408.5 -141.5zM686 317q90 0 156.5 64.5t66.5 155t-66.5 156t-156.5 65.5q-94 0 -161.5 -65.5t-67.5 -157.5q0 -88 67.5 -153t161.5 -65z" />
    <glyph glyph-name="Gdotaccent" unicode="&#x120;" horiz-adv-x="1650" 
d="M825.5 1501q-71.5 0 -124 52.5t-52.5 124t52.5 122.5t124 51t123.5 -51t52 -122.5t-52 -124t-123.5 -52.5zM1569 795q8 -70 8 -117q-2 -289 -220 -498t-530 -209q-309 0 -529 210t-220 505q0 291 219 503t534 212q213 0 391.5 -102.5t274.5 -272.5l-330 -119
q-53 82 -143 130t-193 48q-166 0 -281.5 -115.5t-115.5 -279.5t121 -280.5t291 -116.5q127 0 230.5 69.5t150.5 182.5h-479v250h821z" />
    <glyph glyph-name="gdotaccent" unicode="&#x121;" horiz-adv-x="1386" 
d="M692.5 1145q-71.5 0 -124 52t-52.5 124t52.5 123t124 51t123.5 -51t52 -123t-52 -124t-123.5 -52zM678 -471q-219 0 -373.5 104.5t-206.5 309.5h363q59 -135 217 -136q104 0 174 62.5t70 177.5v150l-4 2q-37 -70 -130.5 -113t-199.5 -43q-193 0 -345.5 135t-152.5 357
q0 215 159 362t355 147q98 0 191.5 -39.5t130.5 -113.5h6l14 125h299v-934q0 -270 -158.5 -411.5t-408.5 -141.5zM686 317q90 0 156.5 64.5t66.5 155t-66.5 156t-156.5 65.5q-94 0 -161.5 -65.5t-67.5 -157.5q0 -88 67.5 -153t161.5 -65z" />
    <glyph glyph-name="uni0122" unicode="&#x122;" horiz-adv-x="1650" 
d="M1569 795q8 -70 8 -117q-2 -289 -220 -498t-530 -209q-309 0 -529 210t-220 505q0 291 219 503t534 212q213 0 391.5 -102.5t274.5 -272.5l-330 -119q-53 82 -143 130t-193 48q-166 0 -281.5 -115.5t-115.5 -279.5t121 -280.5t291 -116.5q127 0 230.5 69.5t150.5 182.5
h-479v250h821zM662 -524l55 422h291l-140 -422h-206z" />
    <glyph glyph-name="uni0123" unicode="&#x123;" horiz-adv-x="1386" 
d="M498 1114l141 422h205l-56 -422h-290zM678 -471q-219 0 -373.5 104.5t-206.5 309.5h363q59 -135 217 -136q104 0 174 62.5t70 177.5v150l-4 2q-37 -70 -130.5 -113t-199.5 -43q-193 0 -345.5 135t-152.5 357q0 215 159 362t355 147q98 0 191.5 -39.5t130.5 -113.5h6
l14 125h299v-934q0 -270 -158.5 -411.5t-408.5 -141.5zM686 317q90 0 156.5 64.5t66.5 155t-66.5 156t-156.5 65.5q-94 0 -161.5 -65.5t-67.5 -157.5q0 -88 67.5 -153t161.5 -65z" />
    <glyph glyph-name="Hbar" unicode="&#x126;" horiz-adv-x="1591" 
d="M1561 1178v-199h-123v-979h-357v543h-571v-543h-356v979h-121v199h121v194h356v-194h571v194h357v-194h123zM1081 842v137h-571v-137h571z" />
    <glyph glyph-name="hbar" unicode="&#x127;" horiz-adv-x="1345" 
d="M774 1044q203 0 326 -136t123 -343v-565h-342v532q0 86 -58.5 146.5t-142.5 60.5q-82 0 -140.5 -61.5t-58.5 -149.5v-528h-340v1124h-121v203h121v148h340v-148h275v-203h-275v-235h6q43 74 121 114.5t166 40.5z" />
    <glyph glyph-name="Itilde" unicode="&#x128;" horiz-adv-x="665" 
d="M543 1868h192q-2 -172 -70.5 -263.5t-172.5 -91.5q-70 0 -161 64.5t-126 64.5t-58.5 -30.5t-25.5 -81.5h-191q2 176 76 267t189 91q61 0 113 -32.5t92 -65.5t71 -33t51.5 28t20.5 83zM154 0v1372h356v-1372h-356z" />
    <glyph glyph-name="itilde" unicode="&#x129;" horiz-adv-x="622" 
d="M520 1511h193q-2 -172 -71 -263t-173 -91q-70 0 -161 64.5t-126 64.5t-58.5 -30.5t-25.5 -81.5h-190q2 176 75.5 267t188.5 91q61 0 113.5 -33t92.5 -65.5t70.5 -32.5t51 27.5t20.5 82.5zM141 0v1016h340v-1016h-340z" />
    <glyph glyph-name="Imacron" unicode="&#x12a;" horiz-adv-x="665" 
d="M16 1569v217h633v-217h-633zM154 0v1372h356v-1372h-356z" />
    <glyph glyph-name="imacron" unicode="&#x12b;" horiz-adv-x="622" 
d="M-6 1212v218h633v-218h-633zM141 0v1016h340v-1016h-340z" />
    <glyph glyph-name="Iogonek" unicode="&#x12e;" horiz-adv-x="665" 
d="M414 -139q0 -39 30.5 -68t81.5 -24v-207q-160 -23 -248 48t-88 175q0 113 107 215h-143v1372h356v-1372q-96 -59 -96 -139z" />
    <glyph glyph-name="iogonek" unicode="&#x12f;" horiz-adv-x="622" 
d="M311.5 1145q-71.5 0 -124 52t-52.5 124t52.5 123t124 51t123.5 -51t52 -123t-52 -124t-123.5 -52zM385 -139q0 -39 30.5 -68t82.5 -24v-207q-160 -23 -248 48t-88 175q0 113 106 215h-127v1016h340v-1016q-96 -59 -96 -139z" />
    <glyph glyph-name="Idotaccent" unicode="&#x130;" horiz-adv-x="665" 
d="M334 1501q-72 0 -124 52.5t-52 124t52 122.5t124 51t124 -51t52 -122.5t-52 -124t-124 -52.5zM154 0v1372h356v-1372h-356z" />
    <glyph glyph-name="dotlessi" unicode="&#x131;" horiz-adv-x="622" 
d="M141 0v1016h340v-1016h-340z" />
    <glyph glyph-name="IJ" unicode="&#x132;" horiz-adv-x="1851" 
d="M154 0v1372h356v-1372h-356zM1718 1372v-909q0 -201 -148.5 -345.5t-357.5 -144.5q-213 0 -374.5 145.5t-161.5 344.5v67h356v-67q0 -70 49 -120t115 -50q68 0 117 50t49 120v612h-496v297h852z" />
    <glyph glyph-name="ij" unicode="&#x133;" horiz-adv-x="1255" 
d="M311 1130q-80 0 -137 56.5t-57 134.5t57 134t137 56q78 0 136.5 -57t58.5 -133q0 -78 -58.5 -134.5t-136.5 -56.5zM946 1130q-80 0 -137 56.5t-57 134.5t57 134t137 56q78 0 136.5 -57t58.5 -133q0 -78 -58.5 -134.5t-136.5 -56.5zM141 0v1016h340v-1016h-340zM707 -471
q-72 0 -127 22v271q55 -14 94 -15q47 0 73.5 30t26.5 79v1100h340v-1082q0 -178 -111.5 -291.5t-295.5 -113.5z" />
    <glyph glyph-name="uni0136" unicode="&#x136;" horiz-adv-x="1425" 
d="M154 0v1372h356v-594h6l465 594h434l-541 -674l566 -698h-439l-485 614h-6v-614h-356zM557 -524l55 422h291l-139 -422h-207z" />
    <glyph glyph-name="uni0137" unicode="&#x137;" horiz-adv-x="1245" 
d="M141 0v1475h340v-840h6l328 381h420l-418 -467l436 -549h-428l-338 463h-6v-463h-340zM469 -524l55 422h291l-139 -422h-207z" />
    <glyph glyph-name="Lacute" unicode="&#x139;" horiz-adv-x="1177" 
d="M770 1862l-264 -363h-307l264 363h307zM510 297h604v-297h-960v1372h356v-1075z" />
    <glyph glyph-name="lacute" unicode="&#x13a;" horiz-adv-x="622" 
d="M436 1581h-307l264 363h307zM141 0v1475h340v-1475h-340z" />
    <glyph glyph-name="uni013B" unicode="&#x13b;" horiz-adv-x="1177" 
d="M510 297h604v-297h-960v1372h356v-1075zM459 -524l55 422h291l-139 -422h-207z" />
    <glyph glyph-name="uni013C" unicode="&#x13c;" horiz-adv-x="622" 
d="M141 0v1475h340v-1475h-340zM147 -524l56 422h291l-140 -422h-207z" />
    <glyph glyph-name="Lcaron" unicode="&#x13d;" horiz-adv-x="1177" 
d="M510 297h604v-297h-960v1372h356v-1075zM1047 1372l-140 -422h-207l56 422h291z" />
    <glyph glyph-name="lcaron" unicode="&#x13e;" horiz-adv-x="804" 
d="M547 1055l55 422h291l-139 -422h-207zM141 0v1475h340v-1475h-340z" />
    <glyph glyph-name="Ldot" unicode="&#x13f;" horiz-adv-x="1228" 
d="M510 1372v-1075h604v-297h-960v1372h356zM944 545q-88 0 -151.5 61.5t-63.5 147.5t63.5 148.5t151.5 62.5t152.5 -62.5t64.5 -148.5t-64.5 -147.5t-152.5 -61.5z" />
    <glyph glyph-name="ldot" unicode="&#x140;" horiz-adv-x="917" 
d="M141 0v1475h340v-1475h-340zM768 563q-80 0 -138.5 56.5t-58.5 134t58.5 135t138.5 57.5t139.5 -57.5t59.5 -135t-59.5 -134t-139.5 -56.5z" />
    <glyph glyph-name="Lslash" unicode="&#x141;" horiz-adv-x="1177" 
d="M510 297h604v-297h-960v510l-125 -72v217l125 72v645h356v-438l256 147v-217l-256 -147v-420z" />
    <glyph glyph-name="lslash" unicode="&#x142;" horiz-adv-x="622" 
d="M610 1090v-218l-129 -92v-780h-340v535l-121 -89v218l121 88v723h340v-478z" />
    <glyph glyph-name="Nacute" unicode="&#x143;" horiz-adv-x="1613" 
d="M932 1499h-307l264 363h307zM1116 1372h344v-1380h-178l-784 807v-799h-344v1380h178l784 -805v797z" />
    <glyph glyph-name="nacute" unicode="&#x144;" horiz-adv-x="1343" 
d="M797 1143h-308l265 362h307zM141 0v1016h299l21 -127h4q49 74 132 114.5t177 40.5q203 0 325 -136t122 -343v-565h-340v532q0 86 -58.5 146.5t-142.5 60.5q-82 0 -140.5 -61.5t-58.5 -149.5v-528h-340z" />
    <glyph glyph-name="uni0145" unicode="&#x145;" horiz-adv-x="1613" 
d="M1116 1372h344v-1380h-178l-784 807v-799h-344v1380h178l784 -805v797zM682 -524l55 422h291l-139 -422h-207z" />
    <glyph glyph-name="uni0146" unicode="&#x146;" horiz-adv-x="1343" 
d="M141 0v1016h299l21 -127h4q49 74 132 114.5t177 40.5q203 0 325 -136t122 -343v-565h-340v532q0 86 -58.5 146.5t-142.5 60.5q-82 0 -140.5 -61.5t-58.5 -149.5v-528h-340zM508 -524l55 422h291l-139 -422h-207z" />
    <glyph glyph-name="Ncaron" unicode="&#x147;" horiz-adv-x="1613" 
d="M1225 1862l-271 -363h-297l-268 363h301l117 -164l115 164h303zM1116 1372h344v-1380h-178l-784 807v-799h-344v1380h178l784 -805v797z" />
    <glyph glyph-name="ncaron" unicode="&#x148;" horiz-adv-x="1343" 
d="M1090 1505l-271 -362h-297l-268 362h301l117 -164l114 164h304zM141 0v1016h299l21 -127h4q49 74 132 114.5t177 40.5q203 0 325 -136t122 -343v-565h-340v532q0 86 -58.5 146.5t-142.5 60.5q-82 0 -140.5 -61.5t-58.5 -149.5v-528h-340z" />
    <glyph glyph-name="Eng" unicode="&#x14a;" horiz-adv-x="1615" 
d="M948 -430v321q61 0 113.5 50.5t52.5 115.5v101l-612 639v-797h-348v1380h182l778 -802v794h348v-1313q0 -201 -150.5 -345t-363.5 -144z" />
    <glyph glyph-name="eng" unicode="&#x14b;" horiz-adv-x="1343" 
d="M813 -471q-72 0 -127 22v271q55 -14 94 -15q47 0 74 30t27 79v616q0 86 -58.5 146.5t-142.5 60.5q-82 0 -140.5 -61.5t-58.5 -149.5v-528h-340v1016h299l21 -127h4q49 74 132 114.5t177 40.5q203 0 325 -136t122 -343v-631q0 -178 -112 -291.5t-296 -113.5z" />
    <glyph glyph-name="Omacron" unicode="&#x14c;" horiz-adv-x="1654" 
d="M510 1569v217h633v-217h-633zM827.5 -27q-309.5 0 -529.5 209t-220 504t220 504t529.5 209t529.5 -209t220 -504t-220 -504t-529.5 -209zM827.5 293q163.5 0 278.5 115.5t115 277.5t-115 277.5t-278.5 115.5t-278.5 -115.5t-115 -277.5t115 -277.5t278.5 -115.5z" />
    <glyph glyph-name="omacron" unicode="&#x14d;" horiz-adv-x="1294" 
d="M332 1212v218h633v-218h-633zM647.5 -27q-237.5 0 -408.5 157t-171 378t171 378.5t408.5 157.5t408.5 -157.5t171 -378.5t-171 -378t-408.5 -157zM647 270q96 0 168 71t72 167t-72 166.5t-168 70.5t-166.5 -70.5t-70.5 -166.5t70.5 -167t166.5 -71z" />
    <glyph glyph-name="Ohungarumlaut" unicode="&#x150;" horiz-adv-x="1654" 
d="M737 1499h-254l265 363h253zM1079 1499h-254l265 363h253zM827.5 -27q-309.5 0 -529.5 209t-220 504t220 504t529.5 209t529.5 -209t220 -504t-220 -504t-529.5 -209zM827.5 293q163.5 0 278.5 115.5t115 277.5t-115 277.5t-278.5 115.5t-278.5 -115.5t-115 -277.5
t115 -277.5t278.5 -115.5z" />
    <glyph glyph-name="ohungarumlaut" unicode="&#x151;" horiz-adv-x="1294" 
d="M559 1143h-254l264 362h254zM901 1143h-254l264 362h254zM647.5 -27q-237.5 0 -408.5 157t-171 378t171 378.5t408.5 157.5t408.5 -157.5t171 -378.5t-171 -378t-408.5 -157zM647 270q96 0 168 71t72 167t-72 166.5t-168 70.5t-166.5 -70.5t-70.5 -166.5t70.5 -167
t166.5 -71z" />
    <glyph glyph-name="OE" unicode="&#x152;" horiz-adv-x="2353" 
d="M1575 297h661v-297h-1017v78q-182 -104 -392 -105q-309 0 -529 209t-220 504t220 504t529 209q209 0 392 -105v78h997v-297h-641v-241h620v-281h-620v-256zM827 293q152 0 263.5 102.5t128.5 249.5v82q-16 147 -128 249.5t-264 102.5q-164 0 -278.5 -115.5t-114.5 -277.5
t114.5 -277.5t278.5 -115.5z" />
    <glyph glyph-name="oe" unicode="&#x153;" horiz-adv-x="2095" 
d="M1470 238q160 0 209 98l316 -47q-51 -137 -198.5 -227.5t-330.5 -90.5q-246 0 -413 156q-170 -154 -406 -154q-238 0 -408.5 157t-170.5 378t171 378.5t408.5 157.5t405.5 -155q168 156 409 155q258 0 414 -179t156 -449h-811q50 -178 249 -178zM1462 782
q-190 0 -241 -166h473q-48 166 -232 166zM647 270q90 0 158.5 61.5t79.5 149.5v23v28q-10 88 -79 150.5t-159 62.5q-96 0 -166.5 -70.5t-70.5 -166.5t70.5 -167t166.5 -71z" />
    <glyph glyph-name="Racute" unicode="&#x154;" horiz-adv-x="1419" 
d="M1098 1862l-264 -363h-308l265 363h307zM1382 0h-387l-305 461h-194v-461h-342v1372h692q193 0 326 -130t133 -331q0 -147 -74 -255.5t-199 -159.5zM496 1094v-367h264q88 0 146.5 52t58.5 132q0 78 -58.5 130.5t-142.5 52.5h-268z" />
    <glyph glyph-name="racute" unicode="&#x155;" horiz-adv-x="851" 
d="M600 1143h-307l264 362h307zM141 0v1016h299l21 -197h4q45 109 137 161t201 54v-303q-158 0 -240 -82t-82 -225v-424h-340z" />
    <glyph glyph-name="uni0156" unicode="&#x156;" horiz-adv-x="1419" 
d="M1032 496l350 -496h-387l-305 461h-194v-461h-342v1372h692q193 0 326 -130t133 -331q0 -147 -74 -255.5t-199 -159.5zM496 1094v-367h264q88 0 146.5 52t58.5 132q0 78 -58.5 130.5t-142.5 52.5h-268zM545 -524l55 422h291l-139 -422h-207z" />
    <glyph glyph-name="uni0157" unicode="&#x157;" horiz-adv-x="851" 
d="M141 0v1016h299l21 -197h4q45 109 137 161t201 54v-303q-158 0 -240 -82t-82 -225v-424h-340zM141 -524l56 422h290l-139 -422h-207z" />
    <glyph glyph-name="Rcaron" unicode="&#x158;" horiz-adv-x="1419" 
d="M856 1499h-297l-268 363h301l117 -164l114 164h303zM1382 0h-387l-305 461h-194v-461h-342v1372h692q193 0 326 -130t133 -331q0 -147 -74 -255.5t-199 -159.5zM496 1094v-367h264q88 0 146.5 52t58.5 132q0 78 -58.5 130.5t-142.5 52.5h-268z" />
    <glyph glyph-name="rcaron" unicode="&#x159;" horiz-adv-x="851" 
d="M893 1505l-270 -362h-297l-269 362h301l117 -164l115 164h303zM141 0v1016h299l21 -197h4q45 109 137 161t201 54v-303q-158 0 -240 -82t-82 -225v-424h-340z" />
    <glyph glyph-name="Sacute" unicode="&#x15a;" horiz-adv-x="1290" 
d="M770 1499h-307l264 363h307zM662 -29q-238 0 -402 121t-170 330h361q6 -88 69.5 -130t143.5 -42q74 0 129 31.5t55 89.5q0 43 -37 77.5t-80 52t-135 50.5q-125 45 -202 82t-146.5 90t-101 121.5t-31.5 161.5q0 184 145.5 289.5t386.5 105.5q227 0 378 -107.5t159 -314.5
h-355q-8 74 -59 114t-127 40q-70 0 -122 -28t-52 -87q0 -41 35 -73t65.5 -44t116.5 -41q23 -8 35 -12q129 -43 207 -78t147.5 -87t99 -123t29.5 -169q0 -190 -149 -305t-393 -115z" />
    <glyph glyph-name="sacute" unicode="&#x15b;" horiz-adv-x="1138" 
d="M694 1143h-307l264 362h307zM594 -29q-233 0 -374.5 89.5t-143.5 252.5h362q2 -53 43 -77.5t99 -24.5q53 0 90 22.5t37 57.5q0 45 -47.5 67.5t-192.5 55.5q-369 86 -369 319q0 143 129 227t334 84q215 0 349 -87t137 -244h-351q-2 53 -38.5 79.5t-88.5 26.5
q-47 0 -81.5 -20.5t-34.5 -57.5q0 -49 56 -73.5t189 -49.5q379 -74 379 -309q0 -156 -132 -247t-351 -91z" />
    <glyph glyph-name="Scedilla" unicode="&#x15e;" horiz-adv-x="1290" 
d="M1204 391q0 -178 -133 -290.5t-352 -127.5l-27 -55q4 0 12.5 1t14.5 1q80 0 133 -54t53 -134q0 -88 -67.5 -148.5t-169.5 -60.5q-135 0 -232 76l90 125q59 -47 123 -48q35 0 58.5 16.5t23.5 43.5q0 20 -16.5 36.5t-38.5 16.5q-25 0 -55 -25l-111 101l51 112
q-201 25 -333 142t-138 303h361q6 -88 69.5 -130t143.5 -42q74 0 129 31.5t55 89.5q0 43 -37 77.5t-80 52t-135 50.5q-125 45 -202 82t-146.5 90t-101 121.5t-31.5 161.5q0 184 145.5 289.5t386.5 105.5q227 0 378 -107.5t159 -314.5h-355q-8 74 -59 114t-127 40
q-70 0 -122 -28t-52 -87q0 -41 35 -73t65.5 -44t116.5 -41q23 -8 35 -12q129 -43 207 -78t147.5 -87t99 -123t29.5 -169z" />
    <glyph glyph-name="scedilla" unicode="&#x15f;" horiz-adv-x="1138" 
d="M1077 309q0 -147 -117.5 -236t-316.5 -100l-27 -55q4 0 12.5 1t14.5 1q80 0 133 -54t53 -134q0 -88 -67.5 -148.5t-169.5 -60.5q-135 0 -232 76l91 125q59 -47 122 -48q35 0 58.5 16.5t23.5 43.5q0 20 -16 36.5t-39 16.5q-25 0 -55 -25l-111 101l51 112
q-188 18 -297.5 105.5t-111.5 230.5h362q2 -53 43 -77.5t99 -24.5q53 0 90 22.5t37 57.5q0 45 -47.5 67.5t-192.5 55.5q-369 86 -369 319q0 143 129 227t334 84q215 0 349 -87t137 -244h-351q-2 53 -38.5 79.5t-88.5 26.5q-47 0 -81.5 -20.5t-34.5 -57.5q0 -49 56 -73.5
t189 -49.5q379 -73 379 -309z" />
    <glyph glyph-name="Scaron" unicode="&#x160;" horiz-adv-x="1290" 
d="M1063 1862l-270 -363h-297l-269 363h301l117 -164l115 164h303zM662 -29q-238 0 -402 121t-170 330h361q6 -88 69.5 -130t143.5 -42q74 0 129 31.5t55 89.5q0 43 -37 77.5t-80 52t-135 50.5q-125 45 -202 82t-146.5 90t-101 121.5t-31.5 161.5q0 184 145.5 289.5
t386.5 105.5q227 0 378 -107.5t159 -314.5h-355q-8 74 -59 114t-127 40q-70 0 -122 -28t-52 -87q0 -41 35 -73t65.5 -44t116.5 -41q23 -8 35 -12q129 -43 207 -78t147.5 -87t99 -123t29.5 -169q0 -190 -149 -305t-393 -115z" />
    <glyph glyph-name="scaron" unicode="&#x161;" horiz-adv-x="1138" 
d="M987 1505l-270 -362h-297l-268 362h301l116 -164l115 164h303zM594 -29q-233 0 -374.5 89.5t-143.5 252.5h362q2 -53 43 -77.5t99 -24.5q53 0 90 22.5t37 57.5q0 45 -47.5 67.5t-192.5 55.5q-369 86 -369 319q0 143 129 227t334 84q215 0 349 -87t137 -244h-351
q-2 53 -38.5 79.5t-88.5 26.5q-47 0 -81.5 -20.5t-34.5 -57.5q0 -49 56 -73.5t189 -49.5q379 -74 379 -309q0 -156 -132 -247t-351 -91z" />
    <glyph glyph-name="uni0162" unicode="&#x162;" horiz-adv-x="1269" 
d="M813 0h-90l-39 -82q4 0 12.5 1t14.5 1q80 0 133 -54t53 -134q0 -88 -67.5 -148.5t-170.5 -60.5q-135 0 -231 76l90 125q59 -47 123 -48q35 0 58.5 16.5t23.5 43.5q0 20 -16.5 36.5t-38.5 16.5q-25 0 -56 -25l-110 101l63 135h-108v1075h-416v297h1188v-297h-416v-1075z
" />
    <glyph glyph-name="uni0163" unicode="&#x163;" horiz-adv-x="903" 
d="M842 748h-314v-326q0 -78 45 -123t123 -45q45 0 146 31v-273q-63 -41 -201 -41q-23 0 -72 4l-26 -57q4 0 12 1t14 1q80 0 133.5 -54t53.5 -134q0 -88 -67.5 -148.5t-170.5 -60.5q-135 0 -231 76l90 125q59 -47 123 -48q35 0 58.5 16.5t23.5 43.5q0 20 -16.5 36.5
t-39.5 16.5q-25 0 -55 -25l-111 101l70 149q-113 49 -177.5 149.5t-64.5 227.5v357h-168v268h168v250h340v-250h314v-268z" />
    <glyph glyph-name="Tcaron" unicode="&#x164;" horiz-adv-x="1269" 
d="M784 1499h-297l-268 363h301l117 -164l115 164h303zM1229 1372v-297h-416v-1075h-356v1075h-416v297h1188z" />
    <glyph glyph-name="tcaron" unicode="&#x165;" horiz-adv-x="907" 
d="M977 1556l-139 -421h-207l55 421h291zM528 1266v-250h314v-268h-314v-326q0 -78 45 -123t123 -45q45 0 146 31v-273q-63 -41 -201 -41q-203 0 -328 119t-125 301v357h-168v268h168v250h340z" />
    <glyph glyph-name="Tbar" unicode="&#x166;" horiz-adv-x="1269" 
d="M1229 1075h-416v-260h227v-233h-227v-582h-356v582h-224v233h224v260h-416v297h1188v-297z" />
    <glyph glyph-name="tbar" unicode="&#x167;" horiz-adv-x="907" 
d="M842 748h-314v-117h256v-203h-256v-6q0 -78 45 -123t123 -45q45 0 146 31v-273q-63 -41 -201 -41q-203 0 -328 119t-125 301v37h-139v203h139v117h-168v268h168v250h340v-250h314v-268z" />
    <glyph glyph-name="Umacron" unicode="&#x16a;" horiz-adv-x="1568" 
d="M467 1569v217h633v-217h-633zM786 -27q-266 0 -454.5 178.5t-188.5 428.5v792h357v-792q0 -119 84 -203t202.5 -84t200.5 84t82 203v792h356v-792q0 -250 -187.5 -428.5t-451.5 -178.5z" />
    <glyph glyph-name="umacron" unicode="&#x16b;" horiz-adv-x="1316" 
d="M340 1212v218h633v-218h-633zM1176 1016v-1016h-299l-19 127h-6q-47 -74 -126 -114t-169 -40q-195 0 -314.5 135.5t-119.5 342.5v565h342v-535q0 -88 54 -146.5t130 -58.5q78 0 132.5 58.5t54.5 148.5v533h340z" />
    <glyph glyph-name="Uring" unicode="&#x16e;" horiz-adv-x="1568" 
d="M784.5 1432q-108.5 0 -185.5 71.5t-77 174t77 174t185.5 71.5t186.5 -71.5t78 -174t-78 -174t-186.5 -71.5zM784.5 1599q32.5 0 56 23t23.5 55.5t-23.5 55t-56 22.5t-55 -22.5t-22.5 -55t22.5 -55.5t55 -23zM786 -27q-266 0 -454.5 178.5t-188.5 428.5v792h357v-792
q0 -119 84 -203t202.5 -84t200.5 84t82 203v792h356v-792q0 -250 -187.5 -428.5t-451.5 -178.5z" />
    <glyph glyph-name="uring" unicode="&#x16f;" horiz-adv-x="1316" 
d="M657.5 1075q-108.5 0 -185.5 72t-77 174t77 174t185.5 72t186.5 -72t78 -174t-78 -174t-186.5 -72zM657.5 1243q32.5 0 56 22.5t23.5 55.5t-23.5 55.5t-56 22.5t-55 -22.5t-22.5 -55.5t22.5 -55.5t55 -22.5zM1176 1016v-1016h-299l-19 127h-6q-47 -74 -126 -114t-169 -40
q-195 0 -314.5 135.5t-119.5 342.5v565h342v-535q0 -88 54 -146.5t130 -58.5q78 0 132.5 58.5t54.5 148.5v533h340z" />
    <glyph glyph-name="Uhungarumlaut" unicode="&#x170;" horiz-adv-x="1568" 
d="M694 1499h-254l265 363h253zM1036 1499h-254l265 363h253zM786 -27q-266 0 -454.5 178.5t-188.5 428.5v792h357v-792q0 -119 84 -203t202.5 -84t200.5 84t82 203v792h356v-792q0 -250 -187.5 -428.5t-451.5 -178.5z" />
    <glyph glyph-name="uhungarumlaut" unicode="&#x171;" horiz-adv-x="1316" 
d="M567 1143h-254l265 362h253zM909 1143h-254l265 362h254zM1176 1016v-1016h-299l-19 127h-6q-47 -74 -126 -114t-169 -40q-195 0 -314.5 135.5t-119.5 342.5v565h342v-535q0 -88 54 -146.5t130 -58.5q78 0 132.5 58.5t54.5 148.5v533h340z" />
    <glyph glyph-name="Uogonek" unicode="&#x172;" horiz-adv-x="1568" 
d="M1069 1372h356v-792q0 -215 -141 -380t-356 -212q-82 -55 -82 -129q0 -39 30.5 -68t81.5 -24v-207q-160 -23 -247.5 47.5t-87.5 175.5q0 102 88 194q-242 29 -405 200t-163 403v792h357v-792q0 -119 84 -203t202.5 -84t200.5 84t82 203v792z" />
    <glyph glyph-name="uogonek" unicode="&#x173;" horiz-adv-x="1316" 
d="M1079 -139q0 -39 31 -68t82 -24v-207q-160 -23 -248 48t-88 175q0 113 107 215h-86l-19 127h-6q-47 -74 -126 -114t-169 -40q-195 0 -314.5 135.5t-119.5 342.5v565h342v-535q0 -88 54 -146.5t130 -58.5q78 0 132.5 58.5t54.5 148.5v533h340v-1016q-97 -59 -97 -139z" />
    <glyph glyph-name="Wcircumflex" unicode="&#x174;" horiz-adv-x="2203" 
d="M1520 1499h-303l-115 162l-117 -162h-301l268 363h297zM616 0l-575 1372h369l305 -731l317 731h139l318 -731l305 731h369l-576 -1372h-139l-346 817l-348 -817h-138z" />
    <glyph glyph-name="wcircumflex" unicode="&#x175;" horiz-adv-x="1789" 
d="M1313 1143h-303l-115 162l-117 -162h-301l268 362h297zM487 0l-493 1016h371l223 -481l237 481h140l237 -481l223 481h369l-494 -1016h-137l-268 537l-268 -537h-140z" />
    <glyph glyph-name="Ycircumflex" unicode="&#x176;" horiz-adv-x="1470" 
d="M735 1661l-117 -162h-301l269 363h297l270 -363h-303zM1483 1372l-568 -909v-463h-358v463l-569 909h405l342 -577l342 577h406z" />
    <glyph glyph-name="ycircumflex" unicode="&#x177;" horiz-adv-x="1181" 
d="M1014 1143h-303l-115 162l-117 -162h-301l268 362h297zM72 -451l350 652l-422 815h369l227 -488l227 488h369l-760 -1467h-360z" />
    <glyph glyph-name="Ydieresis" unicode="&#x178;" horiz-adv-x="1470" 
d="M512 1501q-72 0 -124 52.5t-52 124t52 122.5t124 51t125 -52t53 -122q0 -72 -53 -124t-125 -52zM958 1501q-74 0 -126 52.5t-52 124t52.5 122.5t125.5 51q72 0 124.5 -52t52.5 -122q0 -72 -52.5 -124t-124.5 -52zM1483 1372l-568 -909v-463h-358v463l-569 909h405
l342 -577l342 577h406z" />
    <glyph glyph-name="Zacute" unicode="&#x179;" horiz-adv-x="1314" 
d="M784 1499h-307l264 363h308zM106 0v131l621 944h-610v297h1091v-131l-610 -944h631v-297h-1123z" />
    <glyph glyph-name="zacute" unicode="&#x17a;" horiz-adv-x="1142" 
d="M696 1143h-307l264 362h308zM88 0v131l483 602h-460v283h933v-131l-473 -602h494v-283h-977z" />
    <glyph glyph-name="Zdotaccent" unicode="&#x17b;" horiz-adv-x="1314" 
d="M659.5 1501q-71.5 0 -124 52.5t-52.5 124t52.5 122.5t124 51t124 -51t52.5 -122.5t-52.5 -124t-124 -52.5zM106 0v131l621 944h-610v297h1091v-131l-610 -944h631v-297h-1123z" />
    <glyph glyph-name="zdotaccent" unicode="&#x17c;" horiz-adv-x="1142" 
d="M571.5 1145q-71.5 0 -124 52t-52.5 124t52.5 123t124 51t124 -51t52.5 -123t-52.5 -124t-124 -52zM88 0v131l483 602h-460v283h933v-131l-473 -602h494v-283h-977z" />
    <glyph glyph-name="Zcaron" unicode="&#x17d;" horiz-adv-x="1314" 
d="M1077 1862l-270 -363h-297l-268 363h301l116 -164l115 164h303zM106 0v131l621 944h-610v297h1091v-131l-610 -944h631v-297h-1123z" />
    <glyph glyph-name="zcaron" unicode="&#x17e;" horiz-adv-x="1142" 
d="M989 1505l-270 -362h-297l-268 362h301l116 -164l115 164h303zM88 0v131l483 602h-460v283h933v-131l-473 -602h494v-283h-977z" />
    <glyph glyph-name="florin" unicode="&#x192;" horiz-adv-x="1085" 
d="M952 1135q-82 0 -137 -44t-70 -122l-8 -47h320l-47 -269h-318l-39 -239q-29 -180 -179 -297t-359 -117q-127 0 -213 41l90 266q63 -29 119 -28q84 0 139 45t67 120l35 209h-145l47 269h143l13 77q31 178 181 296t357 118q127 0 213 -41l-90 -266q-64 29 -119 29z" />
    <glyph glyph-name="AEacute" unicode="&#x1fc;" horiz-adv-x="2000" 
d="M1540 1862l-264 -363h-307l264 363h307zM1309 297h575v-297h-897v221h-520l-125 -221h-369l832 1372h1059v-297h-555v-241h534v-281h-534v-256zM608 473h379v674z" />
    <glyph glyph-name="aeacute" unicode="&#x1fd;" horiz-adv-x="2050" 
d="M1436 1505l-265 -362h-307l264 362h308zM1427 240q162 0 211 102l314 -55q-51 -135 -197.5 -225.5t-331.5 -90.5q-250 0 -419 164q-203 -164 -502 -164q-170 0 -285 88t-115 232q0 137 115 228t340 91h268v43q0 57 -49 95t-129 38q-74 0 -123 -30.5t-51 -79.5l-336 35
q27 143 173.5 238t334.5 95q231 0 391 -135q162 135 385 135q256 0 414 -179t158 -449h-815q50 -176 249 -176zM1421 780q-92 0 -155.5 -43t-87.5 -123h477q-48 166 -234 166zM444 305q0 -43 36 -67.5t100 -24.5q168 0 307 88q-18 39 -33 100h-250q-74 0 -117 -25.5
t-43 -70.5z" />
    <glyph glyph-name="uni0218" unicode="&#x218;" horiz-adv-x="1290" 
d="M662 -29q-238 0 -402 121t-170 330h361q6 -88 69.5 -130t143.5 -42q74 0 129 31.5t55 89.5q0 43 -37 77.5t-80 52t-135 50.5q-125 45 -202 82t-146.5 90t-101 121.5t-31.5 161.5q0 184 145.5 289.5t386.5 105.5q227 0 378 -107.5t159 -314.5h-355q-8 74 -59 114t-127 40
q-70 0 -122 -28t-52 -87q0 -41 35 -73t65.5 -44t116.5 -41q23 -8 35 -12q129 -43 207 -78t147.5 -87t99 -123t29.5 -169q0 -190 -149 -305t-393 -115zM481 -524l56 422h290l-139 -422h-207z" />
    <glyph glyph-name="uni0219" unicode="&#x219;" horiz-adv-x="1138" 
d="M594 -29q-233 0 -374.5 89.5t-143.5 252.5h362q2 -53 43 -77.5t99 -24.5q53 0 90 22.5t37 57.5q0 45 -47.5 67.5t-192.5 55.5q-369 86 -369 319q0 143 129 227t334 84q215 0 349 -87t137 -244h-351q-2 53 -38.5 79.5t-88.5 26.5q-47 0 -81.5 -20.5t-34.5 -57.5
q0 -49 56 -73.5t189 -49.5q379 -74 379 -309q0 -156 -132 -247t-351 -91zM406 -524l55 422h291l-140 -422h-206z" />
    <glyph glyph-name="uni021A" unicode="&#x21a;" horiz-adv-x="1269" 
d="M1229 1372v-297h-416v-1075h-356v1075h-416v297h1188zM473 -524l55 422h291l-139 -422h-207z" />
    <glyph glyph-name="uni021B" unicode="&#x21b;" horiz-adv-x="903" 
d="M842 748h-314v-326q0 -78 45 -123t123 -45q45 0 146 31v-273q-63 -41 -201 -41q-203 0 -328 119t-125 301v357h-168v268h168v250h340v-250h314v-268zM332 -524l55 422h291l-139 -422h-207z" />
    <glyph glyph-name="circumflex" unicode="&#x2c6;" horiz-adv-x="1228" 
d="M946 1143h-303l-115 162l-116 -162h-301l268 362h297z" />
    <glyph glyph-name="caron" unicode="&#x2c7;" horiz-adv-x="1228" 
d="M946 1505l-270 -362h-297l-268 362h301l116 -164l115 164h303z" />
    <glyph glyph-name="breve" unicode="&#x2d8;" horiz-adv-x="1228" 
d="M621 1495h249q0 -145 -110.5 -250.5t-259.5 -105.5q-154 0 -264.5 105.5t-110.5 250.5h250q0 -55 37 -95t88 -40t86 40t35 95z" />
    <glyph glyph-name="dotaccent" unicode="&#x2d9;" horiz-adv-x="1228" 
d="M286.5 1145q-71.5 0 -123.5 52t-52 124t52 123t123.5 51t124 -51t52.5 -123t-52.5 -124t-124 -52z" />
    <glyph glyph-name="ring" unicode="&#x2da;" horiz-adv-x="1228" 
d="M362.5 1075q-108.5 0 -185.5 72t-77 174t77 174t185.5 72t186.5 -72t78 -174t-78 -174t-186.5 -72zM362.5 1243q32.5 0 56 22.5t23.5 55.5t-23.5 55.5t-56 22.5t-55 -22.5t-22.5 -55.5t22.5 -55.5t55 -22.5z" />
    <glyph glyph-name="ogonek" unicode="&#x2db;" horiz-adv-x="1228" 
d="M426 -438q-160 -23 -248 48t-88 175q0 123 119 225l201 -10q-96 -59 -97 -139q0 -39 31 -68t82 -24v-207z" />
    <glyph glyph-name="tilde" unicode="&#x2dc;" horiz-adv-x="1228" 
d="M723 1493h192q-2 -172 -70.5 -263t-172.5 -91q-70 0 -161 64.5t-126 64.5t-58.5 -31t-25.5 -82h-190q2 176 75.5 267t188.5 91q61 0 113.5 -32.5t92.5 -65.5t70.5 -33t51 28t20.5 83z" />
    <glyph glyph-name="hungarumlaut" unicode="&#x2dd;" horiz-adv-x="1228" 
d="M365 1143h-254l264 362h254zM707 1143h-254l264 362h254z" />
    <glyph glyph-name="gravecomb" unicode="&#x300;" 
d="M-418 1143l-264 362h307l264 -362h-307z" />
    <glyph glyph-name="acutecomb" unicode="&#x301;" 
d="M-375 1143h-307l264 362h307z" />
    <glyph glyph-name="uni0302" unicode="&#x302;" 
d="M-111 1143h-303l-114 162l-117 -162h-301l268 362h297z" />
    <glyph glyph-name="tildecomb" unicode="&#x303;" 
d="M-303 1493h192q-2 -172 -70.5 -263t-172.5 -91q-70 0 -161 64.5t-126 64.5t-58.5 -31t-25.5 -82h-190q2 176 75.5 267t188.5 91q61 0 113.5 -32.5t92 -65.5t70.5 -33t51.5 28t20.5 83z" />
    <glyph glyph-name="uni0304" unicode="&#x304;" 
d="M-743 1212v218h632v-218h-632z" />
    <glyph glyph-name="uni0306" unicode="&#x306;" 
d="M-375 1495h250q0 -145 -110.5 -250.5t-260.5 -105.5q-154 0 -264 105.5t-110 250.5h249q0 -55 37 -95t88.5 -40t86 40t34.5 95z" />
    <glyph glyph-name="uni0307" unicode="&#x307;" 
d="M-286.5 1145q-71.5 0 -124 52t-52.5 124t52.5 123t124 51t123.5 -51t52 -123t-52 -124t-123.5 -52z" />
    <glyph glyph-name="uni0308" unicode="&#x308;" 
d="M-759.5 1145q-71.5 0 -124 52t-52.5 124t52.5 123t124 51t124.5 -52t53 -122q0 -72 -53 -124t-124.5 -52zM-313 1145q-74 0 -126.5 52t-52.5 124t52.5 123t126.5 51q72 0 124 -52t52 -122q0 -72 -52 -124t-124 -52z" />
    <glyph glyph-name="uni030A" unicode="&#x30a;" 
d="M-364.5 1075q-108.5 0 -185.5 72t-77 174t77 174t185.5 72t186.5 -72t78 -174t-78 -174t-186.5 -72zM-364.5 1243q32.5 0 56 22.5t23.5 55.5t-23.5 55.5t-56 22.5t-55 -22.5t-22.5 -55.5t22.5 -55.5t55 -22.5z" />
    <glyph glyph-name="uni030B" unicode="&#x30b;" 
d="M-717 1143h-254l264 362h254zM-375 1143h-254l264 362h254z" />
    <glyph glyph-name="uni030C" unicode="&#x30c;" 
d="M-111 1505l-270 -362h-297l-268 362h301l117 -164l114 164h303z" />
    <glyph glyph-name="uni0312" unicode="&#x312;" 
d="M-455 1114l142 422h204l-55 -422h-291z" />
    <glyph glyph-name="uni0326" unicode="&#x326;" 
d="M-440 -524l55 422h291l-139 -422h-207z" />
    <glyph glyph-name="uni0327" unicode="&#x327;" 
d="M-293 -477q-135 0 -231 76l90 125q59 -47 123 -48q35 0 58.5 16.5t23.5 43.5q0 20 -16.5 36.5t-39.5 16.5q-25 0 -55 -25l-111 101l76 164l146 -29l-39 -82q4 0 12 1t14 1q80 0 133.5 -54t53.5 -134q0 -88 -68 -148.5t-170 -60.5z" />
    <glyph glyph-name="uni0328" unicode="&#x328;" 
d="M-164 -438q-160 -23 -248 48t-88 175q0 123 119 225l201 -10q-96 -59 -96 -139q0 -39 30.5 -68t81.5 -24v-207z" />
    <glyph glyph-name="uni0335" unicode="&#x335;" 
d="M-190 678v-234h-807v234h807z" />
    <glyph glyph-name="uni0336" unicode="&#x336;" 
d="M-102 662v-199h-1528v199h1528z" />
    <glyph glyph-name="uni0337" unicode="&#x337;" 
d="M-274 647l-738 -426v217l738 426v-217z" />
    <glyph glyph-name="uni0338" unicode="&#x338;" 
d="M18 1372l-1161 -1372h-250l1164 1372h247z" />
    <glyph glyph-name="uni0401" unicode="&#x401;" horiz-adv-x="1288" 
d="M436.5 1501q-71.5 0 -124 52.5t-52.5 124t52.5 122.5t124 51t124.5 -52t53 -122q0 -72 -53 -124t-124.5 -52zM883 1501q-74 0 -126 52.5t-52 124t52 122.5t126 51q72 0 124 -52t52 -122q0 -72 -52 -124t-124 -52zM510 297h661v-297h-1017v1372h997v-297h-641v-241h620
v-281h-620v-256z" />
    <glyph glyph-name="uni0410" unicode="&#x410;" horiz-adv-x="1509" 
d="M1153 0l-104 221h-588l-105 -221h-370l696 1380h145l697 -1380h-371zM580 473h350l-176 371z" />
    <glyph glyph-name="uni0411" unicode="&#x411;" horiz-adv-x="1298" 
d="M770 852q193 0 330 -125t137 -297q0 -174 -138 -302t-327 -128h-618v1372h960v-297h-602v-223h258zM725 268q72 0 121 48.5t49 115.5q0 72 -49 119t-125 47h-209v-330h213z" />
    <glyph glyph-name="uni0412" unicode="&#x412;" horiz-adv-x="1308" 
d="M154 0v1372h628q162 0 277 -101.5t115 -250.5q0 -86 -44.5 -162t-125.5 -119q109 -41 173 -133t64 -213q0 -174 -127 -283.5t-330 -109.5h-630zM496 840h200q59 0 100.5 41t41.5 96q0 57 -42 95t-104 38h-196v-270zM496 262h233q72 0 122 48t50 116q0 72 -50 121t-124 49
h-231v-334z" />
    <glyph glyph-name="uni0413" unicode="&#x413;" horiz-adv-x="1177" 
d="M1114 1372v-297h-604v-1075h-356v1372h960z" />
    <glyph glyph-name="uni0414" unicode="&#x414;" horiz-adv-x="1474" 
d="M1292 297h164v-586h-340v289h-774v-289h-340v586h80q115 74 149.5 190.5t34.5 292.5v592h1026v-1075zM483 297h471v778h-350v-250q0 -193 -24.5 -315.5t-96.5 -212.5z" />
    <glyph glyph-name="uni0415" unicode="&#x415;" horiz-adv-x="1288" 
d="M510 297h661v-297h-1017v1372h997v-297h-641v-241h620v-281h-620v-256z" />
    <glyph glyph-name="uni0416" unicode="&#x416;" horiz-adv-x="2103" 
d="M-8 0l549 698l-523 674h418l432 -594h4v594h357v-594h6l430 594h420l-522 -674l546 -698h-423l-451 614h-6v-614h-357v614h-4l-452 -614h-424z" />
    <glyph glyph-name="uni0417" unicode="&#x417;" horiz-adv-x="1173" 
d="M197 356q135 -115 313 -114q119 0 188.5 50t69.5 130q0 74 -61.5 122t-159.5 48h-176v250h176q72 0 123 42t51 103q0 63 -56.5 104.5t-154.5 41.5q-162 0 -303 -93l-127 236q182 123 438 123q231 0 386 -100.5t155 -264.5q0 -98 -61.5 -182t-166.5 -127q129 -41 203 -129
t74 -209q0 -184 -154.5 -299t-414.5 -115q-309 0 -508 158z" />
    <glyph glyph-name="uni0418" unicode="&#x418;" horiz-adv-x="1591" 
d="M1081 1372h357v-1372h-357v913l-569 -913h-358v1372h358v-913z" />
    <glyph glyph-name="uni0419" unicode="&#x419;" horiz-adv-x="1591" 
d="M797 1495q-160 0 -277 105.5t-117 250.5h269q0 -70 35.5 -111.5t89.5 -41.5q51 0 86 42t35 111h268q0 -145 -115.5 -250.5t-273.5 -105.5zM1081 1372h357v-1372h-357v913l-569 -913h-358v1372h358v-913z" />
    <glyph glyph-name="uni041A" unicode="&#x41a;" horiz-adv-x="1425" 
d="M154 0v1372h356v-594h6l465 594h434l-541 -674l566 -698h-439l-485 614h-6v-614h-356z" />
    <glyph glyph-name="uni041B" unicode="&#x41b;" horiz-adv-x="1505" 
d="M1352 1372v-1372h-338v1075h-457v-559q0 -115 -26.5 -208t-85 -171t-161 -121t-243.5 -43v306q106 6 143 67.5t37 173.5v852h1131z" />
    <glyph glyph-name="uni041C" unicode="&#x41c;" horiz-adv-x="1892" 
d="M154 0v1372h186l606 -702l604 702h189v-1372h-340v729l-395 -467h-115l-395 467v-729h-340z" />
    <glyph glyph-name="uni041D" unicode="&#x41d;" horiz-adv-x="1591" 
d="M1081 1372h357v-1372h-357v543h-571v-543h-356v1372h356v-530h571v530z" />
    <glyph glyph-name="uni041E" unicode="&#x41e;" horiz-adv-x="1654" 
d="M827.5 -27q-309.5 0 -529.5 209t-220 504t220 504t529.5 209t529.5 -209t220 -504t-220 -504t-529.5 -209zM827.5 293q163.5 0 278.5 115.5t115 277.5t-115 277.5t-278.5 115.5t-278.5 -115.5t-115 -277.5t115 -277.5t278.5 -115.5z" />
    <glyph glyph-name="uni041F" unicode="&#x41f;" horiz-adv-x="1570" 
d="M1417 1372v-1372h-356v1075h-551v-1075h-356v1372h1263z" />
    <glyph glyph-name="uni0420" unicode="&#x420;" horiz-adv-x="1359" 
d="M807 424h-311v-424h-342v1372h657q199 0 335 -133t136 -340q0 -213 -135 -344t-340 -131zM496 1094v-392h231q92 0 153.5 55.5t61.5 141.5q0 84 -61.5 139.5t-151.5 55.5h-233z" />
    <glyph glyph-name="uni0421" unicode="&#x421;" horiz-adv-x="1628" 
d="M1556 526q-57 -240 -260.5 -396.5t-468.5 -156.5q-309 0 -529 209t-220 504t220 504t529 209q264 0 468 -157t261 -396h-370q-47 104 -143.5 168.5t-215.5 64.5q-164 0 -278.5 -115.5t-114.5 -277.5t115 -277.5t278 -115.5q119 0 216.5 64.5t142.5 168.5h370z" />
    <glyph glyph-name="uni0422" unicode="&#x422;" horiz-adv-x="1269" 
d="M1229 1372v-297h-416v-1075h-356v1075h-416v297h1188z" />
    <glyph glyph-name="uni0423" unicode="&#x423;" horiz-adv-x="1488" 
d="M1106 1372h387l-842 -1372h-379l275 453l-551 919h385l358 -604z" />
    <glyph glyph-name="uni0424" unicode="&#x424;" horiz-adv-x="1849" 
d="M1772 686q0 -231 -183.5 -402t-484.5 -214v-109h-356v109q-303 43 -486.5 214t-183.5 402q0 233 183 403.5t487 213.5v108h356v-108q303 -43 485.5 -213.5t182.5 -403.5zM436 686q0 -121 80 -203t248 -108v624q-168 -27 -248 -109.5t-80 -203.5zM1087 375
q168 27 248 108.5t80 202.5t-80 204t-248 109v-624z" />
    <glyph glyph-name="uni0425" unicode="&#x425;" horiz-adv-x="1501" 
d="M31 0l524 702l-502 670h418l279 -397l278 397h420l-502 -670l524 -702h-419l-301 428l-301 -428h-418z" />
    <glyph glyph-name="uni0426" unicode="&#x426;" horiz-adv-x="1548" 
d="M1382 297h146v-586h-338v289h-1036v1372h356v-1075h516v1075h356v-1075z" />
    <glyph glyph-name="uni0427" unicode="&#x427;" horiz-adv-x="1517" 
d="M1006 0v438q-113 -41 -277 -41q-272 0 -439 159t-167 429v387h358v-387q0 -129 68.5 -200.5t195.5 -71.5q168 0 261 45v614h356v-1372h-356z" />
    <glyph glyph-name="uni0428" unicode="&#x428;" horiz-adv-x="2158" 
d="M1649 1372h356v-1372h-1851v1372h356v-1075h399v1075h340v-1075h400v1075z" />
    <glyph glyph-name="uni0429" unicode="&#x429;" horiz-adv-x="2170" 
d="M1812 -289v289h-1658v1372h356v-1075h399v1075h340v-1075h400v1075h356v-1075h145v-586h-338z" />
    <glyph glyph-name="uni042A" unicode="&#x42a;" horiz-adv-x="1665" 
d="M1102 909q221 0 358 -141t137 -334q0 -184 -136 -309t-357 -125h-670v1075h-393v297h735v-463h326zM1083 285q72 0 122 49t50 119q0 72 -50 122t-124 50h-305v-340h307z" />
    <glyph glyph-name="uni042B" unicode="&#x42b;" horiz-adv-x="1994" 
d="M154 0v1372h342v-463h325q221 0 358.5 -141t137.5 -334q0 -184 -136.5 -309t-357.5 -125h-669zM1483 0v1372h356v-1372h-356zM496 285h307q72 0 122 49t50 119q0 72 -49 122t-125 50h-305v-340z" />
    <glyph glyph-name="uni042C" unicode="&#x42c;" horiz-adv-x="1384" 
d="M154 0v1372h342v-463h325q221 0 358.5 -141t137.5 -334q0 -184 -136.5 -309t-357.5 -125h-669zM496 285h307q72 0 122 49t50 119q0 72 -49 122t-125 50h-305v-340z" />
    <glyph glyph-name="uni042D" unicode="&#x42d;" horiz-adv-x="1628" 
d="M801 1399q309 0 529 -209t220 -504t-220 -504t-529 -209q-264 0 -468 157t-261 396h370q45 -104 142.5 -168.5t216.5 -64.5q121 0 220 67.5t144 176.5h-555v297h555q-43 109 -142 177t-222 68q-119 0 -215.5 -64.5t-143.5 -168.5h-370q57 240 261 396.5t468 156.5z" />
    <glyph glyph-name="uni042E" unicode="&#x42e;" horiz-adv-x="2252" 
d="M1425 1399q309 0 529.5 -209t220.5 -504t-220 -504t-530 -209q-268 0 -475 162t-260 408h-180v-543h-356v1372h356v-530h184q57 242 262 399.5t469 157.5zM1425 293q164 0 279 115.5t115 277.5t-115 277.5t-279 115.5q-162 0 -276.5 -114.5t-114.5 -278.5t114.5 -278.5
t276.5 -114.5z" />
    <glyph glyph-name="uni042F" unicode="&#x42f;" horiz-adv-x="1439" 
d="M616 1372h670v-1372h-342v463h-233l-299 -463h-387l360 514q-123 61 -192.5 176t-69.5 248q0 184 136 309t357 125zM944 748v339h-307q-72 0 -122 -49t-50 -118q0 -72 50 -122t124 -50h305z" />
    <glyph glyph-name="uni0430" unicode="&#x430;" horiz-adv-x="1368" 
d="M588 -27q-199 0 -359.5 151.5t-160.5 383.5q0 233 160.5 384.5t359.5 151.5q98 0 190 -41.5t131 -111.5h4l15 125h301v-1016h-301l-15 125h-4q-39 -74 -132 -113t-189 -39zM647 270q98 0 168 70t70 168t-70 167.5t-168 69.5t-167.5 -69.5t-69.5 -167.5t69.5 -168
t167.5 -70z" />
    <glyph glyph-name="uni0431" unicode="&#x431;" horiz-adv-x="1284" 
d="M651 -29q-244 0 -398.5 166t-154.5 469q0 215 33 365.5t129 255.5q76 82 185.5 122t207 47t223 34.5t218.5 85.5v-316q-53 -45 -173 -60.5t-240 -31.5t-173 -64q-82 -70 -88 -241q45 84 139 121t189 37q186 0 326 -139.5t140 -336.5q0 -215 -165 -364.5t-398 -149.5z
M655 270q90 0 154.5 64.5t64.5 152.5t-64.5 153t-154.5 65q-88 0 -152.5 -65t-64.5 -153t64.5 -152.5t152.5 -64.5z" />
    <glyph glyph-name="uni0432" unicode="&#x432;" horiz-adv-x="1202" 
d="M141 0v1016h594q147 0 252 -74t105 -184q0 -59 -40 -115.5t-108 -89.5q96 -35 151.5 -103.5t55.5 -156.5q0 -131 -113.5 -212t-298.5 -81h-598zM463 637h223q37 0 61.5 21.5t24.5 50.5q0 33 -24.5 51t-61.5 18h-223v-141zM463 246h254q47 0 78.5 24.5t31.5 59.5
q0 37 -32.5 62.5t-79.5 25.5h-252v-172z" />
    <glyph glyph-name="uni0433" unicode="&#x433;" horiz-adv-x="997" 
d="M954 1016v-277h-477v-739h-336v1016h813z" />
    <glyph glyph-name="uni0434" unicode="&#x434;" horiz-adv-x="1282" 
d="M1128 272h142v-485h-312v213h-645v-213h-313v485h70q156 72 155 299v445h903v-744zM459 272h360v473h-284v-133q0 -80 -2.5 -124t-20.5 -107.5t-53 -108.5z" />
    <glyph glyph-name="uni0435" unicode="&#x435;" horiz-adv-x="1271" 
d="M653 238q160 0 209 98l316 -47q-51 -137 -199 -227.5t-330 -90.5q-240 0 -410.5 152.5t-170.5 380.5q0 225 166.5 382.5t410.5 157.5q258 0 413.5 -179t155.5 -449h-811q51 -178 250 -178zM645 782q-190 0 -242 -166h474q-48 166 -232 166z" />
    <glyph glyph-name="uni0436" unicode="&#x436;" horiz-adv-x="1769" 
d="M-14 0l436 518l-410 498h377l330 -424h6v424h319v-424h5l331 424h377l-428 -498l455 -518h-383l-352 438h-5v-438h-319v438h-6l-350 -438h-383z" />
    <glyph glyph-name="uni0437" unicode="&#x437;" horiz-adv-x="1099" 
d="M190 330q143 -82 314 -82q90 0 144 22.5t54 61.5q0 35 -39.5 56.5t-109.5 21.5h-207v239h182q63 0 99.5 20.5t36.5 49.5q0 68 -144 67q-168 0 -323 -79l-127 237q186 104 456 105q207 0 341 -79t134 -198q0 -150 -151 -229q197 -80 197 -256q0 -135 -138.5 -221
t-369.5 -86q-317 0 -516 122z" />
    <glyph glyph-name="uni0438" unicode="&#x438;" horiz-adv-x="1398" 
d="M922 1016h335v-1016h-335v610l-445 -610h-336v1016h336v-608z" />
    <glyph glyph-name="uni0439" unicode="&#x439;" horiz-adv-x="1398" 
d="M711 1143q-160 0 -277 105.5t-117 250.5h269q0 -70 35.5 -111.5t89.5 -41.5q51 0 85.5 42t34.5 111h269q0 -145 -115.5 -250.5t-273.5 -105.5zM922 1016h335v-1016h-335v610l-445 -610h-336v1016h336v-608z" />
    <glyph glyph-name="uni043A" unicode="&#x43a;" horiz-adv-x="1282" 
d="M881 0l-287 328l-117 -121v-207h-336v1016h336v-371l371 371h405l-426 -445l471 -571h-417z" />
    <glyph glyph-name="uni043B" unicode="&#x43b;" horiz-adv-x="1345" 
d="M1206 1016v-1016h-319v735h-369v-366q0 -414 -469 -392v287q84 -2 117 45t33 123v584h1007z" />
    <glyph glyph-name="uni043C" unicode="&#x43c;" horiz-adv-x="1646" 
d="M141 0v1016h168l514 -469l512 469h170v-1016h-319v455l-309 -273h-107l-307 273v-455h-322z" />
    <glyph glyph-name="uni043D" unicode="&#x43d;" horiz-adv-x="1419" 
d="M942 1016h336v-1016h-336v375h-465v-375h-336v1016h336v-361h465v361z" />
    <glyph glyph-name="uni043E" unicode="&#x43e;" horiz-adv-x="1294" 
d="M647.5 -27q-237.5 0 -408.5 157t-171 378t171 378.5t408.5 157.5t408.5 -157.5t171 -378.5t-171 -378t-408.5 -157zM647 270q96 0 168 71t72 167t-72 166.5t-168 70.5t-166.5 -70.5t-70.5 -166.5t70.5 -167t166.5 -71z" />
    <glyph glyph-name="uni043F" unicode="&#x43f;" horiz-adv-x="1400" 
d="M1262 1016v-1016h-338v735h-447v-735h-336v1016h1121z" />
    <glyph glyph-name="uni0440" unicode="&#x440;" horiz-adv-x="1368" 
d="M141 -451v1467h299l15 -125h6q37 74 130 113.5t189 39.5q201 0 359.5 -151.5t158.5 -386.5q0 -231 -154.5 -382t-348.5 -151q-98 0 -185.5 42t-122.5 110h-6v-576h-340zM719 270q96 0 167.5 71t71.5 167t-71.5 166.5t-167.5 70.5t-167 -70.5t-71 -166.5t71 -167t167 -71z
" />
    <glyph glyph-name="uni0441" unicode="&#x441;" horiz-adv-x="1265" 
d="M1204 410q-25 -186 -183.5 -311.5t-369.5 -125.5q-240 0 -411.5 157t-171.5 378t172 378.5t411 157.5q211 0 369 -126.5t184 -307.5h-346q-23 61 -81 99.5t-132 38.5q-98 0 -166.5 -71t-68.5 -169q0 -96 68.5 -166t166.5 -70q154 0 213 138h346z" />
    <glyph glyph-name="uni0442" unicode="&#x442;" horiz-adv-x="1122" 
d="M1085 1016v-281h-354v-735h-338v735h-356v281h1048z" />
    <glyph glyph-name="uni0443" unicode="&#x443;" horiz-adv-x="1181" 
d="M72 -451l350 652l-422 815h369l227 -488l227 488h369l-760 -1467h-360z" />
    <glyph glyph-name="uni0444" unicode="&#x444;" horiz-adv-x="1495" 
d="M1425 508q0 -197 -138 -341t-378 -183v-435h-323v435q-238 39 -378 183t-140 341t140 341t378 183v443h323v-443q240 -39 378 -183t138 -341zM395 508q0 -82 53.5 -144.5t153.5 -89.5v467q-100 -27 -153.5 -89t-53.5 -144zM893 274q100 27 153.5 89.5t53.5 144.5
t-53.5 144.5t-153.5 88.5v-467z" />
    <glyph glyph-name="uni0445" unicode="&#x445;" horiz-adv-x="1185" 
d="M1182 0h-385l-203 276l-205 -276h-385l397 514l-387 502h385l195 -264l194 264h386l-388 -502z" />
    <glyph glyph-name="uni0446" unicode="&#x446;" horiz-adv-x="1378" 
d="M1233 283h127v-494h-322v211h-897v1016h336v-733h418v733h338v-733z" />
    <glyph glyph-name="uni0447" unicode="&#x447;" horiz-adv-x="1341" 
d="M864 0v295q-82 -25 -229 -25q-238 0 -386.5 123t-148.5 332v291h338v-291q0 -76 56.5 -117t158.5 -41q137 0 211 29v420h336v-1016h-336z" />
    <glyph glyph-name="uni0448" unicode="&#x448;" horiz-adv-x="1921" 
d="M1444 1016h336v-1016h-1639v1016h336v-733h324v733h319v-733h324v733z" />
    <glyph glyph-name="uni0449" unicode="&#x449;" horiz-adv-x="1918" 
d="M1587 -211v211h-1446v1016h336v-733h324v733h319v-733h324v733h336v-733h127v-494h-320z" />
    <glyph glyph-name="uni044A" unicode="&#x44a;" horiz-adv-x="1464" 
d="M965 713q199 0 320.5 -110.5t121.5 -264.5q0 -143 -122 -240.5t-320 -97.5h-592v735h-340v281h661v-303h271zM946 268q57 0 97 25.5t40 60.5q0 39 -39.5 64.5t-99.5 25.5h-250v-176h252z" />
    <glyph glyph-name="uni044B" unicode="&#x44b;" horiz-adv-x="1792" 
d="M141 0v1016h322v-303h268q199 0 321 -110.5t122 -264.5q0 -143 -120 -240.5t-321 -97.5h-592zM1313 0v1016h338v-1016h-338zM463 268h250q57 0 98 25.5t41 60.5q0 39 -40 64.5t-99 25.5h-250v-176z" />
    <glyph glyph-name="uni044C" unicode="&#x44c;" horiz-adv-x="1230" 
d="M141 0v1016h322v-303h268q199 0 321 -110.5t122 -264.5q0 -143 -120 -240.5t-321 -97.5h-592zM463 268h270q53 0 86 25.5t33 60.5q0 39 -33 64.5t-86 25.5h-270v-176z" />
    <glyph glyph-name="uni044D" unicode="&#x44d;" horiz-adv-x="1265" 
d="M614 1044q240 0 412 -157.5t172 -378.5t-172 -378t-412 -157q-211 0 -369.5 125t-183.5 312h347q59 -137 213 -138q68 0 124 37t86 94h-323v218h319q-31 57 -86 92t-120 35q-74 0 -132.5 -38t-80.5 -100h-347q27 180 184.5 307t368.5 127z" />
    <glyph glyph-name="uni044E" unicode="&#x44e;" horiz-adv-x="1845" 
d="M1198 1044q238 0 409 -157.5t171 -378.5t-171 -378t-409 -157q-199 0 -355.5 113t-205.5 289h-160v-375h-336v1020h336v-365h164q53 170 207.5 279.5t349.5 109.5zM1198 270q96 0 167 71t71 167t-71 166.5t-167 70.5t-166.5 -70.5t-70.5 -166.5t70.5 -167t166.5 -71z" />
    <glyph glyph-name="uni044F" unicode="&#x44f;" horiz-adv-x="1280" 
d="M547 1020h594v-1020h-322v305h-194l-252 -305h-365l314 354q-102 49 -159 137.5t-57 190.5q0 143 121 240.5t320 97.5zM819 575v177h-274q-55 0 -86 -26t-31 -60q0 -39 32 -65t87 -26h272z" />
    <glyph glyph-name="uni0451" unicode="&#x451;" horiz-adv-x="1271" 
d="M424 1145q-72 0 -124 52t-52 124t52 123t124 51t125 -52t53 -122q0 -72 -53 -124t-125 -52zM870 1145q-74 0 -126 52t-52 124t52.5 123t125.5 51q72 0 124.5 -52t52.5 -122q0 -72 -52.5 -124t-124.5 -52zM653 238q160 0 209 98l316 -47q-51 -137 -199 -227.5t-330 -90.5
q-240 0 -410.5 152.5t-170.5 380.5q0 225 166.5 382.5t410.5 157.5q258 0 413.5 -179t155.5 -449h-811q51 -178 250 -178zM645 782q-190 0 -242 -166h474q-48 166 -232 166z" />
    <glyph glyph-name="Wgrave" unicode="&#x1e80;" horiz-adv-x="2203" 
d="M979 1499l-264 363h307l264 -363h-307zM616 0l-575 1372h369l305 -731l317 731h139l318 -731l305 731h369l-576 -1372h-139l-346 817l-348 -817h-138z" />
    <glyph glyph-name="wgrave" unicode="&#x1e81;" horiz-adv-x="1789" 
d="M772 1143l-264 362h307l264 -362h-307zM487 0l-493 1016h371l223 -481l237 481h140l237 -481l223 481h369l-494 -1016h-137l-268 537l-268 -537h-140z" />
    <glyph glyph-name="Wacute" unicode="&#x1e82;" horiz-adv-x="2203" 
d="M1227 1499h-307l264 363h307zM616 0l-575 1372h369l305 -731l317 731h139l318 -731l305 731h369l-576 -1372h-139l-346 817l-348 -817h-138z" />
    <glyph glyph-name="wacute" unicode="&#x1e83;" horiz-adv-x="1789" 
d="M1020 1143h-307l264 362h307zM487 0l-493 1016h371l223 -481l237 481h140l237 -481l223 481h369l-494 -1016h-137l-268 537l-268 -537h-140z" />
    <glyph glyph-name="Wdieresis" unicode="&#x1e84;" horiz-adv-x="2203" 
d="M878.5 1501q-71.5 0 -124 52.5t-52.5 124t52.5 122.5t124 51t125 -52t53.5 -122q0 -72 -53.5 -124t-125 -52zM1325 1501q-74 0 -126 52.5t-52 124t52 122.5t126 51q72 0 124 -52t52 -122q0 -72 -52 -124t-124 -52zM616 0l-575 1372h369l305 -731l317 731h139l318 -731
l305 731h369l-576 -1372h-139l-346 817l-348 -817h-138z" />
    <glyph glyph-name="wdieresis" unicode="&#x1e85;" horiz-adv-x="1789" 
d="M671.5 1145q-71.5 0 -123.5 52t-52 124t52 123t123.5 51t125 -52t53.5 -122q0 -72 -53.5 -124t-125 -52zM1118 1145q-74 0 -126 52t-52 124t52 123t126 51q72 0 124 -52t52 -122q0 -72 -52 -124t-124 -52zM487 0l-493 1016h371l223 -481l237 481h140l237 -481l223 481
h369l-494 -1016h-137l-268 537l-268 -537h-140z" />
    <glyph glyph-name="Ygrave" unicode="&#x1ef2;" horiz-adv-x="1470" 
d="M920 1499h-308l-264 363h307zM1483 1372l-568 -909v-463h-358v463l-569 909h405l342 -577l342 577h406z" />
    <glyph glyph-name="ygrave" unicode="&#x1ef3;" horiz-adv-x="1181" 
d="M473 1143l-264 362h307l264 -362h-307zM72 -451l350 652l-422 815h369l227 -488l227 488h369l-760 -1467h-360z" />
    <glyph glyph-name="endash" unicode="&#x2013;" horiz-adv-x="1245" 
d="M1155 649v-287h-1065v287h1065z" />
    <glyph glyph-name="emdash" unicode="&#x2014;" horiz-adv-x="1935" 
d="M1845 649v-287h-1755v287h1755z" />
    <glyph glyph-name="quoteleft" unicode="&#x2018;" horiz-adv-x="544" 
d="M430 846h-340l174 629h234z" />
    <glyph glyph-name="quoteright" unicode="&#x2019;" horiz-adv-x="544" 
d="M158 1477h340l-174 -629h-234z" />
    <glyph glyph-name="quotesinglbase" unicode="&#x201a;" horiz-adv-x="544" 
d="M158 285h340l-174 -629h-234z" />
    <glyph glyph-name="quotedblleft" unicode="&#x201c;" horiz-adv-x="1024" 
d="M444 846h-340l175 629h233zM854 846h-340l174 629h234z" />
    <glyph glyph-name="quotedblright" unicode="&#x201d;" horiz-adv-x="1034" 
d="M176 1475h340l-174 -629h-233zM586 1475h340l-174 -629h-234z" />
    <glyph glyph-name="quotedblbase" unicode="&#x201e;" horiz-adv-x="954" 
d="M158 285h340l-174 -629h-234zM567 285h340l-174 -629h-233z" />
    <glyph glyph-name="dagger" unicode="&#x2020;" horiz-adv-x="1169" 
d="M1112 1034v-299h-348v-735h-356v735h-351v299h351v338h356v-338h348z" />
    <glyph glyph-name="daggerdbl" unicode="&#x2021;" horiz-adv-x="1169" 
d="M1112 770h-348v-162h348v-297h-348v-311h-356v311h-351v297h351v162h-351v297h351v305h356v-305h348v-297z" />
    <glyph glyph-name="bullet" unicode="&#x2022;" horiz-adv-x="731" 
d="M366.5 420q-114.5 0 -195.5 81t-81 195.5t81 195.5t195.5 81t195.5 -81t81 -195.5t-81 -195.5t-195.5 -81z" />
    <glyph glyph-name="ellipsis" unicode="&#x2026;" horiz-adv-x="1705" 
d="M299 -27q-88 0 -151.5 61.5t-63.5 147.5t63.5 148.5t151.5 62.5t152.5 -62.5t64.5 -148.5t-64.5 -147.5t-152.5 -61.5zM852 -27q-88 0 -151.5 61.5t-63.5 147.5t63.5 148.5t151.5 62.5t152.5 -62.5t64.5 -148.5t-64.5 -147.5t-152.5 -61.5zM1407 -27q-88 0 -151.5 61.5
t-63.5 147.5t63.5 148.5t151.5 62.5t152.5 -62.5t64.5 -148.5t-64.5 -147.5t-152.5 -61.5z" />
    <glyph glyph-name="perthousand" unicode="&#x2030;" horiz-adv-x="2553" 
d="M412 676q-152 0 -257.5 106.5t-105.5 257.5q0 150 105.5 255.5t257.5 105.5q150 0 255 -105.5t105 -255.5q0 -152 -105 -258t-255 -106zM287 -2l870 1374h316l-873 -1374h-313zM412 928q45 0 77.5 32.5t32.5 79.5q0 45 -32.5 77t-77.5 32t-78 -32t-33 -77q0 -47 32 -79.5
t79 -32.5zM1352 -29q-152 0 -257.5 106.5t-105.5 258.5q0 150 105.5 255t257.5 105q150 0 255 -105.5t105 -254.5q0 -152 -105 -258.5t-255 -106.5zM2144 -29q-152 0 -257 106.5t-105 258.5q0 150 106.5 255t256 105t255 -105.5t105.5 -254.5q0 -152 -105.5 -258.5
t-255.5 -106.5zM1352 223q45 0 76.5 33t31.5 80q0 45 -31.5 76.5t-76.5 31.5q-47 0 -80 -31.5t-33 -76.5q0 -47 33 -80t80 -33zM2144 223q45 0 78 33t33 80q0 45 -32 76.5t-79 31.5t-78.5 -31.5t-31.5 -76.5q0 -47 31.5 -80t78.5 -33z" />
    <glyph glyph-name="guilsinglleft" unicode="&#x2039;" horiz-adv-x="737" 
d="M684 881l-299 -373l299 -373h-338l-315 373l315 373h338z" />
    <glyph glyph-name="guilsinglright" unicode="&#x203a;" horiz-adv-x="735" 
d="M51 881h338l316 -373l-316 -373h-338l299 373z" />
    <glyph glyph-name="fraction" unicode="&#x2044;" horiz-adv-x="460" 
d="M-342 -2l870 1374h275l-873 -1374h-272z" />
    <glyph glyph-name="uni2070" unicode="&#x2070;" horiz-adv-x="860" 
d="M432 924q-154 0 -261.5 107.5t-107.5 258.5v170q0 152 108 258.5t261 106.5q152 0 258.5 -106.5t106.5 -258.5v-170q0 -152 -106.5 -259t-258.5 -107zM432 1155q39 0 71 32t32 89v199q0 53 -30 85.5t-73 32.5q-45 0 -75.5 -32.5t-30.5 -85.5v-199q0 -57 31.5 -89
t74.5 -32z" />
    <glyph glyph-name="uni2074" unicode="&#x2074;" horiz-adv-x="782" 
d="M756 1317v-189h-86v-186h-246v186h-418v148l488 530h176v-489h86zM283 1317h149v162z" />
    <glyph glyph-name="uni2075" unicode="&#x2075;" horiz-adv-x="759" 
d="M379 924q-143 0 -245.5 78.5t-102.5 191.5l262 16q16 -63 90 -63q33 0 56.5 23.5t23.5 56.5q0 35 -23.5 58.5t-58.5 23.5q-53 0 -78 -35l-225 94l76 438h495v-213h-295l-16 -100q27 14 88 14q125 0 215 -83t90 -199q0 -123 -103.5 -212t-248.5 -89z" />
    <glyph glyph-name="uni2076" unicode="&#x2076;" horiz-adv-x="770" 
d="M383 924q-141 0 -242.5 93t-101.5 218q0 98 59 209l205 362h277l-172 -307q18 14 47 14q113 0 193.5 -82.5t80.5 -195.5q0 -127 -102.5 -219t-243.5 -92zM385 1153q35 0 62.5 25.5t27.5 60.5t-26.5 59.5t-63.5 24.5t-63.5 -24.5t-26.5 -59.5t26.5 -60.5t63.5 -25.5z" />
    <glyph glyph-name="uni2077" unicode="&#x2077;" horiz-adv-x="659" 
d="M113 942l233 637h-313v227h606v-133l-262 -731h-264z" />
    <glyph glyph-name="uni2078" unicode="&#x2078;" horiz-adv-x="751" 
d="M377 924q-139 0 -238.5 81.5t-99.5 200.5q0 160 143 221q-49 29 -75.5 76t-24.5 96q4 94 89 160t206 66q123 0 207 -67.5t84 -168.5q0 -98 -97 -162q141 -61 142 -221q0 -119 -98.5 -200.5t-237.5 -81.5zM377 1501q27 0 46 18.5t19 45.5q0 25 -19.5 43t-46 18t-46 -18.5
t-19.5 -42.5q0 -27 18.5 -45.5t47.5 -18.5zM377 1145q35 0 60.5 24.5t25.5 61.5q0 35 -25.5 59.5t-60.5 24.5q-37 0 -64.5 -24.5t-27.5 -59.5t26.5 -60.5t65.5 -25.5z" />
    <glyph glyph-name="uni2079" unicode="&#x2079;" horiz-adv-x="770" 
d="M387 1825q143 0 243.5 -93.5t100.5 -218.5q0 -98 -59 -208l-205 -363h-277l162 291h-28q-117 0 -201 85t-84 198q0 125 103.5 217t244.5 92zM385 1595q-37 0 -63.5 -25.5t-26.5 -60t26.5 -61.5t63.5 -27t63.5 27t26.5 61.5t-26.5 60t-63.5 25.5z" />
    <glyph glyph-name="uni2080" unicode="&#x2080;" horiz-adv-x="860" 
d="M432 -469q-154 0 -261.5 107.5t-107.5 259.5v170q0 152 108 258t261 106q152 0 258.5 -106.5t106.5 -257.5v-170q0 -152 -106.5 -259.5t-258.5 -107.5zM432 -238q39 0 71 32t32 89v199q0 53 -30 86t-73 33q-45 0 -75.5 -33t-30.5 -86v-199q0 -57 31.5 -89t74.5 -32z" />
    <glyph glyph-name="uni2081" unicode="&#x2081;" horiz-adv-x="577" 
d="M201 -451v576l-168 -35v217l301 107h127v-865h-260z" />
    <glyph glyph-name="uni2082" unicode="&#x2082;" horiz-adv-x="774" 
d="M61 -451v134l326 366q70 74 70 115q0 31 -20.5 48t-49.5 17q-33 0 -55.5 -22.5t-22.5 -63.5h-254q0 135 93.5 212t238.5 77q141 0 232.5 -70.5t91.5 -187.5q0 -104 -101 -219l-168 -182h283v-224h-664z" />
    <glyph glyph-name="uni2083" unicode="&#x2083;" horiz-adv-x="759" 
d="M373 -469q-154 0 -246 81t-92 214h254q0 -39 24.5 -65.5t63.5 -26.5q43 0 66.5 23.5t23.5 62.5q0 37 -26.5 62.5t-69.5 25.5h-109v186h109q29 0 51 20.5t22 49.5t-21.5 48t-50 19t-50 -17t-21.5 -44h-254q0 117 96.5 189.5t233.5 72.5q131 0 224 -63.5t93 -165.5
q0 -135 -121 -197q150 -59 150 -213q0 -115 -97 -188.5t-253 -73.5z" />
    <glyph glyph-name="uni2084" unicode="&#x2084;" horiz-adv-x="782" 
d="M756 -76v-188h-86v-187h-246v187h-418v147l488 531h176v-490h86zM283 -76h149v162z" />
    <glyph glyph-name="uni2085" unicode="&#x2085;" horiz-adv-x="759" 
d="M379 -469q-143 0 -245.5 79t-102.5 191l262 17q16 -63 90 -64q33 0 56.5 23.5t23.5 56.5q0 35 -23.5 58.5t-58.5 23.5q-53 0 -78 -35l-225 94l76 439h495v-213h-295l-16 -101q27 14 88 15q125 0 215 -83t90 -200q0 -123 -103.5 -212t-248.5 -89z" />
    <glyph glyph-name="uni2086" unicode="&#x2086;" horiz-adv-x="770" 
d="M383 -469q-141 0 -242.5 93t-101.5 218q0 98 59 209l205 363h277l-172 -308q18 14 47 15q113 0 193.5 -83t80.5 -196q0 -127 -102.5 -219t-243.5 -92zM385 -240q35 0 62.5 26t27.5 60.5t-26.5 59t-63.5 24.5t-63.5 -24.5t-26.5 -59t26.5 -60.5t63.5 -26z" />
    <glyph glyph-name="uni2087" unicode="&#x2087;" horiz-adv-x="659" 
d="M113 -451l233 637h-313v228h606v-133l-262 -732h-264z" />
    <glyph glyph-name="uni2088" unicode="&#x2088;" horiz-adv-x="751" 
d="M377 -469q-139 0 -238.5 82t-99.5 201q0 160 143 221q-49 29 -75.5 76t-24.5 96q4 94 89 159.5t206 65.5q123 0 207 -67.5t84 -167.5q0 -98 -97 -162q141 -61 142 -221q0 -119 -98.5 -201t-237.5 -82zM377 109q27 0 46 18t19 45q0 25 -19.5 43t-46 18t-46 -18t-19.5 -43
q0 -27 18.5 -45t47.5 -18zM377 -248q35 0 60.5 24.5t25.5 61.5q0 35 -25.5 59.5t-60.5 24.5q-37 0 -64.5 -24.5t-27.5 -59.5t26.5 -60.5t65.5 -25.5z" />
    <glyph glyph-name="uni2089" unicode="&#x2089;" horiz-adv-x="770" 
d="M387 432q143 0 243.5 -93t100.5 -218q0 -98 -59 -209l-205 -363h-277l162 291h-28q-117 0 -201 85t-84 198q0 125 103.5 217t244.5 92zM385 203q-37 0 -63.5 -25.5t-26.5 -60.5t26.5 -61.5t63.5 -26.5t63.5 26.5t26.5 61.5t-26.5 60.5t-63.5 25.5z" />
    <glyph glyph-name="lira" unicode="&#x20a4;" horiz-adv-x="1320" 
d="M571 299h705v-299h-1206v299h159v111h-125v200h125v72h-125v201h125v69q0 190 139.5 319.5t362.5 129.5q207 0 354.5 -126t147.5 -304h-340q0 59 -47 100t-115 41q-72 0 -116 -46t-44 -114v-69h404v-201h-404v-72h404v-200h-404v-111z" />
    <glyph glyph-name="uni20A8" unicode="&#x20a8;" horiz-adv-x="2252" 
d="M1198 911q0 -145 -66.5 -253.5t-177.5 -159.5l318 -498h-385l-269 461h-122v-461h-342v1372h626q176 0 297 -130t121 -331zM496 1104v-387h200q68 0 114 57t46 137q0 78 -46 135.5t-114 57.5h-200zM1858 618q334 -70 333 -309q0 -158 -120.5 -248t-323.5 -90
q-221 0 -348 88t-127 252h362q-2 -49 28 -75.5t71 -26.5q39 0 63.5 23.5t24.5 58.5q0 45 -39 70.5t-162 54.5q-330 80 -330 319q0 143 120 226t306 83q205 0 326 -87t121 -244h-353q2 55 -22.5 81.5t-61.5 26.5q-35 0 -58 -20.5t-23 -57.5q0 -53 47 -76.5t166 -48.5z" />
    <glyph glyph-name="Euro" unicode="&#x20ac;" horiz-adv-x="1404" 
d="M584 498q51 -94 143 -149.5t203 -55.5q225 0 370 102v-352q-176 -72 -370 -72q-256 0 -457 148.5t-266 378.5h-203v141h178q-2 16 -2 47v37h-176v139h199q63 236 265 387.5t462 151.5q242 0 434 -137l-111 -310q-125 125 -323 125q-113 0 -208 -59t-144 -158h641
l-50 -139h-630q-2 -12 -2 -37q0 -31 2 -47h606l-49 -141h-512z" />
    <glyph glyph-name="uni20BD" unicode="&#x20bd;" horiz-adv-x="1353" 
d="M803 496h-268v-88h415v-240h-415v-168h-340v168h-138v240h138v88h-138v239h138v637h645q201 0 337 -127t136 -325q0 -188 -145.5 -306t-364.5 -118zM535 1102v-367h221q92 -2 153.5 52.5t61.5 132.5q0 76 -61.5 130t-151.5 52h-223z" />
    <glyph glyph-name="uni2113" unicode="&#x2113;" horiz-adv-x="1044" 
d="M590 242q115 0 215 147l143 -174q-176 -242 -393 -242q-264 0 -326 297l-110 -49l-82 225q111 47 168 78q-2 31 -2 94q0 784 420 785q152 0 243.5 -96.5t91.5 -245.5q0 -162 -121.5 -330t-347.5 -315q8 -96 31 -135t70 -39zM616 1163q-113 0 -129 -452q193 170 193 346
q-1 106 -64 106z" />
    <glyph glyph-name="uni2116" unicode="&#x2116;" horiz-adv-x="2527" 
d="M1116 1372h344v-1380h-178l-784 807v-799h-344v1380h178l784 -805v797zM2071 571q-168 0 -290 112t-122 267.5t121 266t291 110.5q172 0 293.5 -110.5t121.5 -266t-122.5 -267.5t-292.5 -112zM2071 809q57 0 99 42t42 99q0 55 -42 97.5t-99 42.5q-55 0 -97.5 -42
t-42.5 -98q0 -57 42.5 -99t97.5 -42zM1667 479h830v-246h-830v246z" />
    <glyph glyph-name="trademark" unicode="&#x2122;" horiz-adv-x="2154" 
d="M856 1372v-237h-270v-564h-287v564h-270v237h827zM1915 1372h141v-801h-270v353l-221 -228h-88l-224 228v-353h-270v801h141l396 -356z" />
    <glyph glyph-name="partialdiff" unicode="&#x2202;" horiz-adv-x="1181" 
d="M590 -27q-213 0 -370 139.5t-157 331.5q0 176 129.5 308.5t307.5 132.5q131 0 209 -62q-76 199 -179.5 332t-326.5 315h422q141 -121 243.5 -263t153.5 -271t73.5 -231.5t22.5 -186.5q0 -231 -153.5 -388t-374.5 -157zM592 276q78 0 132 55.5t54 133.5q0 76 -55 131
t-131 55t-131 -55t-55 -131q0 -78 55 -133.5t131 -55.5z" />
    <glyph glyph-name="product" unicode="&#x220f;" horiz-adv-x="1609" 
d="M1544 1475v-297h-160v-1629h-356v1629h-444v-1629h-357v1629h-159v297h1476z" />
    <glyph glyph-name="summation" unicode="&#x2211;" horiz-adv-x="1341" 
d="M584 -154h661v-297h-1089v162l413 897l-413 705v162h1048v-297h-594l324 -547z" />
    <glyph glyph-name="minus" unicode="&#x2212;" horiz-adv-x="1026" 
d="M936 825v-288h-846v288h846z" />
    <glyph glyph-name="radical" unicode="&#x221a;" horiz-adv-x="1169" 
d="M369 -319l-379 1015h368l162 -497l326 1276h371l-531 -1794h-317z" />
    <glyph glyph-name="infinity" unicode="&#x221e;" horiz-adv-x="1406" 
d="M950 1073q147 0 251 -104.5t104 -252t-103.5 -252t-251.5 -104.5q-158 0 -262 115q-104 -115 -262 -115q-145 0 -249.5 104.5t-104.5 252t104.5 252t249.5 104.5q158 0 262 -115q104 115 262 115zM426 590q55 0 93 37t38 90t-38 90t-93 37q-53 0 -90 -37t-37 -90t37 -90
t90 -37zM950.5 590q53.5 0 91 37t37.5 90t-37.5 90t-91 37t-90.5 -37t-37 -90t37 -90t90.5 -37z" />
    <glyph glyph-name="integral" unicode="&#x222b;" horiz-adv-x="1280" 
d="M1057 1495q127 0 213 -41l-90 -266q-63 29 -119 29q-84 0 -142.5 -45.5t-64.5 -120.5l-92 -1108q-14 -176 -171 -295t-368 -119q-127 0 -213 41l90 266q63 -29 119 -29q86 0 143.5 45.5t63.5 120.5l92 1108q14 176 171 295t368 119z" />
    <glyph glyph-name="approxequal" unicode="&#x2248;" horiz-adv-x="1218" 
d="M111 745q0 176 74.5 266.5t189.5 90.5q78 0 180 -64.5t139 -64.5q72 0 74 110h193q-2 -172 -71 -264t-173 -92q-68 0 -180.5 65.5t-149.5 65.5t-60.5 -29.5t-25.5 -83.5h-190zM111 299q0 176 74.5 267t189.5 91q78 0 180 -65.5t139 -65.5q72 0 74 113h193
q-2 -172 -71 -264t-173 -92q-68 0 -180.5 65.5t-149.5 65.5t-60.5 -31t-25.5 -84h-190z" />
    <glyph glyph-name="notequal" unicode="&#x2260;" horiz-adv-x="1095" 
d="M981 741h-285l-75 -120h360v-289h-541l-92 -148h-203l93 148h-103v289h283l76 120h-359v289h541l80 129h202l-79 -129h102v-289z" />
    <glyph glyph-name="lessequal" unicode="&#x2264;" horiz-adv-x="1093" 
d="M965 469l-838 248v248l838 247v-288l-480 -82l480 -84v-289zM969 180h-846v252h846v-252z" />
    <glyph glyph-name="greaterequal" unicode="&#x2265;" horiz-adv-x="1093" 
d="M129 469v289l479 84l-479 82v288l838 -247v-248zM125 180v252h846v-252h-846z" />
    <glyph glyph-name="lozenge" unicode="&#x25ca;" horiz-adv-x="1208" 
d="M604 -20l-545 725l545 694l545 -694zM432 705l172 -246l172 246l-172 231z" />
    <glyph glyph-name="glyph1" 
 />
    <glyph glyph-name="glyph2" horiz-adv-x="681" 
 />
    <glyph glyph-name="i.locl" horiz-adv-x="622" 
d="M311.5 1145q-71.5 0 -124 52t-52.5 124t52.5 123t124 51t123.5 -51t52 -123t-52 -124t-123.5 -52zM141 0v1016h340v-1016h-340z" />
    <glyph glyph-name="a.salt" horiz-adv-x="1286" 
d="M643 1044q211 0 365.5 -114.5t154.5 -276.5v-653h-301l-20 102q-158 -131 -371 -131q-158 0 -263.5 87t-105.5 231q0 139 114 230t341 91h264v43q0 57 -49 96t-127 39q-76 0 -124 -32.5t-52 -83.5l-336 30q23 143 170 242.5t340 99.5zM444 305q0 -41 34 -65.5t95 -24.5
q139 0 248 78v108h-217q-76 0 -118 -25.5t-42 -70.5z" />
    <glyph glyph-name="aacute.aalt" horiz-adv-x="1286" 
d="M1044 1505l-264 -362h-307l264 362h307zM643 1044q211 0 365.5 -114.5t154.5 -276.5v-653h-301l-20 102q-158 -131 -371 -131q-158 0 -263.5 87t-105.5 231q0 139 114 230t341 91h264v43q0 57 -49 96t-127 39q-76 0 -124 -32.5t-52 -83.5l-336 30q23 143 170 242.5
t340 99.5zM444 305q0 -41 34 -65.5t95 -24.5q139 0 248 78v108h-217q-76 0 -118 -25.5t-42 -70.5z" />
    <glyph glyph-name="abreve.aalt" horiz-adv-x="1286" 
d="M655 1139q-154 0 -264 105.5t-110 250.5h249q0 -55 37 -95t88.5 -40t86 40t34.5 95h250q0 -145 -110.5 -250.5t-260.5 -105.5zM643 1044q211 0 365.5 -114.5t154.5 -276.5v-653h-301l-20 102q-158 -131 -371 -131q-158 0 -263.5 87t-105.5 231q0 139 114 230t341 91h264
v43q0 57 -49 96t-127 39q-76 0 -124 -32.5t-52 -83.5l-336 30q23 143 170 242.5t340 99.5zM444 305q0 -41 34 -65.5t95 -24.5q139 0 248 78v108h-217q-76 0 -118 -25.5t-42 -70.5z" />
    <glyph glyph-name="acircumflex.aalt" horiz-adv-x="1286" 
d="M655 1305l-116 -162h-301l268 362h297l270 -362h-303zM643 1044q211 0 365.5 -114.5t154.5 -276.5v-653h-301l-20 102q-158 -131 -371 -131q-158 0 -263.5 87t-105.5 231q0 139 114 230t341 91h264v43q0 57 -49 96t-127 39q-76 0 -124 -32.5t-52 -83.5l-336 30
q23 143 170 242.5t340 99.5zM444 305q0 -41 34 -65.5t95 -24.5q139 0 248 78v108h-217q-76 0 -118 -25.5t-42 -70.5z" />
    <glyph glyph-name="adieresis.aalt" horiz-adv-x="1286" 
d="M432 1145q-72 0 -124 52t-52 124t52 123t124 51t125 -52t53 -122q0 -72 -53 -124t-125 -52zM879 1145q-74 0 -126.5 52t-52.5 124t52.5 123t126.5 51q72 0 124 -52t52 -122q0 -72 -52 -124t-124 -52zM643 1044q211 0 365.5 -114.5t154.5 -276.5v-653h-301l-20 102
q-158 -131 -371 -131q-158 0 -263.5 87t-105.5 231q0 139 114 230t341 91h264v43q0 57 -49 96t-127 39q-76 0 -124 -32.5t-52 -83.5l-336 30q23 143 170 242.5t340 99.5zM444 305q0 -41 34 -65.5t95 -24.5q139 0 248 78v108h-217q-76 0 -118 -25.5t-42 -70.5z" />
    <glyph glyph-name="agrave.aalt" horiz-adv-x="1286" 
d="M840 1143h-308l-264 362h307zM643 1044q211 0 365.5 -114.5t154.5 -276.5v-653h-301l-20 102q-158 -131 -371 -131q-158 0 -263.5 87t-105.5 231q0 139 114 230t341 91h264v43q0 57 -49 96t-127 39q-76 0 -124 -32.5t-52 -83.5l-336 30q23 143 170 242.5t340 99.5z
M444 305q0 -41 34 -65.5t95 -24.5q139 0 248 78v108h-217q-76 0 -118 -25.5t-42 -70.5z" />
    <glyph glyph-name="amacron.aalt" horiz-adv-x="1286" 
d="M971 1430v-218h-633v218h633zM643 1044q211 0 365.5 -114.5t154.5 -276.5v-653h-301l-20 102q-158 -131 -371 -131q-158 0 -263.5 87t-105.5 231q0 139 114 230t341 91h264v43q0 57 -49 96t-127 39q-76 0 -124 -32.5t-52 -83.5l-336 30q23 143 170 242.5t340 99.5z
M444 305q0 -41 34 -65.5t95 -24.5q139 0 248 78v108h-217q-76 0 -118 -25.5t-42 -70.5z" />
    <glyph glyph-name="aogonek.aalt" horiz-adv-x="1286" 
d="M1067 -139q0 -39 30.5 -68t82.5 -24v-207q-160 -23 -248 48t-88 175q0 113 106 215h-88l-20 102q-158 -131 -371 -131q-158 0 -263.5 87t-105.5 231q0 139 114 230t341 91h264v43q0 57 -49 96t-127 39q-76 0 -124 -32.5t-52 -83.5l-336 30q23 143 170.5 242.5t339.5 99.5
q211 0 365.5 -114.5t154.5 -276.5v-653q-96 -59 -96 -139zM444 305q0 -41 34 -65.5t95 -24.5q139 0 248 78v108h-217q-76 0 -118 -25.5t-42 -70.5z" />
    <glyph glyph-name="aring.aalt" horiz-adv-x="1286" 
d="M655.5 1075q-108.5 0 -185.5 72t-77 174t77 174t185.5 72t186.5 -72t78 -174t-78 -174t-186.5 -72zM655.5 1399q-32.5 0 -55 -22.5t-22.5 -55.5t22.5 -55.5t55 -22.5t56 22.5t23.5 55.5t-23.5 55.5t-56 22.5zM643 1044q211 0 365.5 -114.5t154.5 -276.5v-653h-301
l-20 102q-158 -131 -371 -131q-158 0 -263.5 87t-105.5 231q0 139 114 230t341 91h264v43q0 57 -49 96t-127 39q-76 0 -124 -32.5t-52 -83.5l-336 30q23 143 170 242.5t340 99.5zM444 305q0 -41 34 -65.5t95 -24.5q139 0 248 78v108h-217q-76 0 -118 -25.5t-42 -70.5z" />
    <glyph glyph-name="atilde.aalt" horiz-adv-x="1286" 
d="M526.5 1286q-34.5 0 -58.5 -30.5t-26 -81.5h-190q2 176 75.5 267t188.5 91q61 0 113.5 -33t92.5 -65.5t70.5 -32.5t51 27.5t20.5 82.5h193q-2 -172 -70.5 -263t-173.5 -91q-70 0 -161 64.5t-125.5 64.5zM643 1044q211 0 365.5 -114.5t154.5 -276.5v-653h-301l-20 102
q-158 -131 -371 -131q-158 0 -263.5 87t-105.5 231q0 139 114 230t341 91h264v43q0 57 -49 96t-127 39q-76 0 -124 -32.5t-52 -83.5l-336 30q23 143 170 242.5t340 99.5zM444 305q0 -41 34 -65.5t95 -24.5q139 0 248 78v108h-217q-76 0 -118 -25.5t-42 -70.5z" />
    <glyph glyph-name="ordfeminine.aalt" horiz-adv-x="909" 
d="M453 1321q152 0 264 -82t112 -197v-456h-239l-12 67q-104 -88 -254 -88q-106 0 -182 61.5t-76 164.5q0 98 82.5 163.5t246.5 65.5h168v22q0 35 -30.5 58.5t-75.5 23.5q-96 0 -105 -65l-262 26q23 100 126.5 168t236.5 68zM332 803q0 -53 82 -53q90 0 149 49v61h-129
q-47 0 -74.5 -15t-27.5 -42z" />
    <glyph glyph-name="zero.oldstyle" horiz-adv-x="1302" 
d="M653 -27q-225 0 -382.5 153t-157.5 368v30q0 215 157.5 367.5t382.5 152.5q223 0 380 -152.5t157 -367.5v-30q0 -215 -157 -368t-380 -153zM653 281q74 0 130.5 53t56.5 139v70q0 84 -54.5 138t-132.5 54q-80 0 -135 -54t-55 -138v-70q0 -86 56 -139t134 -53z" />
    <glyph glyph-name="one.oldstyle" horiz-adv-x="901" 
d="M348 0v625l-272 -80v297l448 174h174v-1016h-350z" />
    <glyph glyph-name="two.oldstyle" horiz-adv-x="1222" 
d="M119 0v127l477 358q39 29 61.5 49.5t45 56.5t22.5 71q0 51 -35 80.5t-92 29.5q-61 0 -100 -36t-39 -95h-350q0 186 145 294.5t364 108.5q203 0 330 -99t127 -245q0 -168 -149 -286l-168 -133h346v-281h-985z" />
    <glyph glyph-name="three.oldstyle" horiz-adv-x="1206" 
d="M593.5 -383q-235.5 0 -374.5 124t-139 329h342q0 -78 49 -131.5t127 -53.5q82 0 132 51.5t50 122.5q0 78 -53 127.5t-139 49.5h-166v249h166q61 0 105 43t44 103q0 63 -42 104t-107 41q-61 0 -103.5 -40t-42.5 -97h-340q0 178 143.5 291.5t352.5 113.5q203 0 340 -101
t137 -261q0 -100 -54 -184t-153 -129q119 -41 185.5 -129t66.5 -211q0 -180 -145.5 -296t-381 -116z" />
    <glyph glyph-name="four.oldstyle" horiz-adv-x="1236" 
d="M1176 229v-260h-150v-325h-324v325h-653v236l758 811h219v-787h150zM395 221h316v354z" />
    <glyph glyph-name="five.oldstyle" horiz-adv-x="1210" 
d="M604 -383q-219 0 -372.5 123t-153.5 303l348 23q10 -70 61.5 -111t122.5 -41q70 0 121 53t51 121q0 76 -50 129t-122 53q-96 0 -155 -73l-308 127l113 692h754v-283h-488l-32 -223q66 49 174 49q195 0 332 -138t137 -335q0 -195 -156 -332t-377 -137z" />
    <glyph glyph-name="six.oldstyle" horiz-adv-x="1210" 
d="M612 -29q-217 0 -370.5 145.5t-153.5 342.5q0 154 90 317l332 596h369l-267 -479q45 10 82 10q184 0 316.5 -133t132.5 -313q0 -197 -157 -341.5t-374 -144.5zM614.5 279q77.5 0 132 55t54.5 131t-54.5 131t-132.5 55q-76 0 -131 -55t-55 -131q0 -78 54.5 -132t132 -54z
" />
    <glyph glyph-name="seven.oldstyle" horiz-adv-x="1048" 
d="M223 -356l385 1067h-536v305h923v-180l-420 -1192h-352z" />
    <glyph glyph-name="eight.oldstyle" horiz-adv-x="1222" 
d="M614 -27q-213 0 -362.5 127t-149.5 316q2 117 60.5 213t167.5 143q-162 94 -156 277q6 145 131 247.5t309.5 102.5t309.5 -103.5t125 -259.5q0 -172 -154 -264q111 -47 168 -143.5t57 -214.5q0 -184 -147.5 -312.5t-358.5 -128.5zM612.5 879q53.5 0 88 35.5t34.5 89.5
q0 51 -35.5 85.5t-87.5 34.5q-53 0 -89 -34.5t-36 -85.5q0 -53 36 -89t89.5 -36zM612 276q70 0 118 49.5t48 118.5q0 68 -48 115t-117.5 47t-119 -47t-49.5 -115q-2 -70 47 -119t121 -49z" />
    <glyph glyph-name="nine.oldstyle" horiz-adv-x="1206" 
d="M600 1044q217 0 369.5 -144t152.5 -339q0 -152 -90 -315l-330 -602h-368l268 489q-31 -10 -84 -10q-182 0 -313 130t-131 308q0 197 155.5 340t370.5 143zM598 739q-76 0 -130 -54t-54 -130t54 -128t130 -52t130 52t54 128t-54 130t-130 54z" />
    <glyph glyph-name="zero.tnum" horiz-adv-x="1196" 
d="M598 -27q-219 0 -373.5 158t-154.5 381v350q0 223 154.5 380t373.5 157t373.5 -157t154.5 -380v-350q0 -223 -154.5 -381t-373.5 -158zM598 281q74 0 127 57t53 154v389q0 94 -52 152.5t-128 58.5t-128 -58.5t-52 -152.5v-389q0 -96 53 -153.5t127 -57.5z" />
    <glyph glyph-name="one.tnum" horiz-adv-x="1196" 
d="M815 287h313v-287h-997v287h336v700l-326 -80v291l498 174h176v-1085z" />
    <glyph glyph-name="two.tnum" horiz-adv-x="1196" 
d="M100 0v180l512 580q43 47 63.5 72.5t43 69.5t22.5 83q0 63 -44 104t-107 41q-68 0 -113 -49t-45 -131h-340q0 209 141.5 329t358.5 120q213 0 351 -111.5t138 -290.5q0 -109 -47 -192.5t-127 -171.5l-293 -336h498v-297h-1012z" />
    <glyph glyph-name="three.tnum" horiz-adv-x="1196" 
d="M588 -27q-233 0 -372.5 124t-139.5 329h342q0 -78 49 -131t125 -53q80 0 130 50t50 124q0 78 -52 127t-138 49h-166v250h166q61 0 105 43t44 102q0 63 -42 104.5t-107 41.5q-61 0 -102.5 -40t-41.5 -98h-340q0 178 143.5 291t350.5 113q201 0 338 -100.5t137 -260.5
q0 -100 -53 -184t-152 -129q117 -41 184.5 -129t67.5 -211q0 -180 -145 -296t-381 -116z" />
    <glyph glyph-name="four.tnum" horiz-adv-x="1196" 
d="M1159 573v-247h-149v-326h-342v326h-652v194l758 852h236v-799h149zM420 573h248v281z" />
    <glyph glyph-name="five.tnum" horiz-adv-x="1196" 
d="M596 -27q-217 0 -370.5 123t-153.5 303l350 23q10 -70 59 -111t121 -41q70 0 120 53.5t50 120.5q0 76 -50 129.5t-120 53.5q-94 0 -153 -74l-308 127l113 692h752v-285h-486l-33 -221q66 49 175 49q193 0 329.5 -138t136.5 -335q0 -195 -156.5 -332t-375.5 -137z" />
    <glyph glyph-name="six.tnum" horiz-adv-x="1196" 
d="M604 -27q-217 0 -369.5 144.5t-152.5 341.5q0 154 90 317l330 596h366l-268 -491q39 20 86 20q182 0 313 -132t131 -312q0 -197 -155.5 -340.5t-370.5 -143.5zM606 276q76 0 130.5 55.5t54.5 133.5t-54.5 132t-130.5 54t-130 -55t-54 -131q0 -78 54 -133.5t130 -55.5z
" />
    <glyph glyph-name="seven.tnum" horiz-adv-x="1196" 
d="M295 0l399 1067h-561v305h948v-180l-436 -1192h-350z" />
    <glyph glyph-name="eight.tnum" horiz-adv-x="1196" 
d="M600 -27q-211 0 -359.5 127t-148.5 316q0 117 58.5 213t166.5 143q-160 92 -153 277q4 147 128 248.5t308 101.5q182 0 307 -103.5t125 -259.5q0 -172 -151 -264q109 -47 166 -144.5t57 -213.5q0 -184 -147.5 -312.5t-356.5 -128.5zM598 879q51 0 87 35.5t36 89.5
q0 51 -36 85.5t-87 34.5q-49 0 -86 -35.5t-37 -84.5q0 -51 36 -88t87 -37zM598 276q68 0 116 49.5t48 118.5q0 68 -48 115t-116 47t-117 -47t-49 -115q0 -70 48 -119t118 -49z" />
    <glyph glyph-name="nine.tnum" horiz-adv-x="1196" 
d="M594 1399q217 0 369.5 -143.5t152.5 -340.5q0 -150 -90 -313l-328 -602h-368l270 500q-33 -20 -88 -21q-182 0 -312 130t-130 309q0 197 155.5 339t368.5 142zM592 1096q-76 0 -129 -54.5t-53 -130t53 -129t129 -53.5t129 53.5t53 129t-53 130t-129 54.5z" />
    <glyph glyph-name="zero.tnum.oldstyle" horiz-adv-x="1196" 
d="M598 -27q-219 0 -373.5 153t-154.5 368v30q0 215 154.5 367.5t373.5 152.5t373.5 -152.5t154.5 -367.5v-30q0 -215 -154.5 -368t-373.5 -153zM598 281q72 0 126 53t54 139v70q0 84 -52 138t-128 54t-128 -54t-52 -138v-70q0 -86 54 -139t126 -53z" />
    <glyph glyph-name="one.tnum.oldstyle" horiz-adv-x="1196" 
d="M807 287h311v-287h-983v287h324v344l-320 -80v291l496 174h172v-729z" />
    <glyph glyph-name="two.tnum.oldstyle" horiz-adv-x="1196" 
d="M111 0v127l471 358q39 29 61.5 49.5t45 56.5t22.5 71q0 51 -35 80.5t-92 29.5q-61 0 -100.5 -36t-39.5 -95h-350q0 186 145.5 294.5t364.5 108.5q203 0 330 -99t127 -245q0 -160 -150 -286l-161 -133h350v-281h-989z" />
    <glyph glyph-name="three.tnum.oldstyle" horiz-adv-x="1196" 
d="M588 -383q-233 0 -372.5 124t-139.5 329h342q0 -78 49 -131.5t125 -53.5q80 0 130 50.5t50 123.5q0 78 -52 127.5t-138 49.5h-166v249h166q61 0 105 43t44 103q0 63 -42 104t-107 41q-61 0 -102.5 -40t-41.5 -97h-340q0 178 143.5 291.5t350.5 113.5q201 0 338 -101
t137 -261q0 -100 -53 -184t-152 -129q117 -41 184.5 -129t67.5 -211q0 -180 -145 -296t-381 -116z" />
    <glyph glyph-name="four.tnum.oldstyle" horiz-adv-x="1196" 
d="M1159 217v-248h-149v-325h-342v325h-652v195l758 852h236v-799h149zM420 217h248v281z" />
    <glyph glyph-name="five.tnum.oldstyle" horiz-adv-x="1196" 
d="M596 -383q-217 0 -370.5 123t-153.5 303l350 23q10 -70 59 -111t121 -41q70 0 120 53t50 121q0 76 -50 129t-120 53q-94 0 -153 -73l-308 127l113 692h752v-283h-486l-33 -223q66 49 175 49q193 0 329.5 -138t136.5 -335q0 -193 -156.5 -331t-375.5 -138z" />
    <glyph glyph-name="six.tnum.oldstyle" horiz-adv-x="1196" 
d="M604 -27q-217 0 -369.5 144.5t-152.5 341.5q0 154 90 317l330 596h366l-268 -491q39 20 86 20q182 0 313 -132t131 -312q0 -197 -155.5 -340.5t-370.5 -143.5zM606 276q76 0 130.5 55.5t54.5 133.5t-54.5 132t-130.5 54t-130 -55t-54 -131q0 -78 54 -133.5t130 -55.5z
" />
    <glyph glyph-name="seven.tnum.oldstyle" horiz-adv-x="1196" 
d="M295 -356l440 1067h-637v305h1024v-180l-477 -1192h-350z" />
    <glyph glyph-name="eight.tnum.oldstyle" horiz-adv-x="1196" 
d="M600 -27q-211 0 -359.5 127t-148.5 316q0 117 58.5 213t166.5 143q-160 92 -153 277q4 147 128 248.5t308 101.5q182 0 307 -103.5t125 -259.5q0 -172 -151 -264q109 -47 166 -144.5t57 -213.5q0 -184 -147.5 -312.5t-356.5 -128.5zM598 879q51 0 87 35.5t36 89.5
q0 51 -36 85.5t-87 34.5q-49 0 -86 -35.5t-37 -84.5q0 -51 36 -88t87 -37zM598 276q68 0 116 49.5t48 118.5q0 68 -48 115t-116 47t-117 -47t-49 -115q0 -70 48 -119t118 -49z" />
    <glyph glyph-name="nine.tnum.oldstyle" horiz-adv-x="1196" 
d="M594 1044q217 0 369.5 -144t152.5 -341q0 -150 -90 -313l-328 -602h-368l270 501q-33 -23 -88 -22q-182 0 -312 130t-130 308q0 197 155.5 340t368.5 143zM592 739q-76 0 -129 -54t-53 -130t53 -129t129 -53t129 53t53 129t-53 130t-129 54z" />
    <glyph glyph-name="zero.dnom" horiz-adv-x="860" 
d="M432 -18q-154 0 -261.5 107.5t-107.5 258.5v170q0 152 108 258.5t261 106.5q152 0 258.5 -106.5t106.5 -258.5v-170q0 -152 -106.5 -259t-258.5 -107zM432 213q39 0 71 31.5t32 89.5v198q0 53 -30 86t-73 33q-45 0 -75.5 -32.5t-30.5 -86.5v-198q0 -57 31.5 -89t74.5 -32
z" />
    <glyph glyph-name="one.dnom" horiz-adv-x="577" 
d="M201 0v575l-168 -34v217l301 106h127v-864h-260z" />
    <glyph glyph-name="two.dnom" horiz-adv-x="774" 
d="M61 0v133l326 367q70 74 70 114q0 31 -20.5 48.5t-49.5 17.5q-33 0 -55.5 -22.5t-22.5 -63.5h-254q0 135 93.5 212t238.5 77q141 0 232.5 -71t91.5 -187q0 -104 -101 -219l-168 -183h283v-223h-664z" />
    <glyph glyph-name="three.dnom" horiz-adv-x="759" 
d="M373 -18q-154 0 -246 80.5t-92 213.5h254q0 -39 24.5 -65.5t63.5 -26.5q43 0 66.5 23.5t23.5 62.5q0 37 -26.5 62.5t-69.5 25.5h-109v187h109q29 0 51 20.5t22 49t-21.5 48t-50 19.5t-50 -17.5t-21.5 -43.5h-254q0 117 96.5 189.5t233.5 72.5q131 0 224 -63.5t93 -166.5
q0 -135 -121 -196q150 -59 150 -213q0 -115 -97 -188.5t-253 -73.5z" />
    <glyph glyph-name="four.dnom" horiz-adv-x="782" 
d="M756 375v-189h-86v-186h-246v186h-418v148l488 530h176v-489h86zM283 375h149v162z" />
    <glyph glyph-name="five.dnom" horiz-adv-x="759" 
d="M379 -18q-143 0 -245.5 78.5t-102.5 191.5l262 16q16 -63 90 -63q33 0 56.5 23.5t23.5 56.5q0 35 -23.5 58.5t-58.5 23.5q-53 0 -78 -35l-225 94l76 438h495v-213h-295l-16 -100q27 14 88 14q125 0 215 -83t90 -199q0 -123 -103.5 -212t-248.5 -89z" />
    <glyph glyph-name="six.dnom" horiz-adv-x="770" 
d="M383 -18q-141 0 -242.5 93t-101.5 218q0 98 59 209l205 362h277l-172 -307q18 14 47 14q113 0 193.5 -82.5t80.5 -195.5q0 -127 -102.5 -219t-243.5 -92zM385 211q35 0 62.5 25.5t27.5 60.5t-26.5 59.5t-63.5 24.5t-63.5 -24.5t-26.5 -59.5t26.5 -60.5t63.5 -25.5z" />
    <glyph glyph-name="seven.dnom" horiz-adv-x="659" 
d="M113 0l233 637h-313v227h606v-133l-262 -731h-264z" />
    <glyph glyph-name="eight.dnom" horiz-adv-x="751" 
d="M377 -18q-139 0 -238.5 81.5t-99.5 200.5q0 160 143 221q-49 29 -75.5 76t-24.5 96q4 94 89 160t206 66q123 0 207 -67.5t84 -168.5q0 -98 -97 -162q141 -61 142 -221q0 -119 -98.5 -200.5t-237.5 -81.5zM377 559q27 0 46 18.5t19 45.5q0 25 -19.5 43t-46 18t-46 -18.5
t-19.5 -42.5q0 -27 18.5 -45.5t47.5 -18.5zM377 203q35 0 60.5 24.5t25.5 61.5q0 35 -25.5 59.5t-60.5 24.5q-37 0 -64.5 -24.5t-27.5 -59.5t26.5 -60.5t65.5 -25.5z" />
    <glyph glyph-name="nine.dnom" horiz-adv-x="770" 
d="M387 883q143 0 243.5 -93.5t100.5 -218.5q0 -98 -59 -209l-205 -362h-277l162 291h-28q-117 0 -201 85t-84 197q0 125 103.5 217.5t244.5 92.5zM385 653q-37 0 -63.5 -25.5t-26.5 -60.5t26.5 -61.5t63.5 -26.5t63.5 26.5t26.5 61.5t-26.5 60.5t-63.5 25.5z" />
    <glyph glyph-name="zero.numr" horiz-adv-x="860" 
d="M432 494q-154 0 -261.5 107.5t-107.5 258.5v170q0 152 108 258.5t261 106.5q152 0 258.5 -106.5t106.5 -258.5v-170q0 -152 -106.5 -259t-258.5 -107zM432 725q39 0 71 31.5t32 89.5v198q0 53 -30 86t-73 33q-45 0 -75.5 -32.5t-30.5 -86.5v-198q0 -57 31.5 -89t74.5 -32
z" />
    <glyph glyph-name="one.numr" horiz-adv-x="577" 
d="M201 512v575l-168 -34v217l301 106h127v-864h-260z" />
    <glyph glyph-name="two.numr" horiz-adv-x="774" 
d="M61 512v133l326 367q70 74 70 114q0 31 -20.5 48.5t-49.5 17.5q-33 0 -55.5 -22.5t-22.5 -63.5h-254q0 135 93.5 212t238.5 77q141 0 232.5 -71t91.5 -187q0 -104 -101 -219l-168 -183h283v-223h-664z" />
    <glyph glyph-name="three.numr" horiz-adv-x="759" 
d="M373 494q-154 0 -246 80.5t-92 213.5h254q0 -39 24.5 -65.5t63.5 -26.5q43 0 66.5 23.5t23.5 62.5q0 37 -26.5 62.5t-69.5 25.5h-109v187h109q29 0 51 20.5t22 49t-21.5 48t-50 19.5t-50 -17.5t-21.5 -43.5h-254q0 117 96.5 189.5t233.5 72.5q131 0 224 -63.5t93 -166.5
q0 -135 -121 -196q150 -59 150 -213q0 -115 -97 -188.5t-253 -73.5z" />
    <glyph glyph-name="four.numr" horiz-adv-x="782" 
d="M756 887v-189h-86v-186h-246v186h-418v148l488 530h176v-489h86zM283 887h149v162z" />
    <glyph glyph-name="five.numr" horiz-adv-x="759" 
d="M379 494q-143 0 -245.5 78.5t-102.5 191.5l262 16q16 -63 90 -63q33 0 56.5 23.5t23.5 56.5q0 35 -23.5 58.5t-58.5 23.5q-53 0 -78 -35l-225 94l76 438h495v-213h-295l-16 -100q27 14 88 14q125 0 215 -83t90 -199q0 -123 -103.5 -212t-248.5 -89z" />
    <glyph glyph-name="six.numr" horiz-adv-x="770" 
d="M383 494q-141 0 -242.5 93t-101.5 218q0 98 59 209l205 362h277l-172 -307q18 14 47 14q113 0 193.5 -82.5t80.5 -195.5q0 -127 -102.5 -219t-243.5 -92zM385 723q35 0 62.5 25.5t27.5 60.5t-26.5 59.5t-63.5 24.5t-63.5 -24.5t-26.5 -59.5t26.5 -60.5t63.5 -25.5z" />
    <glyph glyph-name="seven.numr" horiz-adv-x="659" 
d="M113 512l233 637h-313v227h606v-133l-262 -731h-264z" />
    <glyph glyph-name="eight.numr" horiz-adv-x="751" 
d="M377 494q-139 0 -238.5 81.5t-99.5 200.5q0 160 143 221q-49 29 -75.5 76t-24.5 96q4 94 89 160t206 66q123 0 207 -67.5t84 -168.5q0 -98 -97 -162q141 -61 142 -221q0 -119 -98.5 -200.5t-237.5 -81.5zM377 1071q27 0 46 18.5t19 45.5q0 25 -19.5 43t-46 18t-46 -18.5
t-19.5 -42.5q0 -27 18.5 -45.5t47.5 -18.5zM377 715q35 0 60.5 24.5t25.5 61.5q0 35 -25.5 59.5t-60.5 24.5q-37 0 -64.5 -24.5t-27.5 -59.5t26.5 -60.5t65.5 -25.5z" />
    <glyph glyph-name="nine.numr" horiz-adv-x="770" 
d="M387 1395q143 0 243.5 -93.5t100.5 -218.5q0 -98 -59 -209l-205 -362h-277l162 291h-28q-117 0 -201 85t-84 197q0 125 103.5 217.5t244.5 92.5zM385 1165q-37 0 -63.5 -25.5t-26.5 -60.5t26.5 -61.5t63.5 -26.5t63.5 26.5t26.5 61.5t-26.5 60.5t-63.5 25.5z" />
    <glyph glyph-name="exclamdown.aalt" horiz-adv-x="649" 
d="M324 1399q88 0 152.5 -61.5t64.5 -147.5t-64.5 -148.5t-152.5 -62.5t-151.5 62.5t-63.5 148.5t63.5 147.5t151.5 61.5zM154 844h342v-844h-342v844z" />
    <glyph glyph-name="questiondown.aalt" horiz-adv-x="1028" 
d="M522 1389q80 0 138.5 -56.5t58.5 -136.5q0 -78 -58.5 -135t-138.5 -57t-139 57t-59 135q0 80 59 136.5t139 56.5zM692 899v-57q0 -82 -30.5 -142.5t-74.5 -95.5t-88 -64.5t-75 -73.5t-31 -101q0 -51 36 -85t87 -34q133 0 133 164h338q0 -190 -135 -315.5t-330 -125.5
q-193 0 -331 118t-138 284q0 78 31 141t76 104t89 77t74.5 77t30.5 88v41h338z" />
    <glyph glyph-name="braceleft.aalt" horiz-adv-x="831" 
d="M637 -287q-172 0 -296 118t-124 286v338q0 39 -26.5 68.5t-61.5 29.5h-61v283h61q35 0 61.5 29.5t26.5 68.5v336q0 168 124 285.5t296 117.5h170v-305h-117q-47 0 -82 -35t-35 -84v-340q0 -72 -38.5 -133t-120.5 -82q82 -27 120.5 -86t38.5 -129v-342q0 -49 35 -84
t82 -35h117v-305h-170z" />
    <glyph glyph-name="braceright.aalt" horiz-adv-x="831" 
d="M195 -287h-170v305h116q47 0 82 36t35 85v342q0 68 39 128.5t121 86.5q-80 18 -120 80t-40 133v340q0 49 -35 85t-82 36h-116v305h170q172 0 295.5 -118.5t123.5 -284.5v-336q0 -39 27 -68.5t61 -29.5h62v-285h-62q-35 0 -61.5 -28.5t-26.5 -67.5v-340
q0 -166 -123.5 -285t-295.5 -119z" />
    <glyph glyph-name="bracketleft.aalt" horiz-adv-x="806" 
d="M801 1368h-305v-1350h305v-286h-647v1925h647v-289z" />
    <glyph glyph-name="bracketright.aalt" horiz-adv-x="806" 
d="M653 1657v-1925h-647v286h305v1352h-305v287h647z" />
    <glyph glyph-name="parenleft.aalt" horiz-adv-x="829" 
d="M795 1333q-154 -76 -250 -245.5t-96 -382.5q0 -211 96 -384.5t250 -246.5v-342q-301 98 -493.5 372.5t-192.5 600.5q0 332 191.5 600t494.5 372v-344z" />
    <glyph glyph-name="parenright.aalt" horiz-adv-x="829" 
d="M35 1335v342q303 -102 494.5 -371.5t191.5 -600.5q0 -326 -192.5 -600.5t-493.5 -372.5v342q154 74 250 247t96 384q0 213 -95 383.5t-251 246.5z" />
    <glyph glyph-name="emdash.aalt" horiz-adv-x="1935" 
d="M1845 854v-287h-1755v287h1755z" />
    <glyph glyph-name="endash.aalt" horiz-adv-x="1245" 
d="M1155 854v-287h-1065v287h1065z" />
    <glyph glyph-name="hyphen.aalt" horiz-adv-x="806" 
d="M717 854v-287h-627v287h627z" />
    <glyph glyph-name="guillemotleft.aalt" horiz-adv-x="1243" 
d="M684 1085l-299 -372l299 -373h-338l-315 373l315 372h338zM1192 1085l-299 -372l299 -373h-338l-315 373l315 372h338z" />
    <glyph glyph-name="guillemotright.aalt" horiz-adv-x="1243" 
d="M51 1085h338l316 -372l-316 -373h-338l299 373zM559 1085h338l315 -372l-315 -373h-338l299 373z" />
    <glyph glyph-name="guilsinglleft.aalt" horiz-adv-x="737" 
d="M684 1034l-299 -372l299 -373h-338l-315 373l315 372h338z" />
    <glyph glyph-name="guilsinglright.aalt" horiz-adv-x="735" 
d="M51 1085h338l316 -372l-316 -373h-338l299 373z" />
    <glyph glyph-name="at.aalt" horiz-adv-x="2007" 
d="M987 -240q-244 0 -457 119t-341 328t-128 457q0 375 277.5 635t697.5 260q211 0 387 -73t288 -194t173.5 -271.5t61.5 -309.5q0 -227 -115 -353.5t-287 -126.5q-219 0 -299 189h-4q-31 -92 -114 -138t-175 -46q-158 0 -284.5 118.5t-126.5 303t127 303t282 118.5
q72 0 140.5 -25.5t97.5 -68.5h2l14 74h242v-441q0 -63 27.5 -103t78.5 -40q104 0 105 199q0 287 -165 450.5t-450 163.5q-309 0 -500.5 -181t-191.5 -443q0 -268 191.5 -450.5t453.5 -182.5q168 0 297 90l146 -217q-195 -144 -451 -144zM999 492q70 0 118 48t48 117.5
t-48 117.5t-118 48q-68 0 -116.5 -49t-48.5 -116.5t48.5 -116.5t116.5 -49z" />
    <glyph glyph-name="glyph537" 
d="M-360 1495h268q0 -145 -116 -250.5t-273 -105.5q-160 0 -276.5 105.5t-116.5 250.5h268q0 -70 35.5 -112t89.5 -42q51 0 86 42t35 112z" />
    </font>
</defs>
</svg>
