<?xml version="1.0" standalone="no"?>
<!DOCTYPE svg PUBLIC "-//W3C//DTD SVG 1.1//EN" "http://www.w3.org/Graphics/SVG/1.1/DTD/svg11.dtd" >
<svg xmlns="http://www.w3.org/2000/svg" xmlns:xlink="http://www.w3.org/1999/xlink" version="1.1">
<metadata>
Created by FontForge 20170731 at Mon Apr  9 14:47:59 2018
 By Aleksey,,,
(c) 2018 Natanael Gama
</metadata>
<defs>
<font id="Point-Black" horiz-adv-x="1214" >
  <font-face 
    font-family="Point Black"
    font-weight="900"
    font-stretch="normal"
    units-per-em="2048"
    panose-1="0 0 10 0 0 0 0 0 0 0"
    ascent="1638"
    descent="-410"
    x-height="1024"
    cap-height="1372"
    bbox="-1655 -530 2560 1946"
    underline-thickness="0"
    underline-position="0"
    unicode-range="U+0020-FB02"
  />
<missing-glyph horiz-adv-x="1679" 
d="M104 1475h1473v-1475l-1475 2zM1413 164v1147h-1145v-1147h1145zM1249 1147v-819h-819v819h819zM1085 492v491h-491v-491h491zM922 819v-164h-164v164h164z" />
    <glyph glyph-name="uniFB01" unicode="fi" horiz-adv-x="1566" 
d="M1241 1114q-90 0 -153.5 62.5t-63.5 150.5q0 86 64.5 149.5t152.5 63.5t152.5 -63.5t64.5 -149.5q0 -88 -64.5 -150.5t-152.5 -62.5zM731 1186q-74 0 -119 -38t-45 -108v-16h291v-307h-291v-717h-389v717h-137v307h137v51q0 186 137.5 307t352.5 121q131 0 227 -41
l-49 -305q-66 29 -115 29zM1047 0v1024h389v-1024h-389z" />
    <glyph glyph-name="uniFB02" unicode="fl" horiz-adv-x="1566" 
d="M731 1186q-74 0 -119 -38t-45 -108v-16h291v-307h-291v-717h-389v717h-137v307h137v51q0 186 137.5 307t352.5 121q131 0 227 -41l-49 -305q-66 29 -115 29zM1047 1475h389v-1475h-389v1475z" />
    <glyph glyph-name=".notdef" horiz-adv-x="1679" 
d="M104 1475h1473v-1475l-1475 2zM1413 164v1147h-1145v-1147h1145zM1249 1147v-819h-819v819h819zM1085 492v491h-491v-491h491zM922 819v-164h-164v164h164z" />
    <glyph glyph-name=".null" horiz-adv-x="0" 
 />
    <glyph glyph-name="nonmarkingreturn" horiz-adv-x="682" 
 />
    <glyph glyph-name="space" unicode=" " horiz-adv-x="450" 
 />
    <glyph glyph-name="exclam" unicode="!" horiz-adv-x="675" 
d="M143 553v819h389v-819h-389zM338 -29q-98 0 -169 69t-71 165t71 164.5t169 68.5q96 0 168 -69.5t72 -163.5q0 -96 -71 -165t-169 -69z" />
    <glyph glyph-name="quotedbl" unicode="&#x22;" horiz-adv-x="962" 
d="M113 1372h327v-491h-327v491zM522 1372h328v-491h-328v491z" />
    <glyph glyph-name="numbersign" unicode="#" horiz-adv-x="1617" 
d="M1516 801h-205v-232h205v-307h-205v-262h-369v262h-266v-262h-369v262h-205v307h205v232h-205v307h205v264h369v-264h266v264h369v-264h205v-307zM942 569v232h-266v-232h266z" />
    <glyph glyph-name="dollar" unicode="$" horiz-adv-x="1318" 
d="M1233 397q0 -176 -136 -292.5t-366 -131.5v-149h-143v151q-217 20 -358.5 144.5t-143.5 314.5h414q2 -94 88 -135v238q-125 47 -203 86t-146.5 93t-99 123.5t-30.5 161.5q0 172 129 276.5t350 121.5v131h143v-131q211 -16 343 -127t138 -301h-405q-4 80 -76 112v-209
q6 0 14 -4q266 -90 377 -187.5t111 -285.5zM514 1014q0 -49 74 -86v164q-74 -19 -74 -78zM731 289q92 25 92 88q0 57 -92 102v-190z" />
    <glyph glyph-name="percent" unicode="%" horiz-adv-x="1794" 
d="M412 662q-156 0 -263.5 107.5t-107.5 262.5q0 154 107.5 261.5t263.5 107.5q154 0 261 -107.5t107 -261.5q0 -156 -107 -263t-261 -107zM299 -2l844 1374h354l-846 -1374h-352zM412 942q37 0 62.5 26.5t25.5 63.5t-25.5 62.5t-62.5 25.5t-63.5 -25.5t-26.5 -62.5
q0 -39 25.5 -64.5t64.5 -25.5zM1384 -29q-156 0 -263 107.5t-107 263.5q0 154 107.5 261.5t262.5 107.5q154 0 261.5 -107.5t107.5 -261.5q0 -156 -107.5 -263.5t-261.5 -107.5zM1384 252q37 0 63 26.5t26 63.5t-26 62.5t-62.5 25.5t-63.5 -25.5t-27 -62.5q0 -39 25.5 -64.5
t64.5 -25.5z" />
    <glyph glyph-name="ampersand" unicode="&#x26;" horiz-adv-x="1363" 
d="M1440 0h-439q-39 39 -57 53q-164 -82 -371 -82q-238 0 -380 104.5t-142 284.5q0 219 254 363q-113 166 -112 311q0 172 129 267.5t321.5 95.5t315 -95.5t122.5 -265.5q0 -141 -79.5 -230t-217.5 -155q66 -72 123 -127q16 -18 56 -57q51 84 51 182h313q0 -217 -143 -399
q35 -35 90 -88t96 -92t70 -70zM530 1022q0 -51 72 -156q139 76 139 162q0 49 -30.5 80t-77.5 31q-45 0 -74 -33t-29 -84zM412 383q0 -117 176 -117q59 0 119 17l-45 47q-88 82 -177 174q-73 -53 -73 -121z" />
    <glyph glyph-name="quotesingle" unicode="'" horiz-adv-x="512" 
d="M113 1372h327v-491h-327v491z" />
    <glyph glyph-name="parenleft" unicode="(" horiz-adv-x="835" 
d="M795 1104q-135 -70 -219 -227.5t-84 -354.5q0 -195 83.5 -354.5t219.5 -226.5v-392q-303 96 -498 371t-195 602q0 332 193.5 602.5t499.5 370.5v-391z" />
    <glyph glyph-name="parenright" unicode=")" horiz-adv-x="835" 
d="M41 1104v391q305 -100 498.5 -370.5t193.5 -602.5q0 -328 -194.5 -602t-497.5 -371v392q135 68 219 227.5t84 353.5q0 197 -84 354.5t-219 227.5z" />
    <glyph glyph-name="asterisk" unicode="*" horiz-adv-x="966" 
d="M371 676v205l-176 -103l-113 195l176 102l-176 103l113 194l176 -102v205h225v-205l176 102l113 -194l-176 -103l176 -102l-113 -195l-176 103v-205h-225z" />
    <glyph glyph-name="plus" unicode="+" horiz-adv-x="1011" 
d="M930 840v-328h-260v-260h-328v260h-260v328h260v260h328v-260h260z" />
    <glyph glyph-name="comma" unicode="," horiz-adv-x="569" 
d="M150 303h389l-191 -649h-266z" />
    <glyph glyph-name="hyphen" unicode="-" horiz-adv-x="806" 
d="M725 672v-328h-643v328h643z" />
    <glyph glyph-name="period" unicode="." horiz-adv-x="622" 
d="M311.5 -29q-98.5 0 -169 69t-70.5 165t70.5 164.5t168.5 68.5q96 0 168 -69.5t72 -163.5q0 -96 -70.5 -165t-169 -69z" />
    <glyph glyph-name="slash" unicode="/" horiz-adv-x="933" 
d="M483 1475h410l-545 -1926h-409z" />
    <glyph glyph-name="zero" unicode="0" horiz-adv-x="1308" 
d="M655.5 -29q-229.5 0 -391.5 163t-162 392v322q0 229 162 391t391.5 162t390 -162t160.5 -391v-322q0 -229 -160.5 -392t-390 -163zM655 324q59 0 105.5 48t46.5 132v364q0 82 -43 131.5t-108.5 49.5t-109.5 -50.5t-44 -130.5v-364q0 -84 45 -132t108 -48z" />
    <glyph glyph-name="one" unicode="1" horiz-adv-x="917" 
d="M336 0v932l-264 -62v332l467 170h194v-1372h-397z" />
    <glyph glyph-name="two" unicode="2" horiz-adv-x="1241" 
d="M104 0v205l512 579q113 121 113 195q0 51 -35 83t-84 32q-55 0 -90 -40t-35 -110h-389q0 215 145.5 336t370.5 121q219 0 362.5 -112.5t143.5 -297.5q0 -74 -28.5 -145.5t-57 -111.5t-76.5 -93l-262 -301h449v-340h-1039z" />
    <glyph glyph-name="three" unicode="3" 
d="M596 -29q-240 0 -384 127t-144 336h389q0 -66 41 -110.5t102 -44.5q66 0 108 43t42 102q0 63 -44 106t-116 43h-168v285h168q49 0 84 36t35 83q0 51 -35 85t-84 34q-47 0 -81 -32t-34 -77h-387q0 184 149.5 299t364.5 115q205 0 348.5 -101.5t143.5 -263.5
q0 -211 -193 -311q113 -43 175.5 -131t62.5 -207q0 -182 -151.5 -299t-391.5 -117z" />
    <glyph glyph-name="four" unicode="4" horiz-adv-x="1257" 
d="M1194 602v-297h-137v-305h-369v305h-643v268l764 799h248v-770h137zM440 592h258v278z" />
    <glyph glyph-name="five" unicode="5" 
d="M602 -29q-225 0 -383 124t-158 306l400 25q27 -115 147 -115q55 0 96 43t41 95q0 61 -40.5 103t-96.5 42q-80 0 -123 -59l-350 143l117 694h774v-323h-469l-27 -158q49 33 146 33q197 0 336 -140.5t139 -337t-161 -336t-388 -139.5z" />
    <glyph glyph-name="six" unicode="6" 
d="M612.5 -29q-221.5 0 -379 146.5t-157.5 345.5q0 160 94 328l322 581h419l-258 -471q18 4 54 4q182 0 314 -132t132 -312q0 -199 -159.5 -344.5t-381 -145.5zM614.5 319q61.5 0 105.5 44.5t44 105.5t-44 105t-105.5 44t-105.5 -44t-44 -105t44 -105.5t105.5 -44.5z" />
    <glyph glyph-name="seven" unicode="7" horiz-adv-x="1048" 
d="M197 0l370 1024h-501v348h944v-205l-412 -1167h-401z" />
    <glyph glyph-name="eight" unicode="8" horiz-adv-x="1232" 
d="M618 -29q-217 0 -371.5 129t-154.5 320q2 113 55.5 208t157.5 144q-150 96 -143 272q6 147 136 252t320 105q193 0 323 -105.5t130 -265.5q0 -164 -141 -258q106 -49 158.5 -144.5t52.5 -209.5q0 -186 -152 -316.5t-371 -130.5zM616 893q41 0 70 28.5t29 69.5t-29 68.5
t-70 27.5t-69.5 -28.5t-28.5 -67.5q0 -41 28.5 -69.5t69.5 -28.5zM616 319q55 0 94.5 38t39.5 96q0 55 -39 93t-94.5 38t-95.5 -38t-40 -93.5t39 -94.5t96 -39z" />
    <glyph glyph-name="nine" unicode="9" 
d="M606 1401q221 0 379 -146.5t158 -345.5q0 -160 -94 -327l-322 -582h-420l258 471q-18 -4 -53 -4q-182 0 -314 132t-132 312q0 199 159.5 344.5t380.5 145.5zM604.5 1053q-61.5 0 -105.5 -44t-44 -105.5t44 -105.5t105.5 -44t105.5 44t44 105.5t-44 105.5t-105.5 44z" />
    <glyph glyph-name="colon" unicode=":" horiz-adv-x="622" 
d="M311.5 590q-98.5 0 -169 68.5t-70.5 165t70.5 165t168.5 68.5q96 0 168 -69.5t72 -164.5q0 -96 -70.5 -164.5t-169 -68.5zM311.5 -29q-98.5 0 -169 69t-70.5 165t70.5 164.5t168.5 68.5q96 0 168 -69.5t72 -163.5q0 -96 -70.5 -165t-169 -69z" />
    <glyph glyph-name="semicolon" unicode=";" horiz-adv-x="622" 
d="M311.5 590q-98.5 0 -169 68.5t-70.5 165t70.5 165t168.5 68.5q96 0 168 -69.5t72 -164.5q0 -96 -70.5 -164.5t-169 -68.5zM150 303h389l-191 -649h-266z" />
    <glyph glyph-name="less" unicode="&#x3c;" horiz-adv-x="964" 
d="M862 1155v-350l-393 -121l393 -121v-350l-794 311v320z" />
    <glyph glyph-name="equal" unicode="=" horiz-adv-x="1093" 
d="M971 1044v-327h-848v327h848zM971 635v-328h-848v328h848z" />
    <glyph glyph-name="greater" unicode="&#x3e;" horiz-adv-x="964" 
d="M102 1155l795 -311v-320l-795 -311v350l394 121l-394 121v350z" />
    <glyph glyph-name="question" unicode="?" horiz-adv-x="1024" 
d="M309 489v54q0 82 29 141t70 93t82.5 62.5t70.5 67.5t29 90q0 37 -22.5 58.5t-57.5 21.5q-92 0 -92 -127h-387q0 193 137 318t336 125q195 0 335 -118t140 -284q0 -76 -28.5 -137t-70.5 -101t-84 -76t-71 -75t-29 -80v-33h-387zM506 -29q-90 0 -154.5 62.5t-64.5 150.5
t64.5 150.5t154.5 62.5q88 0 153.5 -63.5t65.5 -149.5t-65.5 -149.5t-153.5 -63.5z" />
    <glyph glyph-name="at" unicode="@" horiz-adv-x="2025" 
d="M995 -451q-248 0 -465 120t-348 332t-131 464q0 186 75 352t205 289t317.5 194.5t402.5 71.5q219 0 398 -73.5t291.5 -196.5t173 -272.5t60.5 -307.5q0 -236 -124 -362.5t-308 -126.5q-221 0 -309 180h-4q-29 -92 -108 -134t-165 -42q-156 0 -282.5 117.5t-126.5 304
t128 304.5t279 118q63 0 125 -19.5t88 -54.5h4l17 51h272v-428q0 -49 24.5 -85t71.5 -36q90 0 91 170q0 276 -156 431t-434 155q-305 0 -491.5 -174t-186.5 -426q0 -258 186.5 -433t438.5 -175q160 0 276 82l164 -246q-191 -144 -449 -144zM1011.5 328q53.5 0 92.5 37.5
t39 93t-39 93.5t-92.5 38t-92 -39t-38.5 -92t38.5 -92t92 -39z" />
    <glyph glyph-name="A" unicode="A" horiz-adv-x="1523" 
d="M1122 0l-88 186h-545l-88 -186h-421l700 1382h164l700 -1382h-422zM623 473h278l-139 295z" />
    <glyph glyph-name="B" unicode="B" horiz-adv-x="1310" 
d="M143 0v1372h639q166 0 284 -100.5t118 -249.5q0 -84 -45 -160t-127 -121q111 -43 174 -136t63 -214q0 -176 -130 -283.5t-341 -107.5h-635zM532 854h148q49 0 84 34t35 79q0 49 -34 79.5t-85 30.5h-148v-223zM532 295h183q61 0 103 41t42 98q0 61 -41 103.5t-104 42.5
h-183v-285z" />
    <glyph glyph-name="C" unicode="C" horiz-adv-x="1630" 
d="M1569 543q-55 -246 -263 -409t-479 -163q-311 0 -533 210t-222 505t222 505t533 210q270 0 478 -163t262 -409h-422q-43 92 -128 148.5t-190 56.5q-143 0 -245.5 -101.5t-102.5 -246.5t102.5 -246.5t245.5 -101.5q104 0 190.5 56.5t127.5 148.5h424z" />
    <glyph glyph-name="D" unicode="D" horiz-adv-x="1624" 
d="M143 0v1372h674q303 0 519 -201.5t216 -484.5t-216 -485.5t-519 -200.5h-674zM551 367h266q135 0 231.5 94t96.5 225t-96.5 224.5t-231.5 93.5h-266v-637z" />
    <glyph glyph-name="E" unicode="E" horiz-adv-x="1288" 
d="M551 340h627v-340h-1035v1372h1014v-340h-606v-180h586v-320h-586v-192z" />
    <glyph glyph-name="F" unicode="F" horiz-adv-x="1253" 
d="M1157 1032h-606v-221h565v-319h-565v-492h-408v1372h1014v-340z" />
    <glyph glyph-name="G" unicode="G" horiz-adv-x="1654" 
d="M1573 813q10 -66 10 -131q0 -291 -221 -501t-535 -210q-311 0 -533 210t-222 505q0 291 221 503t538 212q211 0 388.5 -98.5t275.5 -262.5l-367 -153q-47 70 -126.5 112.5t-170.5 42.5q-147 0 -249.5 -103t-102.5 -248.5t107.5 -249t261.5 -103.5q104 0 192 54t136 143
h-441v278h838z" />
    <glyph glyph-name="H" unicode="H" horiz-adv-x="1597" 
d="M1047 1372h407v-1372h-407v522h-496v-522h-408v1372h408v-510h496v510z" />
    <glyph glyph-name="I" unicode="I" horiz-adv-x="694" 
d="M143 0v1372h408v-1372h-408z" />
    <glyph glyph-name="J" unicode="J" horiz-adv-x="1255" 
d="M1133 1372v-903q0 -205 -152 -351.5t-367 -146.5q-219 0 -386 148.5t-167 349.5v76h408v-76q0 -53 38 -92t89 -39q53 0 91 39t38 92v563h-469v340h877z" />
    <glyph glyph-name="K" unicode="K" horiz-adv-x="1456" 
d="M143 0v1372h408v-584h6l406 584h493l-489 -674l522 -698h-500l-432 602h-6v-602h-408z" />
    <glyph glyph-name="L" unicode="L" horiz-adv-x="1177" 
d="M551 340h565v-340h-973v1372h408v-1032z" />
    <glyph glyph-name="M" unicode="M" horiz-adv-x="1900" 
d="M143 0v1372h203l604 -667l602 667h205v-1372h-387v643l-356 -395h-127l-357 395v-643h-387z" />
    <glyph glyph-name="N" unicode="N" horiz-adv-x="1622" 
d="M1081 1372h398v-1380h-205l-733 729v-721h-398v1380h205l733 -727v719z" />
    <glyph glyph-name="O" unicode="O" horiz-adv-x="1654" 
d="M827.5 -29q-311.5 0 -533.5 210t-222 505t222 505t533.5 210t533.5 -210t222 -505t-222 -505t-533.5 -210zM827.5 338q143.5 0 246 101.5t102.5 246.5t-102.5 246.5t-246 101.5t-246 -101.5t-102.5 -246.5t102.5 -246.5t246 -101.5z" />
    <glyph glyph-name="P" unicode="P" horiz-adv-x="1361" 
d="M809 403h-277v-403h-389v1372h666q205 0 343 -135t138 -348q0 -221 -137 -353.5t-344 -132.5zM532 1055v-334h183q82 0 134 47t52 121q0 72 -53 119t-133 47h-183z" />
    <glyph glyph-name="Q" unicode="Q" horiz-adv-x="1654" 
d="M1583 686q0 -262 -180 -463l153 -172l-229 -198l-170 190q-160 -72 -330 -72q-311 0 -533 210t-222 505t222 505t533.5 210t533.5 -210t222 -505zM827 338q33 0 62 6l-150 168l230 197l166 -187q41 76 41 164q0 145 -102.5 246.5t-246 101.5t-246 -101.5t-102.5 -246.5
t102.5 -246.5t245.5 -101.5z" />
    <glyph glyph-name="R" unicode="R" horiz-adv-x="1427" 
d="M1407 0h-440l-299 440h-136v-440h-389v1372h707q201 0 336 -132t135 -341q0 -147 -70.5 -255.5t-191.5 -162.5zM532 1055v-312h224q78 0 127 43t49 113q0 68 -51.5 112t-124.5 44h-224z" />
    <glyph glyph-name="S" unicode="S" horiz-adv-x="1320" 
d="M670 -29q-248 0 -415 127t-169 336h414q2 -76 54 -113.5t118 -37.5q61 0 106 26.5t45 67.5q0 47 -49 77.5t-172 75.5q-129 49 -208 88t-150.5 93.5t-103 125t-31.5 164.5q0 186 150.5 293t402.5 107q238 0 391 -111.5t159 -318.5h-405q-4 57 -45 93t-107 36
q-141 0 -141 -86q0 -45 46 -72t147 -59q27 -8 38 -13q266 -90 377 -187t111 -285.5t-154.5 -307.5t-408.5 -119z" />
    <glyph glyph-name="T" unicode="T" horiz-adv-x="1288" 
d="M1247 1372v-340h-399v-1032h-408v1032h-399v340h1206z" />
    <glyph glyph-name="U" unicode="U" horiz-adv-x="1576" 
d="M788.5 -29q-270.5 0 -463 180.5t-192.5 432.5v788h408v-788q0 -102 72.5 -174t175 -72t175 71.5t72.5 174.5v788h408v-788q0 -252 -192.5 -432.5t-463 -180.5z" />
    <glyph glyph-name="V" unicode="V" horiz-adv-x="1503" 
d="M-10 1372h422l340 -737l340 737h421l-679 -1382h-164z" />
    <glyph glyph-name="W" unicode="W" horiz-adv-x="2207" 
d="M618 0l-587 1372h422l278 -645l295 645h156l295 -645l278 645h422l-588 -1372h-155l-330 748l-330 -748h-156z" />
    <glyph glyph-name="X" unicode="X" horiz-adv-x="1513" 
d="M20 0l512 702l-491 670h479l236 -358l237 358h480l-492 -670l512 -702h-479l-258 387l-258 -387h-478z" />
    <glyph glyph-name="Y" unicode="Y" horiz-adv-x="1482" 
d="M1503 1372l-557 -907v-465h-407v461l-559 911h462l299 -534l299 534h463z" />
    <glyph glyph-name="Z" unicode="Z" horiz-adv-x="1316" 
d="M100 0v150l568 882h-559v340h1108v-149l-555 -883h575v-340h-1137z" />
    <glyph glyph-name="bracketleft" unicode="[" horiz-adv-x="808" 
d="M809 1147h-277v-1270h277v-328h-666v1926h666v-328z" />
    <glyph glyph-name="backslash" unicode="\" horiz-adv-x="933" 
d="M451 1475l544 -1926h-409l-545 1926h410z" />
    <glyph glyph-name="bracketright" unicode="]" horiz-adv-x="808" 
d="M666 1475v-1926h-666v328h276v1270h-276v328h666z" />
    <glyph glyph-name="asciicircum" unicode="^" horiz-adv-x="1112" 
d="M1051 510h-344l-150 207l-151 -207h-345l326 434h338z" />
    <glyph glyph-name="underscore" unicode="_" horiz-adv-x="1173" 
d="M-2 0h1178v-348h-1178v348z" />
    <glyph glyph-name="grave" unicode="`" horiz-adv-x="1228" 
d="M367 1143l-265 373h351l264 -373h-350z" />
    <glyph glyph-name="a" unicode="a" horiz-adv-x="1376" 
d="M584 -29q-199 0 -361 152.5t-162 388.5q0 238 163 389.5t360 151.5q90 0 175 -32t122 -89h6l16 92h342v-1024h-342l-16 92h-6q-39 -61 -124 -91t-173 -30zM651 311q82 0 141.5 59.5t59.5 141.5t-59.5 141.5t-141.5 59.5t-141 -59.5t-59 -141.5t59 -141.5t141 -59.5z" />
    <glyph glyph-name="b" unicode="b" horiz-adv-x="1372" 
d="M520 1475v-543h6q35 55 114 88t163 33q197 0 352.5 -150.5t155.5 -388.5q0 -240 -157 -391.5t-359 -151.5q-88 0 -175.5 30t-123.5 91h-7l-16 -92h-342v1475h389zM721 311q82 0 141.5 59.5t59.5 141.5t-59.5 141.5t-141.5 59.5t-141.5 -59.5t-59.5 -141.5t59.5 -141.5
t141.5 -59.5z" />
    <glyph glyph-name="c" unicode="c" horiz-adv-x="1280" 
d="M1229 432q-23 -195 -187.5 -328t-386.5 -133q-244 0 -419 159t-175 382t175.5 382t418.5 159q223 0 386 -133.5t188 -323.5h-395q-23 53 -72 86t-113 33q-82 0 -140 -60.5t-58 -142.5q0 -80 58 -139.5t140 -59.5q129 0 185 119h395z" />
    <glyph glyph-name="d" unicode="d" horiz-adv-x="1372" 
d="M852 1475h389v-1475h-342l-16 92h-6q-37 -61 -124 -91t-175 -30q-203 0 -360 151.5t-157 391.5q0 238 156 388.5t352 150.5q84 0 163 -33t114 -88h6v543zM651 311q82 0 141.5 59.5t59.5 141.5t-59.5 141.5t-141.5 59.5t-141 -59.5t-59 -141.5t59 -141.5t141 -59.5z" />
    <glyph glyph-name="e" unicode="e" horiz-adv-x="1284" 
d="M657 270q135 0 177 84l358 -63q-51 -135 -200.5 -227.5t-338.5 -92.5q-244 0 -418 152.5t-174 382.5q0 227 171 387t419 160q262 0 422 -182.5t160 -460.5h-787q47 -140 211 -140zM651 758q-162 0 -205 -131h402q-45 131 -197 131z" />
    <glyph glyph-name="f" unicode="f" horiz-adv-x="915" 
d="M567 1040v-16h291v-307h-291v-717h-389v717h-137v307h137v51q0 186 137.5 307t352.5 121q131 0 227 -41l-49 -305q-66 29 -115 29q-74 0 -119 -38t-45 -108z" />
    <glyph glyph-name="g" unicode="g" horiz-adv-x="1388" 
d="M682 -471q-227 0 -386 108.5t-210 323.5h412q51 -115 184 -115q90 0 148.5 50.5t58.5 152.5v125h-6q-37 -55 -123 -88t-185 -33q-190 0 -342.5 133t-152.5 357q0 217 160.5 363.5t355.5 146.5q88 0 174 -30t123 -91h6l16 92h342v-934q0 -281 -160.5 -421t-414.5 -140z
M690 365q74 0 129 53t55 125q0 76 -55 130t-129 54q-78 0 -135 -54.5t-57 -129.5q0 -72 57 -125t135 -53z" />
    <glyph glyph-name="h" unicode="h" horiz-adv-x="1357" 
d="M131 0v1475h389v-543h6q94 121 267 121q203 0 326.5 -135.5t123.5 -342.5v-575h-391v537q0 70 -49 120t-117 50t-117 -50.5t-49 -119.5v-537h-389z" />
    <glyph glyph-name="i" unicode="i" horiz-adv-x="651" 
d="M326 1114q-90 0 -153.5 62.5t-63.5 150.5q0 86 64.5 149.5t152.5 63.5t152.5 -63.5t64.5 -149.5q0 -88 -64.5 -150.5t-152.5 -62.5zM131 0v1024h389v-1024h-389z" />
    <glyph glyph-name="j" unicode="j" horiz-adv-x="663" 
d="M340 1114q-90 0 -153.5 62.5t-63.5 150.5q0 86 64.5 149.5t152.5 63.5t152.5 -63.5t64.5 -149.5q0 -88 -64.5 -150.5t-152.5 -62.5zM96 -471q-74 0 -129 20v310q49 -12 92 -13q39 0 61.5 24t22.5 64v1090h389v-1067q0 -188 -120.5 -308t-315.5 -120z" />
    <glyph glyph-name="k" unicode="k" horiz-adv-x="1286" 
d="M131 0v1475h389v-826h6l285 375h479l-387 -473l402 -551h-488l-291 455h-6v-455h-389z" />
    <glyph glyph-name="l" unicode="l" horiz-adv-x="651" 
d="M131 0v1475h389v-1475h-389z" />
    <glyph glyph-name="m" unicode="m" horiz-adv-x="1953" 
d="M1372 1053q213 0 340 -135.5t127 -342.5v-575h-389v557q0 61 -40 105.5t-95 44.5t-95 -44.5t-40 -105.5v-557h-389v557q0 61 -40 105.5t-95.5 44.5t-95.5 -44.5t-40 -105.5v-557h-389v1024h342l23 -92h6q96 121 260 121q180 0 295 -125q114 125 315 125z" />
    <glyph glyph-name="n" unicode="n" horiz-adv-x="1355" 
d="M131 0v1024h342l23 -92h6q102 121 291 121q203 0 325.5 -135.5t122.5 -342.5v-575h-389v537q0 70 -49 120t-117 50t-117 -50.5t-49 -119.5v-537h-389z" />
    <glyph glyph-name="o" unicode="o" horiz-adv-x="1304" 
d="M651.5 -29q-243.5 0 -417 159t-173.5 382t173.5 382t417 159t417.5 -159t174 -382t-174 -382t-417.5 -159zM651 311q82 0 142.5 59.5t60.5 141.5t-60.5 141.5t-142.5 59.5q-80 0 -140 -59.5t-60 -141.5t60 -141.5t140 -59.5z" />
    <glyph glyph-name="p" unicode="p" horiz-adv-x="1374" 
d="M131 -451v1475h342l16 -92h7q37 61 123 91t174 30q199 0 359.5 -151.5t160.5 -391.5q0 -236 -157 -387.5t-347 -151.5q-88 0 -169 33t-114 88h-6v-543h-389zM721 311q82 0 142.5 59.5t60.5 141.5t-60.5 141.5t-142.5 59.5q-80 0 -140.5 -59.5t-60.5 -141.5t60.5 -141.5
t140.5 -59.5z" />
    <glyph glyph-name="q" unicode="q" horiz-adv-x="1374" 
d="M1243 -451h-389v543h-6q-33 -55 -114 -88t-169 -33q-190 0 -347 151.5t-157 387.5q0 240 161 391.5t360 151.5q88 0 174 -30t123 -91h6l16 92h342v-1475zM653 311q80 0 140.5 59.5t60.5 141.5t-60.5 141.5t-140.5 59.5q-82 0 -142 -59.5t-60 -141.5t60 -141.5t142 -59.5z
" />
    <glyph glyph-name="r" unicode="r" horiz-adv-x="868" 
d="M131 0v1024h342l23 -174h6q86 188 325 192v-346q-307 0 -307 -280v-416h-389z" />
    <glyph glyph-name="s" unicode="s" horiz-adv-x="1150" 
d="M598 -29q-250 0 -393.5 92.5t-143.5 258.5h414q-2 -41 30 -63.5t77 -22.5q41 0 67.5 20t26.5 43q0 37 -42 58.5t-181 52.5q-373 86 -373 323q0 147 135 233.5t348 86.5q231 0 367.5 -91.5t136.5 -250.5h-401q2 47 -27 70.5t-68 23.5q-35 0 -60.5 -16.5t-25.5 -45.5
q0 -43 53.5 -64.5t184.5 -45.5q100 -18 178 -51t138.5 -100.5t60.5 -159.5q0 -162 -136.5 -256.5t-365.5 -94.5z" />
    <glyph glyph-name="t" unicode="t" horiz-adv-x="913" 
d="M858 717h-291v-283q0 -70 41 -107.5t109 -37.5q43 0 141 28v-305q-57 -41 -205 -41q-209 0 -342 121t-133 307v318h-158v307h158v242h389v-242h291v-307z" />
    <glyph glyph-name="u" unicode="u" horiz-adv-x="1329" 
d="M1198 1024v-1024h-342l-22 92h-7q-100 -121 -278 -121q-197 0 -315.5 135.5t-118.5 342.5v575h389v-541q0 -74 45 -120t106 -46q63 0 108.5 46.5t45.5 119.5v541h389z" />
    <glyph glyph-name="v" unicode="v" horiz-adv-x="1187" 
d="M512 0l-532 1024h421l193 -430l192 430h422l-532 -1024h-164z" />
    <glyph glyph-name="w" unicode="w" horiz-adv-x="1798" 
d="M496 0l-506 1024h422l196 -420l213 420h156l213 -420l196 420h422l-505 -1024h-156l-248 481l-248 -481h-155z" />
    <glyph glyph-name="x" unicode="x" horiz-adv-x="1196" 
d="M1206 0h-438l-170 246l-170 -246h-438l389 518l-381 506h438l162 -236l162 236h438l-381 -506z" />
    <glyph glyph-name="y" unicode="y" horiz-adv-x="1200" 
d="M45 -451l363 670l-418 805h422l194 -430l193 430h422l-764 -1475h-412z" />
    <glyph glyph-name="z" unicode="z" horiz-adv-x="1146" 
d="M82 0v150l434 552h-412v322h951v-150l-422 -552h442v-322h-993z" />
    <glyph glyph-name="braceleft" unicode="{" horiz-adv-x="835" 
d="M643 -471q-182 0 -314 126t-132 302v305q0 35 -23.5 61.5t-54.5 26.5h-58v324h58q31 0 54.5 26.5t23.5 61.5v305q0 176 132 302t314 126h172v-348h-110q-41 0 -72 -31t-31 -74v-309q0 -74 -40 -137.5t-124 -83.5q86 -27 125 -88.5t39 -132.5v-309q0 -43 31 -74t72 -31
h110v-348h-172z" />
    <glyph glyph-name="bar" unicode="|" horiz-adv-x="675" 
d="M143 1475h389v-1926h-389v1926z" />
    <glyph glyph-name="braceright" unicode="}" horiz-adv-x="835" 
d="M193 -471h-173v348h111q41 0 71.5 31t30.5 74v309q0 72 39 133t125 88q-84 20 -124 83.5t-40 137.5v309q0 43 -30.5 74t-71.5 31h-111v348h173q182 0 314 -126t132 -302v-305q0 -35 23.5 -61.5t54.5 -26.5h57v-324h-57q-31 0 -54.5 -26.5t-23.5 -61.5v-305
q0 -176 -132 -302t-314 -126z" />
    <glyph glyph-name="asciitilde" unicode="~" horiz-adv-x="1056" 
d="M737 879h217q0 -182 -72.5 -277.5t-183.5 -95.5q-68 0 -171 57.5t-134 57.5t-52.5 -26t-21.5 -69h-217q0 184 78 278.5t199 94.5q78 0 170 -57.5t123 -57.5q65 1 65 95z" />
    <glyph glyph-name="exclamdown" unicode="&#xa1;" horiz-adv-x="675" 
d="M338 1057q98 0 169 -68.5t71 -165.5q0 -94 -72 -163.5t-168 -69.5q-98 0 -169 68.5t-71 165t71 165t169 68.5zM143 475h389v-819h-389v819z" />
    <glyph glyph-name="cent" unicode="&#xa2;" horiz-adv-x="1280" 
d="M721 326q76 29 113 106h395q-20 -180 -163.5 -308t-344.5 -149v-151h-143v151q-217 27 -367 180.5t-150 356.5t149.5 356.5t367.5 180.5v137h143v-137q201 -20 343 -148.5t165 -304.5h-395q-33 78 -113 106v-376zM451 512q0 -61 35.5 -111.5t91.5 -72.5v372
q-55 -23 -91 -75t-36 -113z" />
    <glyph glyph-name="sterling" unicode="&#xa3;" horiz-adv-x="1331" 
d="M614 340h676v-340h-1214v340h149v178h-119v299h119v133q0 193 141.5 322t370.5 129q213 0 362.5 -132t149.5 -319h-389q0 51 -36 87t-87 36q-55 0 -89 -36t-34 -87v-133h369v-299h-369v-178z" />
    <glyph glyph-name="currency" unicode="&#xa4;" horiz-adv-x="1224" 
d="M1163 346l-245 -217l-95 104q-100 -47 -215 -47q-113 0 -207 43l-100 -104l-238 225l93 99q-68 119 -68 258q0 135 64 249l-91 99l242 221l90 -98q100 47 215 47q113 0 221 -49l91 100l241 -221l-94 -105q59 -119 59 -243q0 -133 -63 -248zM393 706.5
q0 -88.5 63.5 -151.5t151.5 -63t150.5 63t62.5 151.5t-62.5 151t-150.5 62.5t-151.5 -62.5t-63.5 -151z" />
    <glyph glyph-name="yen" unicode="&#xa5;" horiz-adv-x="1482" 
d="M1503 1372l-329 -538h169v-299h-354l-43 -70v-10h397v-299h-397v-156h-407v156h-400v299h400v6l-45 74h-355v299h170l-329 538h462l299 -534l299 534h463z" />
    <glyph glyph-name="brokenbar" unicode="&#xa6;" horiz-adv-x="675" 
d="M143 1475h389v-797h-389v797zM143 346h389v-797h-389v797z" />
    <glyph glyph-name="section" unicode="&#xa7;" horiz-adv-x="1150" 
d="M1100 670q0 -106 -64 -189q63 -68 64 -159q0 -162 -136.5 -256.5t-365.5 -94.5q-250 0 -393.5 92.5t-143.5 258.5h414q-2 -41 30 -63.5t77 -22.5q41 0 67.5 20t26.5 43q0 37 -42 58.5t-181 52.5q-373 86 -373 323q0 100 67 178q-68 68 -67 170q0 147 135 233.5t348 86.5
q231 0 367.5 -91t136.5 -251h-401q2 47 -27 70.5t-68 23.5q-35 0 -60.5 -16.5t-25.5 -44.5q0 -43 53.5 -64.5t184.5 -46.5q100 -18 178 -51t138.5 -100.5t60.5 -159.5zM444 743q0 -86 258 -127q14 14 15 31q0 39 -53.5 70t-204.5 59q-15 -15 -15 -33z" />
    <glyph glyph-name="dieresis" unicode="&#xa8;" horiz-adv-x="1228" 
d="M330 1133q-82 0 -139.5 57t-57.5 137q0 78 58.5 136.5t138.5 58.5t138 -58.5t58 -136.5q0 -80 -58 -137t-138 -57zM780 1133q-82 0 -139 57t-57 137q0 78 58 136.5t138 58.5t138.5 -58.5t58.5 -136.5q0 -80 -58.5 -137t-138.5 -57z" />
    <glyph glyph-name="copyright" unicode="&#xa9;" horiz-adv-x="1593" 
d="M797 -29q-297 0 -506 209t-209 506t209 506t506 209t505.5 -209t208.5 -506t-208.5 -506t-505.5 -209zM796.5 199q202.5 0 345 142t142.5 345t-142.5 345.5t-345 142.5t-345 -142.5t-142.5 -345.5t142.5 -345t345 -142zM801 305q-166 0 -284 110.5t-118 264.5t118 264.5
t284 110.5q150 0 260 -91.5t127 -222.5h-262q-16 39 -51 63.5t-78 24.5q-57 0 -98.5 -45t-41.5 -104t41 -103.5t99 -44.5q88 0 129 89h262q-14 -135 -127 -225.5t-260 -90.5z" />
    <glyph glyph-name="ordfeminine" unicode="&#xaa;" horiz-adv-x="958" 
d="M406 565q-137 0 -253 107.5t-116 275.5t115.5 274.5t253.5 106.5q139 0 188 -57h4l12 37h275v-723h-275l-12 37h-4q-47 -58 -188 -58zM459 836q45 0 77.5 32.5t32.5 79.5q0 45 -32.5 78t-77.5 33t-78 -33t-33 -78t33 -78.5t78 -33.5z" />
    <glyph glyph-name="guillemotleft" unicode="&#xab;" horiz-adv-x="1265" 
d="M702 883l-284 -373l284 -373h-378l-304 373l304 373h378zM1225 883l-285 -373l285 -373h-379l-303 373l303 373h379z" />
    <glyph glyph-name="logicalnot" unicode="&#xac;" horiz-adv-x="1064" 
d="M930 836h2v-504h-338v180h-512v328h848v-4z" />
    <glyph glyph-name="registered" unicode="&#xae;" horiz-adv-x="1282" 
d="M641 1401q248 0 424 -176t176 -424t-176 -424t-424 -176t-424 176t-176 424t176 424t424 176zM641 391q170 0 290 120t120 290t-120 289.5t-290 119.5t-290 -119.5t-120 -289.5t120 -290t290 -120zM895 868q0 -109 -88 -159l129 -166h-234l-102 139h-2v-139h-205v518h305
q82 0 139.5 -53.5t57.5 -139.5zM592 901v-67h59q41 0 41 34q0 12 -13 22.5t-32 10.5h-55z" />
    <glyph glyph-name="macron" unicode="&#xaf;" horiz-adv-x="1228" 
d="M102 1200v246h633v-246h-633z" />
    <glyph glyph-name="degree" unicode="&#xb0;" horiz-adv-x="790" 
d="M395.5 713q-143.5 0 -244 100t-100.5 243.5t100.5 244t244 100.5t243.5 -100.5t100 -244t-100 -243.5t-243.5 -100zM395 963q39 0 66.5 26.5t27.5 67.5t-27.5 67.5t-66.5 26.5t-66.5 -26.5t-27.5 -67.5t27.5 -67.5t66.5 -26.5z" />
    <glyph glyph-name="plusminus" unicode="&#xb1;" horiz-adv-x="1093" 
d="M711 987h260v-266h-260v-209h-328v209h-260v266h260v209h328v-209zM123 184v267h848v-267h-848z" />
    <glyph glyph-name="uni00B2" unicode="&#xb2;" horiz-adv-x="778" 
d="M57 942v152l320 366q53 59 53 92q0 43 -41 43q-47 0 -47 -65h-291q0 141 94.5 218t243.5 77q145 0 238.5 -71t93.5 -191q0 -102 -90 -209l-139 -158h239v-254h-674z" />
    <glyph glyph-name="uni00B3" unicode="&#xb3;" horiz-adv-x="761" 
d="M371 924q-156 0 -251 81.5t-95 219.5h290q0 -29 17.5 -50.5t42.5 -21.5q63 0 63 66q0 27 -19.5 47t-49.5 20h-109v213h109q20 0 34.5 14.5t14.5 34.5q0 23 -14.5 36t-32.5 13q-16 0 -30.5 -11t-14.5 -30h-291q0 121 100.5 195t241.5 74q133 0 229 -63.5t96 -168.5
q0 -129 -108 -194q135 -63 135 -211q0 -117 -100 -190.5t-258 -73.5z" />
    <glyph glyph-name="acute" unicode="&#xb4;" horiz-adv-x="1228" 
d="M453 1143h-351l265 373h350z" />
    <glyph glyph-name="mu" unicode="&#xb5;" horiz-adv-x="1345" 
d="M825 1024h389v-1024h-342l-22 92h-6q-100 -121 -279 -121q-57 0 -106 13v-435h-328v1475h389v-541q0 -74 45 -120t107 -46q63 0 108 46.5t45 119.5v541z" />
    <glyph glyph-name="paragraph" unicode="&#xb6;" horiz-adv-x="1851" 
d="M1708 1372v-1372h-408v1065h-143v-1065h-389v403h-215q-207 0 -344 132.5t-137 353.5q0 213 138 348t343 135h1155zM768 711v354h-121q-78 0 -132 -52t-54 -124q0 -74 53 -126t133 -52h121z" />
    <glyph glyph-name="periodcentered" unicode="&#xb7;" horiz-adv-x="622" 
d="M311.5 532q-98.5 0 -169 69t-70.5 165t70.5 164.5t168.5 68.5q96 0 168 -69.5t72 -163.5q0 -96 -70.5 -165t-169 -69z" />
    <glyph glyph-name="cedilla" unicode="&#xb8;" horiz-adv-x="1228" 
d="M274 -481q-141 0 -243 78l98 135q57 -47 125 -47q33 0 54.5 15t21.5 38q0 16 -13.5 30.5t-33.5 14.5q-27 0 -54 -25l-120 109l84 172l151 -39l-39 -78q4 0 11.5 1t13.5 1q80 0 133 -55t53 -135q0 -92 -69 -153.5t-173 -61.5z" />
    <glyph glyph-name="uni00B9" unicode="&#xb9;" horiz-adv-x="593" 
d="M193 942v535l-160 -21v248l313 102h143v-864h-296z" />
    <glyph glyph-name="ordmasculine" unicode="&#xba;" horiz-adv-x="919" 
d="M459 565q-172 0 -297 113t-125 270.5t124 269t298 111.5t299 -111.5t125 -269t-125 -270.5t-299 -113zM459 836q45 0 78.5 33.5t33.5 78.5q0 43 -33.5 77t-78.5 34q-43 0 -77 -34t-34 -77q0 -45 34 -78.5t77 -33.5z" />
    <glyph glyph-name="guillemotright" unicode="&#xbb;" horiz-adv-x="1265" 
d="M41 883h379l303 -373l-303 -373h-379l285 373zM563 883h379l303 -373l-303 -373h-379l285 373z" />
    <glyph glyph-name="onequarter" unicode="&#xbc;" horiz-adv-x="1744" 
d="M193 512v535l-160 -21v248l313 102h143v-864h-296zM266 -2l844 1374h313l-845 -1374h-312zM1714 385v-213h-74v-172h-280v172h-406v166l486 526h200v-479h74zM1270 385h100v107z" />
    <glyph glyph-name="onehalf" unicode="&#xbd;" horiz-adv-x="1873" 
d="M193 512v535l-160 -21v248l313 102h143v-864h-296zM266 -2l844 1374h313l-845 -1374h-312zM1153 0v152l320 366q53 59 53 92q0 43 -41 43q-47 0 -47 -65h-291q0 141 94 218t244 77q145 0 238.5 -71t93.5 -191q0 -102 -91 -209l-139 -158h240v-254h-674z" />
    <glyph glyph-name="threequarters" unicode="&#xbe;" horiz-adv-x="1892" 
d="M371 494q-156 0 -251 81.5t-95 219.5h290q0 -29 17.5 -50.5t42.5 -21.5q63 0 63 65q0 27 -19.5 47.5t-49.5 20.5h-109v213h109q20 0 34.5 14.5t14.5 34.5q0 23 -14.5 36t-32.5 13q-16 0 -30.5 -11t-14.5 -30h-291q0 121 100.5 195t241.5 74q133 0 229 -63.5t96 -168.5
q0 -129 -108 -194q135 -63 135 -211q0 -117 -100 -190.5t-258 -73.5zM414 -2l843 1374h314l-846 -1374h-311zM1862 385v-213h-74v-172h-281v172h-405v166l485 526h201v-479h74zM1417 385h101v107z" />
    <glyph glyph-name="questiondown" unicode="&#xbf;" horiz-adv-x="1024" 
d="M518 1053q90 0 154.5 -62.5t64.5 -150.5t-64.5 -150.5t-154.5 -62.5q-88 0 -153.5 63.5t-65.5 149.5t65.5 149.5t153.5 63.5zM715 535v-54q0 -82 -29 -141t-71 -93t-82.5 -62.5t-69.5 -67.5t-29 -90q0 -37 22.5 -58.5t57.5 -21.5q92 0 92 127h387q0 -193 -137 -318
t-336 -125q-195 0 -335 118t-140 284q0 76 28.5 137t70.5 101t84 76t71 75t29 80v33h387z" />
    <glyph glyph-name="Agrave" unicode="&#xc0;" horiz-adv-x="1523" 
d="M958 1491h-350l-264 373h350zM1122 0l-88 186h-545l-88 -186h-421l700 1382h164l700 -1382h-422zM623 473h278l-139 295z" />
    <glyph glyph-name="Aacute" unicode="&#xc1;" horiz-adv-x="1523" 
d="M1171 1864l-264 -373h-350l264 373h350zM1122 0l-88 186h-545l-88 -186h-421l700 1382h164l700 -1382h-422zM623 473h278l-139 295z" />
    <glyph glyph-name="Acircumflex" unicode="&#xc2;" horiz-adv-x="1523" 
d="M762 1636l-90 -145h-344l264 373h338l264 -373h-344zM1122 0l-88 186h-545l-88 -186h-421l700 1382h164l700 -1382h-422zM623 473h278l-139 295z" />
    <glyph glyph-name="Atilde" unicode="&#xc3;" horiz-adv-x="1523" 
d="M635 1618q-31 0 -52.5 -25.5t-21.5 -68.5h-217q0 184 78 278t199 94q59 0 110 -28.5t91 -57t71 -28.5q66 0 65 94h218q0 -182 -73 -277.5t-183 -95.5q-68 0 -161 57.5t-124 57.5zM1122 0l-88 186h-545l-88 -186h-421l700 1382h164l700 -1382h-422zM623 473h278l-139 295z
" />
    <glyph glyph-name="Adieresis" unicode="&#xc4;" horiz-adv-x="1523" 
d="M537 1481q-82 0 -139.5 57t-57.5 137q0 78 57.5 136.5t139.5 58.5q80 0 138 -58.5t58 -136.5q0 -80 -58 -137t-138 -57zM987 1481q-82 0 -139 57t-57 137q0 78 57 136.5t139 58.5q80 0 138.5 -58.5t58.5 -136.5q0 -80 -58.5 -137t-138.5 -57zM1122 0l-88 186h-545
l-88 -186h-421l700 1382h164l700 -1382h-422zM623 473h278l-139 295z" />
    <glyph glyph-name="Aring" unicode="&#xc5;" horiz-adv-x="1523" 
d="M761.5 1419q-112.5 0 -193.5 75t-81 179.5t81 179t193.5 74.5t193.5 -74.5t81 -179t-81 -179.5t-193.5 -75zM762 1741q-29 0 -48.5 -20.5t-19.5 -47t19.5 -47t48.5 -20.5t48 20.5t19 47t-19 47t-48 20.5zM1122 0l-88 186h-545l-88 -186h-421l700 1382h164l700 -1382h-422
zM623 473h278l-139 295z" />
    <glyph glyph-name="AE" unicode="&#xc6;" horiz-adv-x="2002" 
d="M1348 340h544v-340h-911v186h-489l-101 -186h-422l803 1372h1100v-340h-524v-180h503v-320h-503v-192zM643 473h338v631z" />
    <glyph glyph-name="Ccedilla" unicode="&#xc7;" horiz-adv-x="1630" 
d="M1569 543q-51 -229 -236.5 -388t-435.5 -182l-27 -51q4 0 11.5 1t13.5 1q80 0 133 -55t53 -135q0 -92 -68.5 -153.5t-172.5 -61.5q-141 0 -244 78l98 135q57 -47 125 -47q33 0 54.5 15t21.5 38q0 16 -13.5 30.5t-33.5 14.5q-27 0 -53 -25l-121 109l53 110
q-279 35 -467 238t-188 471q0 295 222 505t533 210q270 0 478 -163t262 -409h-422q-43 92 -128 148.5t-190 56.5q-143 0 -245.5 -101.5t-102.5 -246.5t102.5 -246.5t245.5 -101.5q104 0 190.5 56.5t127.5 148.5h424z" />
    <glyph glyph-name="Egrave" unicode="&#xc8;" horiz-adv-x="1288" 
d="M852 1491h-350l-264 373h350zM551 340h627v-340h-1035v1372h1014v-340h-606v-180h586v-320h-586v-192z" />
    <glyph glyph-name="Eacute" unicode="&#xc9;" horiz-adv-x="1288" 
d="M1065 1864l-264 -373h-350l264 373h350zM551 340h627v-340h-1035v1372h1014v-340h-606v-180h586v-320h-586v-192z" />
    <glyph glyph-name="Ecircumflex" unicode="&#xca;" horiz-adv-x="1288" 
d="M655 1636l-90 -145h-344l264 373h338l264 -373h-344zM551 340h627v-340h-1035v1372h1014v-340h-606v-180h586v-320h-586v-192z" />
    <glyph glyph-name="Edieresis" unicode="&#xcb;" horiz-adv-x="1288" 
d="M430 1481q-82 0 -139.5 57t-57.5 137q0 78 57.5 136.5t139.5 58.5q80 0 138.5 -58.5t58.5 -136.5q0 -80 -58.5 -137t-138.5 -57zM881 1481q-82 0 -139.5 57t-57.5 137q0 78 57.5 136.5t139.5 58.5q80 0 138 -58.5t58 -136.5q0 -80 -58 -137t-138 -57zM551 340h627v-340
h-1035v1372h1014v-340h-606v-180h586v-320h-586v-192z" />
    <glyph glyph-name="Igrave" unicode="&#xcc;" horiz-adv-x="694" 
d="M195 1491l-265 373h351l264 -373h-350zM143 0v1372h408v-1372h-408z" />
    <glyph glyph-name="Iacute" unicode="&#xcd;" horiz-adv-x="694" 
d="M494 1491h-351l265 373h350zM143 0v1372h408v-1372h-408z" />
    <glyph glyph-name="Icircumflex" unicode="&#xce;" horiz-adv-x="694" 
d="M780 1491h-344l-88 145l-90 -145h-344l264 373h338zM143 0v1372h408v-1372h-408z" />
    <glyph glyph-name="Idieresis" unicode="&#xcf;" horiz-adv-x="694" 
d="M123 1481q-82 0 -139.5 57t-57.5 137q0 78 57.5 136.5t139.5 58.5q80 0 138 -58.5t58 -136.5q0 -80 -58 -137t-138 -57zM573 1481q-82 0 -139 57t-57 137q0 78 57.5 136.5t138.5 58.5q80 0 138.5 -58.5t58.5 -136.5q0 -80 -58.5 -137t-138.5 -57zM143 0v1372h408v-1372
h-408z" />
    <glyph glyph-name="Eth" unicode="&#xd0;" horiz-adv-x="1624" 
d="M817 1372q303 0 519 -201.5t216 -484.5t-216 -485.5t-519 -200.5h-674v553h-143v266h143v553h674zM817 367q135 0 231.5 94t96.5 225t-96.5 224.5t-231.5 93.5h-266v-185h285v-266h-285v-186h266z" />
    <glyph glyph-name="Ntilde" unicode="&#xd1;" horiz-adv-x="1622" 
d="M1008 1876h217q0 -182 -73 -277.5t-183 -95.5q-68 0 -161 57.5t-124 57.5t-52.5 -25.5t-21.5 -68.5h-217q0 184 78 278t199 94q59 0 110 -28.5t91 -57t71 -28.5q66 0 66 94zM1081 1372h398v-1380h-205l-733 729v-721h-398v1380h205l733 -727v719z" />
    <glyph glyph-name="Ograve" unicode="&#xd2;" horiz-adv-x="1654" 
d="M674 1491l-264 373h350l264 -373h-350zM827.5 -29q-311.5 0 -533.5 210t-222 505t222 505t533.5 210t533.5 -210t222 -505t-222 -505t-533.5 -210zM827.5 338q143.5 0 246 101.5t102.5 246.5t-102.5 246.5t-246 101.5t-246 -101.5t-102.5 -246.5t102.5 -246.5t246 -101.5
z" />
    <glyph glyph-name="Oacute" unicode="&#xd3;" horiz-adv-x="1654" 
d="M973 1491h-350l264 373h350zM827.5 -29q-311.5 0 -533.5 210t-222 505t222 505t533.5 210t533.5 -210t222 -505t-222 -505t-533.5 -210zM827.5 338q143.5 0 246 101.5t102.5 246.5t-102.5 246.5t-246 101.5t-246 -101.5t-102.5 -246.5t102.5 -246.5t246 -101.5z" />
    <glyph glyph-name="Ocircumflex" unicode="&#xd4;" horiz-adv-x="1654" 
d="M1260 1491h-345l-88 145l-90 -145h-344l264 373h338zM827.5 -29q-311.5 0 -533.5 210t-222 505t222 505t533.5 210t533.5 -210t222 -505t-222 -505t-533.5 -210zM827.5 338q143.5 0 246 101.5t102.5 246.5t-102.5 246.5t-246 101.5t-246 -101.5t-102.5 -246.5
t102.5 -246.5t246 -101.5z" />
    <glyph glyph-name="Otilde" unicode="&#xd5;" horiz-adv-x="1654" 
d="M1024 1876h217q0 -182 -72.5 -277.5t-183.5 -95.5q-68 0 -161 57.5t-123.5 57.5t-52 -25.5t-21.5 -68.5h-217q0 184 77.5 278t198.5 94q59 0 110.5 -28.5t91.5 -57t70 -28.5q66 0 66 94zM827.5 -29q-311.5 0 -533.5 210t-222 505t222 505t533.5 210t533.5 -210t222 -505
t-222 -505t-533.5 -210zM827.5 338q143.5 0 246 101.5t102.5 246.5t-102.5 246.5t-246 101.5t-246 -101.5t-102.5 -246.5t102.5 -246.5t246 -101.5z" />
    <glyph glyph-name="Odieresis" unicode="&#xd6;" horiz-adv-x="1654" 
d="M602 1481q-82 0 -139 57t-57 137q0 78 57 136.5t139 58.5q80 0 138.5 -58.5t58.5 -136.5q0 -80 -58.5 -137t-138.5 -57zM1053 1481q-82 0 -139.5 57t-57.5 137q0 78 57.5 136.5t139.5 58.5q80 0 138 -58.5t58 -136.5q0 -80 -58 -137t-138 -57zM827.5 -29
q-311.5 0 -533.5 210t-222 505t222 505t533.5 210t533.5 -210t222 -505t-222 -505t-533.5 -210zM827.5 338q143.5 0 246 101.5t102.5 246.5t-102.5 246.5t-246 101.5t-246 -101.5t-102.5 -246.5t102.5 -246.5t246 -101.5z" />
    <glyph glyph-name="multiply" unicode="&#xd7;" horiz-adv-x="1130" 
d="M346 223l-233 234l219 219l-219 219l233 233l219 -219l219 219l234 -233l-219 -219l219 -219l-234 -234l-219 219z" />
    <glyph glyph-name="Oslash" unicode="&#xd8;" horiz-adv-x="1654" 
d="M1374 1180q209 -209 209 -494q0 -295 -222 -505t-534 -210q-215 0 -395 107l-65 -78h-271l174 205q-199 205 -198 481q0 295 222 505t533 210q207 0 381 -98l60 69h270zM479 686q0 -94 49 -180l430 504q-61 25 -131 24q-143 0 -245.5 -101.5t-102.5 -246.5zM827 338
q143 0 246 101.5t103 246.5q0 106 -58 193l-436 -510q75 -31 145 -31z" />
    <glyph glyph-name="Ugrave" unicode="&#xd9;" horiz-adv-x="1576" 
d="M635 1491l-264 373h350l264 -373h-350zM788.5 -29q-270.5 0 -463 180.5t-192.5 432.5v788h408v-788q0 -102 72.5 -174t175 -72t175 71.5t72.5 174.5v788h408v-788q0 -252 -192.5 -432.5t-463 -180.5z" />
    <glyph glyph-name="Uacute" unicode="&#xda;" horiz-adv-x="1576" 
d="M934 1491h-350l264 373h350zM788.5 -29q-270.5 0 -463 180.5t-192.5 432.5v788h408v-788q0 -102 72.5 -174t175 -72t175 71.5t72.5 174.5v788h408v-788q0 -252 -192.5 -432.5t-463 -180.5z" />
    <glyph glyph-name="Ucircumflex" unicode="&#xdb;" horiz-adv-x="1576" 
d="M1221 1491h-344l-89 145l-90 -145h-344l264 373h338zM788.5 -29q-270.5 0 -463 180.5t-192.5 432.5v788h408v-788q0 -102 72.5 -174t175 -72t175 71.5t72.5 174.5v788h408v-788q0 -252 -192.5 -432.5t-463 -180.5z" />
    <glyph glyph-name="Udieresis" unicode="&#xdc;" horiz-adv-x="1576" 
d="M563 1481q-82 0 -139 57t-57 137q0 78 58 136.5t138 58.5t138.5 -58.5t58.5 -136.5q0 -80 -58.5 -137t-138.5 -57zM1014 1481q-82 0 -139.5 57t-57.5 137q0 78 58.5 136.5t138.5 58.5t138 -58.5t58 -136.5q0 -80 -58 -137t-138 -57zM788.5 -29q-270.5 0 -463 180.5
t-192.5 432.5v788h408v-788q0 -102 72.5 -174t175 -72t175 71.5t72.5 174.5v788h408v-788q0 -252 -192.5 -432.5t-463 -180.5z" />
    <glyph glyph-name="Yacute" unicode="&#xdd;" horiz-adv-x="1482" 
d="M1151 1864l-264 -373h-350l264 373h350zM1503 1372l-557 -907v-465h-407v461l-559 911h462l299 -534l299 534h463z" />
    <glyph glyph-name="Thorn" unicode="&#xde;" horiz-adv-x="1361" 
d="M809 207h-277v-207h-389v1372h367v-196h299q205 0 343 -135.5t138 -348.5q0 -221 -137 -353t-344 -132zM532 868v-354h183q80 0 133 52t53 126q0 72 -54 124t-132 52h-183z" />
    <glyph glyph-name="germandbls" unicode="&#xdf;" horiz-adv-x="1351" 
d="M803 -29q-72 0 -132.5 14.5t-76.5 30.5v338q53 -59 129 -59q61 0 109.5 47t48.5 117q0 66 -46.5 115t-111.5 49h-105v237h50q61 0 105 45t44 107q0 59 -42 105t-107 46q-68 0 -112 -46t-44 -111v-1006h-389v1014q0 213 154.5 351t390.5 138q229 0 383.5 -129t154.5 -325
q0 -90 -34.5 -170t-106.5 -121q113 -45 169 -141.5t56 -219.5q0 -190 -136 -308t-351 -118z" />
    <glyph glyph-name="agrave" unicode="&#xe0;" horiz-adv-x="1376" 
d="M508 1143l-264 373h350l264 -373h-350zM584 -29q-199 0 -361 152.5t-162 388.5q0 238 163 389.5t360 151.5q90 0 175 -32t122 -89h6l16 92h342v-1024h-342l-16 92h-6q-39 -61 -124 -91t-173 -30zM651 311q82 0 141.5 59.5t59.5 141.5t-59.5 141.5t-141.5 59.5t-141 -59.5
t-59 -141.5t59 -141.5t141 -59.5z" />
    <glyph glyph-name="aacute" unicode="&#xe1;" horiz-adv-x="1376" 
d="M807 1143h-350l264 373h350zM584 -29q-199 0 -361 152.5t-162 388.5q0 238 163 389.5t360 151.5q90 0 175 -32t122 -89h6l16 92h342v-1024h-342l-16 92h-6q-39 -61 -124 -91t-173 -30zM651 311q82 0 141.5 59.5t59.5 141.5t-59.5 141.5t-141.5 59.5t-141 -59.5
t-59 -141.5t59 -141.5t141 -59.5z" />
    <glyph glyph-name="acircumflex" unicode="&#xe2;" horiz-adv-x="1376" 
d="M1094 1143h-344l-88 145l-91 -145h-344l265 373h337zM584 -29q-199 0 -361 152.5t-162 388.5q0 238 163 389.5t360 151.5q90 0 175 -32t122 -89h6l16 92h342v-1024h-342l-16 92h-6q-39 -61 -124 -91t-173 -30zM651 311q82 0 141.5 59.5t59.5 141.5t-59.5 141.5
t-141.5 59.5t-141 -59.5t-59 -141.5t59 -141.5t141 -59.5z" />
    <glyph glyph-name="atilde" unicode="&#xe3;" horiz-adv-x="1376" 
d="M858 1528h217q0 -182 -72.5 -277.5t-183.5 -95.5q-68 0 -161 57.5t-123.5 57.5t-52 -25.5t-21.5 -68.5h-217q0 184 77.5 278t198.5 94q59 0 110.5 -28.5t91.5 -57t71 -28.5q65 0 65 94zM584 -29q-199 0 -361 152.5t-162 388.5q0 238 163 389.5t360 151.5q90 0 175 -32
t122 -89h6l16 92h342v-1024h-342l-16 92h-6q-39 -61 -124 -91t-173 -30zM651 311q82 0 141.5 59.5t59.5 141.5t-59.5 141.5t-141.5 59.5t-141 -59.5t-59 -141.5t59 -141.5t141 -59.5z" />
    <glyph glyph-name="adieresis" unicode="&#xe4;" horiz-adv-x="1376" 
d="M436 1133q-82 0 -139 57t-57 137q0 78 58 136.5t138 58.5t138.5 -58.5t58.5 -136.5q0 -80 -58.5 -137t-138.5 -57zM887 1133q-82 0 -139.5 57t-57.5 137q0 78 58.5 136.5t138.5 58.5t138 -58.5t58 -136.5q0 -80 -58 -137t-138 -57zM584 -29q-199 0 -361 152.5t-162 388.5
q0 238 163 389.5t360 151.5q90 0 175 -32t122 -89h6l16 92h342v-1024h-342l-16 92h-6q-39 -61 -124 -91t-173 -30zM651 311q82 0 141.5 59.5t59.5 141.5t-59.5 141.5t-141.5 59.5t-141 -59.5t-59 -141.5t59 -141.5t141 -59.5z" />
    <glyph glyph-name="aring" unicode="&#xe5;" horiz-adv-x="1376" 
d="M661.5 1071q-112.5 0 -193.5 75t-81 179.5t81 179t193.5 74.5t193.5 -74.5t81 -179t-81 -179.5t-193.5 -75zM661.5 1257q26.5 0 47 20.5t20.5 47.5t-20.5 47.5t-47 20.5t-47 -20.5t-20.5 -47.5t20.5 -47.5t47 -20.5zM584 -29q-199 0 -361 152.5t-162 388.5
q0 238 163 389.5t360 151.5q90 0 175 -32t122 -89h6l16 92h342v-1024h-342l-16 92h-6q-39 -61 -124 -91t-173 -30zM651 311q82 0 141.5 59.5t59.5 141.5t-59.5 141.5t-141.5 59.5t-141 -59.5t-59 -141.5t59 -141.5t141 -59.5z" />
    <glyph glyph-name="ae" unicode="&#xe6;" horiz-adv-x="2041" 
d="M1415 270q135 0 176 84l359 -63q-51 -135 -201 -227.5t-338 -92.5q-246 0 -416 152q-203 -152 -491 -152q-172 0 -292 88t-120 236q0 141 119 234.5t356 93.5h232v32q0 47 -41 79t-107 32q-61 0 -100 -24.5t-43 -65.5l-383 39q31 143 179.5 240.5t342.5 97.5
q225 0 387 -123q162 123 375 123q262 0 422 -182.5t160 -460.5h-787q47 -140 211 -140zM1409 758q-162 0 -205 -131h402q-45 131 -197 131zM481 313q0 -74 113 -73q147 0 266 67q-12 27 -29 84h-208q-142 0 -142 -78z" />
    <glyph glyph-name="ccedilla" unicode="&#xe7;" horiz-adv-x="1280" 
d="M649 313q129 0 185 119h395q-20 -180 -163.5 -308t-342.5 -149l-27 -53q4 0 11.5 1t13.5 1q80 0 133 -55t53 -135q0 -92 -68.5 -153.5t-172.5 -61.5q-141 0 -244 78l98 135q57 -47 125 -47q33 0 54.5 15t21.5 38q0 16 -13.5 30.5t-33.5 14.5q-27 0 -53 -25l-121 109
l55 113q-211 33 -352.5 183t-141.5 349q0 223 175.5 382t418.5 159q223 0 386 -133.5t188 -323.5h-395q-23 53 -72 86t-113 33q-82 0 -140 -60.5t-58 -142.5q0 -80 58 -139.5t140 -59.5z" />
    <glyph glyph-name="egrave" unicode="&#xe8;" horiz-adv-x="1284" 
d="M852 1143h-350l-264 373h350zM657 270q135 0 177 84l358 -63q-51 -135 -200.5 -227.5t-338.5 -92.5q-244 0 -418 152.5t-174 382.5q0 227 171 387t419 160q262 0 422 -182.5t160 -460.5h-787q47 -140 211 -140zM651 758q-162 0 -205 -131h402q-45 131 -197 131z" />
    <glyph glyph-name="eacute" unicode="&#xe9;" horiz-adv-x="1284" 
d="M1065 1516l-264 -373h-350l264 373h350zM657 270q135 0 177 84l358 -63q-51 -135 -200.5 -227.5t-338.5 -92.5q-244 0 -418 152.5t-174 382.5q0 227 171 387t419 160q262 0 422 -182.5t160 -460.5h-787q47 -140 211 -140zM651 758q-162 0 -205 -131h402q-45 131 -197 131
z" />
    <glyph glyph-name="ecircumflex" unicode="&#xea;" horiz-adv-x="1284" 
d="M655 1288l-90 -145h-344l264 373h338l264 -373h-344zM657 270q135 0 177 84l358 -63q-51 -135 -200.5 -227.5t-338.5 -92.5q-244 0 -418 152.5t-174 382.5q0 227 171 387t419 160q262 0 422 -182.5t160 -460.5h-787q47 -140 211 -140zM651 758q-162 0 -205 -131h402
q-45 131 -197 131z" />
    <glyph glyph-name="edieresis" unicode="&#xeb;" horiz-adv-x="1284" 
d="M430 1133q-82 0 -139.5 57t-57.5 137q0 78 57.5 136.5t139.5 58.5q80 0 138.5 -58.5t58.5 -136.5q0 -80 -58.5 -137t-138.5 -57zM881 1133q-82 0 -139.5 57t-57.5 137q0 78 57.5 136.5t139.5 58.5q80 0 138 -58.5t58 -136.5q0 -80 -58 -137t-138 -57zM657 270
q135 0 177 84l358 -63q-51 -135 -200.5 -227.5t-338.5 -92.5q-244 0 -418 152.5t-174 382.5q0 227 171 387t419 160q262 0 422 -182.5t160 -460.5h-787q47 -140 211 -140zM651 758q-162 0 -205 -131h402q-45 131 -197 131z" />
    <glyph glyph-name="igrave" unicode="&#xec;" horiz-adv-x="651" 
d="M172 1143l-264 373h350l264 -373h-350zM131 0v1024h389v-1024h-389z" />
    <glyph glyph-name="iacute" unicode="&#xed;" horiz-adv-x="651" 
d="M471 1143h-350l264 373h350zM131 0v1024h389v-1024h-389z" />
    <glyph glyph-name="icircumflex" unicode="&#xee;" horiz-adv-x="651" 
d="M758 1143h-344l-88 145l-90 -145h-345l265 373h338zM131 0v1024h389v-1024h-389z" />
    <glyph glyph-name="idieresis" unicode="&#xef;" horiz-adv-x="651" 
d="M100 1133q-82 0 -139 57t-57 137q0 78 58 136.5t138 58.5t138.5 -58.5t58.5 -136.5q0 -80 -58.5 -137t-138.5 -57zM551 1133q-82 0 -139.5 57t-57.5 137q0 78 58.5 136.5t138.5 58.5t138.5 -58.5t58.5 -136.5q0 -80 -58.5 -137t-138.5 -57zM131 0v1024h389v-1024h-389z
" />
    <glyph glyph-name="eth" unicode="&#xf0;" horiz-adv-x="1241" 
d="M924 1227q141 -184 198.5 -364.5t57.5 -311.5q0 -246 -162 -413t-400 -167q-223 0 -390 147.5t-167 348.5q0 184 134.5 321.5t320.5 137.5q117 0 178 -33q-51 117 -100 194l-223 -96l-78 187l170 73q-88 88 -258 224h481q66 -57 94 -86l205 88l94 -183zM620.5 319
q69.5 0 120 50.5t50.5 120t-50.5 119.5t-120 50t-119.5 -50t-50 -119.5t50 -120t119.5 -50.5z" />
    <glyph glyph-name="ntilde" unicode="&#xf1;" horiz-adv-x="1355" 
d="M874 1528h218q0 -182 -73 -277.5t-183 -95.5q-68 0 -161 57.5t-124 57.5t-52.5 -25.5t-21.5 -68.5h-217q0 184 78 278t199 94q59 0 110 -28.5t91 -57t71 -28.5q65 0 65 94zM131 0v1024h342l23 -92h6q102 121 291 121q203 0 325.5 -135.5t122.5 -342.5v-575h-389v537
q0 70 -49 120t-117 50t-117 -50.5t-49 -119.5v-537h-389z" />
    <glyph glyph-name="ograve" unicode="&#xf2;" horiz-adv-x="1304" 
d="M500 1143l-264 373h350l264 -373h-350zM651.5 -29q-243.5 0 -417 159t-173.5 382t173.5 382t417 159t417.5 -159t174 -382t-174 -382t-417.5 -159zM651 311q82 0 142.5 59.5t60.5 141.5t-60.5 141.5t-142.5 59.5q-80 0 -140 -59.5t-60 -141.5t60 -141.5t140 -59.5z" />
    <glyph glyph-name="oacute" unicode="&#xf3;" horiz-adv-x="1304" 
d="M799 1143h-350l264 373h350zM651.5 -29q-243.5 0 -417 159t-173.5 382t173.5 382t417 159t417.5 -159t174 -382t-174 -382t-417.5 -159zM651 311q82 0 142.5 59.5t60.5 141.5t-60.5 141.5t-142.5 59.5q-80 0 -140 -59.5t-60 -141.5t60 -141.5t140 -59.5z" />
    <glyph glyph-name="ocircumflex" unicode="&#xf4;" horiz-adv-x="1304" 
d="M1085 1143h-344l-88 145l-90 -145h-344l264 373h338zM651.5 -29q-243.5 0 -417 159t-173.5 382t173.5 382t417 159t417.5 -159t174 -382t-174 -382t-417.5 -159zM651 311q82 0 142.5 59.5t60.5 141.5t-60.5 141.5t-142.5 59.5q-80 0 -140 -59.5t-60 -141.5t60 -141.5
t140 -59.5z" />
    <glyph glyph-name="otilde" unicode="&#xf5;" horiz-adv-x="1304" 
d="M850 1528h217q0 -182 -72.5 -277.5t-183.5 -95.5q-68 0 -161 57.5t-123.5 57.5t-52 -25.5t-21.5 -68.5h-217q0 184 77.5 278t198.5 94q59 0 110.5 -28.5t91.5 -57t70 -28.5q66 0 66 94zM651.5 -29q-243.5 0 -417 159t-173.5 382t173.5 382t417 159t417.5 -159t174 -382
t-174 -382t-417.5 -159zM651 311q82 0 142.5 59.5t60.5 141.5t-60.5 141.5t-142.5 59.5q-80 0 -140 -59.5t-60 -141.5t60 -141.5t140 -59.5z" />
    <glyph glyph-name="odieresis" unicode="&#xf6;" horiz-adv-x="1304" 
d="M428 1133q-82 0 -139.5 57t-57.5 137q0 78 58.5 136.5t138.5 58.5t138.5 -58.5t58.5 -136.5q0 -80 -58.5 -137t-138.5 -57zM879 1133q-82 0 -139.5 57t-57.5 137q0 78 58.5 136.5t138 58.5t138 -58.5t58.5 -136.5q0 -80 -58 -137t-138 -57zM651.5 -29q-243.5 0 -417 159
t-173.5 382t173.5 382t417 159t417.5 -159t174 -382t-174 -382t-417.5 -159zM651 311q82 0 142.5 59.5t60.5 141.5t-60.5 141.5t-142.5 59.5q-80 0 -140 -59.5t-60 -141.5t60 -141.5t140 -59.5z" />
    <glyph glyph-name="divide" unicode="&#xf7;" horiz-adv-x="1011" 
d="M506 872q-74 0 -127 51.5t-53 123t53 124t127 52.5q72 0 126 -52.5t54 -124t-53 -123t-127 -51.5zM930 840v-328h-848v328h848zM506 131q-74 0 -127 51t-53 123t53 124t127 52q72 0 126 -52t54 -124t-53 -123t-127 -51z" />
    <glyph glyph-name="oslash" unicode="&#xf8;" horiz-adv-x="1304" 
d="M1087 874q156 -156 156 -362q0 -223 -174 -382t-418 -159q-174 0 -317 86l-53 -59h-220l146 160q-145 152 -146 354q0 223 173.5 382t416.5 159q166 0 307 -80l52 55h219zM451 512q0 -35 14 -74l246 264q-31 10 -60 11q-80 0 -140 -59.5t-60 -141.5zM651 311
q82 0 142.5 59.5t60.5 141.5q0 41 -20 86l-252 -272q30 -15 69 -15z" />
    <glyph glyph-name="ugrave" unicode="&#xf9;" horiz-adv-x="1329" 
d="M510 1143l-264 373h350l264 -373h-350zM1198 1024v-1024h-342l-22 92h-7q-100 -121 -278 -121q-197 0 -315.5 135.5t-118.5 342.5v575h389v-541q0 -74 45 -120t106 -46q63 0 108.5 46.5t45.5 119.5v541h389z" />
    <glyph glyph-name="uacute" unicode="&#xfa;" horiz-adv-x="1329" 
d="M809 1143h-350l264 373h350zM1198 1024v-1024h-342l-22 92h-7q-100 -121 -278 -121q-197 0 -315.5 135.5t-118.5 342.5v575h389v-541q0 -74 45 -120t106 -46q63 0 108.5 46.5t45.5 119.5v541h389z" />
    <glyph glyph-name="ucircumflex" unicode="&#xfb;" horiz-adv-x="1329" 
d="M1096 1143h-344l-88 145l-91 -145h-344l265 373h337zM1198 1024v-1024h-342l-22 92h-7q-100 -121 -278 -121q-197 0 -315.5 135.5t-118.5 342.5v575h389v-541q0 -74 45 -120t106 -46q63 0 108.5 46.5t45.5 119.5v541h389z" />
    <glyph glyph-name="udieresis" unicode="&#xfc;" horiz-adv-x="1329" 
d="M438 1133q-82 0 -139 57t-57 137q0 78 57 136.5t139 58.5q80 0 138.5 -58.5t58.5 -136.5q0 -80 -58.5 -137t-138.5 -57zM889 1133q-82 0 -139.5 57t-57.5 137q0 78 57.5 136.5t139.5 58.5q80 0 138 -58.5t58 -136.5q0 -80 -58 -137t-138 -57zM1198 1024v-1024h-342
l-22 92h-7q-100 -121 -278 -121q-197 0 -315.5 135.5t-118.5 342.5v575h389v-541q0 -74 45 -120t106 -46q63 0 108.5 46.5t45.5 119.5v541h389z" />
    <glyph glyph-name="yacute" unicode="&#xfd;" horiz-adv-x="1200" 
d="M752 1143h-351l265 373h350zM45 -451l363 670l-418 805h422l194 -430l193 430h422l-764 -1475h-412z" />
    <glyph glyph-name="thorn" unicode="&#xfe;" horiz-adv-x="1374" 
d="M131 -451v1926h389v-543h6q100 121 289 121q190 0 344 -151.5t154 -391.5q0 -236 -150.5 -387.5t-333.5 -151.5q-193 0 -303 121h-6v-543h-389zM721 311q82 0 142.5 59.5t60.5 141.5t-60.5 141.5t-142.5 59.5q-80 0 -140.5 -59.5t-60.5 -141.5t60.5 -141.5t140.5 -59.5z
" />
    <glyph glyph-name="ydieresis" unicode="&#xff;" horiz-adv-x="1200" 
d="M381 1133q-82 0 -139.5 57t-57.5 137q0 78 57.5 136.5t139.5 58.5q80 0 138.5 -58.5t58.5 -136.5q0 -80 -58.5 -137t-138.5 -57zM831 1133q-82 0 -139 57t-57 137q0 78 57.5 136.5t138.5 58.5q80 0 138.5 -58.5t58.5 -136.5q0 -80 -58.5 -137t-138.5 -57zM45 -451
l363 670l-418 805h422l194 -430l193 430h422l-764 -1475h-412z" />
    <glyph glyph-name="Amacron" unicode="&#x100;" horiz-adv-x="1523" 
d="M1077 1794v-246h-633v246h633zM1122 0l-88 186h-545l-88 -186h-421l700 1382h164l700 -1382h-422zM623 473h278l-139 295z" />
    <glyph glyph-name="amacron" unicode="&#x101;" horiz-adv-x="1376" 
d="M344 1200v246h633v-246h-633zM584 -29q-199 0 -361 152.5t-162 388.5q0 238 163 389.5t360 151.5q90 0 175 -32t122 -89h6l16 92h342v-1024h-342l-16 92h-6q-39 -61 -124 -91t-173 -30zM651 311q82 0 141.5 59.5t59.5 141.5t-59.5 141.5t-141.5 59.5t-141 -59.5
t-59 -141.5t59 -141.5t141 -59.5z" />
    <glyph glyph-name="Abreve" unicode="&#x102;" horiz-adv-x="1523" 
d="M762 1487q-160 0 -275.5 108.5t-115.5 257.5h284q0 -47 31 -81.5t76 -34.5t74.5 34.5t29.5 81.5h285q0 -150 -115.5 -258t-273.5 -108zM1122 0l-88 186h-545l-88 -186h-421l700 1382h164l700 -1382h-422zM623 473h278l-139 295z" />
    <glyph glyph-name="abreve" unicode="&#x103;" horiz-adv-x="1376" 
d="M766 1505h285q0 -150 -116 -258t-273 -108q-160 0 -276 108.5t-116 257.5h285q0 -47 30.5 -81.5t76 -34.5t75 34.5t29.5 81.5zM584 -29q-199 0 -361 152.5t-162 388.5q0 238 163 389.5t360 151.5q90 0 175 -32t122 -89h6l16 92h342v-1024h-342l-16 92h-6
q-39 -61 -124 -91t-173 -30zM651 311q82 0 141.5 59.5t59.5 141.5t-59.5 141.5t-141.5 59.5t-141 -59.5t-59 -141.5t59 -141.5t141 -59.5z" />
    <glyph glyph-name="Aogonek" unicode="&#x104;" horiz-adv-x="1523" 
d="M1454 -121q0 -35 26.5 -60.5t71.5 -21.5v-235q-168 -25 -260 48t-92 181q0 117 103 209h-181l-88 186h-545l-88 -186h-421l700 1382h164l700 -1382q-90 -49 -90 -121zM623 473h278l-139 295z" />
    <glyph glyph-name="aogonek" unicode="&#x105;" horiz-adv-x="1376" 
d="M1155 -121q0 -35 26.5 -60.5t71.5 -21.5v-235q-168 -25 -260 48t-92 181q0 117 103 209h-101l-16 92h-6q-39 -61 -124 -91t-173 -30q-199 0 -361 152.5t-162 388.5q0 238 163 389.5t360 151.5q90 0 175 -32t122 -89h6l16 92h342v-1024q-90 -49 -90 -121zM651 311
q82 0 141.5 59.5t59.5 141.5t-59.5 141.5t-141.5 59.5t-141 -59.5t-59 -141.5t59 -141.5t141 -59.5z" />
    <glyph glyph-name="Cacute" unicode="&#x106;" horiz-adv-x="1630" 
d="M961 1491h-351l264 373h351zM1569 543q-55 -246 -263 -409t-479 -163q-311 0 -533 210t-222 505t222 505t533 210q270 0 478 -163t262 -409h-422q-43 92 -128 148.5t-190 56.5q-143 0 -245.5 -101.5t-102.5 -246.5t102.5 -246.5t245.5 -101.5q104 0 190.5 56.5
t127.5 148.5h424z" />
    <glyph glyph-name="cacute" unicode="&#x107;" horiz-adv-x="1280" 
d="M801 1143h-350l264 373h350zM1229 432q-23 -195 -187.5 -328t-386.5 -133q-244 0 -419 159t-175 382t175.5 382t418.5 159q223 0 386 -133.5t188 -323.5h-395q-23 53 -72 86t-113 33q-82 0 -140 -60.5t-58 -142.5q0 -80 58 -139.5t140 -59.5q129 0 185 119h395z" />
    <glyph glyph-name="Cdotaccent" unicode="&#x10a;" horiz-adv-x="1630" 
d="M815 1481q-82 0 -139.5 57t-57.5 137q0 78 57.5 136.5t139.5 58.5q80 0 138.5 -58.5t58.5 -136.5q0 -80 -58.5 -137t-138.5 -57zM1569 543q-55 -246 -263 -409t-479 -163q-311 0 -533 210t-222 505t222 505t533 210q270 0 478 -163t262 -409h-422q-43 92 -128 148.5
t-190 56.5q-143 0 -245.5 -101.5t-102.5 -246.5t102.5 -246.5t245.5 -101.5q104 0 190.5 56.5t127.5 148.5h424z" />
    <glyph glyph-name="cdotaccent" unicode="&#x10b;" horiz-adv-x="1280" 
d="M655 1133q-82 0 -139 57t-57 137q0 78 57 136.5t139 58.5q80 0 138.5 -58.5t58.5 -136.5q0 -80 -58.5 -137t-138.5 -57zM1229 432q-23 -195 -187.5 -328t-386.5 -133q-244 0 -419 159t-175 382t175.5 382t418.5 159q223 0 386 -133.5t188 -323.5h-395q-23 53 -72 86
t-113 33q-82 0 -140 -60.5t-58 -142.5q0 -80 58 -139.5t140 -59.5q129 0 185 119h395z" />
    <glyph glyph-name="Ccaron" unicode="&#x10c;" horiz-adv-x="1630" 
d="M1247 1864l-264 -373h-338l-264 373h344l90 -146l88 146h344zM1569 543q-55 -246 -263 -409t-479 -163q-311 0 -533 210t-222 505t222 505t533 210q270 0 478 -163t262 -409h-422q-43 92 -128 148.5t-190 56.5q-143 0 -245.5 -101.5t-102.5 -246.5t102.5 -246.5
t245.5 -101.5q104 0 190.5 56.5t127.5 148.5h424z" />
    <glyph glyph-name="ccaron" unicode="&#x10d;" horiz-adv-x="1280" 
d="M1087 1516l-264 -373h-338l-264 373h344l90 -146l88 146h344zM1229 432q-23 -195 -187.5 -328t-386.5 -133q-244 0 -419 159t-175 382t175.5 382t418.5 159q223 0 386 -133.5t188 -323.5h-395q-23 53 -72 86t-113 33q-82 0 -140 -60.5t-58 -142.5q0 -80 58 -139.5
t140 -59.5q129 0 185 119h395z" />
    <glyph glyph-name="Dcaron" unicode="&#x10e;" horiz-adv-x="1624" 
d="M1245 1864l-264 -373h-338l-264 373h344l90 -146l88 146h344zM143 0v1372h674q303 0 519 -201.5t216 -484.5t-216 -485.5t-519 -200.5h-674zM551 367h266q135 0 231.5 94t96.5 225t-96.5 224.5t-231.5 93.5h-266v-637z" />
    <glyph glyph-name="dcaron" unicode="&#x10f;" horiz-adv-x="1624" 
d="M1315 1042l53 435h332l-152 -435h-233zM852 1475h389v-1475h-342l-16 92h-6q-37 -61 -124 -91t-175 -30q-203 0 -360 151.5t-157 391.5q0 238 156 388.5t352 150.5q84 0 163 -33t114 -88h6v543zM651 311q82 0 141.5 59.5t59.5 141.5t-59.5 141.5t-141.5 59.5t-141 -59.5
t-59 -141.5t59 -141.5t141 -59.5z" />
    <glyph glyph-name="Dcroat" unicode="&#x110;" horiz-adv-x="1624" 
d="M817 1372q303 0 519 -201.5t216 -484.5t-216 -485.5t-519 -200.5h-674v553h-143v266h143v553h674zM817 367q135 0 231.5 94t96.5 225t-96.5 224.5t-231.5 93.5h-266v-185h285v-266h-285v-186h266z" />
    <glyph glyph-name="dcroat" unicode="&#x111;" horiz-adv-x="1372" 
d="M1348 1331v-225h-107v-1106h-342l-16 92h-6q-37 -61 -124 -91t-175 -30q-203 0 -360 151.5t-157 391.5q0 238 156 388.5t352 150.5q84 0 163 -33t114 -88h6v174h-256v225h256v144h389v-144h107zM651 311q82 0 141.5 59.5t59.5 141.5t-59.5 141.5t-141.5 59.5t-141 -59.5
t-59 -141.5t59 -141.5t141 -59.5z" />
    <glyph glyph-name="Emacron" unicode="&#x112;" horiz-adv-x="1288" 
d="M971 1794v-246h-633v246h633zM551 340h627v-340h-1035v1372h1014v-340h-606v-180h586v-320h-586v-192z" />
    <glyph glyph-name="emacron" unicode="&#x113;" horiz-adv-x="1284" 
d="M971 1446v-246h-633v246h633zM657 270q135 0 177 84l358 -63q-51 -135 -200.5 -227.5t-338.5 -92.5q-244 0 -418 152.5t-174 382.5q0 227 171 387t419 160q262 0 422 -182.5t160 -460.5h-787q47 -140 211 -140zM651 758q-162 0 -205 -131h402q-45 131 -197 131z" />
    <glyph glyph-name="Edotaccent" unicode="&#x116;" horiz-adv-x="1288" 
d="M655 1481q-82 0 -139 57t-57 137q0 78 57 136.5t139 58.5q80 0 138.5 -58.5t58.5 -136.5q0 -80 -58.5 -137t-138.5 -57zM551 340h627v-340h-1035v1372h1014v-340h-606v-180h586v-320h-586v-192z" />
    <glyph glyph-name="edotaccent" unicode="&#x117;" horiz-adv-x="1284" 
d="M655 1133q-82 0 -139 57t-57 137q0 78 57 136.5t139 58.5q80 0 138.5 -58.5t58.5 -136.5q0 -80 -58.5 -137t-138.5 -57zM657 270q135 0 177 84l358 -63q-51 -135 -200.5 -227.5t-338.5 -92.5q-244 0 -418 152.5t-174 382.5q0 227 171 387t419 160q262 0 422 -182.5
t160 -460.5h-787q47 -140 211 -140zM651 758q-162 0 -205 -131h402q-45 131 -197 131z" />
    <glyph glyph-name="Eogonek" unicode="&#x118;" horiz-adv-x="1288" 
d="M1087 -121q0 -35 27 -60.5t72 -21.5v-235q-168 -25 -260 48t-92 181q0 117 102 209h-793v1372h1014v-340h-606v-180h586v-320h-586v-192h627v-340q-91 -49 -91 -121z" />
    <glyph glyph-name="eogonek" unicode="&#x119;" horiz-adv-x="1284" 
d="M657 270q135 0 177 84l358 -63q-55 -139 -201 -228l-6 -4q-2 0 -6 -2q-78 -49 -78 -114q0 -35 26.5 -60.5t71.5 -21.5v-236q-168 -25 -260 48t-92 182q0 59 31 116h-25q-244 0 -418 152.5t-174 382.5q0 227 171 387t419 160q262 0 422 -182.5t160 -460.5h-787
q47 -140 211 -140zM651 758q-162 0 -205 -131h402q-45 131 -197 131z" />
    <glyph glyph-name="Ecaron" unicode="&#x11a;" horiz-adv-x="1288" 
d="M823 1491h-338l-264 373h344l90 -146l88 146h344zM551 340h627v-340h-1035v1372h1014v-340h-606v-180h586v-320h-586v-192z" />
    <glyph glyph-name="ecaron" unicode="&#x11b;" horiz-adv-x="1284" 
d="M823 1143h-338l-264 373h344l90 -146l88 146h344zM657 270q135 0 177 84l358 -63q-51 -135 -200.5 -227.5t-338.5 -92.5q-244 0 -418 152.5t-174 382.5q0 227 171 387t419 160q262 0 422 -182.5t160 -460.5h-787q47 -140 211 -140zM651 758q-162 0 -205 -131h402
q-45 131 -197 131z" />
    <glyph glyph-name="Gbreve" unicode="&#x11e;" horiz-adv-x="1654" 
d="M827 1487q-160 0 -275.5 108.5t-115.5 257.5h285q0 -47 30.5 -81.5t75.5 -34.5t75 34.5t30 81.5h285q0 -150 -116 -258t-274 -108zM1573 813q10 -66 10 -131q0 -291 -221 -501t-535 -210q-311 0 -533 210t-222 505q0 291 221 503t538 212q211 0 388.5 -98.5t275.5 -262.5
l-367 -153q-47 70 -126.5 112.5t-170.5 42.5q-147 0 -249.5 -103t-102.5 -248.5t107.5 -249t261.5 -103.5q104 0 192 54t136 143h-441v278h838z" />
    <glyph glyph-name="gbreve" unicode="&#x11f;" horiz-adv-x="1388" 
d="M799 1505h284q0 -150 -115.5 -258t-273.5 -108q-160 0 -275.5 108.5t-115.5 257.5h285q0 -47 30.5 -81.5t75.5 -34.5t75 34.5t30 81.5zM682 -471q-227 0 -386 108.5t-210 323.5h412q51 -115 184 -115q90 0 148.5 50.5t58.5 152.5v125h-6q-37 -55 -123 -88t-185 -33
q-190 0 -342.5 133t-152.5 357q0 217 160.5 363.5t355.5 146.5q88 0 174 -30t123 -91h6l16 92h342v-934q0 -281 -160.5 -421t-414.5 -140zM690 365q74 0 129 53t55 125q0 76 -55 130t-129 54q-78 0 -135 -54.5t-57 -129.5q0 -72 57 -125t135 -53z" />
    <glyph glyph-name="Gdotaccent" unicode="&#x120;" horiz-adv-x="1654" 
d="M827 1481q-82 0 -139 57t-57 137q0 78 57 136.5t139 58.5q80 0 138.5 -58.5t58.5 -136.5q0 -80 -58.5 -137t-138.5 -57zM1573 813q10 -66 10 -131q0 -291 -221 -501t-535 -210q-311 0 -533 210t-222 505q0 291 221 503t538 212q211 0 388.5 -98.5t275.5 -262.5l-367 -153
q-47 70 -126.5 112.5t-170.5 42.5q-147 0 -249.5 -103t-102.5 -248.5t107.5 -249t261.5 -103.5q104 0 192 54t136 143h-441v278h838z" />
    <glyph glyph-name="gdotaccent" unicode="&#x121;" horiz-adv-x="1388" 
d="M694 1133q-82 0 -139 57t-57 137q0 78 58 136.5t138 58.5t138.5 -58.5t58.5 -136.5q0 -80 -58.5 -137t-138.5 -57zM682 -471q-227 0 -386 108.5t-210 323.5h412q51 -115 184 -115q90 0 148.5 50.5t58.5 152.5v125h-6q-37 -55 -123 -88t-185 -33q-190 0 -342.5 133
t-152.5 357q0 217 160.5 363.5t355.5 146.5q88 0 174 -30t123 -91h6l16 92h342v-934q0 -281 -160.5 -421t-414.5 -140zM690 365q74 0 129 53t55 125q0 76 -55 130t-129 54q-78 0 -135 -54.5t-57 -129.5q0 -72 57 -125t135 -53z" />
    <glyph glyph-name="uni0122" unicode="&#x122;" horiz-adv-x="1654" 
d="M1573 813q10 -66 10 -131q0 -291 -221 -501t-535 -210q-311 0 -533 210t-222 505q0 291 221 503t538 212q211 0 388.5 -98.5t275.5 -262.5l-367 -153q-47 70 -126.5 112.5t-170.5 42.5q-147 0 -249.5 -103t-102.5 -248.5t107.5 -249t261.5 -103.5q104 0 192 54t136 143
h-441v278h838zM645 -530l53 434h332l-151 -434h-234z" />
    <glyph glyph-name="uni0123" unicode="&#x123;" horiz-adv-x="1388" 
d="M477 1114l152 434h233l-53 -434h-332zM682 -471q-227 0 -386 108.5t-210 323.5h412q51 -115 184 -115q90 0 148.5 50.5t58.5 152.5v125h-6q-37 -55 -123 -88t-185 -33q-190 0 -342.5 133t-152.5 357q0 217 160.5 363.5t355.5 146.5q88 0 174 -30t123 -91h6l16 92h342
v-934q0 -281 -160.5 -421t-414.5 -140zM690 365q74 0 129 53t55 125q0 76 -55 130t-129 54q-78 0 -135 -54.5t-57 -129.5q0 -72 57 -125t135 -53z" />
    <glyph glyph-name="Hbar" unicode="&#x126;" horiz-adv-x="1597" 
d="M1575 1192v-225h-121v-967h-407v522h-496v-522h-408v967h-120v225h120v180h408v-180h496v180h407v-180h121zM1047 862v105h-496v-105h496z" />
    <glyph glyph-name="hbar" unicode="&#x127;" horiz-adv-x="1357" 
d="M793 1053q203 0 326.5 -135.5t123.5 -342.5v-575h-391v537q0 70 -49 120t-117 50t-117 -50.5t-49 -119.5v-537h-389v1122h-106v226h106v127h389v-127h256v-226h-256v-190h6q95 121 267 121z" />
    <glyph glyph-name="Itilde" unicode="&#x128;" horiz-adv-x="694" 
d="M545 1876h217q0 -182 -73 -277.5t-183 -95.5q-68 0 -161 57.5t-124 57.5t-52.5 -25.5t-21.5 -68.5h-217q0 184 78 278t199 94q59 0 110.5 -28.5t91.5 -57t70 -28.5q66 0 66 94zM143 0v1372h408v-1372h-408z" />
    <glyph glyph-name="itilde" unicode="&#x129;" horiz-adv-x="651" 
d="M522 1528h217q0 -182 -72.5 -277.5t-183.5 -95.5q-68 0 -161 57.5t-123.5 57.5t-52 -25.5t-21.5 -68.5h-217q0 184 77.5 278t198.5 94q59 0 110.5 -28.5t91.5 -57t71 -28.5q65 0 65 94zM131 0v1024h389v-1024h-389z" />
    <glyph glyph-name="Imacron" unicode="&#x12a;" horiz-adv-x="694" 
d="M31 1548v246h633v-246h-633zM143 0v1372h408v-1372h-408z" />
    <glyph glyph-name="imacron" unicode="&#x12b;" horiz-adv-x="651" 
d="M8 1200v246h633v-246h-633zM131 0v1024h389v-1024h-389z" />
    <glyph glyph-name="Iogonek" unicode="&#x12e;" horiz-adv-x="694" 
d="M461 -121q0 -35 26.5 -60.5t71.5 -21.5v-235q-168 -25 -260 48t-92 181q0 117 102 209h-166v1372h408v-1372q-90 -49 -90 -121z" />
    <glyph glyph-name="iogonek" unicode="&#x12f;" horiz-adv-x="651" 
d="M326 1133q-82 0 -139.5 57t-57.5 137q0 78 58.5 136.5t138.5 58.5t138 -58.5t58 -136.5q0 -80 -58 -137t-138 -57zM430 -121q0 -35 26.5 -60.5t71.5 -21.5v-235q-168 -25 -260 48t-92 181q0 117 103 209h-148v1024h389v-1024q-90 -49 -90 -121z" />
    <glyph glyph-name="Idotaccent" unicode="&#x130;" horiz-adv-x="694" 
d="M348 1481q-82 0 -139 57t-57 137q0 78 57 136.5t139 58.5q80 0 138.5 -58.5t58.5 -136.5q0 -80 -58.5 -137t-138.5 -57zM143 0v1372h408v-1372h-408z" />
    <glyph glyph-name="dotlessi" unicode="&#x131;" horiz-adv-x="651" 
d="M131 0v1024h389v-1024h-389z" />
    <glyph glyph-name="IJ" unicode="&#x132;" horiz-adv-x="1888" 
d="M143 0v1372h408v-1372h-408zM1765 1372v-903q0 -205 -151.5 -351.5t-366.5 -146.5q-219 0 -386 148.5t-167 349.5v76h408v-76q0 -53 38 -92t89 -39q53 0 91 39t38 92v563h-469v340h876z" />
    <glyph glyph-name="ij" unicode="&#x133;" horiz-adv-x="1314" 
d="M326 1114q-90 0 -153.5 62.5t-63.5 150.5q0 86 64.5 149.5t152.5 63.5t152.5 -63.5t64.5 -149.5q0 -88 -64.5 -150.5t-152.5 -62.5zM991 1114q-90 0 -153.5 62.5t-63.5 150.5q0 86 64.5 149.5t152.5 63.5t152.5 -63.5t64.5 -149.5q0 -88 -64.5 -150.5t-152.5 -62.5z
M131 0v1024h389v-1024h-389zM748 -471q-74 0 -130 20v310q49 -12 93 -13q39 0 61.5 24t22.5 64v1090h389v-1067q0 -188 -120.5 -308t-315.5 -120z" />
    <glyph glyph-name="uni0136" unicode="&#x136;" horiz-adv-x="1456" 
d="M143 0v1372h408v-584h6l406 584h493l-489 -674l522 -698h-500l-432 602h-6v-602h-408zM553 -530l53 434h332l-152 -434h-233z" />
    <glyph glyph-name="uni0137" unicode="&#x137;" horiz-adv-x="1286" 
d="M131 0v1475h389v-826h6l285 375h479l-387 -473l402 -551h-488l-291 455h-6v-455h-389zM473 -530l53 434h332l-151 -434h-234z" />
    <glyph glyph-name="Lacute" unicode="&#x139;" horiz-adv-x="1177" 
d="M760 1864l-264 -373h-351l265 373h350zM551 340h565v-340h-973v1372h408v-1032z" />
    <glyph glyph-name="lacute" unicode="&#x13a;" horiz-adv-x="651" 
d="M471 1573h-350l264 373h350zM131 0v1475h389v-1475h-389z" />
    <glyph glyph-name="uni013B" unicode="&#x13b;" horiz-adv-x="1177" 
d="M551 340h565v-340h-973v1372h408v-1032zM438 -530l54 434h331l-151 -434h-234z" />
    <glyph glyph-name="uni013C" unicode="&#x13c;" horiz-adv-x="651" 
d="M131 0v1475h389v-1475h-389zM143 -530l54 434h331l-151 -434h-234z" />
    <glyph glyph-name="Lcaron" unicode="&#x13d;" horiz-adv-x="1177" 
d="M551 340h565v-340h-973v1372h408v-1032zM1087 1372l-151 -434h-234l54 434h331z" />
    <glyph glyph-name="lcaron" unicode="&#x13e;" horiz-adv-x="862" 
d="M573 1042l54 435h331l-151 -435h-234zM131 0v1475h389v-1475h-389z" />
    <glyph glyph-name="Ldot" unicode="&#x13f;" horiz-adv-x="1228" 
d="M551 1372v-1032h565v-340h-973v1372h408zM961 999q96 0 167.5 -69.5t71.5 -163.5q0 -96 -70.5 -165t-169 -69t-169 69t-70.5 165t71 164.5t169 68.5z" />
    <glyph glyph-name="ldot" unicode="&#x140;" horiz-adv-x="978" 
d="M131 0v1475h389v-1475h-389zM813 555q-90 0 -153.5 61.5t-63.5 149.5q0 84 64.5 146.5t152.5 62.5q86 0 150.5 -62.5t64.5 -146.5q0 -86 -64.5 -148.5t-150.5 -62.5z" />
    <glyph glyph-name="Lslash" unicode="&#x141;" horiz-adv-x="1177" 
d="M551 340h565v-340h-973v496l-118 -66v246l118 65v631h408v-403l248 139v-246l-248 -139v-383z" />
    <glyph glyph-name="lslash" unicode="&#x142;" horiz-adv-x="651" 
d="M643 1100v-246l-123 -86v-768h-389v498l-108 -76v246l108 75v732h389v-461z" />
    <glyph glyph-name="Nacute" unicode="&#x143;" horiz-adv-x="1622" 
d="M956 1491h-350l264 373h351zM1081 1372h398v-1380h-205l-733 729v-721h-398v1380h205l733 -727v719z" />
    <glyph glyph-name="nacute" unicode="&#x144;" horiz-adv-x="1355" 
d="M823 1143h-350l264 373h350zM131 0v1024h342l23 -92h6q102 121 291 121q203 0 325.5 -135.5t122.5 -342.5v-575h-389v537q0 70 -49 120t-117 50t-117 -50.5t-49 -119.5v-537h-389z" />
    <glyph glyph-name="uni0145" unicode="&#x145;" horiz-adv-x="1622" 
d="M1081 1372h398v-1380h-205l-733 729v-721h-398v1380h205l733 -727v719zM680 -530l53 434h332l-152 -434h-233z" />
    <glyph glyph-name="uni0146" unicode="&#x146;" horiz-adv-x="1355" 
d="M131 0v1024h342l23 -92h6q102 121 291 121q203 0 325.5 -135.5t122.5 -342.5v-575h-389v537q0 70 -49 120t-117 50t-117 -50.5t-49 -119.5v-537h-389zM496 -530l53 434h332l-152 -434h-233z" />
    <glyph glyph-name="Ncaron" unicode="&#x147;" horiz-adv-x="1622" 
d="M1243 1864l-264 -373h-338l-264 373h344l90 -146l88 146h344zM1081 1372h398v-1380h-205l-733 729v-721h-398v1380h205l733 -727v719z" />
    <glyph glyph-name="ncaron" unicode="&#x148;" horiz-adv-x="1355" 
d="M1110 1516l-264 -373h-338l-264 373h344l90 -146l88 146h344zM131 0v1024h342l23 -92h6q102 121 291 121q203 0 325.5 -135.5t122.5 -342.5v-575h-389v537q0 70 -49 120t-117 50t-117 -50.5t-49 -119.5v-537h-389z" />
    <glyph glyph-name="Eng" unicode="&#x14a;" horiz-adv-x="1622" 
d="M950 -430v367q47 0 89 39.5t42 91.5v114l-540 539v-721h-398v1380h205l733 -727v719h398v-1304q0 -205 -154 -351.5t-375 -146.5z" />
    <glyph glyph-name="eng" unicode="&#x14b;" horiz-adv-x="1355" 
d="M805 -471q-74 0 -129 20v310q49 -12 92 -13q39 0 61.5 24t22.5 64v603q0 70 -49 120t-117 50t-117 -50.5t-49 -119.5v-537h-389v1024h342l23 -92h6q102 121 291 121q203 0 325.5 -135.5t122.5 -342.5v-618q0 -188 -120.5 -308t-315.5 -120z" />
    <glyph glyph-name="Omacron" unicode="&#x14c;" horiz-adv-x="1654" 
d="M510 1548v246h633v-246h-633zM827.5 -29q-311.5 0 -533.5 210t-222 505t222 505t533.5 210t533.5 -210t222 -505t-222 -505t-533.5 -210zM827.5 338q143.5 0 246 101.5t102.5 246.5t-102.5 246.5t-246 101.5t-246 -101.5t-102.5 -246.5t102.5 -246.5t246 -101.5z" />
    <glyph glyph-name="omacron" unicode="&#x14d;" horiz-adv-x="1304" 
d="M336 1200v246h633v-246h-633zM651.5 -29q-243.5 0 -417 159t-173.5 382t173.5 382t417 159t417.5 -159t174 -382t-174 -382t-417.5 -159zM651 311q82 0 142.5 59.5t60.5 141.5t-60.5 141.5t-142.5 59.5q-80 0 -140 -59.5t-60 -141.5t60 -141.5t140 -59.5z" />
    <glyph glyph-name="Ohungarumlaut" unicode="&#x150;" horiz-adv-x="1654" 
d="M748 1491h-289l264 373h289zM1096 1491h-289l264 373h289zM827.5 -29q-311.5 0 -533.5 210t-222 505t222 505t533.5 210t533.5 -210t222 -505t-222 -505t-533.5 -210zM827.5 338q143.5 0 246 101.5t102.5 246.5t-102.5 246.5t-246 101.5t-246 -101.5t-102.5 -246.5
t102.5 -246.5t246 -101.5z" />
    <glyph glyph-name="ohungarumlaut" unicode="&#x151;" horiz-adv-x="1304" 
d="M573 1143h-288l264 373h289zM922 1143h-289l264 373h289zM651.5 -29q-243.5 0 -417 159t-173.5 382t173.5 382t417 159t417.5 -159t174 -382t-174 -382t-417.5 -159zM651 311q82 0 142.5 59.5t60.5 141.5t-60.5 141.5t-142.5 59.5q-80 0 -140 -59.5t-60 -141.5t60 -141.5
t140 -59.5z" />
    <glyph glyph-name="OE" unicode="&#x152;" horiz-adv-x="2318" 
d="M1581 340h627v-340h-1034v51q-164 -80 -347 -80q-311 0 -533 210t-222 505t222 505t533 210q182 0 347 -80v51h1013v-340h-606v-180h586v-320h-586v-192zM827 338q135 0 233.5 89t113.5 220v78q-14 131 -112.5 220t-234.5 89q-143 0 -245.5 -101.5t-102.5 -246.5
t102.5 -246.5t245.5 -101.5z" />
    <glyph glyph-name="oe" unicode="&#x153;" horiz-adv-x="2076" 
d="M1450 270q135 0 176 84l359 -63q-51 -135 -201 -227.5t-338 -92.5q-229 0 -402 140q-170 -139 -393 -140q-244 0 -417 159t-173 382t173.5 382t416.5 159q225 0 398 -140q166 139 395 140q262 0 421.5 -182.5t159.5 -460.5h-786q47 -140 211 -140zM1444 758
q-162 0 -205 -131h401q-44 131 -196 131zM651 311q82 0 142.5 59.5t60.5 141.5t-60.5 141.5t-142.5 59.5q-80 0 -140 -59.5t-60 -141.5t60 -141.5t140 -59.5z" />
    <glyph glyph-name="Racute" unicode="&#x154;" horiz-adv-x="1427" 
d="M1124 1864l-264 -373h-350l264 373h350zM1407 0h-440l-299 440h-136v-440h-389v1372h707q201 0 336 -132t135 -341q0 -147 -70.5 -255.5t-191.5 -162.5zM532 1055v-312h224q78 0 127 43t49 113q0 68 -51.5 112t-124.5 44h-224z" />
    <glyph glyph-name="racute" unicode="&#x155;" horiz-adv-x="868" 
d="M637 1143h-350l264 373h350zM131 0v1024h342l23 -174h6q86 188 325 192v-346q-307 0 -307 -280v-416h-389z" />
    <glyph glyph-name="uni0156" unicode="&#x156;" horiz-adv-x="1427" 
d="M1059 481l348 -481h-440l-299 440h-136v-440h-389v1372h707q201 0 336 -132t135 -341q0 -147 -70.5 -256t-191.5 -162zM532 1055v-312h224q78 0 127 43t49 113q0 68 -51.5 112t-124.5 44h-224zM532 -530l54 434h332l-152 -434h-234z" />
    <glyph glyph-name="uni0157" unicode="&#x157;" horiz-adv-x="868" 
d="M131 0v1024h342l23 -174h6q86 188 325 192v-346q-307 0 -307 -280v-416h-389zM113 -530l53 434h332l-152 -434h-233z" />
    <glyph glyph-name="Rcaron" unicode="&#x158;" horiz-adv-x="1427" 
d="M883 1491h-338l-264 373h344l90 -146l88 146h344zM1407 0h-440l-299 440h-136v-440h-389v1372h707q201 0 336 -132t135 -341q0 -147 -70.5 -255.5t-191.5 -162.5zM532 1055v-312h224q78 0 127 43t49 113q0 68 -51.5 112t-124.5 44h-224z" />
    <glyph glyph-name="rcaron" unicode="&#x159;" horiz-adv-x="868" 
d="M924 1516l-265 -373h-337l-265 373h344l91 -146l88 146h344zM131 0v1024h342l23 -174h6q86 188 325 192v-346q-307 0 -307 -280v-416h-389z" />
    <glyph glyph-name="Sacute" unicode="&#x15a;" horiz-adv-x="1320" 
d="M805 1491h-350l264 373h350zM670 -29q-248 0 -415 127t-169 336h414q2 -76 54 -113.5t118 -37.5q61 0 106 26.5t45 67.5q0 47 -49 77.5t-172 75.5q-129 49 -208 88t-150.5 93.5t-103 125t-31.5 164.5q0 186 150.5 293t402.5 107q238 0 391 -111.5t159 -318.5h-405
q-4 57 -45 93t-107 36q-141 0 -141 -86q0 -45 46 -72t147 -59q27 -8 38 -13q266 -90 377 -187t111 -285.5t-154.5 -307.5t-408.5 -119z" />
    <glyph glyph-name="sacute" unicode="&#x15b;" horiz-adv-x="1150" 
d="M721 1143h-350l264 373h350zM598 -29q-250 0 -393.5 92.5t-143.5 258.5h414q-2 -41 30 -63.5t77 -22.5q41 0 67.5 20t26.5 43q0 37 -42 58.5t-181 52.5q-373 86 -373 323q0 147 135 233.5t348 86.5q231 0 367.5 -91.5t136.5 -250.5h-401q2 47 -27 70.5t-68 23.5
q-35 0 -60.5 -16.5t-25.5 -45.5q0 -43 53.5 -64.5t184.5 -45.5q100 -18 178 -51t138.5 -100.5t60.5 -159.5q0 -162 -136.5 -256.5t-365.5 -94.5z" />
    <glyph glyph-name="Scedilla" unicode="&#x15e;" horiz-adv-x="1320" 
d="M1233 397q0 -174 -133 -289.5t-359 -134.5l-26 -51q4 0 11 1t13 1q80 0 133.5 -55t53.5 -135q0 -92 -69 -153.5t-173 -61.5q-141 0 -244 78l99 135q57 -47 125 -47q33 0 54 15t21 38q0 16 -13 30.5t-34 14.5q-27 0 -53 -25l-121 109l53 110q-211 25 -347 148t-138 309
h414q2 -76 54 -113.5t118 -37.5q61 0 106 26.5t45 67.5q0 47 -49 77.5t-172 75.5q-129 49 -208 88t-150.5 93.5t-103 125t-31.5 164.5q0 186 150.5 293t402.5 107q238 0 391 -111.5t159 -318.5h-405q-4 57 -45 93t-107 36q-141 0 -141 -86q0 -45 46 -72t147 -59
q27 -8 38 -13q266 -90 377 -187.5t111 -285.5z" />
    <glyph glyph-name="scedilla" unicode="&#x15f;" horiz-adv-x="1150" 
d="M1100 322q0 -150 -120 -243t-325 -106l-24 -51q4 0 11 1t13 1q80 0 133.5 -55t53.5 -135q0 -92 -68.5 -153.5t-173.5 -61.5q-141 0 -244 78l99 135q57 -47 125 -47q33 0 54 15t21 38q0 16 -13 30.5t-34 14.5q-27 0 -53 -25l-121 109l53 110q-201 18 -313.5 108.5
t-112.5 236.5h414q-2 -41 30 -63.5t77 -22.5q41 0 67.5 20t26.5 43q0 37 -42 58.5t-181 52.5q-373 86 -373 323q0 147 135 233.5t348 86.5q231 0 367.5 -91.5t136.5 -250.5h-401q2 47 -27 70.5t-68 23.5q-35 0 -60.5 -16.5t-25.5 -45.5q0 -43 53.5 -64.5t184.5 -45.5
q100 -18 178 -51t138.5 -100.5t60.5 -159.5z" />
    <glyph glyph-name="Scaron" unicode="&#x160;" horiz-adv-x="1320" 
d="M1092 1864l-265 -373h-338l-264 373h344l90 -146l89 146h344zM670 -29q-248 0 -415 127t-169 336h414q2 -76 54 -113.5t118 -37.5q61 0 106 26.5t45 67.5q0 47 -49 77.5t-172 75.5q-129 49 -208 88t-150.5 93.5t-103 125t-31.5 164.5q0 186 150.5 293t402.5 107
q238 0 391 -111.5t159 -318.5h-405q-4 57 -45 93t-107 36q-141 0 -141 -86q0 -45 46 -72t147 -59q27 -8 38 -13q266 -90 377 -187t111 -285.5t-154.5 -307.5t-408.5 -119z" />
    <glyph glyph-name="scaron" unicode="&#x161;" horiz-adv-x="1150" 
d="M1008 1516l-265 -373h-337l-265 373h344l90 -146l89 146h344zM598 -29q-250 0 -393.5 92.5t-143.5 258.5h414q-2 -41 30 -63.5t77 -22.5q41 0 67.5 20t26.5 43q0 37 -42 58.5t-181 52.5q-373 86 -373 323q0 147 135 233.5t348 86.5q231 0 367.5 -91.5t136.5 -250.5h-401
q2 47 -27 70.5t-68 23.5q-35 0 -60.5 -16.5t-25.5 -45.5q0 -43 53.5 -64.5t184.5 -45.5q100 -18 178 -51t138.5 -100.5t60.5 -159.5q0 -162 -136.5 -256.5t-365.5 -94.5z" />
    <glyph glyph-name="uni0162" unicode="&#x162;" horiz-adv-x="1288" 
d="M848 0h-109l-39 -78q4 0 11.5 1t13.5 1q80 0 133 -55t53 -135q0 -92 -68.5 -153.5t-172.5 -61.5q-141 0 -244 78l98 135q57 -47 125 -47q33 0 54.5 15t21.5 38q0 16 -13.5 30.5t-33.5 14.5q-27 0 -53 -25l-121 109l65 133h-129v1032h-399v340h1206v-340h-399v-1032z" />
    <glyph glyph-name="uni0163" unicode="&#x163;" horiz-adv-x="913" 
d="M858 717h-291v-283q0 -70 41 -107.5t109 -37.5q43 0 141 28v-305q-57 -41 -205 -41q-27 0 -80 4l-26 -53q4 0 11 1t13 1q80 0 133.5 -55t53.5 -135q0 -92 -68.5 -153.5t-173.5 -61.5q-141 0 -244 78l99 135q57 -47 125 -47q33 0 54 15t21 38q0 16 -13 30.5t-34 14.5
q-27 0 -53 -25l-121 109l74 151q-115 53 -180.5 153.5t-65.5 227.5v318h-158v307h158v242h389v-242h291v-307z" />
    <glyph glyph-name="Tcaron" unicode="&#x164;" horiz-adv-x="1288" 
d="M813 1491h-338l-264 373h344l90 -146l88 146h344zM1247 1372v-340h-399v-1032h-408v1032h-399v340h1206z" />
    <glyph glyph-name="tcaron" unicode="&#x165;" horiz-adv-x="919" 
d="M702 1567h332l-151 -434h-234zM567 1266v-242h291v-307h-291v-283q0 -70 41 -107.5t109 -37.5q43 0 141 28v-305q-57 -41 -205 -41q-209 0 -342 121t-133 307v318h-158v307h158v242h389z" />
    <glyph glyph-name="Tbar" unicode="&#x166;" horiz-adv-x="1288" 
d="M1247 1032h-399v-213h215v-266h-215v-553h-408v553h-213v266h213v213h-399v340h1206v-340z" />
    <glyph glyph-name="tbar" unicode="&#x167;" horiz-adv-x="919" 
d="M858 717h-291v-82h234v-225h-232q6 -59 46 -90t102 -31q43 0 141 28v-305q-57 -41 -205 -41q-209 0 -342 121t-133 307v11h-129v225h129v82h-158v307h158v242h389v-242h291v-307z" />
    <glyph glyph-name="Umacron" unicode="&#x16a;" horiz-adv-x="1576" 
d="M471 1548v246h633v-246h-633zM788.5 -29q-270.5 0 -463 180.5t-192.5 432.5v788h408v-788q0 -102 72.5 -174t175 -72t175 71.5t72.5 174.5v788h408v-788q0 -252 -192.5 -432.5t-463 -180.5z" />
    <glyph glyph-name="umacron" unicode="&#x16b;" horiz-adv-x="1329" 
d="M346 1200v246h633v-246h-633zM1198 1024v-1024h-342l-22 92h-7q-100 -121 -278 -121q-197 0 -315.5 135.5t-118.5 342.5v575h389v-541q0 -74 45 -120t106 -46q63 0 108.5 46.5t45.5 119.5v541h389z" />
    <glyph glyph-name="Uring" unicode="&#x16e;" horiz-adv-x="1576" 
d="M788.5 1419q-112.5 0 -193.5 75t-81 179.5t81 179t193.5 74.5t193.5 -74.5t81 -179t-81 -179.5t-193.5 -75zM788.5 1606q26.5 0 47 20.5t20.5 47t-20.5 47t-47 20.5t-47 -20.5t-20.5 -47t20.5 -47t47 -20.5zM788.5 -29q-270.5 0 -463 180.5t-192.5 432.5v788h408v-788
q0 -102 72.5 -174t175 -72t175 71.5t72.5 174.5v788h408v-788q0 -252 -192.5 -432.5t-463 -180.5z" />
    <glyph glyph-name="uring" unicode="&#x16f;" horiz-adv-x="1329" 
d="M663.5 1071q-112.5 0 -193.5 75t-81 179.5t81 179t193.5 74.5t193.5 -74.5t81 -179t-81 -179.5t-193.5 -75zM663.5 1257q28.5 0 48 20.5t19.5 47.5t-19.5 47.5t-48 20.5t-48 -20.5t-19.5 -47.5t19.5 -47.5t48 -20.5zM1198 1024v-1024h-342l-22 92h-7q-100 -121 -278 -121
q-197 0 -315.5 135.5t-118.5 342.5v575h389v-541q0 -74 45 -120t106 -46q63 0 108.5 46.5t45.5 119.5v541h389z" />
    <glyph glyph-name="Uhungarumlaut" unicode="&#x170;" horiz-adv-x="1576" 
d="M709 1491h-289l264 373h289zM1057 1491h-289l264 373h289zM788.5 -29q-270.5 0 -463 180.5t-192.5 432.5v788h408v-788q0 -102 72.5 -174t175 -72t175 71.5t72.5 174.5v788h408v-788q0 -252 -192.5 -432.5t-463 -180.5z" />
    <glyph glyph-name="uhungarumlaut" unicode="&#x171;" horiz-adv-x="1329" 
d="M584 1143h-289l264 373h289zM932 1143h-289l264 373h289zM1198 1024v-1024h-342l-22 92h-7q-100 -121 -278 -121q-197 0 -315.5 135.5t-118.5 342.5v575h389v-541q0 -74 45 -120t106 -46q63 0 108.5 46.5t45.5 119.5v541h389z" />
    <glyph glyph-name="Uogonek" unicode="&#x172;" horiz-adv-x="1576" 
d="M1036 1372h408v-788q0 -211 -141.5 -378t-356.5 -216q-76 -47 -76 -113q0 -35 27 -60.5t72 -21.5v-235q-168 -25 -260.5 48t-92.5 181q0 98 82 188q-240 31 -402.5 204t-162.5 403v788h408v-788q0 -102 72.5 -174t175 -72t175 71.5t72.5 174.5v788z" />
    <glyph glyph-name="uogonek" unicode="&#x173;" horiz-adv-x="1329" 
d="M1108 -121q0 -35 26.5 -60.5t71.5 -21.5v-235q-168 -25 -260 48t-92 181q0 117 102 209h-100l-22 92h-7q-100 -121 -278 -121q-197 0 -315.5 135.5t-118.5 342.5v575h389v-541q0 -74 45 -120t106 -46q63 0 108.5 46.5t45.5 119.5v541h389v-1024q-90 -49 -90 -121z" />
    <glyph glyph-name="Wcircumflex" unicode="&#x174;" horiz-adv-x="2207" 
d="M1536 1491h-344l-88 145l-90 -145h-344l264 373h338zM618 0l-587 1372h422l278 -645l295 645h156l295 -645l278 645h422l-588 -1372h-155l-330 748l-330 -748h-156z" />
    <glyph glyph-name="wcircumflex" unicode="&#x175;" horiz-adv-x="1798" 
d="M1331 1143h-344l-88 145l-90 -145h-344l264 373h338zM496 0l-506 1024h422l196 -420l213 420h156l213 -420l196 420h422l-505 -1024h-156l-248 481l-248 -481h-155z" />
    <glyph glyph-name="Ycircumflex" unicode="&#x176;" horiz-adv-x="1482" 
d="M741 1636l-90 -145h-344l264 373h338l265 -373h-345zM1503 1372l-557 -907v-465h-407v461l-559 911h462l299 -534l299 534h463z" />
    <glyph glyph-name="ycircumflex" unicode="&#x177;" horiz-adv-x="1200" 
d="M1038 1143h-344l-88 145l-90 -145h-344l264 373h338zM45 -451l363 670l-418 805h422l194 -430l193 430h422l-764 -1475h-412z" />
    <glyph glyph-name="Ydieresis" unicode="&#x178;" horiz-adv-x="1482" 
d="M516 1481q-82 0 -139.5 57t-57.5 137q0 78 57.5 136.5t139.5 58.5q80 0 138.5 -58.5t58.5 -136.5q0 -80 -58.5 -137t-138.5 -57zM967 1481q-82 0 -139.5 57t-57.5 137q0 78 57.5 136.5t139.5 58.5q80 0 138 -58.5t58 -136.5q0 -80 -58 -137t-138 -57zM1503 1372
l-557 -907v-465h-407v461l-559 911h462l299 -534l299 534h463z" />
    <glyph glyph-name="Zacute" unicode="&#x179;" horiz-adv-x="1316" 
d="M805 1491h-350l264 373h350zM100 0v150l568 882h-559v340h1108v-149l-555 -883h575v-340h-1137z" />
    <glyph glyph-name="zacute" unicode="&#x17a;" horiz-adv-x="1146" 
d="M719 1143h-350l264 373h350zM82 0v150l434 552h-412v322h951v-150l-422 -552h442v-322h-993z" />
    <glyph glyph-name="Zdotaccent" unicode="&#x17b;" horiz-adv-x="1316" 
d="M659 1481q-82 0 -139 57t-57 137q0 78 57.5 136.5t138.5 58.5q80 0 138.5 -58.5t58.5 -136.5q0 -80 -58.5 -137t-138.5 -57zM100 0v150l568 882h-559v340h1108v-149l-555 -883h575v-340h-1137z" />
    <glyph glyph-name="zdotaccent" unicode="&#x17c;" horiz-adv-x="1146" 
d="M573 1133q-82 0 -139 57t-57 137q0 78 57.5 136.5t138.5 58.5q80 0 138.5 -58.5t58.5 -136.5q0 -80 -58.5 -137t-138.5 -57zM82 0v150l434 552h-412v322h951v-150l-422 -552h442v-322h-993z" />
    <glyph glyph-name="Zcaron" unicode="&#x17d;" horiz-adv-x="1316" 
d="M1092 1864l-265 -373h-338l-264 373h344l90 -146l89 146h344zM100 0v150l568 882h-559v340h1108v-149l-555 -883h575v-340h-1137z" />
    <glyph glyph-name="zcaron" unicode="&#x17e;" horiz-adv-x="1146" 
d="M1006 1516l-265 -373h-338l-264 373h344l90 -146l89 146h344zM82 0v150l434 552h-412v322h951v-150l-422 -552h442v-322h-993z" />
    <glyph glyph-name="florin" unicode="&#x192;" horiz-adv-x="1085" 
d="M766 950l-2 -8h311l-53 -307h-307l-35 -207q-31 -186 -189.5 -307t-375.5 -121q-131 0 -219 41l102 305q59 -29 111 -29q74 0 125 38t63 108l29 172h-121l53 307h119l6 43q31 186 189.5 307t375.5 121q131 0 219 -41l-102 -305q-59 29 -111 29q-74 0 -125 -38t-63 -108z
" />
    <glyph glyph-name="AEacute" unicode="&#x1fc;" horiz-adv-x="2002" 
d="M1567 1864l-264 -373h-351l265 373h350zM1348 340h544v-340h-911v186h-489l-101 -186h-422l803 1372h1100v-340h-524v-180h503v-320h-503v-192zM643 473h338v631z" />
    <glyph glyph-name="aeacute" unicode="&#x1fd;" horiz-adv-x="2041" 
d="M1454 1516l-264 -373h-350l264 373h350zM1415 270q135 0 176 84l359 -63q-51 -135 -201 -227.5t-338 -92.5q-246 0 -416 152q-203 -152 -491 -152q-172 0 -292 88t-120 236q0 141 119 234.5t356 93.5h232v32q0 47 -41 79t-107 32q-61 0 -100 -24.5t-43 -65.5l-383 39
q31 143 179.5 240.5t342.5 97.5q225 0 387 -123q162 123 375 123q262 0 422 -182.5t160 -460.5h-787q47 -140 211 -140zM1409 758q-162 0 -205 -131h402q-45 131 -197 131zM481 313q0 -74 113 -73q147 0 266 67q-12 27 -29 84h-208q-142 0 -142 -78z" />
    <glyph glyph-name="uni0218" unicode="&#x218;" horiz-adv-x="1320" 
d="M670 -29q-248 0 -415 127t-169 336h414q2 -76 54 -113.5t118 -37.5q61 0 106 26.5t45 67.5q0 47 -49 77.5t-172 75.5q-129 49 -208 88t-150.5 93.5t-103 125t-31.5 164.5q0 186 150.5 293t402.5 107q238 0 391 -111.5t159 -318.5h-405q-4 57 -45 93t-107 36
q-141 0 -141 -86q0 -45 46 -72t147 -59q27 -8 38 -13q266 -90 377 -187t111 -285.5t-154.5 -307.5t-408.5 -119zM477 -530l53 434h332l-151 -434h-234z" />
    <glyph glyph-name="uni0219" unicode="&#x219;" horiz-adv-x="1150" 
d="M598 -29q-250 0 -393.5 92.5t-143.5 258.5h414q-2 -41 30 -63.5t77 -22.5q41 0 67.5 20t26.5 43q0 37 -42 58.5t-181 52.5q-373 86 -373 323q0 147 135 233.5t348 86.5q231 0 367.5 -91.5t136.5 -250.5h-401q2 47 -27 70.5t-68 23.5q-35 0 -60.5 -16.5t-25.5 -45.5
q0 -43 53.5 -64.5t184.5 -45.5q100 -18 178 -51t138.5 -100.5t60.5 -159.5q0 -162 -136.5 -256.5t-365.5 -94.5zM393 -530l53 434h332l-151 -434h-234z" />
    <glyph glyph-name="uni021A" unicode="&#x21a;" horiz-adv-x="1288" 
d="M1247 1372v-340h-399v-1032h-408v1032h-399v340h1206zM463 -530l53 434h332l-152 -434h-233z" />
    <glyph glyph-name="uni021B" unicode="&#x21b;" horiz-adv-x="913" 
d="M858 717h-291v-283q0 -70 41 -107.5t109 -37.5q43 0 141 28v-305q-57 -41 -205 -41q-209 0 -342 121t-133 307v318h-158v307h158v242h389v-242h291v-307zM309 -530l53 434h332l-151 -434h-234z" />
    <glyph glyph-name="circumflex" unicode="&#x2c6;" horiz-adv-x="1228" 
d="M969 1143h-344l-88 145l-91 -145h-344l265 373h338z" />
    <glyph glyph-name="caron" unicode="&#x2c7;" horiz-adv-x="1228" 
d="M969 1516l-264 -373h-338l-265 373h344l91 -146l88 146h344z" />
    <glyph glyph-name="breve" unicode="&#x2d8;" horiz-adv-x="1228" 
d="M614 1505h285q0 -150 -115.5 -258t-273.5 -108q-160 0 -275.5 108.5t-115.5 257.5h284q0 -47 31 -81.5t76 -34.5t74.5 34.5t29.5 81.5z" />
    <glyph glyph-name="dotaccent" unicode="&#x2d9;" horiz-adv-x="1228" 
d="M299 1133q-82 0 -139.5 57t-57.5 137q0 78 57.5 136.5t139.5 58.5q80 0 138.5 -58.5t58.5 -136.5q0 -80 -58.5 -137t-138.5 -57z" />
    <glyph glyph-name="ring" unicode="&#x2da;" horiz-adv-x="1228" 
d="M364.5 1071q-112.5 0 -193.5 75t-81 179.5t81 179t193.5 74.5t193.5 -74.5t81 -179t-81 -179.5t-193.5 -75zM364.5 1257q28.5 0 48 20.5t19.5 47.5t-19.5 47.5t-48 20.5t-48 -20.5t-19.5 -47.5t19.5 -47.5t48 -20.5z" />
    <glyph glyph-name="ogonek" unicode="&#x2db;" horiz-adv-x="1228" 
d="M430 -438q-168 -25 -260 48t-92 181q0 68 36 126t79 93l229 -10q-90 -49 -90 -121q0 -35 26.5 -60.5t71.5 -21.5v-235z" />
    <glyph glyph-name="tilde" unicode="&#x2dc;" horiz-adv-x="1228" 
d="M717 1505h217q0 -182 -73 -277t-183 -95q-68 0 -161 57t-124 57t-52.5 -25.5t-21.5 -68.5h-217q0 184 78 278.5t199 94.5q59 0 110.5 -29t91.5 -57.5t70 -28.5q66 0 66 94z" />
    <glyph glyph-name="hungarumlaut" unicode="&#x2dd;" horiz-adv-x="1228" 
d="M391 1143h-289l265 373h288zM739 1143h-288l264 373h289z" />
    <glyph glyph-name="gravecomb" unicode="&#x300;" horiz-adv-x="0" 
d="M-453 1143l-264 373h350l265 -373h-351z" />
    <glyph glyph-name="acutecomb" unicode="&#x301;" horiz-adv-x="0" 
d="M-367 1143h-350l264 373h351z" />
    <glyph glyph-name="uni0302" unicode="&#x302;" horiz-adv-x="0" 
d="M-102 1143h-344l-89 145l-90 -145h-344l264 373h338z" />
    <glyph glyph-name="tildecomb" unicode="&#x303;" horiz-adv-x="0" 
d="M-319 1505h217q0 -182 -73 -277t-183 -95q-68 0 -161 57t-124 57t-52.5 -25.5t-21.5 -68.5h-217q0 184 78 278.5t199 94.5q59 0 110 -29t91 -57.5t71 -28.5q66 0 66 94z" />
    <glyph glyph-name="uni0304" unicode="&#x304;" horiz-adv-x="0" 
d="M-735 1200v246h633v-246h-633z" />
    <glyph glyph-name="uni0306" unicode="&#x306;" horiz-adv-x="0" 
d="M-403 1505h284q0 -150 -115.5 -258t-273.5 -108q-160 0 -275.5 108.5t-115.5 257.5h285q0 -47 30.5 -81.5t75.5 -34.5t75 34.5t30 81.5z" />
    <glyph glyph-name="uni0307" unicode="&#x307;" horiz-adv-x="0" 
d="M-299 1133q-82 0 -139.5 57t-57.5 137q0 78 57.5 136.5t139.5 58.5q80 0 138.5 -58.5t58.5 -136.5q0 -80 -58.5 -137t-138.5 -57z" />
    <glyph glyph-name="uni0308" unicode="&#x308;" horiz-adv-x="0" 
d="M-780 1133q-82 0 -139.5 57t-57.5 137q0 78 58.5 136.5t138.5 58.5t138 -58.5t58 -136.5q0 -80 -58 -137t-138 -57zM-330 1133q-82 0 -139 57t-57 137q0 78 58 136.5t138 58.5t138.5 -58.5t58.5 -136.5q0 -80 -58.5 -137t-138.5 -57z" />
    <glyph glyph-name="uni030A" unicode="&#x30a;" horiz-adv-x="0" 
d="M-364.5 1071q-112.5 0 -193.5 75t-81 179.5t81 179t193.5 74.5t193.5 -74.5t81 -179t-81 -179.5t-193.5 -75zM-364.5 1257q28.5 0 48 20.5t19.5 47.5t-19.5 47.5t-48 20.5t-48 -20.5t-19.5 -47.5t19.5 -47.5t48 -20.5z" />
    <glyph glyph-name="uni030B" unicode="&#x30b;" horiz-adv-x="0" 
d="M-715 1143h-289l265 373h288zM-367 1143h-288l264 373h289z" />
    <glyph glyph-name="uni030C" unicode="&#x30c;" horiz-adv-x="0" 
d="M-102 1516l-265 -373h-338l-264 373h344l90 -146l89 146h344z" />
    <glyph glyph-name="uni0312" unicode="&#x312;" horiz-adv-x="0" 
d="M-487 1114l151 434h234l-54 -434h-331z" />
    <glyph glyph-name="uni0326" unicode="&#x326;" horiz-adv-x="0" 
d="M-467 -530l53 434h332l-151 -434h-234z" />
    <glyph glyph-name="uni0327" unicode="&#x327;" horiz-adv-x="0" 
d="M-289 -481q-141 0 -243 78l98 135q57 -47 125 -47q33 0 54.5 15t21.5 38q0 16 -13.5 30.5t-34.5 14.5q-27 0 -53 -25l-121 109l84 172l152 -39l-39 -78q4 0 11 1t14 1q80 0 133 -55t53 -135q0 -92 -69 -153.5t-173 -61.5z" />
    <glyph glyph-name="uni0328" unicode="&#x328;" horiz-adv-x="0" 
d="M-164 -438q-168 -25 -260 48t-92 181q0 68 36 126t79 93l229 -10q-90 -49 -90 -121q0 -35 26.5 -60.5t71.5 -21.5v-235z" />
    <glyph glyph-name="uni0335" unicode="&#x335;" horiz-adv-x="0" 
d="M-188 694v-266h-836v266h836z" />
    <glyph glyph-name="uni0336" unicode="&#x336;" horiz-adv-x="0" 
d="M-102 674v-225h-1553v225h1553z" />
    <glyph glyph-name="uni0337" unicode="&#x337;" horiz-adv-x="0" 
d="M-293 645l-774 -432v246l774 432v-246z" />
    <glyph glyph-name="uni0338" unicode="&#x338;" horiz-adv-x="0" 
d="M20 1372l-1171 -1372h-270l1171 1372h270z" />
    <glyph glyph-name="uni0401" unicode="&#x401;" horiz-adv-x="1288" 
d="M430 1481q-82 0 -139.5 57t-57.5 137q0 78 57.5 136.5t139.5 58.5q80 0 138.5 -58.5t58.5 -136.5q0 -80 -58.5 -137t-138.5 -57zM881 1481q-82 0 -139.5 57t-57.5 137q0 78 57.5 136.5t139.5 58.5q80 0 138 -58.5t58 -136.5q0 -80 -58 -137t-138 -57zM551 340h627v-340
h-1035v1372h1014v-340h-606v-180h586v-320h-586v-192z" />
    <glyph glyph-name="uni0410" unicode="&#x410;" horiz-adv-x="1523" 
d="M1122 0l-88 186h-545l-88 -186h-421l700 1382h164l700 -1382h-422zM623 473h278l-139 295z" />
    <glyph glyph-name="uni0411" unicode="&#x411;" horiz-adv-x="1300" 
d="M770 858q195 0 337 -126t142 -300q0 -176 -142 -304t-337 -128h-627v1372h973v-340h-565v-174h219zM715 299q61 0 103 41t42 96q0 59 -41 99t-104 40h-164v-276h164z" />
    <glyph glyph-name="uni0412" unicode="&#x412;" horiz-adv-x="1310" 
d="M143 0v1372h639q166 0 284 -100.5t118 -249.5q0 -84 -45 -160t-127 -121q111 -43 174 -136t63 -214q0 -176 -130 -283.5t-341 -107.5h-635zM532 854h148q49 0 84 34t35 79q0 49 -34 79.5t-85 30.5h-148v-223zM532 295h183q61 0 103 41t42 98q0 61 -41 103.5t-104 42.5
h-183v-285z" />
    <glyph glyph-name="uni0413" unicode="&#x413;" horiz-adv-x="1177" 
d="M1116 1372v-340h-565v-1032h-408v1372h973z" />
    <glyph glyph-name="uni0414" unicode="&#x414;" horiz-adv-x="1492" 
d="M1319 340h164v-627h-387v287h-709v-287h-387v627h82q106 63 141 173t35 261v598h1061v-1032zM539 340h393v692h-289v-207q0 -174 -20.5 -287.5t-83.5 -197.5z" />
    <glyph glyph-name="uni0415" unicode="&#x415;" horiz-adv-x="1288" 
d="M551 340h627v-340h-1035v1372h1014v-340h-606v-180h586v-320h-586v-192z" />
    <glyph glyph-name="uni0416" unicode="&#x416;" horiz-adv-x="2127" 
d="M-27 0l508 698l-475 674h477l371 -584h6v584h408v-584h6l371 584h477l-475 -674l507 -698h-483l-397 602h-6v-602h-408v602h-6l-397 -602h-484z" />
    <glyph glyph-name="uni0417" unicode="&#x417;" horiz-adv-x="1181" 
d="M209 391q137 -113 297 -112q102 0 165.5 41.5t63.5 109.5q0 59 -53 101t-137 42h-178v285h178q59 0 102 35t43 84q0 53 -49 86t-133 33q-154 0 -295 -95l-143 271q188 129 448 129q236 0 396.5 -101.5t160.5 -269.5q0 -94 -57 -177t-156 -128q123 -43 192.5 -131
t69.5 -205q0 -186 -159.5 -302t-425.5 -116q-309 0 -519 162z" />
    <glyph glyph-name="uni0418" unicode="&#x418;" horiz-adv-x="1597" 
d="M1047 1372h407v-1372h-407v850l-496 -850h-408v1372h408v-850z" />
    <glyph glyph-name="uni0419" unicode="&#x419;" horiz-adv-x="1597" 
d="M799 1487q-168 0 -290 108.5t-122 257.5h305q0 -63 30 -100t77 -37q45 0 74.5 37t29.5 100h305q0 -150 -121.5 -258t-287.5 -108zM1047 1372h407v-1372h-407v850l-496 -850h-408v1372h408v-850z" />
    <glyph glyph-name="uni041A" unicode="&#x41a;" horiz-adv-x="1456" 
d="M143 0v1372h408v-584h6l406 584h493l-489 -674l522 -698h-500l-432 602h-6v-602h-408z" />
    <glyph glyph-name="uni041B" unicode="&#x41b;" horiz-adv-x="1511" 
d="M1368 1372v-1372h-387v1032h-391v-563q0 -225 -135.5 -365.5t-413.5 -132.5v348q92 0 128 40t36 114v899h1163z" />
    <glyph glyph-name="uni041C" unicode="&#x41c;" horiz-adv-x="1900" 
d="M143 0v1372h203l604 -667l602 667h205v-1372h-387v643l-356 -395h-127l-357 395v-643h-387z" />
    <glyph glyph-name="uni041D" unicode="&#x41d;" horiz-adv-x="1597" 
d="M1047 1372h407v-1372h-407v522h-496v-522h-408v1372h408v-510h496v510z" />
    <glyph glyph-name="uni041E" unicode="&#x41e;" horiz-adv-x="1654" 
d="M827.5 -29q-311.5 0 -533.5 210t-222 505t222 505t533.5 210t533.5 -210t222 -505t-222 -505t-533.5 -210zM827.5 338q143.5 0 246 101.5t102.5 246.5t-102.5 246.5t-246 101.5t-246 -101.5t-102.5 -246.5t102.5 -246.5t246 -101.5z" />
    <glyph glyph-name="uni041F" unicode="&#x41f;" horiz-adv-x="1576" 
d="M1434 1372v-1372h-408v1032h-475v-1032h-408v1372h1291z" />
    <glyph glyph-name="uni0420" unicode="&#x420;" horiz-adv-x="1361" 
d="M809 403h-277v-403h-389v1372h666q205 0 343 -135t138 -348q0 -221 -137 -353.5t-344 -132.5zM532 1055v-334h183q82 0 134 47t52 121q0 72 -53 119t-133 47h-183z" />
    <glyph glyph-name="uni0421" unicode="&#x421;" horiz-adv-x="1630" 
d="M1569 543q-55 -246 -263 -409t-479 -163q-311 0 -533 210t-222 505t222 505t533 210q270 0 478 -163t262 -409h-422q-43 92 -128 148.5t-190 56.5q-143 0 -245.5 -101.5t-102.5 -246.5t102.5 -246.5t245.5 -101.5q104 0 190.5 56.5t127.5 148.5h424z" />
    <glyph glyph-name="uni0422" unicode="&#x422;" horiz-adv-x="1288" 
d="M1247 1372v-340h-399v-1032h-408v1032h-399v340h1206z" />
    <glyph glyph-name="uni0423" unicode="&#x423;" horiz-adv-x="1503" 
d="M1073 1372h440l-821 -1372h-432l268 453l-538 919h438l317 -555z" />
    <glyph glyph-name="uni0424" unicode="&#x424;" horiz-adv-x="1859" 
d="M1788 686q0 -227 -178 -398t-475 -218v-111h-408v111q-297 47 -476 218t-179 398t179 398t476 219v110h408v-110q297 -47 475 -218.5t178 -398.5zM479 686q0 -217 269 -270v540q-269 -53 -269 -270zM1114 416q266 53 266 270t-266 270v-540z" />
    <glyph glyph-name="uni0425" unicode="&#x425;" horiz-adv-x="1513" 
d="M20 0l512 702l-491 670h479l236 -358l237 358h480l-492 -670l512 -702h-479l-258 387l-258 -387h-478z" />
    <glyph glyph-name="uni0426" unicode="&#x426;" horiz-adv-x="1556" 
d="M1403 340h143v-627h-387v287h-1016v1372h408v-1032h444v1032h408v-1032z" />
    <glyph glyph-name="uni0427" unicode="&#x427;" horiz-adv-x="1525" 
d="M975 0v416q-102 -37 -246 -37q-272 0 -444 163t-172 437v393h407v-393q0 -115 60.5 -177.5t169.5 -62.5q147 0 225 41v592h407v-1372h-407z" />
    <glyph glyph-name="uni0428" unicode="&#x428;" horiz-adv-x="2172" 
d="M1622 1372h408v-1372h-1887v1372h408v-1032h342v1032h387v-1032h342v1032z" />
    <glyph glyph-name="uni0429" unicode="&#x429;" horiz-adv-x="2183" 
d="M1786 -287v287h-1643v1372h408v-1032h342v1032h387v-1032h342v1032h408v-1032h143v-627h-387z" />
    <glyph glyph-name="uni042A" unicode="&#x42a;" horiz-adv-x="1677" 
d="M1104 936q231 0 371.5 -145.5t140.5 -346.5q0 -188 -139.5 -316t-372.5 -128h-680v1032h-383v340h772v-436h291zM1081 326q61 0 103.5 41t42.5 98q0 61 -41 103t-105 42h-268v-284h268z" />
    <glyph glyph-name="uni042B" unicode="&#x42b;" horiz-adv-x="2039" 
d="M143 0v1372h389v-436h291q231 0 371.5 -145.5t140.5 -346.5q0 -188 -139 -316t-373 -128h-680zM1489 0v1372h407v-1372h-407zM532 326h269q61 0 103 41t42 98q0 61 -41 103t-104 42h-269v-284z" />
    <glyph glyph-name="uni042C" unicode="&#x42c;" horiz-adv-x="1396" 
d="M143 0v1372h389v-436h291q231 0 371.5 -145.5t140.5 -346.5q0 -188 -139 -316t-373 -128h-680zM532 326h269q61 0 103 41t42 98q0 61 -41 103t-104 42h-269v-284z" />
    <glyph glyph-name="uni042D" unicode="&#x42d;" horiz-adv-x="1630" 
d="M803 1401q311 0 533.5 -210t222.5 -505t-222.5 -505t-533.5 -210q-270 0 -478 163t-264 409h424q41 -92 127 -148.5t191 -56.5q96 0 177 48t126 130h-479v340h479q-45 82 -126 130t-177 48q-104 0 -189.5 -56t-128.5 -149h-422q53 246 261.5 409t478.5 163z" />
    <glyph glyph-name="uni042E" unicode="&#x42e;" horiz-adv-x="2269" 
d="M1442 1401q311 0 533.5 -210t222.5 -505t-222.5 -505t-533.5 -210q-264 0 -470 156t-265 395h-156v-522h-408v1372h408v-510h158q63 233 267 386t466 153zM1441.5 338q143.5 0 246 101.5t102.5 246.5t-102.5 246.5t-246 101.5t-245.5 -101.5t-102 -246.5t102 -246.5
t245.5 -101.5z" />
    <glyph glyph-name="uni042F" unicode="&#x42f;" horiz-adv-x="1456" 
d="M633 1372h680v-1372h-389v436h-191l-295 -436h-440l367 502q-115 66 -179.5 179.5t-64.5 246.5q0 188 139.5 316t372.5 128zM924 762v285h-269q-61 0 -103 -41t-42 -99q0 -61 41 -103t104 -42h269z" />
    <glyph glyph-name="uni0430" unicode="&#x430;" horiz-adv-x="1376" 
d="M584 -29q-199 0 -361 152.5t-162 388.5q0 238 163 389.5t360 151.5q90 0 175 -32t122 -89h6l16 92h342v-1024h-342l-16 92h-6q-39 -61 -124 -91t-173 -30zM651 311q82 0 141.5 59.5t59.5 141.5t-59.5 141.5t-141.5 59.5t-141 -59.5t-59 -141.5t59 -141.5t141 -59.5z" />
    <glyph glyph-name="uni0431" unicode="&#x431;" horiz-adv-x="1294" 
d="M659 -29q-252 0 -409.5 172t-157.5 488q0 410 160 588q78 88 190.5 130t213 48t231.5 34.5t231 92.5v-355q-47 -47 -164.5 -63t-240.5 -31.5t-176 -60.5q-74 -59 -80 -209q43 84 133 118.5t178 34.5q184 0 324.5 -138t140.5 -333q0 -215 -170.5 -365.5t-403.5 -150.5z
M662 311q74 0 128 53.5t54 127t-54.5 127t-127.5 53.5q-72 0 -126.5 -53.5t-54.5 -127t54.5 -127t126.5 -53.5z" />
    <glyph glyph-name="uni0432" unicode="&#x432;" 
d="M131 0v1024h617q150 0 256 -75t106 -187q0 -123 -149 -203q96 -37 151 -104.5t55 -155.5q0 -137 -116.5 -218t-309.5 -81h-610zM500 653h180q27 0 46 16.5t19 35.5q0 51 -63 51h-182v-103zM500 279h213q37 0 61.5 18t24.5 43q0 29 -24.5 48.5t-61.5 19.5h-213v-129z" />
    <glyph glyph-name="uni0433" unicode="&#x433;" horiz-adv-x="1003" 
d="M963 1024v-315h-447v-709h-385v1024h832z" />
    <glyph glyph-name="uni0434" unicode="&#x434;" horiz-adv-x="1304" 
d="M1155 311h145v-522h-356v211h-590v-211h-356v522h72q152 61 151 258v455h934v-713zM510 311h293v404h-230v-99q0 -70 -2 -108.5t-17 -96t-44 -100.5z" />
    <glyph glyph-name="uni0435" unicode="&#x435;" horiz-adv-x="1284" 
d="M657 270q135 0 177 84l358 -63q-51 -135 -200.5 -227.5t-338.5 -92.5q-244 0 -418 152.5t-174 382.5q0 227 171 387t419 160q262 0 422 -182.5t160 -460.5h-787q47 -140 211 -140zM651 758q-162 0 -205 -131h402q-45 131 -197 131z" />
    <glyph glyph-name="uni0436" unicode="&#x436;" horiz-adv-x="1798" 
d="M-31 0l402 522l-369 502h430l279 -418h6v418h364v-418h6l279 418h430l-389 -502l422 -522h-436l-306 432h-6v-432h-364v432h-6l-305 -432h-437z" />
    <glyph glyph-name="uni0437" unicode="&#x437;" horiz-adv-x="1116" 
d="M205 367q143 -82 303 -82q168 0 168 59q0 51 -115 51h-215v275h186q104 0 105 47q0 43 -109 43q-164 0 -323 -82l-144 270q197 111 476 111q209 0 348 -81t139 -202q0 -139 -131 -229q176 -84 176 -256q0 -139 -142.5 -226.5t-377.5 -87.5q-322 0 -535 129z" />
    <glyph glyph-name="uni0438" unicode="&#x438;" horiz-adv-x="1419" 
d="M903 1024h385v-1024h-385v563l-387 -563h-385v1024h385v-559z" />
    <glyph glyph-name="uni0439" unicode="&#x439;" horiz-adv-x="1419" 
d="M721 1145q-168 0 -290 108.5t-122 257.5h305q0 -63 30 -100t77 -37q45 0 74.5 37t29.5 100h305q0 -150 -121.5 -258t-287.5 -108zM903 1024h385v-1024h-385v563l-387 -563h-385v1024h385v-559z" />
    <glyph glyph-name="uni043A" unicode="&#x43a;" horiz-adv-x="1318" 
d="M872 0l-249 299l-107 -113v-186h-385v1024h385v-330l320 330h462l-411 -440l463 -584h-478z" />
    <glyph glyph-name="uni043B" unicode="&#x43b;" horiz-adv-x="1370" 
d="M1239 1024v-1024h-365v705h-319v-367q0 -397 -504 -363v328q72 -8 105.5 25.5t33.5 83.5v612h1049z" />
    <glyph glyph-name="uni043C" unicode="&#x43c;" horiz-adv-x="1673" 
d="M131 0v1024h191l516 -440l512 440h192v-1024h-364v383l-281 -217h-119l-280 217v-383h-367z" />
    <glyph glyph-name="uni043D" unicode="&#x43d;" horiz-adv-x="1439" 
d="M924 1024h385v-1024h-385v358h-408v-358h-385v1024h385v-344h408v344z" />
    <glyph glyph-name="uni043E" unicode="&#x43e;" horiz-adv-x="1304" 
d="M651.5 -29q-243.5 0 -417 159t-173.5 382t173.5 382t417 159t417.5 -159t174 -382t-174 -382t-417.5 -159zM651 311q82 0 142.5 59.5t60.5 141.5t-60.5 141.5t-142.5 59.5q-80 0 -140 -59.5t-60 -141.5t60 -141.5t140 -59.5z" />
    <glyph glyph-name="uni043F" unicode="&#x43f;" horiz-adv-x="1421" 
d="M1290 1024v-1024h-385v705h-389v-705h-385v1024h1159z" />
    <glyph glyph-name="uni0440" unicode="&#x440;" horiz-adv-x="1374" 
d="M131 -451v1475h342l16 -92h7q37 61 123 91t174 30q199 0 359.5 -151.5t160.5 -391.5q0 -236 -157 -387.5t-347 -151.5q-88 0 -169 33t-114 88h-6v-543h-389zM721 311q82 0 142.5 59.5t60.5 141.5t-60.5 141.5t-142.5 59.5q-80 0 -140.5 -59.5t-60.5 -141.5t60.5 -141.5
t140.5 -59.5z" />
    <glyph glyph-name="uni0441" unicode="&#x441;" horiz-adv-x="1280" 
d="M1229 432q-23 -195 -187.5 -328t-386.5 -133q-244 0 -419 159t-175 382t175.5 382t418.5 159q223 0 386 -133.5t188 -323.5h-395q-23 53 -72 86t-113 33q-82 0 -140 -60.5t-58 -142.5q0 -80 58 -139.5t140 -59.5q129 0 185 119h395z" />
    <glyph glyph-name="uni0442" unicode="&#x442;" horiz-adv-x="1155" 
d="M1118 1024v-319h-348v-705h-385v705h-348v319h1081z" />
    <glyph glyph-name="uni0443" unicode="&#x443;" horiz-adv-x="1200" 
d="M45 -451l363 670l-418 805h422l194 -430l193 430h422l-764 -1475h-412z" />
    <glyph glyph-name="uni0444" unicode="&#x444;" horiz-adv-x="1509" 
d="M1448 512q0 -193 -135 -337t-373 -187v-439h-369v439q-238 43 -374 187t-136 337t136.5 337t373.5 187v439h369v-439q238 -43 373 -187t135 -337zM430 512q0 -141 162 -197v394q-162 -56 -162 -197zM920 315q80 27 119.5 79t39.5 118t-40 118t-119 79v-394z" />
    <glyph glyph-name="uni0445" unicode="&#x445;" horiz-adv-x="1196" 
d="M1206 0h-438l-170 246l-170 -246h-438l389 518l-381 506h438l162 -236l162 236h438l-381 -506z" />
    <glyph glyph-name="uni0446" unicode="&#x446;" horiz-adv-x="1402" 
d="M1266 322h127v-533h-367v211h-895v1024h385v-702h365v702h385v-702z" />
    <glyph glyph-name="uni0447" unicode="&#x447;" horiz-adv-x="1366" 
d="M850 0v276q-72 -20 -205 -20q-244 0 -398.5 128t-154.5 343v297h385v-297q0 -131 189 -131q125 0 184 25v403h385v-1024h-385z" />
    <glyph glyph-name="uni0448" unicode="&#x448;" horiz-adv-x="1955" 
d="M1440 1024h385v-1024h-1694v1024h385v-702h279v702h366v-702h279v702z" />
    <glyph glyph-name="uni0449" unicode="&#x449;" horiz-adv-x="1955" 
d="M1587 -211v211h-1456v1024h385v-702h279v702h366v-702h279v702h385v-702h127v-533h-365z" />
    <glyph glyph-name="uni044A" unicode="&#x44a;" horiz-adv-x="1495" 
d="M979 743q209 0 336 -115.5t127 -277.5q0 -150 -127 -250t-338 -100h-610v705h-336v319h704v-281h244zM956 307q47 0 82 18.5t35 43.5q0 29 -32.5 48t-84.5 19h-221v-129h221z" />
    <glyph glyph-name="uni044B" unicode="&#x44b;" horiz-adv-x="1851" 
d="M131 0v1024h369v-281h241q209 0 336 -115.5t127 -277.5q0 -147 -126 -248.5t-337 -101.5h-610zM1335 0v1024h385v-1024h-385zM500 307h219q49 0 84 18.5t35 43.5q0 29 -33 48t-84 19h-221v-129z" />
    <glyph glyph-name="uni044C" unicode="&#x44c;" horiz-adv-x="1257" 
d="M131 0v1024h369v-281h241q209 0 336 -115.5t127 -277.5q0 -147 -126 -248.5t-337 -101.5h-610zM500 307h241q45 0 71 17.5t26 44.5q0 31 -26 49t-69 18h-243v-129z" />
    <glyph glyph-name="uni044D" unicode="&#x44d;" horiz-adv-x="1280" 
d="M625 1053q244 0 419 -159t175 -382t-175.5 -382t-418.5 -159q-221 0 -386 133.5t-188 327.5h395q55 -119 185 -119q100 0 162 84h-248v240h241q-61 78 -155 78q-63 0 -112.5 -33t-72.5 -86h-395q25 190 188 323.5t386 133.5z" />
    <glyph glyph-name="uni044E" unicode="&#x44e;" horiz-adv-x="1878" 
d="M1225 1053q244 0 418 -159t174 -382t-174.5 -382t-417.5 -159q-197 0 -353.5 108.5t-212.5 278.5h-143v-358h-385v1028h385v-348h148q59 164 213.5 268.5t347.5 104.5zM1225 311q82 0 142 59.5t60 141.5t-60 141.5t-142 59.5q-80 0 -140.5 -59.5t-60.5 -141.5
t60.5 -141.5t140.5 -59.5z" />
    <glyph glyph-name="uni044F" unicode="&#x44f;" horiz-adv-x="1310" 
d="M569 1028h611v-1028h-367v285h-162l-250 -285h-415l321 348q-96 53 -148.5 141.5t-52.5 190.5q0 147 126 247.5t337 100.5zM813 592v131h-246q-47 0 -70.5 -18.5t-23.5 -45.5q0 -68 92 -67h248z" />
    <glyph glyph-name="uni0451" unicode="&#x451;" horiz-adv-x="1284" 
d="M430 1133q-82 0 -139.5 57t-57.5 137q0 78 57.5 136.5t139.5 58.5q80 0 138.5 -58.5t58.5 -136.5q0 -80 -58.5 -137t-138.5 -57zM881 1133q-82 0 -139.5 57t-57.5 137q0 78 57.5 136.5t139.5 58.5q80 0 138 -58.5t58 -136.5q0 -80 -58 -137t-138 -57zM657 270
q135 0 177 84l358 -63q-51 -135 -200.5 -227.5t-338.5 -92.5q-244 0 -418 152.5t-174 382.5q0 227 171 387t419 160q262 0 422 -182.5t160 -460.5h-787q47 -140 211 -140zM651 758q-162 0 -205 -131h402q-45 131 -197 131z" />
    <glyph glyph-name="Wgrave" unicode="&#x1e80;" horiz-adv-x="2207" 
d="M950 1491l-264 373h350l264 -373h-350zM618 0l-587 1372h422l278 -645l295 645h156l295 -645l278 645h422l-588 -1372h-155l-330 748l-330 -748h-156z" />
    <glyph glyph-name="wgrave" unicode="&#x1e81;" horiz-adv-x="1798" 
d="M745 1143l-264 373h350l265 -373h-351zM496 0l-506 1024h422l196 -420l213 420h156l213 -420l196 420h422l-505 -1024h-156l-248 481l-248 -481h-155z" />
    <glyph glyph-name="Wacute" unicode="&#x1e82;" horiz-adv-x="2207" 
d="M1249 1491h-350l264 373h350zM618 0l-587 1372h422l278 -645l295 645h156l295 -645l278 645h422l-588 -1372h-155l-330 748l-330 -748h-156z" />
    <glyph glyph-name="wacute" unicode="&#x1e83;" horiz-adv-x="1798" 
d="M1044 1143h-350l264 373h351zM496 0l-506 1024h422l196 -420l213 420h156l213 -420l196 420h422l-505 -1024h-156l-248 481l-248 -481h-155z" />
    <glyph glyph-name="Wdieresis" unicode="&#x1e84;" horiz-adv-x="2207" 
d="M879 1481q-82 0 -139.5 57t-57.5 137q0 78 58.5 136.5t138 58.5t138 -58.5t58.5 -136.5q0 -80 -58 -137t-138 -57zM1329 1481q-82 0 -139 57t-57 137q0 78 58 136.5t138 58.5t138.5 -58.5t58.5 -136.5q0 -80 -58.5 -137t-138.5 -57zM618 0l-587 1372h422l278 -645
l295 645h156l295 -645l278 645h422l-588 -1372h-155l-330 748l-330 -748h-156z" />
    <glyph glyph-name="wdieresis" unicode="&#x1e85;" horiz-adv-x="1798" 
d="M674 1133q-82 0 -139.5 57t-57.5 137q0 78 58.5 136.5t138.5 58.5t138 -58.5t58 -136.5q0 -80 -58 -137t-138 -57zM1124 1133q-82 0 -139 57t-57 137q0 78 58 136.5t138 58.5t138.5 -58.5t58.5 -136.5q0 -80 -58.5 -137t-138.5 -57zM496 0l-506 1024h422l196 -420
l213 420h156l213 -420l196 420h422l-505 -1024h-156l-248 481l-248 -481h-155z" />
    <glyph glyph-name="Ygrave" unicode="&#x1ef2;" horiz-adv-x="1482" 
d="M938 1491h-350l-264 373h350zM1503 1372l-557 -907v-465h-407v461l-559 911h462l299 -534l299 534h463z" />
    <glyph glyph-name="ygrave" unicode="&#x1ef3;" horiz-adv-x="1200" 
d="M453 1143l-265 373h351l264 -373h-350zM45 -451l363 670l-418 805h422l194 -430l193 430h422l-764 -1475h-412z" />
    <glyph glyph-name="endash" unicode="&#x2013;" horiz-adv-x="1257" 
d="M1176 672v-328h-1094v328h1094z" />
    <glyph glyph-name="emdash" unicode="&#x2014;" horiz-adv-x="1964" 
d="M1882 672v-328h-1800v328h1800z" />
    <glyph glyph-name="quoteleft" unicode="&#x2018;" horiz-adv-x="569" 
d="M471 825h-389l190 650h267z" />
    <glyph glyph-name="quoteright" unicode="&#x2019;" horiz-adv-x="569" 
d="M150 1475h389l-191 -650h-266z" />
    <glyph glyph-name="quotesinglbase" unicode="&#x201a;" horiz-adv-x="569" 
d="M150 303h389l-191 -649h-266z" />
    <glyph glyph-name="quotedblleft" unicode="&#x201c;" horiz-adv-x="1089" 
d="M492 825h-390l191 650h266zM920 825h-390l191 650h266z" />
    <glyph glyph-name="quotedblright" unicode="&#x201d;" horiz-adv-x="1089" 
d="M170 1475h389l-190 -650h-267zM598 1475h389l-190 -650h-267z" />
    <glyph glyph-name="quotedblbase" unicode="&#x201e;" horiz-adv-x="997" 
d="M150 303h389l-191 -649h-266zM578 303h389l-191 -649h-266z" />
    <glyph glyph-name="dagger" unicode="&#x2020;" horiz-adv-x="1185" 
d="M1135 1044v-339h-338v-705h-408v705h-338v339h338v328h408v-328h338z" />
    <glyph glyph-name="daggerdbl" unicode="&#x2021;" horiz-adv-x="1185" 
d="M1135 743h-338v-110h338v-340h-338v-293h-408v293h-338v340h338v110h-338v340h338v289h408v-289h338v-340z" />
    <glyph glyph-name="bullet" unicode="&#x2022;" horiz-adv-x="729" 
d="M364.5 403q-120.5 0 -206.5 86t-86 207t86 207t206.5 86t206.5 -86t86 -207t-86 -207t-206.5 -86z" />
    <glyph glyph-name="ellipsis" unicode="&#x2026;" horiz-adv-x="1810" 
d="M311.5 -29q-98.5 0 -169 69t-70.5 165t70.5 164.5t168.5 68.5q96 0 168 -69.5t72 -163.5q0 -96 -70.5 -165t-169 -69zM905.5 -29q-98.5 0 -169 69t-70.5 165t70.5 164.5t168.5 68.5q96 0 168 -69.5t72 -163.5q0 -96 -70.5 -165t-169 -69zM1499 -29q-98 0 -168.5 69
t-70.5 165t70.5 164.5t168.5 68.5q96 0 168 -69.5t72 -163.5q0 -96 -71 -165t-169 -69z" />
    <glyph glyph-name="perthousand" unicode="&#x2030;" horiz-adv-x="2600" 
d="M412 662q-156 0 -263.5 107.5t-107.5 262.5q0 154 107.5 261.5t263.5 107.5q154 0 261 -107.5t107 -261.5q0 -156 -107 -263t-261 -107zM299 -2l844 1374h354l-846 -1374h-352zM412 942q37 0 62.5 26.5t25.5 63.5t-25.5 62.5t-62.5 25.5t-63.5 -25.5t-26.5 -62.5
q0 -39 25.5 -64.5t64.5 -25.5zM1384 -29q-156 0 -263 107.5t-107 263.5q0 154 107.5 261.5t262.5 107.5q154 0 261.5 -107.5t107.5 -261.5q0 -156 -107.5 -263.5t-261.5 -107.5zM2191 -29q-156 0 -263 107.5t-107 263.5q0 154 107.5 261.5t262.5 107.5q154 0 261.5 -107.5
t107.5 -261.5q0 -156 -107.5 -263.5t-261.5 -107.5zM1384 252q37 0 63 26.5t26 63.5t-26 62.5t-62.5 25.5t-63.5 -25.5t-27 -62.5q0 -39 25.5 -64.5t64.5 -25.5zM2191 252q37 0 62.5 26.5t25.5 63.5t-25.5 62.5t-62.5 25.5t-63.5 -25.5t-26.5 -62.5q0 -39 25.5 -64.5
t64.5 -25.5z" />
    <glyph glyph-name="guilsinglleft" unicode="&#x2039;" horiz-adv-x="743" 
d="M702 883l-284 -373l284 -373h-378l-304 373l304 373h378z" />
    <glyph glyph-name="guilsinglright" unicode="&#x203a;" horiz-adv-x="743" 
d="M41 883h379l303 -373l-303 -373h-379l285 373z" />
    <glyph glyph-name="fraction" unicode="&#x2044;" horiz-adv-x="460" 
d="M-348 -2l844 1374h313l-846 -1374h-311z" />
    <glyph glyph-name="uni2070" unicode="&#x2070;" horiz-adv-x="854" 
d="M428 924q-156 0 -265.5 110.5t-109.5 263.5v154q0 154 109.5 263.5t265.5 109.5t264.5 -109.5t108.5 -263.5v-154q0 -154 -109.5 -264t-263.5 -110zM428 1186q27 0 50.5 24.5t23.5 71.5v184q0 45 -21.5 71t-52.5 26q-33 0 -54.5 -27t-21.5 -70v-184q0 -47 22.5 -71.5
t53.5 -24.5z" />
    <glyph glyph-name="uni2074" unicode="&#x2074;" horiz-adv-x="792" 
d="M762 1327v-213h-74v-172h-280v172h-406v166l485 526h201v-479h74zM317 1327h101v107z" />
    <glyph glyph-name="uni2075" unicode="&#x2075;" horiz-adv-x="759" 
d="M375 924q-147 0 -251 78.5t-104 193.5l299 18q16 -37 60 -36q20 0 35.5 16t15.5 37q0 23 -15.5 39t-37.5 16q-37 0 -51 -26l-256 108l80 438h503v-241h-276l-10 -58q20 4 63 4q125 0 215 -84t90 -200q0 -125 -105 -214t-255 -89z" />
    <glyph glyph-name="uni2076" unicode="&#x2076;" horiz-adv-x="774" 
d="M385 924q-143 0 -245.5 94t-102.5 219q0 106 61 217l195 352h315l-162 -295q8 4 21 5q111 0 190.5 -83t79.5 -196q0 -127 -104.5 -220t-247.5 -93zM387.5 1184q22.5 0 40.5 17.5t18 41.5q0 23 -18 40t-40.5 17t-41 -17t-18.5 -40q0 -25 18.5 -42t41 -17z" />
    <glyph glyph-name="uni2077" unicode="&#x2077;" horiz-adv-x="659" 
d="M92 942l219 604h-282v260h616v-151l-252 -713h-301z" />
    <glyph glyph-name="uni2078" unicode="&#x2078;" horiz-adv-x="755" 
d="M379 924q-141 0 -243.5 81.5t-102.5 204.5q0 152 131 217q-94 66 -90 168q4 94 92 162t213 68q127 0 215 -68.5t88 -171.5q0 -96 -88 -158q129 -63 129 -217q0 -121 -100.5 -203.5t-243.5 -82.5zM378.5 1511q18.5 0 32 13.5t13.5 31.5q0 16 -14.5 29.5t-31 13.5
t-30.5 -13t-14 -30q0 -20 13 -32.5t31.5 -12.5zM379 1174q25 0 43 18t18 45t-18.5 44t-42.5 17q-27 0 -46.5 -17t-19.5 -44t19.5 -45t46.5 -18z" />
    <glyph glyph-name="uni2079" unicode="&#x2079;" horiz-adv-x="780" 
d="M391 1825q145 0 248.5 -95.5t103.5 -222.5q0 -102 -63 -217l-195 -348h-315l149 268v15q-115 0 -198.5 86t-83.5 198q0 127 105.5 221.5t248.5 94.5zM389.5 1565q-24.5 0 -43 -18.5t-18.5 -43t18.5 -44t43 -19.5t43 18.5t18.5 44.5q0 25 -18.5 43.5t-43 18.5z" />
    <glyph glyph-name="uni2080" unicode="&#x2080;" horiz-adv-x="854" 
d="M428 -469q-156 0 -265.5 110.5t-109.5 264.5v153q0 154 109.5 263.5t265.5 109.5t264.5 -109.5t108.5 -263.5v-153q0 -154 -109.5 -264.5t-263.5 -110.5zM428 -207q27 0 50.5 24.5t23.5 71.5v185q0 45 -21.5 70.5t-52.5 25.5q-33 0 -54.5 -26.5t-21.5 -69.5v-185
q0 -47 22.5 -71.5t53.5 -24.5z" />
    <glyph glyph-name="uni2081" unicode="&#x2081;" horiz-adv-x="593" 
d="M193 -451v535l-160 -21v248l313 103h143v-865h-296z" />
    <glyph glyph-name="uni2082" unicode="&#x2082;" horiz-adv-x="778" 
d="M57 -451v152l320 367q53 59 53 92q0 43 -41 43q-47 0 -47 -66h-291q0 141 94.5 218t243.5 77q145 0 238.5 -70.5t93.5 -191.5q0 -102 -90 -209l-139 -158h239v-254h-674z" />
    <glyph glyph-name="uni2083" unicode="&#x2083;" horiz-adv-x="761" 
d="M371 -469q-156 0 -251 82t-95 219h290q0 -29 17.5 -50.5t42.5 -21.5q63 0 63 66q0 27 -19.5 47.5t-49.5 20.5h-109v212h109q20 0 34.5 14.5t14.5 35.5q0 23 -14.5 36t-32.5 13q-16 0 -30.5 -11.5t-14.5 -29.5h-291q0 121 100.5 194.5t241.5 73.5q133 0 229 -63.5
t96 -167.5q0 -129 -108 -195q135 -63 135 -211q0 -117 -100 -190.5t-258 -73.5z" />
    <glyph glyph-name="uni2084" unicode="&#x2084;" horiz-adv-x="792" 
d="M762 -66v-213h-74v-172h-280v172h-406v166l485 527h201v-480h74zM317 -66h101v107z" />
    <glyph glyph-name="uni2085" unicode="&#x2085;" horiz-adv-x="759" 
d="M375 -469q-147 0 -251 79t-104 193l299 19q16 -37 60 -37q20 0 35.5 16.5t15.5 36.5q0 23 -15.5 39.5t-37.5 16.5q-37 0 -51 -27l-256 108l80 439h503v-242h-276l-10 -57q20 4 63 4q125 0 215 -84t90 -201q0 -125 -105 -214t-255 -89z" />
    <glyph glyph-name="uni2086" unicode="&#x2086;" horiz-adv-x="774" 
d="M385 -469q-143 0 -245.5 94t-102.5 219q0 106 61 217l195 353h315l-162 -295q8 4 21 4q111 0 190.5 -83t79.5 -196q0 -127 -104.5 -220t-247.5 -93zM387.5 -209q22.5 0 40.5 17.5t18 41.5q0 23 -18 40.5t-40.5 17.5t-41 -17.5t-18.5 -40.5q0 -25 18.5 -42t41 -17z" />
    <glyph glyph-name="uni2087" unicode="&#x2087;" horiz-adv-x="659" 
d="M92 -451l219 605h-282v260h616v-152l-252 -713h-301z" />
    <glyph glyph-name="uni2088" unicode="&#x2088;" horiz-adv-x="755" 
d="M379 -469q-141 0 -243.5 82t-102.5 205q0 152 131 217q-94 66 -90 168q4 94 92 161.5t213 67.5q127 0 215 -68.5t88 -170.5q0 -96 -88 -158q129 -63 129 -217q0 -121 -100.5 -204t-243.5 -83zM378.5 119q18.5 0 32 13t13.5 32q0 16 -14.5 29.5t-31 13.5t-30.5 -13.5
t-14 -29.5q0 -20 13 -32.5t31.5 -12.5zM379 -219q25 0 43 18.5t18 45t-18.5 44t-42.5 17.5q-27 0 -46.5 -17.5t-19.5 -44t19.5 -45t46.5 -18.5z" />
    <glyph glyph-name="uni2089" unicode="&#x2089;" horiz-adv-x="780" 
d="M391 432q145 0 248.5 -95t103.5 -222q0 -102 -63 -217l-195 -349h-315l149 269v14q-115 0 -198.5 86t-83.5 199q0 127 105.5 221t248.5 94zM389.5 172q-24.5 0 -43 -18.5t-18.5 -43t18.5 -44t43 -19.5t43 18.5t18.5 45.5q0 25 -18.5 43t-43 18z" />
    <glyph glyph-name="lira" unicode="&#x20a4;" horiz-adv-x="1331" 
d="M614 340h676v-340h-1214v340h149v76h-119v217h119v49h-119v217h119v51q0 193 141.5 322t370.5 129q213 0 362.5 -126t149.5 -304h-389q0 43 -36 72.5t-87 29.5q-55 0 -89 -36t-34 -87v-51h369v-217h-369v-49h369v-217h-369v-76z" />
    <glyph glyph-name="uni20A8" unicode="&#x20a8;" horiz-adv-x="2289" 
d="M1223 899q0 -145 -63.5 -253.5t-170.5 -162.5l318 -483h-441l-260 440h-74v-440h-389v1372h652q182 0 305 -132t123 -341zM532 1065v-334h168q57 0 95.5 49t38.5 119q0 68 -40 117t-96 49h-166zM1907 633q139 -29 235 -103.5t96 -207.5q0 -162 -123.5 -256.5
t-334.5 -94.5q-238 0 -366 91.5t-126 259.5h414q-4 -41 12.5 -63.5t48.5 -22.5q25 0 38.5 19t13.5 44q0 39 -31 59.5t-150 51.5q-332 86 -331 323q0 147 123.5 233.5t318.5 86.5q219 0 342 -91.5t121 -250.5h-402q8 94 -51 94q-47 0 -47 -62q0 -43 44 -64t155 -46z" />
    <glyph glyph-name="Euro" unicode="&#x20ac;" horiz-adv-x="1376" 
d="M623 506q47 -78 125.5 -123t173.5 -45q213 0 348 82v-402q-164 -47 -348 -47q-260 0 -464 150.5t-268 384.5h-190v137h168q-2 14 -2 43v31h-166v137h186q61 238 267 392.5t469 154.5q236 0 424 -125l-127 -352q-111 111 -297 110q-96 0 -178 -49t-128 -131h574l-47 -137
h-568q-2 -10 -2 -31q0 -29 2 -43h549l-49 -137h-452z" />
    <glyph glyph-name="uni20BD" unicode="&#x20bd;" horiz-adv-x="1363" 
d="M811 485h-236v-69h386v-266h-386v-150h-389v150h-135v266h135v69h-135v267h135v620h666q205 0 343 -129t138 -334q0 -193 -149.5 -308.5t-372.5 -115.5zM575 1065v-313h183q80 0 133 46t53 111.5t-54 110.5t-132 45h-183z" />
    <glyph glyph-name="uni2113" unicode="&#x2113;" horiz-adv-x="1060" 
d="M610 279q111 0 203 133l162 -199q-180 -242 -406 -242q-152 0 -231.5 75t-112.5 218q-18 -8 -55 -22.5t-45 -18.5l-94 256q113 45 166 72v74q0 780 432 780q162 0 257 -99.5t95 -252.5q0 -158 -118 -322t-339 -307q4 -82 23.5 -113.5t62.5 -31.5zM623 1133
q-82 0 -99 -369q139 137 140 285q0 84 -41 84z" />
    <glyph glyph-name="uni2116" unicode="&#x2116;" horiz-adv-x="2541" 
d="M1081 1372h398v-1380h-205l-733 729v-721h-398v1380h205l733 -727v719zM2081 565q-172 0 -297 113t-125 270.5t124 269t298 111.5t299 -111.5t125 -269t-125 -270.5t-299 -113zM2081 836q45 0 78.5 33.5t33.5 78.5q0 43 -33.5 77t-78.5 34q-43 0 -77 -34t-34 -77
q0 -45 34 -78.5t77 -33.5zM1665 489h852v-278h-852v278z" />
    <glyph glyph-name="trademark" unicode="&#x2122;" horiz-adv-x="2217" 
d="M887 1372v-270h-266v-553h-326v553h-266v270h858zM1964 1372h162v-823h-309v311l-199 -196h-100l-201 196v-311h-309v823h161l398 -344z" />
    <glyph glyph-name="partialdiff" unicode="&#x2202;" horiz-adv-x="1200" 
d="M598 -29q-217 0 -377 140.5t-160 334.5q0 176 128 307.5t307 131.5q117 0 178 -33q-78 195 -172 314.5t-318 308.5h482q141 -127 241.5 -271.5t146.5 -273.5t65.5 -225.5t19.5 -174.5q0 -238 -157 -398.5t-384 -160.5zM600.5 319q61.5 0 105.5 44.5t44 105.5t-44 105
t-105.5 44t-105.5 -44t-44 -105t44 -105.5t105.5 -44.5z" />
    <glyph glyph-name="product" unicode="&#x220f;" horiz-adv-x="1617" 
d="M1567 1475v-340h-154v-1586h-407v1586h-394v-1586h-407v1586h-154v340h1516z" />
    <glyph glyph-name="summation" unicode="&#x2211;" horiz-adv-x="1349" 
d="M633 -111h627v-340h-1117v185l410 872l-410 684v185h1076v-340h-555l305 -502z" />
    <glyph glyph-name="minus" unicode="&#x2212;" horiz-adv-x="1011" 
d="M930 840v-328h-848v328h848z" />
    <glyph glyph-name="radical" unicode="&#x221a;" horiz-adv-x="1187" 
d="M362 -328l-382 1024h421l134 -430l292 1209h422l-524 -1803h-363z" />
    <glyph glyph-name="infinity" unicode="&#x221e;" horiz-adv-x="1396" 
d="M937.5 1081q149.5 0 256 -106.5t106.5 -258t-106.5 -258t-256 -106.5t-255.5 107q-111 -106 -258 -107q-150 0 -256.5 106.5t-106.5 258t106.5 258t256.5 106.5q147 0 258 -106q106 106 255.5 106zM424 612q45 0 75.5 31t30.5 74t-30.5 73.5t-75.5 30.5q-43 0 -74 -30.5
t-31 -73.5t31 -74t74 -31zM938 612q43 0 73.5 31t30.5 74t-30.5 73.5t-73.5 30.5t-73.5 -30.5t-30.5 -73.5t30.5 -74t73.5 -31z" />
    <glyph glyph-name="integral" unicode="&#x222b;" horiz-adv-x="1312" 
d="M1073 1495q131 0 219 -41l-102 -305q-59 29 -111 29q-76 0 -129 -38t-59 -108l-86 -1075q-14 -184 -179 -306t-386 -122q-131 0 -220 41l103 305q59 -29 110 -29q76 0 129.5 38t59.5 108l86 1075q14 184 179 306t386 122z" />
    <glyph glyph-name="approxequal" unicode="&#x2248;" horiz-adv-x="1228" 
d="M102 737q0 184 78 278.5t199 94.5q78 0 170 -57.5t123 -57.5q66 0 65 95h217q0 -182 -72.5 -277.5t-183.5 -95.5q-68 0 -171 57t-134 57t-52.5 -25.5t-21.5 -68.5h-217zM102 287q0 184 78 278t199 94q78 0 170 -57t123 -57q66 0 65 94h217q0 -182 -72.5 -277.5
t-183.5 -95.5q-68 0 -171 57.5t-134 57.5t-52.5 -25.5t-21.5 -68.5h-217z" />
    <glyph glyph-name="notequal" unicode="&#x2260;" horiz-adv-x="1093" 
d="M971 717h-287l-51 -82h338v-328h-537l-82 -135h-229l82 135h-82v328h280l52 82h-332v327h530l72 119h229l-71 -119h88v-327z" />
    <glyph glyph-name="lessequal" unicode="&#x2264;" horiz-adv-x="1093" 
d="M971 492l-848 229v278l848 230v-330l-439 -39l439 -39v-329zM971 178h-848v287h848v-287z" />
    <glyph glyph-name="greaterequal" unicode="&#x2265;" horiz-adv-x="1093" 
d="M123 492v329l438 39l-438 39v330l848 -230v-278zM123 178v287h848v-287h-848z" />
    <glyph glyph-name="lozenge" unicode="&#x25ca;" horiz-adv-x="1193" 
d="M598 -20l-557 725l557 694l555 -694zM467 705l131 -179l129 179l-129 167z" />
    <glyph glyph-name="glyph1" horiz-adv-x="0" 
 />
    <glyph glyph-name="glyph2" horiz-adv-x="681" 
 />
    <glyph glyph-name="i.locl" horiz-adv-x="651" 
d="M326 1133q-82 0 -139.5 57t-57.5 137q0 78 58.5 136.5t138.5 58.5t138 -58.5t58 -136.5q0 -80 -58 -137t-138 -57zM131 0v1024h389v-1024h-389z" />
    <glyph glyph-name="a.salt" horiz-adv-x="1302" 
d="M647 1053q217 0 379 -117t162 -281v-655h-348l-19 96q-147 -125 -358 -125q-154 0 -262.5 88t-108.5 236q0 141 119 234.5t356 93.5h232v32q0 47 -41 79t-107 32q-61 0 -100 -24.5t-43 -65.5l-383 39q31 143 179 240.5t343 97.5zM481 313q0 -74 113 -73q117 0 205 63v88
h-176q-142 0 -142 -78z" />
    <glyph glyph-name="aacute.aalt" horiz-adv-x="1302" 
d="M1075 1516l-264 -373h-350l264 373h350zM647 1053q217 0 379 -117t162 -281v-655h-348l-19 96q-147 -125 -358 -125q-154 0 -262.5 88t-108.5 236q0 141 119 234.5t356 93.5h232v32q0 47 -41 79t-107 32q-61 0 -100 -24.5t-43 -65.5l-383 39q31 143 179 240.5t343 97.5z
M481 313q0 -74 113 -73q117 0 205 63v88h-176q-142 0 -142 -78z" />
    <glyph glyph-name="abreve.aalt" horiz-adv-x="1302" 
d="M666 1139q-160 0 -276 108.5t-116 257.5h285q0 -47 31 -81.5t76 -34.5t74.5 34.5t29.5 81.5h285q0 -150 -115.5 -258t-273.5 -108zM647 1053q217 0 379 -117t162 -281v-655h-348l-19 96q-147 -125 -358 -125q-154 0 -262.5 88t-108.5 236q0 141 119 234.5t356 93.5h232
v32q0 47 -41 79t-107 32q-61 0 -100 -24.5t-43 -65.5l-383 39q31 143 179 240.5t343 97.5zM481 313q0 -74 113 -73q117 0 205 63v88h-176q-142 0 -142 -78z" />
    <glyph glyph-name="acircumflex.aalt" horiz-adv-x="1302" 
d="M666 1288l-91 -145h-344l265 373h338l264 -373h-344zM647 1053q217 0 379 -117t162 -281v-655h-348l-19 96q-147 -125 -358 -125q-154 0 -262.5 88t-108.5 236q0 141 119 234.5t356 93.5h232v32q0 47 -41 79t-107 32q-61 0 -100 -24.5t-43 -65.5l-383 39
q31 143 179 240.5t343 97.5zM481 313q0 -74 113 -73q117 0 205 63v88h-176q-142 0 -142 -78z" />
    <glyph glyph-name="adieresis.aalt" horiz-adv-x="1302" 
d="M440 1133q-82 0 -139 57t-57 137q0 78 58 136.5t138 58.5t138.5 -58.5t58.5 -136.5q0 -80 -58.5 -137t-138.5 -57zM891 1133q-82 0 -139.5 57t-57.5 137q0 78 58.5 136.5t138.5 58.5t138 -58.5t58 -136.5q0 -80 -58 -137t-138 -57zM647 1053q217 0 379 -117t162 -281
v-655h-348l-19 96q-147 -125 -358 -125q-154 0 -262.5 88t-108.5 236q0 141 119 234.5t356 93.5h232v32q0 47 -41 79t-107 32q-61 0 -100 -24.5t-43 -65.5l-383 39q31 143 179 240.5t343 97.5zM481 313q0 -74 113 -73q117 0 205 63v88h-176q-142 0 -142 -78z" />
    <glyph glyph-name="agrave.aalt" horiz-adv-x="1302" 
d="M862 1143h-350l-264 373h350zM647 1053q217 0 379 -117t162 -281v-655h-348l-19 96q-147 -125 -358 -125q-154 0 -262.5 88t-108.5 236q0 141 119 234.5t356 93.5h232v32q0 47 -41 79t-107 32q-61 0 -100 -24.5t-43 -65.5l-383 39q31 143 179 240.5t343 97.5zM481 313
q0 -74 113 -73q117 0 205 63v88h-176q-142 0 -142 -78z" />
    <glyph glyph-name="amacron.aalt" horiz-adv-x="1302" 
d="M981 1446v-246h-633v246h633zM647 1053q217 0 379 -117t162 -281v-655h-348l-19 96q-147 -125 -358 -125q-154 0 -262.5 88t-108.5 236q0 141 119 234.5t356 93.5h232v32q0 47 -41 79t-107 32q-61 0 -100 -24.5t-43 -65.5l-383 39q31 143 179 240.5t343 97.5zM481 313
q0 -74 113 -73q117 0 205 63v88h-176q-142 0 -142 -78z" />
    <glyph glyph-name="aogonek.aalt" horiz-adv-x="1302" 
d="M1098 -121q0 -35 26.5 -60.5t71.5 -21.5v-235q-168 -25 -260 48t-92 181q0 117 102 209h-106l-19 96q-147 -125 -358 -125q-154 0 -262.5 88t-108.5 236q0 141 119 234.5t356 93.5h232v32q0 47 -41 79t-107 32q-61 0 -100 -24.5t-43 -65.5l-383 39q31 143 179.5 240.5
t342.5 97.5q217 0 379 -117t162 -281v-655q-90 -49 -90 -121zM481 313q0 -74 113 -73q117 0 205 63v88h-176q-142 0 -142 -78z" />
    <glyph glyph-name="aring.aalt" horiz-adv-x="1302" 
d="M665.5 1071q-112.5 0 -193.5 75t-81 179.5t81 179t193.5 74.5t193.5 -74.5t81 -179t-81 -179.5t-193.5 -75zM665.5 1393q-26.5 0 -47 -20.5t-20.5 -47.5t20.5 -47.5t47 -20.5t47 20.5t20.5 47.5t-20.5 47.5t-47 20.5zM647 1053q217 0 379 -117t162 -281v-655h-348l-19 96
q-147 -125 -358 -125q-154 0 -262.5 88t-108.5 236q0 141 119 234.5t356 93.5h232v32q0 47 -41 79t-107 32q-61 0 -100 -24.5t-43 -65.5l-383 39q31 143 179 240.5t343 97.5zM481 313q0 -74 113 -73q117 0 205 63v88h-176q-142 0 -142 -78z" />
    <glyph glyph-name="atilde.aalt" horiz-adv-x="1302" 
d="M538.5 1270q-30.5 0 -52 -25.5t-21.5 -68.5h-217q0 184 77.5 278t198.5 94q59 0 110.5 -28.5t91.5 -57t71 -28.5q66 0 65 94h217q0 -182 -72.5 -277.5t-183.5 -95.5q-68 0 -161 57.5t-123.5 57.5zM647 1053q217 0 379 -117t162 -281v-655h-348l-19 96
q-147 -125 -358 -125q-154 0 -262.5 88t-108.5 236q0 141 119 234.5t356 93.5h232v32q0 47 -41 79t-107 32q-61 0 -100 -24.5t-43 -65.5l-383 39q31 143 179 240.5t343 97.5zM481 313q0 -74 113 -73q117 0 205 63v88h-176q-142 0 -142 -78z" />
    <glyph glyph-name="ordfeminine.aalt" horiz-adv-x="921" 
d="M457 1323q156 0 273.5 -84t117.5 -199v-460h-273l-12 59q-98 -80 -239 -80q-106 0 -185.5 62.5t-79.5 166.5q0 102 86 169t261 67h139v16q0 27 -24.5 43.5t-59.5 16.5q-72 0 -80 -47l-299 30q25 100 130.5 170t244.5 70zM362 803q0 -35 64 -35q76 0 119 31v45h-96
q-87 0 -87 -41z" />
    <glyph glyph-name="zero.oldstyle" horiz-adv-x="1308" 
d="M655.5 -29q-229.5 0 -391.5 157t-162 378v14q0 219 162 376t391.5 157t390 -157t160.5 -376v-14q0 -221 -160.5 -378t-390 -157zM655 324q59 0 105.5 43t46.5 116v58q0 72 -43 115.5t-108.5 43.5t-109.5 -44t-44 -115v-58q0 -74 45 -116.5t108 -42.5z" />
    <glyph glyph-name="one.oldstyle" horiz-adv-x="917" 
d="M336 0v584l-264 -62v332l467 170h194v-1024h-397z" />
    <glyph glyph-name="two.oldstyle" horiz-adv-x="1241" 
d="M104 0v143l490 363q104 80 104 145q0 47 -27.5 70.5t-70.5 23.5q-45 0 -74.5 -29.5t-29.5 -78.5h-400q0 195 150.5 305.5t380.5 110.5q207 0 339 -101.5t132 -249.5q0 -172 -131 -276l-133 -107h288v-319h-1018z" />
    <glyph glyph-name="three.oldstyle" 
d="M596 -377q-240 0 -384 127t-144 336h389q0 -66 41 -111t102 -45q66 0 108 43t42 103q0 63 -44 106t-116 43h-168v285h168q49 0 84 36t35 83q0 51 -35 85t-84 34q-47 0 -81 -32t-34 -77h-387q0 184 149.5 299t364.5 115q205 0 348.5 -101.5t143.5 -263.5q0 -211 -193 -311
q113 -43 175.5 -131t62.5 -207q0 -182 -151.5 -299t-391.5 -117z" />
    <glyph glyph-name="four.oldstyle" horiz-adv-x="1257" 
d="M1194 254v-297h-137v-305h-369v305h-643v268l764 799h248v-770h137zM440 244h258v278z" />
    <glyph glyph-name="five.oldstyle" 
d="M602 -377q-225 0 -383 124t-158 306l400 25q27 -115 147 -115q55 0 96 43t41 94q0 61 -40.5 103.5t-96.5 42.5q-80 0 -123 -60l-350 144l117 694h774v-324h-469l-27 -157q49 33 146 32q197 0 336 -140t139 -336.5t-161 -336t-388 -139.5z" />
    <glyph glyph-name="six.oldstyle" 
d="M612.5 -29q-221.5 0 -379 146.5t-157.5 345.5q0 160 94 328l322 581h419l-258 -471q18 4 54 4q182 0 314 -132t132 -312q0 -199 -159.5 -344.5t-381 -145.5zM614.5 319q61.5 0 105.5 44.5t44 105.5t-44 105t-105.5 44t-105.5 -44t-44 -105t44 -105.5t105.5 -44.5z" />
    <glyph glyph-name="seven.oldstyle" horiz-adv-x="1048" 
d="M197 -348l370 1024h-501v348h944v-205l-412 -1167h-401z" />
    <glyph glyph-name="eight.oldstyle" horiz-adv-x="1232" 
d="M618 -29q-217 0 -371.5 129t-154.5 320q2 113 55.5 208t157.5 144q-150 96 -143 272q6 147 136 252t320 105q193 0 323 -105.5t130 -265.5q0 -164 -141 -258q106 -49 158.5 -144.5t52.5 -209.5q0 -186 -152 -316.5t-371 -130.5zM616 893q41 0 70 28.5t29 69.5t-29 68.5
t-70 27.5t-69.5 -28.5t-28.5 -67.5q0 -41 28.5 -69.5t69.5 -28.5zM616 319q55 0 94.5 38t39.5 96q0 55 -39 93t-94.5 38t-95.5 -38t-40 -93.5t39 -94.5t96 -39z" />
    <glyph glyph-name="nine.oldstyle" 
d="M606 1053q221 0 379 -146.5t158 -345.5q0 -160 -94 -328l-322 -581h-420l258 471q-18 -4 -53 -4q-182 0 -314 132t-132 312q0 199 159.5 344.5t380.5 145.5zM604.5 705q-61.5 0 -105.5 -44.5t-44 -105.5t44 -105t105.5 -44t105.5 44t44 105t-44 105.5t-105.5 44.5z" />
    <glyph glyph-name="zero.tnum" 
d="M608.5 -29q-225.5 0 -385.5 163t-160 392v322q0 229 160 391t385.5 162t385 -162t159.5 -391v-322q0 -229 -159.5 -392t-385 -163zM608.5 324q59.5 0 103.5 48t44 132v364q0 82 -42 131.5t-106 49.5q-61 0 -104 -50.5t-43 -130.5v-364q0 -84 44 -132t103.5 -48z" />
    <glyph glyph-name="one.tnum" 
d="M848 328h297v-328h-1014v328h320v604l-312 -62v332l510 170h199v-1044z" />
    <glyph glyph-name="two.tnum" 
d="M94 0v205l510 579q111 125 111 195q0 51 -35 83t-82 32q-53 0 -88 -40t-35 -110h-389q0 215 144.5 336t369.5 121q219 0 361.5 -112.5t142.5 -297.5q0 -74 -28.5 -145.5t-57.5 -111.5t-76 -93l-260 -301h446v-340h-1034z" />
    <glyph glyph-name="three.tnum" 
d="M596 -29q-240 0 -384 127t-144 336h389q0 -66 41 -110.5t102 -44.5q66 0 108 43t42 102q0 63 -44 106t-116 43h-168v285h168q49 0 84 36t35 83q0 51 -35 85t-84 34q-47 0 -81 -32t-34 -77h-387q0 184 149.5 299t364.5 115q205 0 348.5 -101.5t143.5 -263.5
q0 -211 -193 -311q113 -43 175.5 -131t62.5 -207q0 -182 -151.5 -299t-391.5 -117z" />
    <glyph glyph-name="four.tnum" 
d="M1178 588v-283h-138v-305h-389v305h-643v221l764 846h268v-784h138zM469 588h182v192z" />
    <glyph glyph-name="five.tnum" 
d="M602 -29q-225 0 -383 124t-158 306l400 25q27 -115 147 -115q55 0 96 43t41 95q0 61 -40.5 103t-96.5 42q-80 0 -123 -59l-350 143l117 694h774v-323h-469l-27 -158q49 33 146 33q197 0 336 -140.5t139 -337t-161 -336t-388 -139.5z" />
    <glyph glyph-name="six.tnum" 
d="M612.5 -29q-221.5 0 -379 146.5t-157.5 345.5q0 160 94 328l322 581h419l-258 -471q18 4 54 4q182 0 314 -132t132 -312q0 -199 -159.5 -344.5t-381 -145.5zM614.5 319q61.5 0 105.5 44.5t44 105.5t-44 105t-105.5 44t-105.5 -44t-44 -105t44 -105.5t105.5 -44.5z" />
    <glyph glyph-name="seven.tnum" 
d="M276 0l388 1024h-529v348h971v-205l-428 -1167h-402z" />
    <glyph glyph-name="eight.tnum" 
d="M608 -29q-217 0 -370.5 129t-153.5 320q0 113 54.5 207t158.5 145q-150 96 -143 272q6 150 135 253.5t319.5 103.5t321.5 -106.5t131 -264.5q0 -164 -141 -258q106 -49 158 -144.5t52 -209.5q0 -186 -152.5 -316.5t-369.5 -130.5zM606 893q41 0 70 28.5t29 69.5t-29 68.5
t-70 27.5q-39 0 -67.5 -28.5t-28.5 -67.5q0 -41 27.5 -69.5t68.5 -28.5zM606.5 319q55.5 0 94 38t38.5 96q0 55 -38.5 93t-94 38t-94.5 -38t-39 -93.5t39 -94.5t94.5 -39z" />
    <glyph glyph-name="nine.tnum" 
d="M606 1401q221 0 379 -146.5t158 -345.5q0 -160 -94 -327l-322 -582h-420l258 471q-18 -4 -53 -4q-182 0 -314 132t-132 312q0 199 159.5 344.5t380.5 145.5zM604.5 1053q-61.5 0 -105.5 -44t-44 -105.5t44 -105.5t105.5 -44t105.5 44t44 105.5t-44 105.5t-105.5 44z" />
    <glyph glyph-name="zero.tnum.oldstyle" 
d="M608.5 -29q-225.5 0 -385.5 157t-160 378v14q0 219 160 376t385.5 157t385 -157t159.5 -376v-14q0 -221 -159.5 -378t-385 -157zM608 324q57 0 102.5 43t45.5 116v58q0 72 -42 115.5t-106 43.5q-61 0 -104 -44t-43 -115v-58q0 -74 44 -116.5t103 -42.5z" />
    <glyph glyph-name="one.tnum.oldstyle" 
d="M842 328h295v-328h-1000v328h307v256l-305 -62v332l508 170h195v-696z" />
    <glyph glyph-name="two.tnum.oldstyle" 
d="M104 0v143l482 363q104 80 104 145q0 47 -27.5 70.5t-70.5 23.5q-45 0 -75 -29.5t-30 -78.5h-399q0 195 150.5 305.5t379.5 110.5q207 0 339.5 -101.5t132.5 -249.5q0 -166 -132 -276l-124 -107h288v-319h-1018z" />
    <glyph glyph-name="three.tnum.oldstyle" 
d="M596 -377q-240 0 -384 127t-144 336h389q0 -66 41 -111t102 -45q66 0 108 43t42 103q0 63 -44 106t-116 43h-168v285h168q49 0 84 36t35 83q0 51 -35 85t-84 34q-47 0 -81 -32t-34 -77h-387q0 184 149.5 299t364.5 115q205 0 348.5 -101.5t143.5 -263.5q0 -211 -193 -311
q113 -43 175.5 -131t62.5 -207q0 -182 -151.5 -299t-391.5 -117z" />
    <glyph glyph-name="four.tnum.oldstyle" 
d="M1178 240v-283h-138v-305h-389v305h-643v221l764 846h268v-784h138zM469 240h182v192z" />
    <glyph glyph-name="five.tnum.oldstyle" 
d="M602 -377q-225 0 -383 124t-158 306l400 25q27 -115 147 -115q55 0 96 43t41 94q0 61 -40.5 103.5t-96.5 42.5q-80 0 -123 -60l-350 144l117 694h774v-324h-469l-27 -157q49 33 146 32q197 0 336 -140t139 -336.5t-161 -336t-388 -139.5z" />
    <glyph glyph-name="six.tnum.oldstyle" 
d="M612.5 -29q-221.5 0 -379 146.5t-157.5 345.5q0 160 94 328l322 581h419l-258 -471q18 4 54 4q182 0 314 -132t132 -312q0 -199 -159.5 -344.5t-381 -145.5zM614.5 319q61.5 0 105.5 44.5t44 105.5t-44 105t-105.5 44t-105.5 -44t-44 -105t44 -105.5t105.5 -44.5z" />
    <glyph glyph-name="seven.tnum.oldstyle" 
d="M276 -348l429 1024h-611v348h1053v-205l-469 -1167h-402z" />
    <glyph glyph-name="eight.tnum.oldstyle" 
d="M608 -29q-217 0 -370.5 129t-153.5 320q0 113 54.5 207t158.5 145q-150 96 -143 272q6 150 135 253.5t319.5 103.5t321.5 -106.5t131 -264.5q0 -164 -141 -258q106 -49 158 -144.5t52 -209.5q0 -186 -152.5 -316.5t-369.5 -130.5zM606 893q41 0 70 28.5t29 69.5t-29 68.5
t-70 27.5q-39 0 -67.5 -28.5t-28.5 -67.5q0 -41 27.5 -69.5t68.5 -28.5zM606.5 319q55.5 0 94 38t38.5 96q0 55 -38.5 93t-94 38t-94.5 -38t-39 -93.5t39 -94.5t94.5 -39z" />
    <glyph glyph-name="nine.tnum.oldstyle" 
d="M606 1053q221 0 379 -146.5t158 -345.5q0 -160 -94 -328l-322 -581h-420l258 471q-18 -4 -53 -4q-182 0 -314 132t-132 312q0 199 159.5 344.5t380.5 145.5zM604.5 705q-61.5 0 -105.5 -44.5t-44 -105.5t44 -105t105.5 -44t105.5 44t44 105t-44 105.5t-105.5 44.5z" />
    <glyph glyph-name="zero.dnom" horiz-adv-x="854" 
d="M428 -18q-156 0 -265.5 110.5t-109.5 263.5v154q0 154 109.5 263.5t265.5 109.5t264.5 -109.5t108.5 -263.5v-154q0 -154 -109.5 -264t-263.5 -110zM428 244q27 0 50.5 24.5t23.5 71.5v184q0 45 -21.5 71t-52.5 26q-33 0 -54.5 -27t-21.5 -70v-184q0 -47 22.5 -71.5
t53.5 -24.5z" />
    <glyph glyph-name="one.dnom" horiz-adv-x="593" 
d="M193 0v535l-160 -21v248l313 102h143v-864h-296z" />
    <glyph glyph-name="two.dnom" horiz-adv-x="778" 
d="M57 0v152l320 366q53 59 53 92q0 43 -41 43q-47 0 -47 -65h-291q0 141 94.5 218t243.5 77q145 0 238.5 -71t93.5 -191q0 -102 -90 -209l-139 -158h239v-254h-674z" />
    <glyph glyph-name="three.dnom" horiz-adv-x="761" 
d="M371 -18q-156 0 -251 81.5t-95 219.5h290q0 -29 17.5 -50.5t42.5 -21.5q63 0 63 65q0 27 -19.5 47.5t-49.5 20.5h-109v213h109q20 0 34.5 14.5t14.5 34.5q0 23 -14.5 36t-32.5 13q-16 0 -30.5 -11t-14.5 -30h-291q0 121 100.5 195t241.5 74q133 0 229 -63.5t96 -168.5
q0 -129 -108 -194q135 -63 135 -211q0 -117 -100 -190.5t-258 -73.5z" />
    <glyph glyph-name="four.dnom" horiz-adv-x="792" 
d="M762 385v-213h-74v-172h-280v172h-406v166l485 526h201v-479h74zM317 385h101v107z" />
    <glyph glyph-name="five.dnom" horiz-adv-x="759" 
d="M375 -18q-147 0 -251 78.5t-104 193.5l299 18q16 -37 60 -36q20 0 35.5 16t15.5 37q0 23 -15.5 39t-37.5 16q-37 0 -51 -27l-256 109l80 438h503v-241h-276l-10 -58q20 4 63 4q125 0 215 -84t90 -200q0 -125 -105 -214t-255 -89z" />
    <glyph glyph-name="six.dnom" horiz-adv-x="774" 
d="M385 -18q-143 0 -245.5 94t-102.5 219q0 106 61 217l195 352h315l-162 -295q8 4 21 4q111 0 190.5 -82.5t79.5 -195.5q0 -127 -104.5 -220t-247.5 -93zM387.5 242q22.5 0 40.5 17t18 42q0 23 -18 40t-40.5 17t-41 -17t-18.5 -40q0 -25 18.5 -42t41 -17z" />
    <glyph glyph-name="seven.dnom" horiz-adv-x="659" 
d="M92 0l219 604h-282v260h616v-151l-252 -713h-301z" />
    <glyph glyph-name="eight.dnom" horiz-adv-x="755" 
d="M379 -18q-141 0 -243.5 81.5t-102.5 204.5q0 152 131 217q-94 66 -90 168q4 94 92 162t213 68q127 0 215 -69t88 -171q0 -96 -88 -158q129 -63 129 -217q0 -121 -100.5 -203.5t-243.5 -82.5zM378.5 569q18.5 0 32 13.5t13.5 31.5q0 16 -14.5 29.5t-31 13.5t-30.5 -13
t-14 -30q0 -20 13 -32.5t31.5 -12.5zM379 231q25 0 43 18.5t18 45.5t-18.5 44t-42.5 17q-27 0 -46.5 -17t-19.5 -44t19.5 -45.5t46.5 -18.5z" />
    <glyph glyph-name="nine.dnom" horiz-adv-x="780" 
d="M391 883q145 0 248.5 -95.5t103.5 -222.5q0 -102 -63 -217l-195 -348h-315l149 268v15q-115 0 -198.5 86t-83.5 198q0 127 105.5 221.5t248.5 94.5zM389.5 623q-24.5 0 -43 -18.5t-18.5 -43t18.5 -44t43 -19.5t43 18.5t18.5 44.5q0 25 -18.5 43.5t-43 18.5z" />
    <glyph glyph-name="zero.numr" horiz-adv-x="854" 
d="M428 494q-156 0 -265.5 110.5t-109.5 263.5v154q0 154 109.5 263.5t265.5 109.5t264.5 -109.5t108.5 -263.5v-154q0 -154 -109.5 -264t-263.5 -110zM428 756q27 0 50.5 24.5t23.5 71.5v184q0 45 -21.5 71t-52.5 26q-33 0 -54.5 -27t-21.5 -70v-184q0 -47 22.5 -71.5
t53.5 -24.5z" />
    <glyph glyph-name="one.numr" horiz-adv-x="593" 
d="M193 512v535l-160 -21v248l313 102h143v-864h-296z" />
    <glyph glyph-name="two.numr" horiz-adv-x="778" 
d="M57 512v152l320 366q53 59 53 92q0 43 -41 43q-47 0 -47 -65h-291q0 141 94.5 218t243.5 77q145 0 238.5 -71t93.5 -191q0 -102 -90 -209l-139 -158h239v-254h-674z" />
    <glyph glyph-name="three.numr" horiz-adv-x="761" 
d="M371 494q-156 0 -251 81.5t-95 219.5h290q0 -29 17.5 -50.5t42.5 -21.5q63 0 63 65q0 27 -19.5 47.5t-49.5 20.5h-109v213h109q20 0 34.5 14.5t14.5 34.5q0 23 -14.5 36t-32.5 13q-16 0 -30.5 -11t-14.5 -30h-291q0 121 100.5 195t241.5 74q133 0 229 -63.5t96 -168.5
q0 -129 -108 -194q135 -63 135 -211q0 -117 -100 -190.5t-258 -73.5z" />
    <glyph glyph-name="four.numr" horiz-adv-x="792" 
d="M762 897v-213h-74v-172h-280v172h-406v166l485 526h201v-479h74zM317 897h101v107z" />
    <glyph glyph-name="five.numr" horiz-adv-x="759" 
d="M375 494q-147 0 -251 78.5t-104 193.5l299 18q16 -37 60 -36q20 0 35.5 16t15.5 37q0 23 -15.5 39t-37.5 16q-37 0 -51 -27l-256 109l80 438h503v-241h-276l-10 -58q20 4 63 4q125 0 215 -84t90 -200q0 -125 -105 -214t-255 -89z" />
    <glyph glyph-name="six.numr" horiz-adv-x="774" 
d="M385 494q-143 0 -245.5 94t-102.5 219q0 106 61 217l195 352h315l-162 -295q8 4 21 4q111 0 190.5 -82.5t79.5 -195.5q0 -127 -104.5 -220t-247.5 -93zM387.5 754q22.5 0 40.5 17t18 42q0 23 -18 40t-40.5 17t-41 -17t-18.5 -40q0 -25 18.5 -42t41 -17z" />
    <glyph glyph-name="seven.numr" horiz-adv-x="659" 
d="M92 512l219 604h-282v260h616v-151l-252 -713h-301z" />
    <glyph glyph-name="eight.numr" horiz-adv-x="755" 
d="M379 494q-141 0 -243.5 81.5t-102.5 204.5q0 152 131 217q-94 66 -90 168q4 94 92 162t213 68q127 0 215 -69t88 -171q0 -96 -88 -158q129 -63 129 -217q0 -121 -100.5 -203.5t-243.5 -82.5zM378.5 1081q18.5 0 32 13.5t13.5 31.5q0 16 -14.5 29.5t-31 13.5t-30.5 -13
t-14 -30q0 -20 13 -32.5t31.5 -12.5zM379 743q25 0 43 18.5t18 45.5t-18.5 44t-42.5 17q-27 0 -46.5 -17t-19.5 -44t19.5 -45.5t46.5 -18.5z" />
    <glyph glyph-name="nine.numr" horiz-adv-x="780" 
d="M391 1395q145 0 248.5 -95.5t103.5 -222.5q0 -102 -63 -217l-195 -348h-315l149 268v15q-115 0 -198.5 86t-83.5 198q0 127 105.5 221.5t248.5 94.5zM389.5 1135q-24.5 0 -43 -18.5t-18.5 -43t18.5 -44t43 -19.5t43 18.5t18.5 44.5q0 25 -18.5 43.5t-43 18.5z" />
    <glyph glyph-name="exclamdown.aalt" horiz-adv-x="675" 
d="M338 1401q98 0 169 -68.5t71 -165.5q0 -94 -72 -163.5t-168 -69.5q-98 0 -169 68.5t-71 165t71 165t169 68.5zM143 819h389v-819h-389v819z" />
    <glyph glyph-name="questiondown.aalt" horiz-adv-x="1024" 
d="M518 1391q90 0 154.5 -62.5t64.5 -150.5t-64.5 -150.5t-154.5 -62.5q-88 0 -153.5 63.5t-65.5 149.5t65.5 149.5t153.5 63.5zM715 872v-53q0 -82 -29 -141.5t-71 -93t-82.5 -62t-69.5 -67.5t-29 -90q0 -37 22.5 -58.5t57.5 -21.5q92 0 92 127h387q0 -193 -137 -318
t-336 -125q-195 0 -335 118t-140 284q0 76 28.5 137t70.5 101t84 76t71 75t29 80v32h387z" />
    <glyph glyph-name="braceleft.aalt" horiz-adv-x="835" 
d="M643 -287q-182 0 -314 126t-132 302v305q0 35 -23.5 62t-54.5 27h-58v323h58q31 0 54.5 26.5t23.5 61.5v305q0 176 132 302t314 126h172v-348h-110q-41 0 -72 -30.5t-31 -73.5v-309q0 -74 -40 -137.5t-124 -84.5q86 -27 125 -88t39 -133v-309q0 -43 31 -74t72 -31h110
v-348h-172z" />
    <glyph glyph-name="braceright.aalt" horiz-adv-x="835" 
d="M193 -287h-173v348h111q41 0 71.5 31t30.5 74v309q0 72 39 133.5t125 87.5q-84 20 -124 84t-40 138v309q0 43 -30.5 73.5t-71.5 30.5h-111v348h173q182 0 314 -126t132 -302v-305q0 -35 23.5 -61.5t54.5 -26.5h57v-323h-57q-31 0 -54.5 -27t-23.5 -62v-305
q0 -176 -132 -302t-314 -126z" />
    <glyph glyph-name="bracketleft.aalt" horiz-adv-x="808" 
d="M809 1331h-277v-1270h277v-327h-666v1925h666v-328z" />
    <glyph glyph-name="bracketright.aalt" horiz-adv-x="808" 
d="M666 1659v-1925h-666v327h276v1270h-276v328h666z" />
    <glyph glyph-name="parenleft.aalt" horiz-adv-x="835" 
d="M795 1288q-135 -70 -219 -227.5t-84 -353.5q0 -195 83.5 -354.5t219.5 -227.5v-391q-303 96 -498 370.5t-195 602.5q0 332 193.5 602t499.5 370v-391z" />
    <glyph glyph-name="parenright.aalt" horiz-adv-x="835" 
d="M41 1288v391q305 -100 498.5 -370.5t193.5 -601.5q0 -328 -194.5 -602.5t-497.5 -370.5v391q135 68 219 227.5t84 354.5q0 197 -84 354t-219 227z" />
    <glyph glyph-name="emdash.aalt" horiz-adv-x="1964" 
d="M1882 877v-328h-1800v328h1800z" />
    <glyph glyph-name="endash.aalt" horiz-adv-x="1257" 
d="M1176 877v-328h-1094v328h1094z" />
    <glyph glyph-name="hyphen.aalt" horiz-adv-x="806" 
d="M725 877v-328h-643v328h643z" />
    <glyph glyph-name="guillemotleft.aalt" horiz-adv-x="1265" 
d="M702 1087l-284 -372l284 -373h-378l-304 373l304 372h378zM1225 1087l-285 -372l285 -373h-379l-303 373l303 372h379z" />
    <glyph glyph-name="guillemotright.aalt" horiz-adv-x="1265" 
d="M41 1087h379l303 -372l-303 -373h-379l285 373zM563 1087h379l303 -372l-303 -373h-379l285 373z" />
    <glyph glyph-name="guilsinglleft.aalt" horiz-adv-x="743" 
d="M702 1087l-284 -372l284 -373h-378l-304 373l304 372h378z" />
    <glyph glyph-name="guilsinglright.aalt" horiz-adv-x="743" 
d="M41 1087h379l303 -372l-303 -373h-379l285 373z" />
    <glyph glyph-name="at.aalt" horiz-adv-x="2025" 
d="M995 -246q-248 0 -465 120t-348 332t-131 464q0 186 75 352t205 289t317.5 194.5t402.5 71.5q219 0 398 -73.5t291.5 -196.5t173 -272.5t60.5 -307.5q0 -236 -124 -362.5t-308 -126.5q-221 0 -309 180h-4q-29 -92 -108 -134t-165 -42q-156 0 -282.5 117.5t-126.5 304
t128 304t279 117.5q63 0 125 -19t88 -54h4l17 51h272v-428q0 -49 24.5 -85t71.5 -36q90 0 91 170q0 276 -156 431t-434 155q-305 0 -491.5 -174t-186.5 -426q0 -258 186.5 -433.5t438.5 -175.5q160 0 276 82l164 -245q-191 -144 -449 -144zM1011.5 532q53.5 0 92.5 38
t39 93.5t-39 93.5t-92.5 38t-92 -39t-38.5 -92.5t38.5 -92.5t92 -39z" />
    <glyph glyph-name="glyph537" horiz-adv-x="0" 
d="M-387 1505h305q0 -150 -122 -258t-288 -108q-168 0 -289.5 108.5t-121.5 257.5h305q0 -63 29.5 -100t76.5 -37q45 0 75 37t30 100z" />
    </font>
</defs>
</svg>
